<?xml version="1.0" encoding="utf-8"?>
<!-- Generator: Adobe Illustrator 15.1.0, SVG Export Plug-In  -->
<!DOCTYPE svg PUBLIC "-//W3C//DTD SVG 1.1//EN" "http://www.w3.org/Graphics/SVG/1.1/DTD/svg11.dtd" [
	<!ENTITY ns_flows "http://ns.adobe.com/Flows/1.0/">
]>
<svg version="1.1"
	 xmlns="http://www.w3.org/2000/svg" xmlns:xlink="http://www.w3.org/1999/xlink" xmlns:a="http://ns.adobe.com/AdobeSVGViewerExtensions/3.0/"
	 x="0px" y="0px" width="44px" height="44px" viewBox="-0.059 -0.059 44 44"
	 overflow="visible" enable-background="new -0.059 -0.059 44 44" xml:space="preserve">
<defs>
</defs>
<path fill="#067CB6" d="M43.882,41.14c0,1.512-1.23,2.742-2.742,2.742H2.743C1.229,43.882,0,42.652,0,41.14V2.743
	C0,1.229,1.229,0,2.743,0H41.14c1.512,0,2.742,1.229,2.742,2.743V41.14z"/>
<rect x="9.599" y="15.084" fill="#FFFFFF" width="5.485" height="19.198"/>
<path fill="#FFFFFF" d="M28.111,15.084c-3.828,0-4.486,1.396-4.799,2.743v-2.743h-5.485v19.198h5.485V23.312
	c0-1.778,0.965-2.742,2.742-2.742c1.736,0,2.744,0.943,2.744,2.742v10.971h5.484v-9.6C34.283,19.198,33.568,15.084,28.111,15.084z"
	/>
<circle fill="#FFFFFF" cx="12.342" cy="10.97" r="2.742"/>
</svg>
