<svg data-name="Layer 1" xmlns="http://www.w3.org/2000/svg" viewBox="0 0 1600 55" aria-hidden="true" focusable="false"><path d="M1600 53.28V0H0v52.72h3.36v.56l1.13.56v.56l1.12.6a.55.55 0 00-.56-.56v-.56h.56l.56.56c.56 0 1.12 0 1.12-.56 0 0-.56 0 0-.56h1.12l.59-.6a.55.55 0 01.56.56h.56l-.56-.56h1.69l1.12-.56.56.56v-.56h1.68l.56.56H18v-.56h1.12v-.57h1.12l.56.57.51-1.16.56.56v.57a.55.55 0 00.56.56.55.55 0 01.56.56l.56-1.12H23l.55-1.13h1.69v.56l-.56.57c.56.56 1.12 0 1.12.56h1.12l.56-.56a.56.56 0 00.56-.57l1.12-.56h1.68l.57.56v.57l.56-.57c.56.57.56 0 1.12 0l.56-.56v.56h1.12V51a.55.55 0 01.56-.56l1.12 1.69c.56 0 .56.56 1.12.56v-.56h.57l1.68.56 1.12-1.13c.56 0 1.12-.56 1.12-1.68h-.56l-.56.56c-.56-.56-.56-1.12 0-1.12 0 0 .56-.56.56 0v.56a.55.55 0 00.56.56v-.56l.56.56.56.56h.56v.56h.56v.57l.57.56h.56l.57 1.15h5v-1.12h-.56c.56-.56.56 0 1.12 0v-.56l.57.56a.55.55 0 01.56.56c0-.56 0-.56.56-.56h.56a.55.55 0 01.56-.56h1.68v-.57l1.68.57v.56l.56-.56h1.13l-.56-.57h2.24l1.12.57h.56c0-.57-.56-.57-.56-1.13v-.56h-1.09a2.06 2.06 0 00-1.68-.56.55.55 0 01.56-.56v-.56l-.56-.56a.55.55 0 01-.56-.56c.56 0 .56-1.12 1.12-.56v.56l.56-.56h.56v.56h.56v.56h.56l.56.56h.56v.56l.56-1.12h1.12l-.56-.56h.56l.57-.56h-.57L64.49 46c.56-.56.56 0 .56-.56h.57V46h.56v.56h.56v.56h.56l.56-1.12h.56l-.56-.56h.56v-1.7V46H69v.56c.56 0 .56 0 .56.56h1.12l-.56-.56h.56s.56-1.12 1.12-.56l.56.56.57-1.12V44.3h-1.15v.57h1.13v-.57h.56v-.56h1.12v-1.12a2 2 0 00.56 1.12.55.55 0 00.56.56l.56-.56h-.56v1.13l.56-.57s-.56-.56 0-.56v1.13l.56-.57H78s.56-.56.56 0l.56-.56v-.56h1.08v.56h.56v.56h.56v-.56h.56c.56.56 1.12.56 1.68 1.13h1.68L86.93 46v-1.7a2.08 2.08 0 00-1.69-.56v-.56l-.56-.56v-.56l-.56-.56v-.56l.56.56.56-.56a.55.55 0 00.56.56.56.56 0 01.57.56l1.68-.56v-.56l1.68-.56h-.56l.56-.56 1.12.56v-.56l.56-.56.56.56.56-.56v-.56c0 .56.57 0 .57 0h1.12l.56.56-.56-1.12.56-.57L95.9 37l-.56-.56v-.56h-.56l.56-.56L94.22 37v.56h.56l.56-.56s0 .56.56 0v-.56h.56v-.56c.56 0 .56 0 .56-.56v.56h.56v-.56l1.12-.56.56.56h1.13v-.56a.55.55 0 01.56.56h-.56v.56h.61l.56.56-.56.56.56.56h.56l.56-.56.56-.56h.56a.55.55 0 00-.56.56c.56 0 .56 0 .56.56h1.12v.57l.56.56c.56.56.56.56.56 1.12h1.12l.57.56.56-.56.56.56h-.56l1.12.56.56-.56v-.56l.56-.56h.47v-.55l.56.56.56-.56 1.69.56c0 .56 0 .56.56 1.12l.56-.56-.56-.56v-.56l-.56-.56h1.68v.56h.56l.56.56h.56v-.56h.56v.56h.56v-.56c1.12 0 1.68 0 2.24.56v-1.12h1.13c1.12-.57 1.68-1.69 2.24-2.25-.56-.56-.56-.56-.56-1.12h1.12a2.06 2.06 0 011.68-.56c0-.56-.56 0-.56-.56h.56v-1.12c.56 0 1.13.56 1.68.56v-.56l.57.56v.56h.61c0 .56 0 .56.56.56v.56h.56v.56l.56.56h1.12c.56 0 .56.56 1.12 0l.56.56v-1.12h1.13l.56-.56a.55.55 0 01.56-.56h1.12v-.56l.56.56h-.56c0 .56.56 0 1.12.56.56-.56 1.12 0 1.68 0h1.12l.56-.56h.57l.56.56v-1.12h.54l-.56-.56h.56l.56-.56h1.68l.56.56c.56 0 0-.56 0-.56l1.12-2.81.56.56 1.13-.56h.56l.56-.56v.56h.56l.56-1.12v.56c.56 0 0-.56.56-.56V28l1.68-.56h.56v-.56c.56 0 1.12 0 1.12-.56h.57c.56 0 1.12-.56 1.68-.56v-1.08h.56v-1.13a.55.55 0 01.56-.56h.56c.56.56 1.12 0 1.68.56.56 0 .56.57 1.12.57 0 .56.56 0 .56 0l1.13.56v.56h1.12l-1.12.56v.56h1.68v-.56l.56 1.12h1.68v-.56h1.12v-.56c.56 0 .56.56 1.13.56v.56h.56l.56-.56c.56 0 .56-.56 1.12 0v.56l1.13 1.08.56-.56s.56.56.56 0V28h.56c0-.56 0-1.12.56-1.12l.57.56v-.56c.56 0 .56 0 .56.56v-.56h1.12l.56 1.12.56-.56.56.56a.55.55 0 01.56.56h3.36V28l.57.56.56 1.12h.56V28H184v-.56a.55.55 0 01.56.56v-.56l.56.56v-.56h.56l.56-.56v.56h.56V28a.55.55 0 00.56.56h.56a.55.55 0 00.56.56h1.12l.57-.56a3.37 3.37 0 002.24-.56l.56.56h.56V28l1.12.56-.56.56c0 .56-.56.56 0 .56l.56-.56 1.69.56.56-.56v.56h1.1l.56-.56h.56v.56c.56 0 .56-.56 1.12-.56h.56v.56h-.56v.56l.56.56v-.56c.56 0 .56.56 1.12.56H203v-.56h1.13l-.57.56 1.7 1.2h1.68a.55.55 0 01.56-.56l1.12-.57.56-.56v-.56l1.12-.56.57.56.56-.56c.56 0-.56 0 0-.56h.57l.56-.56h2.24a.78.78 0 001.12 0c.56 0 .56.56.56 0l-.56-.56h.56l.52.49h.56c0 .56.56.56 1.12.56h.56l.56.56c.56 0 1.68-.56 2.24-.56h.56a.78.78 0 000 1.12v-.56l.56-.56 1.12 1.12v.56H226v.56h.56v-.56h.56v-.56h1.12v-.56h.56V28h-.56l.56-.56.56.56-.56 1.68h1.12l-.56-.56c.56 0 1.12-1.12 1.68-1.12l.57-.56c0 .56 0 1.12.56 1.12l.56-.56.56.56h1.12l.56.56h1.68l.56-.56a.56.56 0 00.57-.56l.56 1.12h1.12l.56-.56v-1.64h1.68v.56c.56 0 .56-.56 1.12-.56v-.56h-.56c-.56-.56-.56 0-1.12 0v-.56a2.06 2.06 0 001.68.56v-.56H244v.56h.56l-.56-1.12c.56-.56 0-.56 0-1.12h.56V23a.55.55 0 00.56-.56.55.55 0 01.57-.56h.56v-.56h3.36l-.56.56.56.56h.56v-.56h.56a.55.55 0 00.56.56v-.56l-.56-.56h.56V23h.56v-1.69h1.13l.56-.56h1.68v-.56h1.12v.56h1.12l.56.56v1.12c.57 0 .57.56.57 1.12h.56a2 2 0 011.68.57h.56c.56-.57.56-.57 1.12-.57 0 .57.56 0 .56 0h.56c0-.56.56 0 .56-.56l.56-.56h.57l.56-.56a.55.55 0 01.56-.56h2.8a.78.78 0 011.12 0s.56.56.56 0v.56c.56 0 0-.56.56-.56h-2.24c0-.56 0-.56-.56 0v-.56l.56-.56v-.56l1.68 1.68 1.12.56V23h-.56l.56.56v-2.25c0-.56-.56-.56-.56-1.12h.52v-.56l1.13.56-1.13.56v.56l.56-.56h.57l.56-.56c.56-.56.56-.56 1.12-.56v.56h1.12l.56.56c0 .56.56 0 .56.56h.56v-1.12c.56 0 .56 0 1.12.56h1.13v-.56l.56-.56h-.56s.56.56.56 0v-1.12L281 18h1.12v-1.74l.56-.56h.56c.56-.56.56-1.12 1.12-1.68h.56l.56 1.12V14c.57.56.57.56.57 1.12v-.56h.56v1.14l.56.56a.55.55 0 01.56-.56.55.55 0 01.56-.56h.56v-.56h-.56a.55.55 0 01.56-.56v.56h1.12c0 .56 1.12.56 1.12 1.12h.56l.56-1.68h.56c.56 0 .56.56 1.13.56h.56v1.12l1.12-.56.56.56h.56v.56c.56 0 .56.56.56 0v-.56c.56 0 1.12.56 1.68.56l.56-.56.57-.56v-.56l.56.56.56-.56v.56h.56v.56a.55.55 0 00.56-.56h.56v.56s.56-.56.56 0v.56l.56-.56.56-.56v-.56l.56-.56c0-.56.56 0 .56 0l.56-.56h.57v-.56l.56-.56v-.56l.56-.56a.55.55 0 01.56.56l1.12.56.56-1.12v-.56h.56c0-.57 0-.57.56-.57a.55.55 0 00.56-.56.55.55 0 00.56-.56l1.12-.56V9h.56v.56h.57V9l.56-.56h1.12V9l.56.56c.56-.56 1.12 0 1.68 0l.56.56a.56.56 0 01.56.57h.56a.56.56 0 00.57.56h.56v-.56h.56l.56-.57 1.68 1.13.56.56.56-.56.56.56h.56c0 .56.56 1.12.56 1.68l.57-.56c.56 0 .56.56 1.12.56a.55.55 0 01.56.56h1.12v.56l-.56-.56h.56v-.56h.56l.56-.56c0-.56.56 0 .56-.56l.56.56 1.12-.56c0 .56.56.56.56 1.12.56 0 .56.56 1.13.56v.56h.56v.56l.56-.56a.55.55 0 01.56.56c.56 0 1.12.56 1.68.56l1.65 2.27h1.69a2.06 2.06 0 001.68.56h3.92v.56l.57.56v.56l.56 1.12v1.12a.55.55 0 00.56-.56l.56-.56h.56l.56-.56c0-.56 0-1.12.56-1.12h.56l-.56.56c.56.56.56 0 1.12 0l.56 1.12.56-.56v.56c.56 0 .56-.56 1.12-.56l.57-.56h2.24v.56h1.12l1.12.56.56-.56v-.56l.56.56h.57l.56.56h.56v-1.17l.56.56h1.12v-.56l-1.12 1.68.56-.56h1.12l.56.56h.56v-.56a.55.55 0 00.56-.56l1.12-.56v-.56h.56l.57-.56h.56v.56h1.12l.56.56h1.12l.56.56h.56v-.56l1.12-.56h1.12v2.24c0-.56 0 0 .57 0 .56-.56.56 0 1.12 0v.56h.57l1.12.56v.56c.56 0 .56 0 1.12-.56l-.56-.56c1.12 0 .56 1.12 1.12 1.12s.56-.56 1.12-.56c.57.56.57.56 1.13.56V23l1.12 1.69.56-.56h.56v-.57c.56 1.13 1.68 1.13 1.68 1.69v-.56l.56.56.56-.56v.56h.56v-1.13h1.13l.56-.57 1.12 1.13a2.06 2.06 0 001.68.56.55.55 0 00.56-.56l-.56-.56.56-1.13v.56l.56-.56v.56h-.56a.55.55 0 00.56.57h.56a.55.55 0 00.56.56h2.25a2.08 2.08 0 01.56-1.69l1.12 1.13-1.12.56h4.48V23h1.13v-.56l.56.56v.56c.56 0 1.12.57 1.68.57l.56-.57h1.12l.56-.56h.56c0 .56 1.12.56 1.12 1.13l.57.56h.56c.56 0 .56.56 1.12.56h1.12l.56 1.12 1.11 1.11h1.12c.56-1.12 1.12-1.12 1.69-1.12L415 25.8l-1.12-.56 1.68-1.12 1.68.56v-.56l.57-.57h1.68l.56-.56h1.12l.56.56h1.12V23l.56-.56.59.56-.57.56c.57 0 1.13.57 1.13 0l.56.57v.56l1.12.56v.56l-.56-.56-1.12.56.56-.56c-.56-.56-.56 0-1.12 0v.56a.56.56 0 01-.57.56.55.55 0 00-.56.56h-1.12l1.1 1.07v.56H424l.56-.56H424v-.56h.56a2.06 2.06 0 011.68-.56L427.9 28c-.56 0 0 .56 0 .56v.56h1.1v-.52h.56v.56s1.12 0 1.12.56v.56c.57 0 1.13-.56 1.69-.56l1.7-1.72h.56l1.12-1.12h-.56c.56 0 1.12.56 1.68 0L438 28c.57 0 0 .56 0 .56h1.69l.56.56h.56l.56-.56h1.12l1.12.56.56-.56h1.69l2.24 1.12.56-.56V28h1.12v.56l.56.56.56.56.56-.56c1.13-.56 1.69-1.12 2.25-1.12l.56-.56c.56 0 .56-.56 1.12-.56h.56l1.11 1.12h.56l.56-.56c.56-.56 1.13 0 1.69 0s.56-.56 1.12-.56v-.56h1.68l.56-.56h-.56l.56-.56c.56 0 1.68-.56 2.25 0l3.36-1.12.56-.57.56.57c.56 0 1.12.56 1.68.56h1.13a2 2 0 011.12-.56L475 23h4.48l1.13.56h1.68l.56-.56h2.8a3.41 3.41 0 012.25-.56l.56.56 1.68-.56.56.56.56-.56A2.06 2.06 0 01493 23v1.13l-.56.56-.56-.56.56-.57h.56c.57 0 .57-.56.57 0v.57h.56v1.67h.56v.56h.56v-2.24h1.12v.56h.56a.55.55 0 01.56-.56v2.8h1.12v-.56c.56 0 .56.56.56 1.12l.56.56h.56v.56h1.13v-1.12c1.12 0 1.68.56 2.8 0a1.73 1.73 0 01-1.12-.56c.56-.56.56-.56 1.12-.56h1.12a.55.55 0 01.56-.56c.56-.56.56-.56 1.13-.56 0 .56 1.12.56 1.12 1.12.56 0 1.68-.56 2.24 0h.56l.56 1.12h1.12l.56-.56-.56-.56c.56-.56.56-.56 1.13 0v.56H516c0 .56.56 0 .56.56h5l.56-.56-.56-.56h-1.13l.56-.56v-.56h.57v-.56l1.12.56-.56.56h2.24l.56.56a1.2 1.2 0 011.08 1.12h1.12l-.56-.56a2 2 0 001.12-.56l.57.56v.56c.56 1.12 1.68.56 2.24 1.12l.56.56a2 2 0 011.12.56c.56.56.56.56 1.12.56h1.13v.56h.58l1.12-.56h2.8l1.12.56v-.56a2 2 0 00.56-1.12l.56-.56h2.25c.56 0 .56 1.12 1.12 1.12h2.24l.56.56.56-.56h.56l.57.56h.56v.56H549a.56.56 0 00.56.57v-1.13c.56-.56 1.12-.56 1.12-1.12h.56v.56l1.12-.56-.56-.56 1.2-.6h-.56v-1.08h2.81v-.56h1.68l1.07-1.68h.56v-.56h1.68v-.57h1.12l-.56.57h1.69v-.57h-.57c0-.56-.56-.56 0-1.12a.56.56 0 01.57.56l.56-.56 1.68.56.56.56h.56l.56.57h1.12l.56.56a.55.55 0 00.56.56h.56v-1.12l.57-.57.56-.56h.56v.56h1.1V23l.56.56v1.69l1.12.56.56-.56h.56c.56-.56 1.13-.56 1.13-1.12h1.68l-.56-.57h-.56V23h.56c.56-.56.56-1.12 1.12-1.12v-.56h1.12l.56-.56c.56 0 1.12 0 1.12.56h4.49l.56.56v.56l.56 1.12h.56v.57l.56.56.56.56.56-.56v-.56c.56 0 .56.56 1.12.56a2 2 0 01.57 1.68v-.57h.56l.56.56h.56a.55.55 0 01.56-.56c.56 0 1.12.56 2.24.56v-.56l.56-.56-.56-.56.56-.56h1.69l.56.56c.56-1.13.56-1.69 1.12-2.25l-.56-.56v-1.12h.64l.56.56v.56h.56v-.56c.56 0 .56 0 .56.56h-.56l.56.56.56-.56.56 1.12c0 .56 0 .56.56.56l.56-.56h.56l.57.56.56-.56h.56v.56h.56l-.56.57.56.56.56-.56c.56 0 .56 0 .56.56h.56v.56h.56v-.56h.56v.56h.47c1.12-1.12 1.69-1.69 2.25-1.12V23l1.68.56v-1.69l1.68-1.12h.56l.56-.56h2.81c.56.56.56.56 1.12.56 0 .56.56 0 .56.56l.56.56h.56v.56l1.12 1.12h1.12V23l1.13.56a2 2 0 00.56 1.13.55.55 0 00.56.56v-.56h-.56l.56.56v.56h.56c0 .56 1.12.56 1.12 1.12h.56V28h1.12l.56-.56.56.56.56-.56h.57l2.24 1.68.56-.56-.56-.56v-.56h1.12V28l.56.56A.55.55 0 00636 28c.56 0 .56 0 .56-.56.56 0 .56.56 1.13 0l-.57-.56v-.56h1.13v.56l.56-.56h.56c0-.56 0-.56.56-.56h.56l.56.56h.56v-.52H641l.56-.56 1.12.56.56-.56-.56-.56v-.56h.56a.55.55 0 01.56-.57l.56-.56h-.56a4.26 4.26 0 012.25-.56V23h.56c.56 0 .56.56 1.12.56a2 2 0 001.68.57v1.12l.56-.56 1.12-.56a.55.55 0 00.56.56c.57-.56 1.13 0 1.69 0v-.56l.56.56-.56.56h1.12l.56.56c-.56 0 0 .56 0 1.12h.56v.56c.56 0 1.12 0 1.12.56V25.8h.56l.56.56.57-.56v.56l.56.56h1.12v-.56h.56v.56h.56v.56c.56 0 .56-.56 1.12 0v1.12c1.12 0 1.12 0 1.68-.56l.56.56.56 1.12c.56 0 1.13-.56 1.13 0h.56l.56.56s-.56.56 0 .56h1.12c0 1.13.56 1.13 1.12 1.13v-1.13l.56.57h.56V32h.56l-.56-.56h-.56v-.57l-.56-.56h.56l.56-.56v.56h.56v-.56a.55.55 0 01.56-.56l1.13.56a.55.55 0 00.56-.56v.56l.56-.56 1.68-.56V28a.55.55 0 01.56-.56h.56l1.11-1.08a.55.55 0 01.56.56c.57-.56.57-.56.57-1.12h1.68l.56.56v-.56h.63v-.56l.56-.56.56.56.56-.56h.56l1.12-.56v-.57l.57-.56.55.56s.57.57.57 0c0 0-.57.57-.57 0h.52v.57h1.12v.56l1.12-.56.56-.57-.56.57.56.56 2.2-1.13v.57h1.12v.56c.57 0 1.13.56 1.69 0v.56c0 .56 0 .56.56.56v.56h-.56a2.06 2.06 0 001.68.56v.56h.56v-1.12h.56v.56h.56V28h1.69v.56h.56V28h.58c-.56 0-.56 0-.56-.56a.55.55 0 01-.56-.56.55.55 0 00-.57-.56h.57v-.52l.56.56h1.12a.55.55 0 00-.56.56l1.12-.56-.56.56v.56a.55.55 0 01.56.56l-1.12.56h1.68V28c.56 0 .56.56 1.12.56V28l.56-.56h.56l.56.56.56-.56v-.56l.56.56h1.69l1.12-.56h1.12a.55.55 0 00.56-.56l.56.56c-.56 0-.56.56-1.12.56l.56.56c0-.56 0-1.12.56-1.12V28h.56l-.56 1.12-.56-.56-.56-.56c.56-.56.56 0 1.12-.56l.56.56h.56v-1.08l-.56-.56.56-.56v-.56h.56v-1.12h.56v1.12h.57v-1.12h.54v.56c0 .56.56.56.56 1.12l.56-.56h.56v.56l.56.56h1.12l-.56-.56c.56 0 0-.56.56-.56l.56.56.56-.56-.56-.56.56-.56h.56v.56l.57-.56.56.56v-.56l.56.56.56.56 1.12-.56h1.12v.56h.56v-.56h.56l-.56-.56a.56.56 0 00.56-.57v.57h.56v.56c.56 0 1.13.56 1.69 1.12l.56.56h.56l.56.56h.56l.56 1.12.56-.56h-.56v-.56h-.56l-.56-.56v1.12l.56.56v-1.12h.56a2.06 2.06 0 01.56 1.68h.56a.55.55 0 00.56.56c.56 0 .56-.56 1.12 0v.56h.56v-.56l.56.56v.56l.57-.56.56.56.56-.56c-.56 0-.56 0-.56-.56h1.12V28c.56.56.56 1.12 1.12 1.12l.56.56.56-1.12.56 1.12c.56 0 0-.56.56-.56v.56c.56 0 .56 0 .56.56h.57c0 .56.56.56.56 1.13h.56l.56.56.56-.56h1.12V32h-.56a.55.55 0 00-.56.56l.56.56h.56v-.56h.56v.56c.56 0 .56-.56 1.12-.56 0-.56.56-.56.56-1.12v-.57c.56.57 1.12 0 1.69 0h.56l.56-.56v.56l.56-.56h.56v-1.15a.55.55 0 01.56.56c.56 0 .56 0 .56-.56h.56v.56l.56-.56.56.56 1.12.56h.56l-.56.56h.56l.57.57V32c.56.56 1.68 1.12 1.68 1.68h.56v.56l.56.56h.56l.56.56h.56l.56.56v.56c.56 0 .56.56 1.13.56.56.56.56.56.56 1.13h.56v.56c.56.56 1.12-.56 1.68 0l1.12-.56h.56a.55.55 0 01.56.56h.56l.56.56h.57l-.57-.56v-2.84l.57 1.12h.56a1.21 1.21 0 011.12 1.13 1.2 1.2 0 001.12 1.12v-1.12h.56l2.24-.57.56.57h.56c0 .56 1.13.56 1.13 1.12h.56v.56c0 .56 0 .56.56.56l.56.56v-.56l.56.56-.56-.56h.63v-.56h.56v.56l2.24 1.12.56.56h-.56v1.12h.56v.56l1.13-1.12h1.12v.56a.55.55 0 00.56.56h.56c1.12.56 1.68 1.13 2.8.56 0-.56-.56 0-.56-.56l1.68-1.12.57.56v-.56l.56.56v.56h.56l.56-.56h1.1l.56-.56v.56H793l.56.56h.56v-.56l.56.56c.56.56.56.56.56 1.13l.56.56h.56V46l.57-.56a.55.55 0 00.56.56h.51l-.56.56h.56v.56a1.79 1.79 0 011.68 1.68l.56-.56v-1.13l1.12.56v-.56a.55.55 0 01.56.56h.56v-.56l.56 1.12.57-.56a.55.55 0 00.56-.56l.56-.56c0-.56 0-.56.56-.56v-1.12a.55.55 0 01.56.56H807l-.56-.56c0 .56 0 .56.56.56v-.56l.56.56v-.56l.56-.57v-.56h.56c.56 0 .56 0 .56.56l-.56.57.56.56.56-.56h.57v-.57h.56v-.56h.56v-.56h1.12v-1.12a2 2 0 00.56 1.12c0 .56.56.56-1.68 1.12l.56-.56h-.56v1.13l.56-.57s-.56-.56 0-.56v1.13l.56-.57h1.12s.56-.56.56 0l.56-.56v-.56H816v.56h.56v.56h.56v-.56h.57c.56.56 1.12.56 1.68 1.13H821l1.71 1.13v-1.7a2.06 2.06 0 00-1.68-.56v-.56l-.56-.56v-.56l-.56-.56.56-.56.56.56.56-.56a.55.55 0 00.56.56.55.55 0 01.56.56l1.69-.56v-.56l1.68-.56h-.56l.56-.56 1.12.56v-.56l.56-.56.56.56.56-.56v-.56c0 .56.56 0 .56 0h1.12l.56.56-.56-1.12-.56-.57 1.69-.56-.57-.56v-.56h-.56l.56-.56 1.13.56v.56h.56l.56-.56s0 .56.56 0v-.56h.56v-.56c.56 0 .56 0 .56-.56v.56h.56l.56.56h1.12v-.56a.55.55 0 01.56.56h-.56v.56h.56l.57.56-.57.56.57.56h.58l.56-.56.56-.56h.56a.55.55 0 00-.56.56c.56 0 .56 0 .56.56h1.12v.57l.56.56c.56.56.56.56.56 1.12H844l.57.56.56-.56.56.56h-.56l1.12.56.56-.56v-.56l.56-.56h.63v-.56l.56.56.56-.56.56.56c0 .56 0 .56.56 1.12l.56-.56-.56-.56v-.56l-.56-.56h1.68v.56h.57l.56.56h1.12v-.56h.56l.56.56h.56v-.56c1.12 0 1.68 0 2.24.56v-.56h1.12a7.63 7.63 0 001.69-2.25c-.56-.56-.56-.56-.56-1.12l.56-.56a2.06 2.06 0 011.68-.56c0-.56-.56 0-.56-.56h.54v-.56c.56 0 1.12.56 1.68.56v-.56h1.12v.56h.57c0 .56 0 .56.56.56v.56h.56v.56l.56.56h1.12c.56 0 .56.56 1.12 0l.56.56v-1.12h1.12l.56-.56a.56.56 0 01.57-.56h1.12v-.56l.56.56h-.56c0 .56.56 0 1.12.56.56-.56 1.12 0 1.68 0h1.12l.56-.56h.56l.56.56v-1.12h.56l-.56-.56h.56l.57-.56h.56l1.12-1.69.56.57c.56 0 0-.57 0-.57l1.12-2.8.56.56L885 28h.56l.57-.56V28h.56l.56-1.12v.56c.56 0 0-.56.56-.56v-.56l.56.56h.56v-.56c.56 0 1.12 0 1.12-.56h.56c.56 0 1.12-.56 1.68-.56v-1.08h.57V23a.55.55 0 01.56-.56h.56c.56.56 1.12 0 1.68.56.56 0 .56.56 1.12.56 0 .57.56 0 .56 0l2.24 1.13v.56h1.13l-1.13.56v.56h1.69v-.57l.56 1.12h1.68v-.56h1.12v-.56c.56 0 .56.56 1.12.56v.56h.56l.57-.56c.56 0 .56-.56 1.12 0v.56l.56 1.12 1.68-.56s.56.56.56 0V28h.56c0-.56 0-1.12.56-1.12l.56.56v-.56c.56 0 .56 0 .56.56v-.56h1.12V28h1.13l.56.56a.55.55 0 01.56.56l1.12-.56V28l.56.56.56 1.12h.56V28h-.56v-.56a.55.55 0 01.56.56v-.56l.56.56v-.56h.56l.56-.56v.56h.57V28c0 .56 0 .56.56.56h.56a.55.55 0 00.56.56h1.12l.56-.56A3.37 3.37 0 00927 28l.57.56h.56V28l1.12.56-.56.56c0 .56-.56.56 0 .56l.56-.56 1.68.56 3.37-.56v.56h1.12l.56-.56h.56v.56c.56 0 .56-.56 1.12-.56h.56v.56h-.56v.56l.56.56v-.56c.56 0 .56.56 1.12.56h1.12v-.56h1.12l-.56.56 1.71 1.2h1.68a.55.55 0 01.56-.56l.56-.57.56-.56v-.56l1.12-.56.56.56-.56-.56c.56 0-.56 0 0-.56h.56l.57-.56h.56l.56.56h1.12a.78.78 0 001.12 0c.56 0 .56.56.56 0l-.56-.63h.56l.56.56h.56c0 .56.56.56 1.12.56h.57l.56.56c.56 0 1.68-.56 2.24-.56h.56a.78.78 0 000 1.12v-.56l.56-.56 2.24.56.56.56h.56v.56h.57v-.56h.56v-.56h1.12v-.56h.56V28h-.56l.56-.56.56.56-.56 1.68h1.12l.56-.56c.56 0 1.12-1.12 1.68-1.12l.57-.56c0 .56 0 1.12.56 1.12l.56-.56-.56.56h1.12V28l.56.56H973l.56-.56a.55.55 0 00.56-.56l.56 1.12h1.69v-1.64l1.68.56c.56 0 .56-.56 1.12-.56v-.56h-.56c-.56-.56-.56 0-1.12 0l.56-.56a2.06 2.06 0 001.68.56v-.56h1.12v.56h.56l-.56-1.12c.56-.56 0-.56 0-1.12h.56V23a.55.55 0 00.56-.56.55.55 0 01.56-.56h.57v-.56h3.36l-.56.56.56.56h.54v-.56a.55.55 0 00.56.56v-.56l-.56-.56h.56V23h.56v-1.69h1.12l.57-.56h1.68v-.56h1.12v.56h1.12l.56.56c.56 0 .56 0 0 1.12.56 0 .56.56.56 1.12h.56a2.05 2.05 0 011.69.57h.56c.56-.57.56-.57 1.12-.57 0 .57.56 0 .56 0h.56c0-.56.56 0 .56-.56l.56-.56h.56l.56-.56a.55.55 0 01.56-.56h2.81a.78.78 0 011.12 0s.56.56.56 0v.56c.56 0 0-.56.56-.56h-1.12V23h-1.12c-.56 0 0-.56-.56-.56v-.56l.56-.56v-.56l1.68.56 1.12.56V23h-.56l.56.56v-2.25c0-.56-.56-.56-.56-1.12h.56v-.56l1.12.56-1.12.56v.56l.56-.56h.56l.56-.56c.57-.56.57-.56 1.13-.56v.56h.56l.56.56c0 .56.56 0 .56.56h.56v-1.12c.56 0 .56 0 1.12.56h1.12v-.56l.56-.56h-.56v.56s.56.56.56 0v-.56l.56-.56v-.56l.57-.56h1.12v-1.69l.56-.56h.56c.56-.56.56-1.12 1.12-1.68h.56l.56 1.12V14c.56.56.56.56.56 1.12v-.56h.56v1.14l1.12-.56a.56.56 0 01.57-.56.55.55 0 01.56-.56h.56v-.56h-.56a.55.55 0 01.56-.56v.56h1.12c0 .56 1.12.56 1.12 1.12h.56v.56h.56c.56 0 .56.56 1.12.56h.56v1.12l1.13-.56h1.13v.56c.56 0 .56.57.56 0v-.56c.56 0 1.12.56 1.68.56l.56-.56.56-.56v-.56l.56.56.56-.56v.56l1.69-.56v.56a.55.55 0 00.56-.56h.56v.56s.56-.56.56 0v.56l.56-.56.56-.56v-.56l.56-.56c0-.56.56 0 .56 0l.56-.56h.56v-.56l.57-.56v-.56l.56-.56a.55.55 0 01.56.56l.56.56.56-1.12v-.56h.56c0-.57 0-.57.56-.57a.55.55 0 00.56-.56.55.55 0 00.56-.56l1.12-.56V9h.56v.56h.56V9l.57-.56h1.12V9l.56.56c.56-.56 1.12 0 1.68 0l.56.56a.55.55 0 01.56.57h.56a.55.55 0 00.56.56h.56v-.56h.57l.56-.57 1.12 1.13.56.56.56-.56.56.56h.56c0 .56.56 1.12.56 1.68l.56-.56c.56 0 .56.56 1.12.56a.56.56 0 01.57.56h1.12v.56l-.56-.56h.56v-.56h.56l.56-.56c0-.56.56 0 .56-.56l.56.56 1.12-.56c0 .56.56.56.56 1.12.56 0 .56.56 1.12.56v.56h.56v.56l.57-.56a.55.55 0 01.56.56c.56 0 1.12.56 1.68.56l2.24 2.25h1.7a2.09 2.09 0 001.69.56h3.92v.56l.56.56v.56l.56 1.12v1.12a.55.55 0 00.57-.56l.56-.56h.56l.56-.56c0-.56 0-1.12.56-1.12h.56l-.56.56c.56.56.56 0 1.12 0l.56 1.12.56-.56v.56c.56 0 .56-.56 1.12-.56l.56-.56h2.25v.56h1.12l.56.56v-.56l.56-.56v-.56l.56.56h.56l.56.56h.56v-1.15l-.56 2.24h1.12v-.56l.57.56.56-.56h1.12l.56.56h.56v-.56a.55.55 0 00.56-.56l1.12-.56v-.56h.56l.56-.56h.56v.56h1.13l.56.56h1.12l.56.56h.56v-.56l-2.24 1.12h1.12l1.12 1.12c0-.56 0 0 .56 0 .56-.56.56 0 1.12 0V23h.56l1.13.56v.57c.56 0 .56 0 1.12-.57l-.56-.56c1.12 0 .56 1.13 1.12 1.13s.56-.57 1.12-.57c.56.57.56.57 1.12.57v-.57l1.12 1.69.56-.56h.56v-.56c.56 1.12 1.69 1.12 1.69 1.68h.56v-.56l.56.56.56-.56v.56h.56v-1.13h1.13l.56-.56 1.12 1.12a2.08 2.08 0 001.69.56.55.55 0 00.56-.56l-.56-.56.56-1.13v.57l.56-.57v.57h-.56a.55.55 0 00.56.56h.56a.55.55 0 00.56.56h2.24a2.09 2.09 0 01.56-1.69l.56 1.13-1.12.56 2.25-.56h2.24V23h1.12v-.56l1.12.56v.56c.56 0 1.12.57 1.68.57l.57-.57h1.12l.56-.56h.56c0 .56 1.12.56 1.12 1.13l.56.56h.56c.56 0 .56.56 1.12.56h1.13l.56 1.12 1.12 1.12h1.12c.56-1.12 1.12-1.12 1.68-1.12l-2.8-.56-.56-.56 1.68-1.12 1.68.56v-.56l.56-.57h1.69l.56-.56h1.15l.56.56h1.12V23l.56-.56.56.56-.56.56c.56 0 1.12.57 1.12 0l.56.57v.56l2.81.56v.56h-1.12l-.57-.56-1.12.56.56-.56c-.56-.56-.56 0-1.12 0v.56a.55.55 0 01-.56.56.55.55 0 00-.56.56h-1.12l1.68 1.12v.56h1.12l.56-.56h-.56v-1.13l-.56.56h.56a2.07 2.07 0 011.69-.56l1.68 1.12c-.56 0 0 .56 0 .56v.56h1.12v-.56h.56v.56s1.12 0 1.12.56v.56c.56 0 1.12-.56 1.68-.56l1.69-1.68h.56l1.12-1.12v.56c.56 0 1.12.56 1.68 0l1.12 1.12c.56 0 0 .56 0 .56h1.69l.56.56h.56V28.6h1.12l1.12.56.56-.56h1.68l2.25 1.12.56-.56V28h1.12v.56l.56.56.56.56.56-.56c1.12-.56 1.68-1.12 2.25-1.12l.56-.56c.56 0 .56-.56 1.12-.56h.56l2.24.56h.56l.56-.56c.56-.56 1.13 0 1.69 0s.56-.56 1.12-.56v-.52h1.68l.56-.56h-.56l.56-.56c.56 0 1.68-.56 2.24 0l2.25-.56.56-.57.56.57c.56 0 1.12.56 1.68.56h1.12a2 2 0 011.12-.56l1.13-1.13h4.48l1.12.56h1.69l.56-.56h2.8a3.38 3.38 0 012.25-.56l.56.56 1.68-.56.56.56.56-.56a2.06 2.06 0 011.68.56v-.56l-.56.56-.56-.56 1.12 1.12h.56c.56 0 .56-.56.56 0v.57h.56v1.68h.57v.56h.56v-2.24h1.12v.56h.56a.55.55 0 01.56-.56v2.8h1.12v-.56c.56 0 .56.56.56 1.12l.56.56h.56v.56h1.13v-1.12c1.12 0 1.68.56 2.8 0a1.73 1.73 0 01-1.12-.56c.56-.56.56-.56 1.12-.56h1.12a.55.55 0 01.56-.56c.56-.56.56-.56 1.12-.56 0 .56 1.13.56 1.13 1.12.56 0 1.68-.56 2.24 0h.56l.56 1.12h1.12l.56-.56-.56-.56c.56-.56.56-.56 1.12 0v.56h2.25c0 .56.56 0 .56.56h5l.57-.56-.57-.56h-1.12l.56-.56v-.56h.56v-.56l1.13.56-.56.56h2.24l.56.56a1.2 1.2 0 011.12 1.12h1.12l-.56-.56h.56l.56.56V28c.56 1.12 1.69.56 2.25 1.12l.56.56a2 2 0 011.12.56c.56.56.56.56 1.12.56h1.12v.57h.56l1.13-.57h2.24l.56-.56 1.12.56v-.56a2 2 0 00.56-1.12l.56-.56h2.25c.56 0 .56 1.12 1.12 1.12h2.24l.56.56.56-.56h.56l.56.56h.56v.56h-.56a.56.56 0 00.56.57v-1.09c.57-.56 1.13-.56 1.13-1.12h.56v.56l1.12-.56-.56-.56 1.12-.56h-.56v-1.12l2.8-.56h1.12v-.56h.57l1.12-1.68h.56v-.57h1.68V23h1.12l-.56.56h1.68V23h-.56c0-.56-.56-.56 0-1.12a.55.55 0 01.56.56l.56-.56 1.69.56 1.68 1.12h.56l.56.57h.56l.56.56a.55.55 0 00.56.56h.56v-1.13l.56-.57h-.56v.57h1.13l.56-1.13 1.12.56v1.69l1.12.56.56-.56h.56c.56-.56 1.12-.56 1.12-1.12h1.7l-.57-.57h-.56V23h.56c.57-.56.57-1.12 1.13-1.12v-.56h1.12l.56-.56c.56 0 1.12 0 1.12.56h1.12l1.68.56h1.69l.56.56V23l.56 1.13h.56v.56l.56.56.56.56.56-.56v-.56c.56 0 .56.56 1.12.56a2.06 2.06 0 01.56 1.68v-.56h.56l.57.56h.56a.55.55 0 01.56-.56c.56 0 1.12.56 2.24.56v-.56l.56-.56-.56-.56.56-.56h1.68l.56.56c.57-1.12.57-1.69 1.13-2.25l-.56-.56v-1.13l1.12-1.12.56.56v.56h.56v-.56c.56 0 .56 0 .56.56h-.55l.56.56.56-.56.56 1.12c0 .56 0 .56.56.56l.56-.56h.56V23h.56v.56h.57l-.57.57.57.56.56-.56c.56 0 .56 0 .56.56h.56v.56h.56v-.56h.56v.56h.56c1.12-1.12 1.68-1.69 2.24-1.12l.56-.57V23l1.69.56V23l1.68-1.12h.56l.56-1.68h2.8c.57.56.57.56 1.13.56 0 .56.56 0 .56.56l.56.56h.56v.56l1.12 1.12h1.13V23l1.12.56a2 2 0 00.56 1.13.55.55 0 00.57.56v-.56h-.57l.57.56v.56h.56c0 .56 1.12.56 1.12 1.12l1.12.56v1.11l.56-.56h.56l.56-.56.56.56.56-.56h.56l1.13 1.68.56-.56-.56-.56v-1.12h.56v.56h1.12V28l.56.56a.55.55 0 00.56-.56c.56 0 .56 0 .56-.56.56 0 .56.56 1.12 0l-.56-.56v-.56h1.12v.56l.56-.56h.56c0-.56 0-.56.57-.56h.56l.56.56h.56v-.52h-.56l.56-.56 1.12.56.56-.56-.56-.56v-.56h.56a.55.55 0 01.56-.57l.56-.56h-.56a4.23 4.23 0 012.24-.56V23h.57c.56 0 .56.56 1.12.56a2 2 0 001.68.57v1.12l.56-.56 1.12-.56a.55.55 0 00.56.56c.56-.56 1.12 0 1.69 0v-.56l.56.56-.56.56h1.12l.56.56c-.56 0 0 .56 0 1.12h.56v.56c.56 0 1.12 0 1.12.56v-1.13l.56.56.56-.56v.56l.56.56h1.12v-.56h.56v1.12c.57 0 .57-.56 1.13 0v1.12c1.12 0 1.12 0 1.68-.56l.56.56.56 1.12c.56 0 1.12-.56 1.12 0h.56l1.69-.56s-.57.56 0 .56h1.12c0 1.13.56 1.13 1.12 1.13v-1.13l.56.57h.56V32h.56l-.56-.56h-.56v-.57l-.56-.56h.56l.56-.56v.56h.56v-.56a.55.55 0 01.56-.56l1.12.56a.55.55 0 00.56-.56v.56l.57-.56 1.68-.56V28a.55.55 0 01.56-.56h.56l1.12-1.12a.55.55 0 01.56.56c.56-.56.56-.56.56-1.12h1.68l.57.56v-.52h.56v-.56l.56-.56.56.56.56-.56h.56l1.12-.56v-.57l.56-.56.56.56s.56.57.56 0c0 0-.56.57-.56 0h.56v.57h1.13v.56l.5-1.68.56-.56-.56.56.56.56V23l.56.56.56-.56v.56h1.12v.57c.56 0 1.12.56 1.68 0v.56c0 .56 0 .56.56.56v.56l.56.56a2.09 2.09 0 001.69.56v.56h.56V25.8h.56v.56h.56v1.12h1.68V28h.56v-.56h.56c-.56 0-.56 0-.56-.56a.55.55 0 01-.56-.56.55.55 0 00-.56-.56h.56v-.56l1.68 1.12h1.13a.56.56 0 00-.57.56l1.13-.56-.56.56v.56a.55.55 0 01.56.56l-1.13.56h1.69V28c.56 0 .56.56 1.12.56V28l.56-.56h.56l.56.56.56-.56v-.56l.56.56h.56l1.13-.56h1.12a.55.55 0 00.56-.56l.56.56c-.56 0-.56 0-.56.56l.56.56c0-.56 0-1.12.56-1.12l-.56 1.68v1.12h.56l.56-.56-.56-.56-.56-.56c.56-.56.56 0 1.12-.56l.56.56h.56v-1.08l-.56-.56.56-.56v-.56h.56v-1.12h.56v1.12h.56v-1.12h.57v.56c0 .56.56.56.56 1.12l.56-.56h.56v.56l.56.56h1.12l-.56-.56c.56 0 0-.56.56-.56l.56.56.56-.56-.56-.56.56-.56h.56v.56l.56-.56.56.56v-.56h-.56l.56.56 1.13-.56.56.56h.56v.56h.56v-.56h.56l-.56-.56a.56.56 0 00.56-.57v.57h.56v.56c.56 0 1.12.56 1.68 1.12l.56.56h.56l1.13.56h.56l.56 1.12.56-.56h-.56v-.56h-.56v.56l.56.56v-1.12h.56a2.06 2.06 0 01.56 1.68h.56a.55.55 0 00.56.56c.56 0 .56-.56 1.12 0v.56h.56v-.56l.56.56v.56l.56-.56.57.56.56-.56c-.56 0-.56 0-.56-.56h1.12v-1.68c.56.56.56 1.12 1.12 1.12v1.12l.56-1.12.56 1.12c.56 0 0-.56.56-.56v.56c.56 0 .56 0 .56.56h.56c0 .56.56.56.56 1.13h.56l.57.56.56-.56h1.12V32h-.56a.55.55 0 00-.56.56l.56.56h.56v-.56h.56l.56.56c.56 0 .56-.56 1.12-.56 0-.56.56-.56.56-1.12v-.57c.56.57 1.12 0 1.68 0h.56l.57-.56v.56l.56-.56h.56v-1.15a.55.55 0 01.56.56c.56 0 .56 0 .56-.56h.56v.56l.56-.56.56.56 1.12.56h.56l-.56.56h.56l.56.57V32c.57.56 1.69 1.12 1.69 1.68h.56v.56l.56.56h.56l.56.56h.56l.56.56v.56c.56 0 .56.56 1.12.56.56.56.56.56.56 1.13h.57v.56c.56.56 1.12-.56 1.68 0l1.12-.56-.56-.57a.56.56 0 01.56.57h.56l.56.56h.56l-.56-.56v-.57h.56v-1.71l.56 1.12h.56a1.22 1.22 0 011.13 1.13 1.2 1.2 0 001.12 1.12v-1.12h.56l2.8-.57.56.57h.56c0 .56 1.12.56 1.12 1.12h.57v.56c0 .56 0 .56.56.56l.56.56v-.56l.56.56-.56-.56h.56v-.56h.56v.56l2.24 1.12.56.56h-.56v1.12h.56v.56l1.12-1.12h1.13v.56a.55.55 0 00.56.56h.56c1.12.56 1.68 1.13 2.8.56 0-.56-.56 0-.56-.56l1.68-1.12.56.56v-.56l.57.56v.56h.56l.56-.56h1.12l.56-.56v.56h-.56l.56.56h.56v.56c.56.57.56.57.56 1.13l.56.56h.56l.56.56V46l.56-.56a.55.55 0 00.56.56h.57l-.57.56h.57v.56a1.79 1.79 0 011.68 1.68v-1.69l1.12.56v-.56a.55.55 0 01.56.56h.56v-.56l.56 1.12.56-.56a.55.55 0 00.56-.56l.56-.56c0-.56 0-.56.57-.56l.56-.56c.56 0 .56.56 1.12.56h-.56l.56-.56h.56v-.56a.55.55 0 00.56.56V44.3l.56-.56c.56 0 .56 0 .56.56l-.56.57.56.56.56-.56 1.68-.57v.57h1.19c0-.57 0-1.13.56-1.13h1.12c.56.56 1.12 1.13 1.12 1.69h1.12l.56.56h.56l1.69-1.12V46l.56-.56.56.56v-.56a.55.55 0 00.56-.56h-.56V46h.56a.55.55 0 00.56.56V46l1.12.56a.55.55 0 01.56.56h-.56l.56.56c.56-.56.56 0 1.12 0l.56-.56.56.56c0-.56 0-.56.57-.56h.56v-1.69h1.12l.56.56h1.12l.56.56.56-.56h1.68v.56h.57l.56.56a.55.55 0 00.56-.56h1.12a.55.55 0 00.56.56l1.68.56v.56h-.56s0 .56.56 0c0-.56.56 0 .56 0l.56.56v.56l2.25 1.12.56-.56v.56h.56v-.56h.56c0 .56 0 .56.56.56 0-.56 0-.56.56-.56v-.56l.56.56v-1.12l.56.56v.56h.56s0-.56.56 0v-.56a.55.55 0 00.56.56l.57-.56h.56l1.12.56c1.68-.56 1.68-.56 2.24 0 .56 0 1.68-.56 2.24 0h2.25v.56l.56-.56h1.12V51h1.12c0 .56.56.56.56 1.13s.56.56.56 1.12l1.13-.56z" fill="#1468b3"/></svg>
