<svg data-name="Layer 1" xmlns="http://www.w3.org/2000/svg" viewBox="0 0 1600 46" aria-hidden="true" focusable="false"><path d="M646.81 14.73c.35-.35.35-.35 0-.71h-.36c0 .36 0 .36.36.71zM647.52 2c-.36 0-.36-.35-.36-.7s.36-.36.71-.36a.35.35 0 00.36.36v.35c-.36-.04-.36.35-.71.35zM627.3 16.15a.35.35 0 01.36-.36c.35 0 .71.36.71 1.07-.36 0-.36.35-.71.35a3.55 3.55 0 01-.36-1.06zm.36 7.09c.35.36.35.36 0 .71zm7.8-19.15c0-.35.36-.71.71-.35a.35.35 0 00.36.35c-.36 0-.36.36-.71.36a.35.35 0 01-.36-.36zm24.82 22c.36 0 .36.35.36.71a.35.35 0 01-.36.35zm-7.8 4.25c.36-.35.36 0 .36 0v.36c-.36-.01-.36-.01-.36-.37zm7.09-14.54c0-.35.36-.35.71-.35a1.22 1.22 0 01.36.71 1.25 1.25 0 01-.36.71c-.71-.01-1.06-.72-.71-1.08zm0 3.9c0 .36-.35.36-.71.36 0-.36-.35-.36-.35-.71 0-.71.35-1.06.71-.71s.71 1.05.35 1.05zm-5 3.55v-.35c.36-.36.36 0 .36.35a.35.35 0 01-.36.36c.43-.01.43-.37.04-.37zm-60.28-7.8a.34.34 0 01.35-.35l.35.35a.35.35 0 11-.7 0zm4.25 9.22c.36-.35.36-.35.36 0s0 .35-.36.71zm3.19 4.61c.36 0 .36-.36.71-.36a.35.35 0 00.36.36c-.36 0-.36.35-.71.35s-.32-.01-.32-.36zM600 11.54v-.36h.35v.36c0 .35 0 .35-.35 0zm-7.09 12.77zM627.3 9.77c0-.71.36-1.42.36-1.07s.35.71.35 1.07 0 1.06-.35 1.06a3.55 3.55 0 00-.36-1.06zm-3.9-5.32a1.22 1.22 0 01.36-.71 1.26 1.26 0 00.35.71 1.26 1.26 0 01-.35.71c-.36-.36-.36-.36-.36-.71zM614.18 14c.71-.35.71 0 .71.36l-.35.35c-.36.02-.36-.33-.36-.71zm4.61 2.84v-.71a.35.35 0 01.36-.36 1.23 1.23 0 00.35.71 1.1 1.1 0 00-.71.36zm7.1-7.09v-.34c0-.35.35-.71.35 0l-.35.36zm75.88 6c0-.35-.35-.35-.35-.7s.35-1.07.71-.71l.35.71zm9.23 2.17c0-.35-.35-.35-.35-.71 0-.71.35-1.06.71-.71l.35.71a.76.76 0 01-.71.71zm4.26-12c0-.36.35-.36.35-.71l.36.35a1.27 1.27 0 01-.36 1.06c-.36-.4-.36-.4-.36-.75zm-13.49 13.77a.35.35 0 00.36.36l-.71.71c-.36 0-.36-.36-.71-.36v-.35c.35-.71.71-.71 1.06-.36zM700 24.31zm29.43-12.77v-.36h.36v.36c0 .35-.36.35-.36 0zm-31.2 3.9a.34.34 0 01.35-.35l.36.35a.36.36 0 01-.71 0zm-106 15.25a1.25 1.25 0 01-.36-.71c0-.71.36-.71.71-.36 0 .36 0 .71.36.71-.39.36-.39.67-.74.36zM716.31-.16c0-.36-.35-.36 0 0zm11.35 24.82c.35-.35.35-.35.35 0s0 .35-.35.71c.34-.37 0-.37 0-.71zm-37.59-4.61c0-.36-.35-.71 0-1.06 0-.36.36-.36.71-.36a1.25 1.25 0 01.36.71c-.36 0-.71.35-1.07.71zm-16.31 1.42a1.22 1.22 0 00-.36-.71c0-.71.36-.71.71-.36 0 .36.36.71 0 1.07.36-.36 0-.36-.35 0zm-1.42 14.18c0 .36-.35.36-.35.71 0-.35-.36-.35-.36-.71s.36-1.06.71-.71c-.34 0 0 .71 0 .71zM670.92-.16a.35.35 0 00-.35-.36l.35-.35c.36 0 .36.35 0 .71zm.36 14.54v1.06c-.36.71-.36.71-.71.71a1.22 1.22 0 00-.36-.71c0-.35.36-1.06.71-1.06-.35-.38 0-.38.36 0zM670.92 30c-.35.35-.35 0-.35 0v-.36c0-.37.35-.02.35.36zm-1.06-2.48l-.36-.36a.35.35 0 01.36-.35l.35.35a.35.35 0 00-.35.34zm13.83-11.71a.34.34 0 01.35-.35.35.35 0 00.36.35zm10.64-10.65c-.33-.36-.33-.71-.33-1.42 0-.36.36-.36.71-.36a.68.68 0 01.29 1.07c-.32.71-.67.71-.67.71zm-2.84 17.37c.35-.35.35 0 .35 0l-.35.36zm-7.09-2.13a1.22 1.22 0 01-.36-.71v-.35c.36-.35.36-.35.71-.35l.36.7c0 .71-.36 1.07-.71.71zm-121.28-8.86v-.36h.35v.36c-.35.35-.35.35-.35 0zm-59.57 5.32c-.36 0-.36-.36-.36-.71a1.22 1.22 0 01.36-.71c.35 0 .35 0 .71.35 0 .36-.36 1.07-.71 1.07zm0 9.22c0 .35 0 .71-.36.71l-.35-.36a1.23 1.23 0 01.71-.35zm-9.93.71a.35.35 0 01.35-.36l.36.36a.35.35 0 01-.36.35c-.35 0-.35 0-.35-.35zm-1.07-11.7V14c0-.35.36-.35.71-.35.36.35.36.71.71 1.06a1.26 1.26 0 00-.35.71c-.71.73-1.07.37-1.07-.33zm97.88 0c0-.36 0-.71.35-.71.36-.36.71 0 .71.71 0 .35-.35.35-.35.7-.36-.35-.71-.35-.71-.7zm-79.79 15.24A.34.34 0 01511 30a.35.35 0 00.36.35l-.36.36a.35.35 0 01-.36-.38zm5-28.72v-.35L516 .9c.35 0 .35.36.71.36.35.35 0 .7-.36.7a1.26 1.26 0 01-.75-.35zm-7.09 21.63c0-.35 0-.71.35-.35v.35a.35.35 0 01-.35.36zm8.16-8.51c-.36-.35-.36-.35 0-.71h.29c0 .36 0 .36-.35.71zM492.55-.16c-.35-.36 0-.71.36-.71a.34.34 0 01.35.35c-.35 0-.35.36-.71.36zm-13.12 15.6c.36-.35.36 0 .36 0 0 .35 0 .35-.36 0zm-4.61-10.28c-.35-.36-.35-.71-.35-1.42 0-.36.35-.36.71-.36a.68.68 0 01.35 1.07c-.35.71-.35.71-.71.71zm5 14.53a1.22 1.22 0 01-.36.71c-.35.36-.71 0-.71-.71 0-.35 0-.7.36-.7a1.23 1.23 0 00.71.35c-.39 0-.39.35-.03.35zm-5.68 9.58a.5.5 0 01-.71 0c0-.36.36-.71.36-1.06a1.3 1.3 0 01.32 1.06zm-1.06-9.22c-.35-.36-.35-.36-.35-.71a1.26 1.26 0 01.35-.71c.35 0 .35.36.71.36 0 .35 0 .7-.71 1.06zm16 1.06v-1.06c.35-.36.71 0 .71.35a1.22 1.22 0 01-.36.71zm-16 4.26c0-.71 0-1.06.35-1.06a1.23 1.23 0 01.71.35c0 .71-.35 1.06-.71 1.06-.03.36-.03 0-.38-.35zM527.3 4.09a.35.35 0 01.36-.35c.35-.36.35 0 .71.35a.35.35 0 01-.36.36c-.35 0-.35-.36-.71-.36zm-45.38 26.24a1.22 1.22 0 01-.36.71l-.35-.35c0-.36 0-.71.35-.71zm.35-9.57c-.35 0-.35-.36-.71-.36v-.35c.36-.36.71-.71 1.06-.36a.35.35 0 00.36.36zm-2.48 11a.34.34 0 01.35-.35h.71c0 .35 0 .35-.35.71-.36-.37-.36-.37-.71-.37zm24.11-12.07c0-.35 0-.7.36-.7.35-.36.7 0 .7.7 0 .36-.35.36-.35.71-.35-.35-.71-.35-.71-.71zm66.67 11c0-.36 0-.71.35-.71.36-.36.71-.36.71.35a1.23 1.23 0 01-.35.71 1.26 1.26 0 00-.71-.35zm5.67-31.21c.36-.35.36 0 .36 0zm-3.54 16.31c0-.35-.36-.35-.36-.7s.36-1.07.71-.71l.35.71c-.35.35-.7.35-.7.7zm-2.13 8.52zm-1.78-8.87a.35.35 0 01.36-.35l.35.35a.34.34 0 01-.35.35zM577 5.51a.34.34 0 01.35-.35c0 .35.36.35.36.71a1.21 1.21 0 00-.36.7c-.35 0-.35-.35-.35-1.06zm-12.46 19.15h.35a.34.34 0 01-.35.35c.35-.01 0-.35 0-.35zM586.88-.16v-.71c.35 0 .35 0 0 .71.35-.36.35 0 0 0zm-1.06 6c0-.36.35-.36.35-.71l.36.35a1.27 1.27 0 01-.36 1.06c0-.32-.35-.32-.35-.67zm-3.91 12.05c-.35-.35-.7-.35-.7-.71s0-.71.35-.71h.71l.35.71c-.35.39-.35.74-.71.74zM539.36 4.45a1.22 1.22 0 01.36-.71 1.26 1.26 0 00.35.71 1.26 1.26 0 01-.35.71c0-.36 0-.36-.36-.71zm-2.13 5.32v-.36c0-.35.36-.35.36 0l-.36.36zm-1.06 13.83c-.71 0-.71-.36 0 0-.35-.36 0-.36 0 0zm-.71-14.19a1.28 1.28 0 01.36-1.06c0-.36.35.35.35 1.06 0 .36-.35 1.07-.35.71-.36.36-.36-.35-.36-.71zm8.87 7.45s-.36-.36 0-.36c0-.35 0-.71.35-.71l.35.36c-.35 0-.35.35-.7.71zm4.61-2.13c0-.35 0-.71.35-.71l.36.36v1.06c-.36-.71-.71-.71-.71-.71zm181.91 14.54c.36 0 .36-.36.71-.36a.35.35 0 00.35.36c-.35 0-.35.35-.7.35a.35.35 0 01-.36-.35zm-169.85 0a.49.49 0 01.71 0 .34.34 0 01-.35.35zm-24.83-13.12c0 .35 0 1.06-.35 1.06s-.36-.35-.71-.35c0-.71.35-1.07.71-1.07 0-.35.35 0 .35.36zm10.28 10.28c-.35-.35-.35-.71-.71-.71l.71-.71h.36c.35 0 .35.36.71.71 0 .36-.36.36-.36.71zm293.62-22a1.22 1.22 0 01.36-.71 1.26 1.26 0 00.35.71 1.26 1.26 0 01-.35.71c0-.34-.36-.34-.36-.69zM472 22.53c-.36.36-.36 0-.36 0 0-.35 0-.35.36 0 .35-.35.35 0 .35 0zm363.83-5.67v-.71a.35.35 0 01.35-.36 1.22 1.22 0 00.36.71c-.37 0-.37 0-.72.36zm0 19.5a.34.34 0 01.35-.35l.36.35zm-1.42-2.48zm-1.07-7.45c0-.35-.35-.35-.35-.71l.71-.71h.3c.36 0 .36.36.71.71a1.23 1.23 0 01-.35.71zM844 9.77c0-.71.36-1.42.36-1.07s.35.71.35 1.07 0 1.06-.35 1.06c-.03-.35-.03-1.06-.36-1.06zm-1.06 0v-.36c0-.35.35-.71.35 0zM845 34.59c-.35.35-.35.35-.7.35l-.36-.35c0-.36 0-.71.36-.71a1.08 1.08 0 01.7.35zm-.7-18.44a.35.35 0 01.35-.36c.35 0 .71.36.71 1.07-.36 0-.36.35-.71.35a.68.68 0 01-.32-1.06zm-22 13.47c-.35-.71 0-1.06 0-1.41 0 .35.36.7 0 1.41zm1.1-24.46c-.35-.36-.35-.71-.35-1.42 0-.36.35-.36.71-.36a.68.68 0 01.35 1.07c-.35.71-.71.71-.71.71zm.36 30.84c0 .35 0 .71-.36.71s-.35 0-.7-.36a1.31 1.31 0 01.35-1.06c.35-.35.71.01.71.71zm20.57-12.4c.35-.36.35 0 0 0zm-13.83 6.73a1.22 1.22 0 01-.36.71l-.35-.35c0-.36 0-.71.35-.71zm-1.42 6c.35 0 .35.36.35.71a.35.35 0 01-.35.36.68.68 0 000-1.04zm3.19-5.67c-.36-.71 0-1.78.35-1.78l.36.36c.35 1.09.02 1.76-.71 1.45zM830.85 14c.71-.35.71 0 .71.36l-.35.35c-.36.02-.36-.33-.36-.71zm.36 6l-.71.71c-.36 0-.36-.36-.71-.36V20c.35-.36.71-.71 1.06-.36a.35.35 0 01.36.41zm20.92-16c0-.35.35-.71.71-.35a.34.34 0 00.35.35c-.35 0-.35.36-.71.36a.35.35 0 01-.35-.27zm24.11 11.7c0-.35.36-.35.71-.35a1.23 1.23 0 01.35.71 1.26 1.26 0 01-.35.71c-.35.09-.71-.62-.71-.98zm11.7-1.41v1.06c-.35.71-.35.71-.71.71a1.23 1.23 0 00-.35-.71c0-.35.35-1.06.71-1.06 0-.29.35-.29.35.09zm-.35-14.45a.35.35 0 00-.36-.36l.36-.35c.35 0 .71.35 0 .71zm-1.06 27.66l-.36-.36a.35.35 0 01.36-.35l.35.35zM877 26.08c.35 0 .35.35.35.71a.34.34 0 01-.35.35zM887.59 30c-.36.35-.36 0-.36 0v-.36c.36-.37.36-.02.36.36zm1.06 6.38c0-.35-.35-.35-.35-.71s.35-1.06.71-.71l.35.71c-.36.33-.71.33-.71.69zm11.7-20.57a.35.35 0 01.36-.35.34.34 0 00.35.35zm-9.57 15.59a.35.35 0 01.36-.36c.35-.35.35 0 .7.36a.34.34 0 01-.35.35c-.35 0-.71 0-.71-.35zm0-9.93a1.23 1.23 0 00-.35-.71c0-.71.35-.71.71-.36 0 .36.35.71 0 1.07 0-.36-.36-.36-.36 0zm-45.39 9.22A1.22 1.22 0 00845 30c0-.71.36-.71.71-.36 0 .36.36.71 0 1.07.39-.38.03-.38-.32-.02zm18.08-16v-.35s.36-.36.36 0c0-.36 0 0-.36.35zm-8.86 21.63c0-.35-.35-.35-.35-.71 0-.71.35-1.06.71-1.06a1.23 1.23 0 01.35.71c0 .35 0 .35-.71 1.06.39-.32.39.04 0 .04zm-34-6.38h-.36c0-.36-.35-.71-.71-1.07a1.29 1.29 0 01.36-1.06h.71a1.12 1.12 0 01.35.71c-.04.75-.04 1.1-.39 1.48zm56-10.29c0 .36-.36.36-.71.36 0-.36-.36-.36-.36-.71 0-.71.36-1.06.71-.71a1.73 1.73 0 01.35 1.1zM864.18 2c-.35 0-.35-.35-.35-.7s.35-.36.71-.36a.35.35 0 00.35.36v.35a1.23 1.23 0 01-.71.35zm-15.24 31.88c.35-.36.35 0 .35 0s0 .35-.35 0zm20.21-3.55c.35-.35.35 0 .35 0v.36a.35.35 0 01-.35-.36zm-2.84 0a.5.5 0 01.71 0v.36a.34.34 0 01-.35.35c0 .36-.36-.04-.36-.71zm5.32-7.09v-.35c.36-.36.36 0 .36.35a.35.35 0 01-.36.36zM867 36.36c0 .36-.35.36-.71.36 0-.36-.35-.36-.35-.71.35 0 .35-.36.71-.36s.73.35.35.71zm-46.43-13.83c0-.35.35-.35 0 0 .35-.35.35 0 .35 0l-.35.36c.35-.36 0-.36 0-.36zm-41.85 7.8a.5.5 0 01.71 0v.36a.34.34 0 01-.35.35c0 .36-.36-.04-.36-.71zm-2.83-15.6v-.35s.35-.36.35 0c0-.38 0 0-.35.35zM776.6 2c-.36 0-.36-.35-.36-.7s.36-.4.76-.4a.35.35 0 00.35.36v.35c-.35 0-.35.39-.75.39zm-12.06 2.09c0-.35.35-.71.71-.35a.34.34 0 00.35.35c-.35 0-.35.36-.71.36a.35.35 0 01-.35-.36zm-6.74 26.6a1.23 1.23 0 00-.35-.71c0-.71.35-.71.71-.36 0 .36.35.71 0 1.07.35-.36 0-.36-.36 0zm26.2-7.45v-.35c.36-.36.36 0 .36.35a.35.35 0 01-.36.36zm1.78-7.8a.34.34 0 01.35-.35l.36.35a.36.36 0 01-.71 0zm1.77 8.87zm-6 6c.35-.35.35 0 .35 0v.36a.35.35 0 01-.34-.34zm-24.82-7.09c.35.36.35.36 0 .71zm62.41-3.19c0-.36-.36-.71 0-1.06 0-.36.35-.36.71-.36a1.26 1.26 0 01.35.71c-.35 0-.35.35-1.06.71zm-62.41-3.9a.35.35 0 01.35-.36c.36 0 .71.36.71 1.07-.35 0-.35.35-.71.35a.68.68 0 01-.34-1.04zm-12.05 14.56c-.35-.71 0-1.78.35-1.78l.36.36c.35 1.06 0 1.73-.71 1.42zm2.13 3.19zM743.26 14c.71-.35.71 0 .71.36l-.35.35c-.36.02-.36-.33-.36-.71zm2.48 12.41c0-.35-.35-.35-.35-.71l.71-.71h.35c.36 0 .36.36.71.71a1.23 1.23 0 01-.35.71zm10.64-16.64c0-.71.36-1.42.36-1.07s.35.71.35 1.07 0 1.06-.35 1.06c0-.35 0-1.06-.36-1.06zm-8.15 7.09v-.71a.35.35 0 01.35-.36 1.22 1.22 0 00.36.71c-.36 0-.36 0-.71.36zm7.09-7.09v-.36c0-.35.35-.71.35 0zm-2.84-5.32a1.22 1.22 0 01.36-.71 1.26 1.26 0 00.35.71 1.26 1.26 0 01-.35.71c0-.36-.36-.36-.36-.71zM788.65 30a1.26 1.26 0 01-.35.71c-.36 0-.36 0-.71-.36 0-.35 0-.71.35-.71 0-.37.71-.02.71.36zm24.47 6v.71c-.35-.36-.35-.36 0-.71zm-.35-20.22a.34.34 0 01.35-.35.34.34 0 00.35.35zM803.9-.16c0-.36-.35-.36 0 0zm9.57 20.56a1.23 1.23 0 01-.35-.71v-.35c.35-.35.35-.35.71-.35l.35.7c0 .71-.35 1.07-.71.71zm-1.06 11.71c0-.36 0-.36-.35-.71h.71a.34.34 0 00.35.35c-.35 0-.71 0-.71.36zm-8.51-.71a.34.34 0 01-.35.35c-.36 0-.36-.35-.71-.35a.35.35 0 01.35-.36c.36-.04.71-.04.71.36zm15.25-7.09c.35 0 .71.35.35 1.06 0 .35-.35.71-.71.35s-.7-.71-.7-1.06a1.3 1.3 0 011.06-.35zm-3.9.35c.35-.35.35-.35.35 0s0 .35-.35.71c.35-.37 0-.37 0-.71zm3.9 4.61c-.36 0-.36.35-.71.35a.34.34 0 00-.35-.35c.7 0 .7-.36 1.06 0zM817 11.54v-.36h.36v.36c.02.35-.36.35-.36 0zM800-.16a.35.35 0 00-.35-.36l.35-.35c.35 0 .71.35 0 .71zm-1.42 18.08c0-.35-.35-.35-.35-.71 0-.71.35-1.06.71-.71l.35.71a.76.76 0 01-.71.71zm1.77-3.54v1.06c-.35.71-.35.71-.7.71a1.22 1.22 0 00-.36-.71c0-.35.36-1.06.71-1.06 0-.38.35-.38.35 0zm-1.41 13.12l-.36-.36a.35.35 0 01.36-.35l.35.35a.35.35 0 00-.35.36zm-9.58-12.06a.35.35 0 00.36.35 1.22 1.22 0 01-.36.71c-.35.36-.71-.71-.35-1.06h.35l-.35-.35c0-.36.35-1.07.71-.71l.35.71c-.35.35-.35.35-.71.35zm.36 11c-.36 0-.36-.35-.36-.71a.35.35 0 01.36-.35zM800 30c-.35.35-.35 0-.35 0v-.36c.35-.37.35-.02.35.36zm1.06 6.38c0-.35-.35-.35-.35-.71s.35-1.06.71-.71l.35.71c-.35.33-.71.33-.71.69zm1.78-30.49c0-.36.35-.36.35-.71l.36.35a1.27 1.27 0 01-.36 1.06c-.35-.37-.35-.37-.35-.72zM789 19.69c0 .36-.36.36-.71.36 0-.36-.36-.36-.36-.71 0-.71.36-1.06.71-.71a1.73 1.73 0 01.36 1.06zm14.54 1.42c0 .36-.36.36-.71.36a1.22 1.22 0 00-.36-.71c0-.71.36-.71.71-.36.37 0 .72.36.37.71zm-422.34-6c0-.36 0-.71.35-.71.36-.36.71 0 .71.71 0 .35-.35.35-.35.7zM184.75 23.6c-.71 0-.71-.36 0 0-.35-.36 0-.36 0 0zm-5.67 7.8h.35v.35zm-1.42 2.48c.35-.36.35 0 .35 0 .36 0 .36.35-.35 0 .34.35.34 0 0 0zm6.74 1.06a1.23 1.23 0 01-.71-.35v-.36a1.26 1.26 0 00.71-.35c.35 0 .35.71.35.71zm5-30.49a1.22 1.22 0 01.36-.71 1.26 1.26 0 00.35.71 1.26 1.26 0 01-.35.71c-.04-.36-.04-.36-.4-.71zm5 28.72c-.36-.35-.36-.71 0-.71h.35c.36 0 .71.36 1.06.36-.35 0-.7.35-1.06.35-.07.35-.42 0-.42 0zm-17-5zm8.87-18.44v-.32c.35-.35.35-.35.71 0v.36zM184 9.41a1.28 1.28 0 01.36-1.06c.35-.36.71.35.71 1.06 0 .36-.36 1.07-.36.71-.71.36-.71-.35-.71-.71zm-10.28-5c-.36 0-.71-.36-1.06-.36l.35-.35c.35-.36.71 0 .71.35.39.04.04.4.04.4zm-15.21 10.32h-.35c-.36-.35-.36-.35 0-.71h.35v-.71a.35.35 0 01.36.36 1.28 1.28 0 01-.36 1.06zm0 0zm37.59 2.13l-.36-.36a1.25 1.25 0 01.36-.71l.35.36a1.12 1.12 0 01-.35.71zm-38.65 4.61h-1.07s-.35-.36 0-.36c0-.71.36-.35 1.07.36zm-1.07-19.86v-.35l.36-.36a1.25 1.25 0 01.71.36c.35.35 0 .7-.36.7a1.23 1.23 0 00-.71-.35zm1.07 19.86h1.06a.67.67 0 01-1.06 0zM161 33.52a1.3 1.3 0 01-.35-1.06l.35-.35c0 .35.36.35.36.71v.35a.35.35 0 01-.36.35zm-1.77-6.38a.76.76 0 01-.71-.71.34.34 0 00-.35-.35.67.67 0 010-1.07 1.31 1.31 0 011.06-.35c.35 0 .35.35.35 1.06v1.07zm5-2.13l.71.71v.36c-.76-.36-.76-.71-.76-1.08zm-5.67 6zm105.67-15.6l.36-.35.35.35-.35.35a.35.35 0 01-.41-.32zM259.57 4.8a.68.68 0 01.36-1.06 1.12 1.12 0 01.71.35c.35.36 0 1.07-.36 1.42 0-.35-.35-.35-.71-.71zm-16.31 25.53zm9.58-9.57c-.36 0-.36-.36-.71-.71a.35.35 0 01.35-.36c.36-.35.71-.35 1.07.36v.35c-.36 0-.36.36-.71.36zM153.55 31.4l-.36-.36v-.35a1.1 1.1 0 01.71-.36.35.35 0 01.36.36c.35.31 0 .71-.71.71zm94.32-16.31a.48.48 0 010 .7c-.35-.35-.35-.35 0-.7zm16 13.82c0 .36-.35.71-.71 1.07h-.35c0-.36-.36-.71-.36-1.07a1.21 1.21 0 01.36-.7.49.49 0 01.71 0c.31 0 .66.35.31.7zm.71-9.92v1.06h-.36c-.35-.36-.35-.36-.35-.71a1.26 1.26 0 01.35-.71.35.35 0 01.32.37zm-2.48 5.32zm.35-1.78c.36-.35.36 0 .36 0zm-2.13-7.44c0 .35-.35.35-.35.7-.71-.35-1.07-.35-1.07-.7s0-.71.36-.71c.31-.38 1.02 0 1.02.71zm-58.15-.36c0-.35 0-.71.35-.71l.36.36a1.28 1.28 0 01-.36 1.06c-.04-.71-.04-.71-.39-.71zm40.42 11a.35.35 0 01.36-.35h.71c0 .35 0 .35-.36.71-.39-.01-.75-.01-.75-.37zm-44 .71a1.26 1.26 0 00-.35-.71c.35-.35.71-.35.71-.71h.35a.76.76 0 01.71.71c-.35.36-.35.36-.71.71zm0 7.8h-.35l.35-.35zm22.7-22.69v-.36h.35v.36c-.01.34-.01.34-.36-.01zm-2.49 17.73c.71-.36.71 0 1.07 0l-.36.35c-.36-.01-.36-.01-.72-.36zm5-4.26c0-.35-.36-.35-.36-.7l.36-.36.35.36c-.04.68-.04.68-.39.68zM472 28.21c.35 0 .71-.36.71 0s.35.7.35 1.06-.35.71-.71 1.06h-.71c0-.35-.35-.71-.71-1.06a1.27 1.27 0 01.36-1.06.49.49 0 01.71 0zM240.78 6.57c-.35 0-.35-.35-.35-1.06l.35-.35.71.71c0 .35-.36.35-.71.7zm-1.06-6.73a.49.49 0 010-.71c.35 0 .35 0 0 .71zm21.63 29.78c-.36-.71 0-1.06 0-1.41v1.41zM58.87-.52c.35-.35.35 0 .35 0zm.7 6a.35.35 0 01.36-.35c0 .35.35.35.35.71a1.22 1.22 0 00-.35.7c-.36.03-.71-.32-.36-1.03zM47.16 24.66h.36a.35.35 0 01-.36.35zm-17.37 5a.34.34 0 01.35-.35 1 1 0 01.71 1.42l-.35.27c-.36 0-.71-.67-.71-1.38zm1.77-14.89c0-.35 0-.71.35-.71v1.07zm13.83-3.19v-.36h.35v.36c0 .31 0 .31-.35-.04zM69.5 25.72l.36-.35h.71c0 .35-.36.35-.36.71-.35 0-.71 0-.71-.36zm.71 4.61h.36v.36zm-6.73-13.12c0-.35 0-.71.35-.71.35-.35.71.36.71.71s-.36.36-.36.71c-.35 0-.35-.35-.7-.71zm5-2.83c.35-.36.71-.36.71-.71l.71.71c-.36.35-.36.35-.71.35a1.23 1.23 0 01-.75-.35zM22 4.45a1.23 1.23 0 01.35-.71 1.26 1.26 0 00.35.71 1.26 1.26 0 01-.35.71c-.01-.36-.35-.36-.35-.71zm-3.9 5a1.31 1.31 0 01.35-1.06c0-.36.35.35.35 1.06 0 .36-.35 1.07-.35.71-.36.32-.36-.39-.36-.75zm.35 14.19c-.35 0-.35-.36 0 0zm0-7.45c0 .35 0 1.06-.35 1.06s-.36-.35-.71-.35c0-.71.35-1.07.71-1.07-.01-.39.34-.04.34.32zM9.93 4.09a.34.34 0 01.35-.35c.36-.36.36 0 .71.35a.35.35 0 00-.35.36 1.22 1.22 0 01-.71-.36zm7.45 26.6c-.36 0-.36 0-.71-.36v-1.06c.71-.36 1.06 0 1.06.35s-.35.71-.35 1.07zm11.34-4.26a1.26 1.26 0 00-.35-.71l.71-.71h.35c.36 0 .36.36.71.71 0 .36-.35.36-.35.71zM19.86 9.77v-.36c0-.35.35-.35.35 0zm133.69 6.73c-.71 0-.71-.35-.36-.71 0-.35.36-.7.71-1.06v1.42a.34.34 0 01-.35.35zm-80.5-1.41c0-.36 0-.71.35-.71.36-.36.71 0 .71.71 0 .35-.35.35-.35.7-.36-.35-.71-.35-.71-.7zM27 16.86s-.35-.36 0-.36c0-.35 0-.71.36-.71l.35.36c-.4 0-.4.35-.71.71zm47.82 13.83a1.26 1.26 0 01-.35-.71c0-.71.35-.71.71-.36 0 .36 0 .71.35.71-.35.36-.71.67-.71.36zm64.54-4.26c0-.35 0-.71.36-.71l.35.36c0 .35-.35.35-.71.35.36.36 0 .36 0 0zM125.53 30c0-.36 0-.71.36-.36V30zm1.47-2.5l-.35-.36.35-.35.36.35a.35.35 0 00-.36.36zm11-11c.36 0 .36.36 0 0zm8.87 12.06l-.36-.35h.36zm3.13 1.77l.35-.35.36.35-.36.36a.35.35 0 01-.35-.36zm-3.19-7.09c0-.35 0-.71.35-.35v.35l-.35.36c.35 0 0-.36 0-.36zM144 30c-.35-.71 0-1.07.36-1.07l.35.36a.76.76 0 01-.71.71zm-23.79 1.4c0-.36.36-.71.71-.36l.36.36a1.23 1.23 0 00-.71.35.35.35 0 01-.36-.35zM95 29.62l-.36-.35c0-.36.36-.71.36-1.06 0 .35.35.7.35 1.06zm-11.31-8.86a.76.76 0 01-.71-.71l.35-.36a.88.88 0 011.42.36v.35c-.75 0-.75.36-1.06.36zm-6.74-5c-.35-.35-.71-.7 0-.7l.36.35zm-1.77 8.52zm23.4 4.6c0 .36-.71.71-.71 1.07h-.71c0-.36-.35-.71-.35-1.07a.75.75 0 01.71-.7c.35 0 .71-.36.71 0 .35.03.71.38.35.73zm8.87-13.47a.5.5 0 01.71 0c-.36.35-.36.35-.71 0zm-8.51 4.61l-.71-.71a1.26 1.26 0 01.35-.71 1.3 1.3 0 011.07.36 1.29 1.29 0 01-.36 1.06zm20.56 13.86c.71 0 .71 0 0 1.06-.35-.35 0-.71 0-1.06zM96.81 22.53a.5.5 0 01.71 0l-.36.36zm145.39-7.8c-.36 0-.36-.35-.71-.35l.71-.71.71.71c-.36 0-.36.35-.71.35zm157.44 2.13v-.71a.35.35 0 01.36-.36 1.22 1.22 0 00.36.71c-.36 0-.36 0-.72.36zm4.26-12.41a1.22 1.22 0 01.36-.71 1.26 1.26 0 00.35.71 1.26 1.26 0 01-.35.71c0-.36-.36-.36-.36-.71zM367 6.57c0-.35-.35-.35-.35-.7s.35-.36.35-.71l.36.35c.02.71.02 1.06-.36 1.06zm29.1 24.12c-.36-.71 0-1.78.35-1.78l.36.36c.35 1.06 0 1.73-.71 1.42zm11.7-20.92c0-.71.36-1.42.36-1.07s.35.71.35 1.07 0 1.06-.35 1.06c0-.35 0-1.06-.36-1.06zm1.06 24.82c-.35.35-.35.35-.7.35l-.36-.35c0-.36 0-.71.36-.71a1.08 1.08 0 01.7.35c.36-.35 0 0 0 .36zm-2.12-24.82v-.36c0-.35.35-.71.35 0zm1.42 6.38a.35.35 0 01.35-.36c.35 0 .71.36.71 1.07-.36 0-.36.35-.71.35a.68.68 0 01-.35-1.06zM394.68 14c.71-.35.71 0 .71.36l-.35.35c-.36.02-.36-.33-.36-.71zM383 30.69a1.25 1.25 0 01-.36-.71c0-.71.36-.71.71-.36 0 .36 0 .71.36.71-.02.36-.38.67-.71.36zm-11-13.48c0-.35 0-.71.35-.71.36-.35.71.36.71.71s-.35.36-.35.71a.76.76 0 01-.71-.71zm7.09 7.45c.35-.35.35-.35.35 0s0 .35-.35.71c.34-.37-.01-.37-.01-.71zM367.73 5.51a.34.34 0 01.35-.35c0 .35.36.35.36.71a1.21 1.21 0 00-.36.7c-.35 0-.35-.35-.35-1.06zm17.38 9.93a.34.34 0 01.35-.35l.36.35a.36.36 0 01-.71 0zm-4.26-3.9v-.36h.36v.36c0 .35-.36.35-.36 0zM367.73-.16c-.35-.36-.35 0 0 0-.35 0-.35 0-.35-.36a.34.34 0 01.35-.35v.71zm40.43 23.76c.35-.36.35 0 0 0zm-24.47.71zm-1.42 5c.35 0 .35-.36.71-.36a.35.35 0 00.35.36c-.35 0-.35.35-.71.35zm518.79-8.91a1.23 1.23 0 01-.35-.71v-.35c.35-.35.35-.35.71-.35l.35.7c0 .71-.35 1.07-.71.71zm-503.9 6c0-.35-.35-.35-.35-.71l.71-.71h.35c.36 0 .36.36.71.71a1.23 1.23 0 01-.35.71zm67-10.64a.35.35 0 01.36-.35.34.34 0 00.35.35zm-2.12 5c-.36 0-.36-.36-.71-.71a.35.35 0 01.35-.36c.36-.35.71-.35 1.07.36v.35a1.22 1.22 0 00-.69.36zm-197.86 4.61c0-.71 0-1.06.36-1.06a1.26 1.26 0 01.71.35c0 .71-.36 1.06-.71 1.06-.36.36-.36 0-.36-.35zm200.71-5a1.23 1.23 0 01-.35-.71v-.35c.35-.35.35-.35.71-.35l.35.7c0 .74-.35 1.1-.71.74zm-55.67 10.32a1.22 1.22 0 00-.36-.71c0-.71.36-.71.71-.36 0 .36.36.71 0 1.07.36-.36 0-.36-.35 0zm61.35-6.38c.35 0 .71.35.35 1.06 0 .35-.35.71-.71.35s-.71-.71-.71-1.06a1.33 1.33 0 011.07-.35zm0-4.26c0-.36-.36-.71 0-1.06 0-.36.35-.36.71-.36a1.26 1.26 0 01.35.71c-.35 0-.35.35-1.06.71zm-.36 9.57c-.35-.71 0-1.06 0-1.41.36.35.36.7 0 1.41.36-.35.36 0 0 0zM451.42-.16a.35.35 0 00-.36-.36l.36-.35c.35 0 .71.35 0 .71zm17.37 5a.68.68 0 01.36-1.06 1.12 1.12 0 01.71.35c.35.36 0 1.07-.36 1.42-.35-.39-.71-.39-.71-.75zM454.61 31.4a.35.35 0 01.39-.4c.36-.35.36 0 .71.36a.34.34 0 01-.35.35c-.36.04-.75.04-.75-.31zm-19.15-8.16v-.35c.36-.36.36 0 .36.35a.35.35 0 01-.36.36zM428 2c-.35 0-.35-.35-.35-.7s.35-.36.71-.36a.35.35 0 00.35.36v.35A1.23 1.23 0 01428 2zm-.71 12.77v-.35s.36-.36.36 0c0-.36.35 0-.36.35zm13.13 5c0 .36-.36.36-.71.36 0-.36-.36-.36-.36-.71 0-.71.36-1.06.71-.71a1.73 1.73 0 01.37.98zM416 4.09c0-.35.35-.71.71-.35a.34.34 0 00.35.35c-.35 0-.35.36-.71.36zm24.11 11.7c0-.35.36-.35.71-.35a1.22 1.22 0 01.36.71 1.25 1.25 0 01-.36.71c-.39 0-.75-.71-.75-1.07zm10.25 11.71l-.36-.36a.35.35 0 01.36-.35l.35.35zm1.41-13.12v1.06c-.35.71-.35.71-.71.71a1.23 1.23 0 00-.35-.71c0-.35.35-1.06.71-1.06 0-.38.35-.38.35 0zM451.42 30c-.36.35-.36 0-.36 0v-.36c.36-.37.36-.02.36.36zm-10.64-3.9c.36 0 .36.35.36.71a.35.35 0 01-.36.35c.36-.73 0-.73 0-1.08zm13.83-4.61a1.23 1.23 0 00-.35-.71c0-.71.35-.71.7-.36 0 .36.36.71 0 1.07.04-.38-.35-.38-.35-.02zM304.26 31.4a.35.35 0 00-.36-.36v-.35c.36-.36.36-.36.71-.36a.35.35 0 01.35.36.76.76 0 01-.7.71zm-2.49-1.07a.35.35 0 01.36-.35.34.34 0 00.35.35l-.35.36c-.36 0-.36 0-.36-.36zm4.61-28.72v-.35l.36-.36c.35 0 .35.36.71.36.35.35 0 .7-.36.7a1.26 1.26 0 01-.71-.35zm-7.09 21.63c0-.35 0-.71.35-.35v.35a.35.35 0 01-.35.36zm-4.61-3.55c0-.35 0-.7.36-.7.35-.36.7 0 .7.7 0 .36-.35.36-.35.71-.39-.35-.71-.35-.71-.71zm14.89 13.83v-.35c0-.71.36-.71.36 0a.35.35 0 01-.36.35zm16.32-2.83c-.36 0-.36 0-.71-.36v-1.06a.68.68 0 011.06.35c0 .38-.35.71-.35 1.07zm-18.44-16c-.36-.35-.36-.35 0-.71h.35c0 .36 0 .36-.35.71zM322 33.88c.35-.36.35 0 .35 0s0 .35-.35 0zm-27.66-7.8c0 .35 0 .71-.36.71l-.35-.36c.35 0 .35-.35.71-.35zm23.75-22a.35.35 0 01.36-.35c.35-.36.35 0 .71.35a.35.35 0 01-.36.36 1.22 1.22 0 00-.72-.35zm-23.76 12.78c-.36 0-.36-.36-.36-.71a1.22 1.22 0 01.36-.71c.35 0 .35 0 .71.35-.04.36-.36 1.07-.71 1.07zm-23.41 14.89a.35.35 0 01.36-.35h.72c0 .35 0 .35-.36.71a1.08 1.08 0 00-.72-.36zm-.35-12.06a1.22 1.22 0 01-.36.71c-.35.36-.71 0-.71-.71 0-.35 0-.7.36-.7a1.23 1.23 0 00.71.35zm9.57 12.06l-.35-.35c0-.36.35-.71.71-.36a.35.35 0 00.35.36 1.1 1.1 0 01-.71.35zm-9.93-16.31c.36-.35.36 0 .36 0 0 .35 0 .35-.36 0 .36.35 0 .35 0 0zm9.58 5.67v-1.06c.35-.36.71 0 .71.35a1.22 1.22 0 01-.36.71zm3.54-6V14c0-.35.36-.35.71-.35.36.35.36.71.71 1.06a1.26 1.26 0 00-.35.71c-.71.73-1.07.37-1.07-.33zm1.07 15.24c-.36 0-.36-.35 0 0-.4-.35-.4-.02 0-.02zm0-3.54a.35.35 0 01.35-.36l.36.36a.35.35 0 01-.36.35c-.35-.02-.35-.02-.35-.37zm-.71 3.19c0-.36 0-.71.35-.36V30zm53.54-3.55a1.1 1.1 0 01-.35-.71l.71-.71h.35c.36 0 .36.36.71.71 0 .36-.35.36-.35.71zm1.07 3.19a.34.34 0 01.35-.35 1 1 0 01.71 1.42L339 31c-.7 0-1.06-.67-.7-1.38zm11.34-14.18a.35.35 0 01.36-.35l.36.35a.36.36 0 01-.72 0zM352.48 30a1.26 1.26 0 01-.35.71c-.36 0-.36 0-.71-.36 0-.35 0-.71.35-.71 0-.37.71-.02.71.36zm-12.76-15.27c0-.35 0-.71.35-.71l.36.36v1.06c-.36-.71-.36-.71-.71-.71zm11.7 9.58zm2.48-12.77v-.36h.36v.36c0 .35-.36.35-.36 0zm1.42 13.12c.35 0 .35-.35 0 0h.35a.34.34 0 01-.35.35c.35-.01.35-.35 0-.35zm-3.55 4.61c.36 0 .36-.36 0 0a.49.49 0 01.71 0 .34.34 0 01-.35.35c.35 0 0 0-.36-.35zm-25.17-6c.35.36 0 .36 0 .71zm26.59-7.45c0-.35-.35-.35-.35-.7s.35-1.07.71-.71l.35.71c0 .32-.35.32-.71.67zM328 9.77v-.36c0-.35.36-.35.36 0 .35 0 0 0-.36.36zm2.49-5.32a1.23 1.23 0 01.35-.71 1.25 1.25 0 00.36.71 1.25 1.25 0 01-.36.71c.01-.36-.34-.36-.34-.71zm-3.9 5a1.31 1.31 0 01.41-1.1c0-.36.35.35.35 1.06 0 .36-.35 1.07-.35.71-.4.36-.4-.35-.4-.71zm.35 6.74c0 .35 0 1.06-.35 1.06s-.36-.35-.71-.35c0-.71.35-1.07.71-1.07.01-.39.41-.04.41.32zm9.93 18.08zm25.89-16.31c0-.35-.36-.35-.36-.71 0-.71.36-1.06.71-.71l.36.71zm-27.3 18.4h-.35a.34.34 0 01.35-.35zm-.35-19.5s-.36-.36 0-.36c0-.35 0-.71.35-.71l.36.36c-.36 0-.36.35-.71.71zM327 34.94c-.35 0-.35-.35-.71-.35v-.36c.36 0 .36-.35.71-.35l.35.71a.34.34 0 00-.35.35zm1037.89-13.47a1.23 1.23 0 00-.35-.71c0-.71.35-.71.71-.36 0 .36.35.71 0 1.07.35-.36 0-.36-.36 0zm5.68 2.84zm-5.68 7.09a.35.35 0 01.36-.36c.35-.35.35 0 .71.36a.35.35 0 01-.36.35c-.35 0-.35 0-.71-.35zm-2.83-31.56a.35.35 0 00-.36-.36l.36-.35c.35 0 .35.35 0 .71zM1361.7 30c-.35.35-.35 0-.35 0v-.36c.35-.37.71-.02.35.36zm13.48-9.58a1.22 1.22 0 01-.36-.71v-.35c.36-.35.36-.35.71-.35l.36.7c.35.69 0 1.05-.71.69zm-4.61 10.29c0-.36 0-.71.35-.71.36-.36.71-.36.71.35a1.23 1.23 0 01-.35.71 1.23 1.23 0 01-.71-.37zm-8.16-16.31v1.06c-.35.71-.35.71-.71.71a1.23 1.23 0 00-.35-.71c0-.35.35-1.06.71-1.06-.36-.4 0-.4.35-.02zm12.41 1.41a.35.35 0 01.36-.35.34.34 0 00.35.35zm-2.48 0c0-.35-.35-.35-.35-.7s.35-1.07.71-.71l.35.71c-.35.33-.71.33-.71.68zm1.77 16.32c0-.36 0-.36-.35-.71h.71a.34.34 0 00.35.35c-.35-.02-.35-.02-.71.34zm-32.62 4.25c0 .36-.36.36-.71.36 0-.36-.35-.36-.35-.71.35 0 .35-.36.7-.36a1.25 1.25 0 01.36.69zm1.77-6c.36 0 .36-.35 0 0 .36-.35.36 0 .36 0v.36zm-5.67-15.6v-.35s.35-.36.35 0c.36-.36.36 0-.35.35zM1361 27.5l-.35-.36a.34.34 0 01.35-.35l.36.35c-.36 0-.36 0-.36.36zM1338.65 2c-.35 0-.35-.35-.35-.7s.35-.36.71-.36a.35.35 0 00.35.36v.35a1.26 1.26 0 00-.71.35zm12.06 13.83c0-.35.35-.35.71-.35a1.23 1.23 0 01.35.71 1.26 1.26 0 01-.35.71c-.71-.04-1.07-.75-.71-1.11zm.71 10.29c.35 0 .35.35.35.71a.34.34 0 01-.35.35zm-5.68-2.84v-.35c.36-.36.36 0 .36.35a.35.35 0 01-.36.36c.36-.04 0-.4 0-.4zm5-3.55c0 .36-.36.36-.71.36 0-.36-.35-.36-.35-.71 0-.71.35-1.06.7-.71a1.73 1.73 0 01.33 1.02zm-10.28 10.64c.35 0 .35-.35 0 0a.48.48 0 01.7 0v.36a.34.34 0 01-.35.35c-.03.32-.38-.08-.38-.75zm66 6.39c-.35 0-.35 0-.71-.36a1.28 1.28 0 01.36-1.06c.35-.36.71-.36.71.35s-.08 1.03-.44 1.03zm1.78 3.54a1.25 1.25 0 00-.36-.71c0-.71.71-1.06.71-.71s.36.71 0 1.07c.28-.04-.08-.04-.43.31zm-6.74-11c.35 0 .35-.36.71-.36a.35.35 0 00.35.36c-.35 0-.35.35-.71.35a.34.34 0 01-.43-.38zm-1.5-17.76v-.36h.35v.36c0 .35-.35.35-.35 0zm15.25 19.15c-.36-.71 0-1.78.35-1.78l.36.36c.04 1.06.04 1.73-.71 1.42zm1.06-4.26c0-.35-.35-.35-.35-.71l.71-.71h.35c.36 0 .36.36.71.71a1.23 1.23 0 01-.35.71zm-18.08-1.77c.35-.35.35-.35.35 0s0 .35-.35.71zm15.6-10.66c.71-.35.71 0 .71.36l-.36.35c-.35.02-.35-.33-.35-.71zm-29.43 15.6c-.36 0-.36-.35 0 0-.36-.71 0-1.06 0-1.41v1.41zm-1.78.36h-.35c0-.36-.36-.71-.71-1.07a1.32 1.32 0 01.35-1.06h.71a1.1 1.1 0 01.36.71c.02.73-.36 1.08-.36 1.46zm9.93.35a1.23 1.23 0 01-.35.71l-.36-.35c0-.36 0-.71.36-.71a.34.34 0 00.35.37zm-9.93-7.8c.36-.35.36 0 .36 0l-.36.36zm-.71-3.19a1.1 1.1 0 00-.35.71h-.35c0-.36-.36-.71 0-1.06 0-.36.35-.36.7-.36-.35.02 0 .39 0 .73zm-.35-1.42c0-.35-.35-.35-.35-.71 0-.71.35-1.06.7-.71l.36.71a.76.76 0 01-.71.73zm-.35 6.39c.35 0 .7.35.35 1.06 0 .35-.35.71-.71.35s-.71-.71-.71-1.06a1.33 1.33 0 011.07-.33zm5.67-24.47zm5.67 20.92c-.35 0-.35-.36-.71-.36v-.35c.36-.36.71-.71 1.07-.36a.35.35 0 00.35.36c-.35.37-.35.73-.71.73zm-7.44-15.6c-.36-.36-.36-.71-.36-1.42 0-.36.36-.36.71-.36a.69.69 0 01.36 1.07c0 .73-.36.73-.71.73zm-77.66 21.27c0-.35-.36-.35-.36-.71.36-.35.36-.35.71-.71h.36c.35 0 .35.36.71.71a1.22 1.22 0 01-.36.71zM1262.77 30a1.25 1.25 0 01-.36.71c-.35 0-.35 0-.71-.36 0-.35 0-.71.36-.71.35-.37.71-.02.71.36zm-1.07-5.67zm-14.18 2.12c-.36 0-.36-.35-.36-.71l.71-.71h.36c.35 0 .35.36.71.71 0 .36-.36.36-.36.71zm2.83-11.7c0-.35 0-.71.36-.71l.35.36v1.06c-.35-.73-.71-.73-.71-.73zm12.06 14.54a.49.49 0 01.71 0 .34.34 0 01-.35.35.35.35 0 01-.36-.37zm-2.48-13.83a.34.34 0 01.35-.35l.36.35a.36.36 0 01-.71 0zm13.12 2.48c0-.35-.36-.35-.36-.71 0-.71.36-1.06.71-.71l.36.71zm-9.22-2.13c0-.35-.35-.35-.35-.7s.35-1.07.7-.71l.36.71c-.36.33-.71.33-.71.68zm2.13 8.87h.35a.34.34 0 01-.35.35zm-1.78-13.12v-.36h.36v.36c0 .33 0 .33-.36-.02zm71.64 22v-.35c0-.35.35-.35.35 0a.34.34 0 01-.35.31zM1277.3 6.57c0-.35-.35-.35-.35-.7s.35-.36.35-.71l.36.35c0 .71 0 1.06-.36 1.06zm-41.13 24.12c-.35 0-.35 0-.71-.36v-1.06c.36-.36.71 0 .71.35a.68.68 0 010 1.07zm1.06-7.09c-.35 0-.35-.36 0 0zm-8.51-19.51a.35.35 0 01.36-.35c.35-.36.35 0 .71.35a.35.35 0 01-.36.36c-.35 0-.35-.36-.71-.36zm12.06.36a1.23 1.23 0 01.35-.71 1.25 1.25 0 00.36.71 1.25 1.25 0 01-.36.71c0-.36 0-.36-.35-.71zm5 12.41s-.35-.36 0-.36c0-.35 0-.71.36-.71l.35.36c-.35 0-.35.35-.71.71zm-7.09-7.09v-.36c0-.35.36-.35.36 0zm-1.77-.36a1.31 1.31 0 01.35-1.06c0-.36.36.35.36 1.06 0 .36-.36 1.07-.36.71-.39.36-.39-.35-.39-.71zm.71 6.74c0 .35 0 1.06-.36 1.06s-.35-.35-.71-.35c0-.71.36-1.07.71-1.07-.04-.35-.04 0 .32.36zm72.34.71v-.71a.35.35 0 01.35-.36 1.22 1.22 0 00.36.71c-.36 0-.36 0-.71.36zm7.03-7.09v-.36c0-.35.36-.71.36 0l-.36.36zm-2.48-5.32a1.23 1.23 0 01.35-.71 1.25 1.25 0 00.36.71 1.25 1.25 0 01-.36.71c-.33-.36-.33-.36-.33-.71zm102.84 29.43zM1305 14c.71-.35.71 0 .71.36l-.35.35a1.22 1.22 0 01-.36-.71zm13.83 9.22c.36.36.36.36 0 .71 0-.35-.35-.35 0-.71zM1278-.16c-.35 0-.35 0-.35-.36a.34.34 0 01.35-.35c.36 0 .36 0 0 .71.37-.36.37 0 0 0zm40.43 9.93c0-.71.35-1.42.35-1.07s.36.71.36 1.07 0 1.06-.36 1.06a1.75 1.75 0 01-.34-1.06zm0 6.38a.35.35 0 01.35-.36c.36 0 .71.36.71 1.07-.35 0-.35.35-.71.35a3.62 3.62 0 01-.34-1.06zm7.8-12.06c0-.35.36-.71.71-.35a.34.34 0 00.35.35c-.35 0-.35.36-.7.36zm-35.11 7.45v-.36h.36v.36c.01.35.01.35-.35 0zm4.26 3.9a.34.34 0 01.35-.35l.36.35a.35.35 0 01-.36.35zm-13.12 1.77c0-.35 0-.71.35-.71.36-.35.71.36.71.71s-.35.36-.35.71c-.35 0-.35-.35-.7-.71zm-3.9-11.7a.34.34 0 01.35-.35c0 .35.36.35.36.71a1.21 1.21 0 00-.36.7c-.34 0-.71-.35-.34-1.06zm11.35 19.15c.35-.35.35-.35.35 0s0 .35-.35.71zm3.9 6a1.25 1.25 0 01-.36-.71c0-.71.36-.71.71-.36 0 .36 0 .71.36.71-.32.39-.7.7-.7.39zm.71-6.38zm-2.49-9.22c0-.36 0-.71.36-.71.35-.36.71 0 .71.71 0 .35-.36.35-.36.7-.34-.32-.7-.32-.7-.67zm1.07 14.18c.35 0 .35-.36.71-.36a.35.35 0 00.35.36c-.35 0-.35.35-.71.35s-.34.03-.34-.32zm227.3-2.48c0 .35-.35.35-.71.35-.35-.35-.71-.71-.35-1.06 0-.36.35-.36.71-.36.72.03.72.39.36 1.1zm27.31-7.8a.35.35 0 01.35-.36h.71a1.25 1.25 0 01.36.71c-.36.35-.36.35-.71.71.01-.33-.35-.68-.7-1.02zm-3.19-4.26c.35 0 .71.71.71.71-.36.35-.71.35-.71.71zm-3.19 10.3a1.32 1.32 0 00-.35-1.06l.35-.35c0 .35.36.71.36 1.06.35.01 0 .01-.36.35zm7.81-15.24c0-.36.35-.36 0 0h.35a.34.34 0 01-.35.35zm14.89-3.2a.34.34 0 01.35-.35c.36 0 .36.35.36 1.06a.35.35 0 01-.36.36.69.69 0 01-.35-1.06zm-24.47 3.91zm27-1.07a3.62 3.62 0 01-.35-1.06l.35-.36a.69.69 0 01.36 1.07c-.05.36-.41.72-.41.36zm-13.47 1.42c0-.35.35-.35.35 0a.34.34 0 01-.35.35zm10.28 9.57v-.71a.49.49 0 010 .71zm-28.37-4.61a.35.35 0 01.36-.35l.35.35zm-316.66-1.06c-.36-.35-.36-.35 0-.71h.35c-.05.37-.05.37-.4.72zm306.38 6.38v-1.05c0-.36.35-.36.35-.71a1.25 1.25 0 00.36.71c0 .71 0 1.06-.36 1.42zm-3.9-3.54c0-.36-.36-.36-.36-.71 0-.71.36-.71.71-.71a.35.35 0 01.36.35c-.05.37-.41 1.08-.76 1.08zm-2.48-4.26l-.36-.71c0-.35.36-.35.71-.35 0 .35.35.35.35.71a1.22 1.22 0 01-.75.36zm11.34 4.61c0-.35-.35-.35-.35-.71s.35-1.06.71-1.06a1.23 1.23 0 01.35.71c-.05.72-.4 1.43-.76 1.07zm3.9-3.54c.36-.36.36 0 .36 0v.35a.35.35 0 00-.41-.34zm-7.8-9.22c0-.36.36-.71.71-.36a1.25 1.25 0 01.36.71c-.36 0-.36.36-.71.36zm43.62 3.19c.35 0 .35-.36.71-.36a.35.35 0 01.35.36c-.35 0-.35.35-.71.35-.05.37-.4.01-.4-.34zm-39.72-2.13c.36-.35.36 0 .71 0l-.35.35a.35.35 0 01-.41-.34zm-13.83 0a1.31 1.31 0 00-.35-1.06l.35-.36c.36 0 .36.36.36.71s-.41.37-.41.72zm81.92 14.89c-.36-1.06-.36-1.42 0-1.77a.5.5 0 01.71 0c0 .35.35.71 0 1.06zm-66 3.9zm64.18-.35c0-.35 0-.71.36-.71l.35.36c0 .35-.35.7-.71.35.35.35-.01.35-.01.01zm-3.2-5.65c0-.36 0-.36.36-.71l.35.35c0 .36 0 .36-.35.71-.36-.01-.36-.01-.36-.35zm2.84 1.06c-.35 0-.35-.36-.35-1.06a.35.35 0 01.35-.36 1.74 1.74 0 010 1.41zm-1422.34 8.5c0-.35.35-.35 1.06.35-.35.36-.71.36-1.06-.35zM1600 47V33.88a4.66 4.66 0 00-1.42-1.06 22.6 22.6 0 00-4.58-1.42c-1.42 0-2.48.35-3.9.35a24.49 24.49 0 01-3.19 2.13 9.69 9.69 0 00-2.84 2.48c-.71 0-1.06.36-1.42.36v-.36c0-.35-.35-.35-.35-.71a.35.35 0 00-.36.36 1.26 1.26 0 01-.35.71c-.71 0-1.06-.71-1.06-1.42v-1.07c0-.71.35-1.06.35-1.77s0-1.06-.71-1.42c-.35-.35-1.42 0-1.42.36a2.69 2.69 0 00-.71 1.42H1577c-.35-.36-.71-1.07-1.42-.71a3.46 3.46 0 01-3.19-.36 3.91 3.91 0 00-3.19-1.06c0 .35-.36 1.06-.36 1.42a3.36 3.36 0 01-2.48.71h-3.19c0-.71 0-1.42 1.06-1.78.71-.35 1.07-.71.71-1.06v-.36c-.35-1.41-.35-1.41 1.42-2.48a.88.88 0 00.36-1.42 15.26 15.26 0 00-2.49-2.12 1.26 1.26 0 01-.35.71c-.35.35-.71.7-1.06.7-.71-.35-1.07-1.41-1.78-1.06-.35 0-.35.36-.35.71V25l.35.36a2.77 2.77 0 00-1.42 1.42.34.34 0 01-.35.35v.36c0 .35 0 .71.35.71h.36c.35 0 .71-.36 1.06-.36v.36a2 2 0 01-1.06 1.77L1557.8 31a4.83 4.83 0 01-1.42 1.07v-.36c.36-1.06 0-1.42-1.06-1.77-.71-.36-1.06.35-1.42 1.42v.35c-.71-.35-1.77-.71-2.13-1.42h-1.06c-1.42-.35-2.84-1.06-3.9-1.42a4 4 0 01-1.77-2.48 1.3 1.3 0 011.06-.35l.71.71c.35.35.71 0 1.06-.36 0-.71 0-1.06-.35-1.42h-2.84a1.14 1.14 0 00-1.06 1.07 5.78 5.78 0 01-1.42 2.48c0 .35 0 .71.35.71 0 0 .36.35.36 0 .35-.36 1.06-.36 1.42-.71 0 .35.35.35.35.71a.66.66 0 010 1.06 2.62 2.62 0 01-1.42.71 1.31 1.31 0 01-1.06-.35c-.71-.36-1.07-1.07-1.77-1.07a.68.68 0 00-1.07 0 .35.35 0 01.36-.35 1.22 1.22 0 00-.36-.71c0 .35-.35.35-.35.71s.35.35.35.71c-.71.35-1.06.71-1.77 1.06-.36.36-.71 0-1.07 0 0-.71-.35-1.42-.35-2.13 0-.35.35-1.06.35-1.41s0-.71-.35-.71H1534c0-.36 0-.71-.35-.71-.71-.36-1.07-.71-1.78-.71v1.42h-.35a.34.34 0 00-.35.35c-.71 1.07-.71 2.48-1.78 3.55a1.85 1.85 0 01-1.42.71c-.35 0-.71-.36-.35-.71a5.35 5.35 0 001.06-2.48h-.35v-.36c0-.35-.36-.35-.36-.71l-.97-1.02-2.18-1.08a1.87 1.87 0 00-.71 1.42.68.68 0 000 1.07v3.19a1.59 1.59 0 000 1.77.35.35 0 00.36.36c0 .35.35.7.35 1.06v.71c0 .35-.35.71-.71.35l-2.11-1.05c-.36-.36-1.42 0-1.42.35-.36.36-.36 1.07-1.07 1.42h-1.06c0-.35 0-.35-.35-.35-.71-.36-1.07-.71-1.78-1.07-.35 0-.71.36-.71 1.07h-1.77a12.24 12.24 0 00-2.84 3.19 1.31 1.31 0 01-1.06.35c-.36 0-.36-.35-.36-1.06 0-.35.36-.71.36-1.06 0-.71 0-.71-.71-1.07a1.53 1.53 0 01-1.42-1.42 1.31 1.31 0 00-.35-1.06c-.36 0-1.07-.35-1.42-.35V36a5 5 0 01-1.07-1.42c.36 0 .71-.36.36-1.07l-.36-.35c-.35 0-.35 0-.7.35v.36c-.36-.36-.36-1.06-.71-1.42a31.75 31.75 0 01-8.16-.71h-1.06c-.71 0-1.42.36-1.42.71-.36 1.06-.36 2.13-.71 3.55 0-.71-.36-1.42-1.07-1.42a7 7 0 00-.35-2.48c0-.71-1.06-1.07-1.77-.71a6.16 6.16 0 00-1.78 1.42 1.08 1.08 0 000 1.41c.36.36.71.36 1.07.71a.35.35 0 00.35.36c.36.35.36.71 0 .71a1.31 1.31 0 01-1.06.35 1.33 1.33 0 01-1.07-.35c-.35-.36-1.06-.71-1.41-1.07a16.06 16.06 0 00-2.49-1.42l-.71-.7a1.56 1.56 0 00-1.77 0c-.35 0-.35.35-.71.7a14.85 14.85 0 00-1.77.36 1.22 1.22 0 00-.36-.71c0 .35-.35.71-.35 1.06h-.71c-.71 0-1.06.36-1.77 1.07v.35c-.36 0-.36-.35-.36-.71a1.31 1.31 0 00-.35-1.06c-.36 0-1.06.35-1.42.35a6 6 0 00-3.55 1.07 1.29 1.29 0 01-1.06-.36v-.35c.36-.36.36-.71.71-1.07s0-1.06-.71-1.41a4.51 4.51 0 00-4.25 0 9.25 9.25 0 00-2.13 1.77l-1.07 1.06a4.94 4.94 0 01-2.12.71 2.61 2.61 0 01-2.13-.71l-.36-.35c-1.06.71-1.06 1.77-1.41 2.84a.76.76 0 01-.71.7h-.36a.34.34 0 00-.35-.35v.35l-.36-.35a.34.34 0 00-.35-.35c-.36 0-.71.35-1.07.35-.35-.71-1.06-.71-1.77 0v.35l-.35-.35-.36-.71h-.35l-.36-.35a.88.88 0 00-1.42.35c-.35.71-.71 1.77-1.06 2.48l-.71.71h-1.06a5.18 5.18 0 00-.71-2.48c-.36-.71-1.07-1.42-1.42-2.13-.71-.71-1.42-.71-1.77 0a4.11 4.11 0 00-.71 3.55 5 5 0 001.06 1.42 4.33 4.33 0 00-3.19 1.06c-.36.36-.71.36-.71.71-.35 0-.35-.35-.71-.35-.71-.71-1.42-.71-2.48-1.42l-2.13-1.07v-.34a2.69 2.69 0 00.71-1.42v-.71c-.35-.35-.35-.71-.71-.71l-2.13 1.07a2 2 0 00-1.77.7c-.35 0-.35.36-.71.71s-.35.71-.71 1.07l-.35.35a.36.36 0 11-.71 0v-2.83c0-.36-.36-.71-.36-1.07-.71-.71-2.12 0-2.83 1.07-.36.35 0 1.41.35 1.77a1.33 1.33 0 011.07.35 4.77 4.77 0 001.41 1.07V41c-.35 0-.35 0-.35.36h-2.84v-.71c-.35 0-.35-.36-.71-.36.36 0 .36-.35.71-.71.36-1.06 0 .36-.35-.71 0-1.06-.36-1.77-1.07-1.41-.35 0-.35 1.06-.35 1.77a.66.66 0 000 1.06c-.36 0-.71 0-.71.36a4.83 4.83 0 01-1.42 1.06h-.71v-2.16c.36-1.77.36-2.12-1.42-2.12h-1.41c-.71 1.06-1.07 1.77-2.13 1.41 0 0-.71.36-.71.71s0 1.07.35 1.07c.71 1.06 1.42.71 2.13.71v.35a2.66 2.66 0 00-1.42.36l-.35-.36a1.25 1.25 0 01-.71.36c-.36 0-.71.35-1.42.35-.35 0-.71.35-1.42.35-.35-.35-.35-.35-.71-.35h-.35l-1.07 1.06a1.28 1.28 0 00-1.06.36c-.71-.36-1.42-.36-2.13-.71V42c0-.36-.35-.36-.71-.36s-.35.71-.35 1.06c-.36 0-.71 0-.71.36 0-.36-.71-.71-.71-.36 0 0 0 .71-.35.71 0 .36 0 .36.35.36 0 .35-.35.35-.35.71h-1.78c0-.36-.35-.36-.35-.71-.71-1.77-1.07-3.55-2.13-4.61v-.71a12 12 0 001.77-2.84 3.75 3.75 0 00-.71-4.25c-.71-.71-1.41-1.07-2.12 0a6.45 6.45 0 00-1.78 2.48c-1.06 1.06-1.06 2.48-1.06 4.25-.36.36-.71.36-1.06.71a3.18 3.18 0 00-1.78.36l-.35.35v1.07c.71 1.06 1.42 1.06 2.48 1.06-.35.36-1.42.36-2.84.36 0-.71-.35-1.42-.35-2.49 0-1.42-1.07-2.12-1.77-1.77a66.15 66.15 0 01-6.74 1.77c-.36-.35-.36-.71-.71 0v.36H1377c-.35-.36-.35-.71-.71-1.07a10 10 0 00-.35-3.19c0-.71-.71-.71-1.07-.35a5.18 5.18 0 00-.71 2.48c-.71 0-1.06.35-1.06.71a4.83 4.83 0 01-1.42 1.06h-.35c0-.71 0-1.42-.71-1.77h-.71a1.72 1.72 0 00-.36 1.06.35.35 0 00.36.36h-1.42a2.14 2.14 0 01.35-1.42 2.62 2.62 0 00.71-1.42 2.69 2.69 0 00-.71-1.42c0 .36-.35.71-.35 1.07h-.71c-.71 0-1.06.35-1.77 1.06a.87.87 0 00.35 1.42h.71c.36.35.36.71.71.71v.35h-1.42c-.35 0-.35-.35-.71-.35a8.06 8.06 0 01-1.06-1.77c-.71-1.78-1.06-1.78-2.13 0-.71 0-1.06.35-1.77.35-1.07.71-1.07.71-1.07 2.48.36 0 .71 0 .71.36V41c-.35 0-.35 0-.71.36-.7-.71-.7-.36-1.41.71L1356 43.1a5.12 5.12 0 01-2.13.71h-.35v-.36a1.28 1.28 0 00-.36-1.06.5.5 0 00-.71 0c-.35 0-.35.35-.35.71l-.71-.71c-.36-.35-.36-.35-.71-.71 1.42 0 2.48-1.06 3.9-.71a3.62 3.62 0 00.35-1.06c-1.06-1.78-1.06-4.26-2.12-5.68-.36-.35-.71-.35-1.07.36-.71 1.42-1.77 2.48-2.48 3.9v1.42c-.35-.36-.71-.36-.71.35V41a3.15 3.15 0 00-1.77.36c.35-1.07.35-2.13.71-3.2 0-.7-.36-1.41-.71-1.41-1.42-.36-2.13.35-1.77 2.48v1.42a.77.77 0 01-.71.71l-.36.35h-1.42c-.35 0-.35-.35-.71 0a10.43 10.43 0 01-2.83-1.42 1.09 1.09 0 00-1.42 0c-.36-.71-.36-1.42-.71-2.13a2.52 2.52 0 00-1.42-1.77c-.35-.35-.71 0-.71.36v.71c-.35-.36-.71-.71-.71-1.07-.71-.71-1.42-.71-1.77 0l-.36.36c-.7 0-1.06.35-1.41 1.06a4.45 4.45 0 01-.36 2.13c-.35-.36-.35-1.07-.71-1.42a1.22 1.22 0 01.36-.71 1.25 1.25 0 00-.36-.71c-.35 0-.71 0-.71.71-1.06-1.42-1.77-3.19-2.83-4.61h-2.49c-.35 0-1.06-.71-.71-1.06 0-.36.36-.71.36-1.07a1.31 1.31 0 01.35-1.06c0-.36-.35-.71-.71-.36-1.77.36-2.48 1.42-3.19 2.84 0 .36-.71.36-1.06 0s-.71-.35-.71-.71a10.75 10.75 0 00-1.42-2.13c-.71-.71-1.06 0-1.42 0-.71.36-1.06.36-1.77-.35a5.12 5.12 0 01-2.09.7c-2.48 0-4.61 1.06-6.73 1.42.35.35.35 1.06.7 1.42v.7c-.35 0-.35.36-.7.36a1.3 1.3 0 01-1.07-.36 15.46 15.46 0 01-1.42-2.48 1.09 1.09 0 00-1.42 0c-.7.71-1.41 1.78-2.12 2.48a2.74 2.74 0 00-1.42-.7h-1.07a3.71 3.71 0 00-2.12 2.48 2.24 2.24 0 000 2.13c.71 1.41 0 2.48-1.07 3.19-.35.35-.71.35-1.06.71a.76.76 0 01-.71-.71 1.64 1.64 0 000-1.78c0-.35 0-.35-.35-.71V36c0-.36.35-.36.7-.71.36-.71.36-1.07-.35-1.07s-1.42 0-1.77-1.06a1.31 1.31 0 00-1.78-.71 3.58 3.58 0 00-1.77 1.42c-.35.71-.35 1.42-1.06 1.77h-1.78c-.71.71-1.41 1.07-2.12 1.78a2.67 2.67 0 00-1.78-2.49 23.24 23.24 0 00-4.61-1.42c-1.42 0-2.48.36-3.9.36A24.49 24.49 0 011267 36a9.69 9.69 0 00-2.84 2.48c-.7.35-1.41.35-2.12.71s-1.42-.36-1.42-1.42v-1.05c0-.71.35-1.07.35-1.78s0-1.06-.71-1.42c-.35-.35-1.41 0-1.41.36-.36.35-.36 1.06-.71 1.42h-1.07c-.35-.36-.71-1.07-1.42-.71-.71 0-1.77.35-2.48 0a1.3 1.3 0 00-1.42-1.42v.71a5 5 0 00-2.12-.71.34.34 0 00.35-.35c0-.71-.35-1.42-.71-1.42l-.35.35c0 .71 0 1.07.35 1.07h-.35c0 .35-.36 1.06-.36 1.41-1.06-1.41-1.77-1.41-2.48-1.41h-3.19c0-.71 0-1.42 1.06-1.78.71-.35 1.07-.71.71-1.06v-.36c-.35-1.41-.35-1.41 1.42-2.48a.87.87 0 00.35-1.42 15.15 15.15 0 00-2.43-2.12 1.26 1.26 0 01-.35.71c-.36.7-1.07.7-1.78.7a1.88 1.88 0 00-2.48 1.42.35.35 0 01-.35.36v.35c0 .36 0 .71.35.71h.71c0 .36 0 .36.36.71 0 .35-.36.71-.71 1.06l-2.13 1.07a2.24 2.24 0 01-2.84.71 4.9 4.9 0 01-2.84-1.78h-1.06c-1.42-.35-2.84-1.06-3.9-1.41a3.63 3.63 0 01-1.77-2.84l-1.07 1.06c-.71 1.78-.71 2.84 0 3.55a.66.66 0 010 1.06 2.62 2.62 0 01-1.42.71 1.32 1.32 0 01-1.06-.35c-.71-.36-1.06-1.07-1.77-1.07a1.09 1.09 0 00-1.42 0c-.71.36-1.06.71-1.77 1.07-.36.35-.71 0-1.07 0a.35.35 0 01-.35-.36v-.35l-.36-.36-.35.36-1.06-1.07c0-.35.35-.71.7-1.06s1.07-.71 1.07-1.42c0-.35 0-.35-1.42-.35h-1.06l-1.42-.71a.35.35 0 00-.36.35c-.71 1.07-.71 2.48-1.77 3.55a1.85 1.85 0 01-1.42.71c-.35 0-.71-.36-.35-.71a5.35 5.35 0 001.06-2.48 1.28 1.28 0 01-1.06-.36l-1.07-1.06A1.33 1.33 0 001206 25a3.13 3.13 0 00-1.77.36c-1.07 0-1.42.71-.71 1.42.35.35.71 1.06 1.06 1.42a3.24 3.24 0 01-.35 1.77 3.42 3.42 0 00.35 3.19v.71c0 .35-.35.71-.71.35l-2.13-1.06c-.35-.35-1.42 0-1.42.35-.35.36-.35 1.07-1.06 1.42a3.22 3.22 0 01-1.77-.35 7 7 0 00-3.9-.71 12.06 12.06 0 00-2.84 3.19 1.28 1.28 0 01-1.06.36c-.36 0-.36-.36-.36-1.07 0-.35.36-.71.36-1.06s0-.71-.36-.71v-.71a1.94 1.94 0 00-1.77-1.06h-.36a1.33 1.33 0 00-.35-1.07c-.36 0-1.06-.35-1.42-.35v3.19c-1.06-.71-1.42-2.13-2.13-3.19h-1.77V31h-.71a.35.35 0 01-.35.36.34.34 0 01.35.35 34.44 34.44 0 01-6-.71h-1.06c-.71 0-1.42.36-1.42.71 0 .71-.35 1.42-.35 2.13a1.28 1.28 0 00-.36 1.06c-.35-.35-.35-.71-.71-1.06 0-1.06-.35-2.13-.35-2.84s-1.07-1.06-1.78-.71a6.45 6.45 0 00-1.77 1.42 1.09 1.09 0 000 1.42 5 5 0 001.42 1.06.68.68 0 010 1.07 1.31 1.31 0 01-1.06.35 1.33 1.33 0 01-1.07-.35c-.35-.36-1.06-.71-1.42-1.07a15.18 15.18 0 00-2.48-1.41l-.71-.71a1.56 1.56 0 00-1.77 0c-.36 0-.36.35-.71.35 0-.35-.35-.35-.71-.35l-.35.35v.36a5.48 5.48 0 00-2.84 2.12 1.3 1.3 0 01-1.06-.35c-.36 0-.71-.36-1.07-1.07a1.32 1.32 0 00-.35-1.06c-.36 0-1.07.36-1.42.36a8.45 8.45 0 00-2.84.7c0-.35-.35-.35-.71-.7h-1.06l.35-.36c.36-.35 0-1.06-.71-1.42a4.51 4.51 0 00-4.25 0 9.58 9.58 0 00-2.13 1.78c-.35.35-.71.7-1.06 1.06a5.12 5.12 0 01-2.13.71 2.61 2.61 0 01-2.13-.71l-.35-.36-.36.36v-.36a2.63 2.63 0 00-.71-1.41c0 .35-.35.71-.35 1.06h-.71c-.71 0-1.06.35-1.77 1.06a.87.87 0 00.35 1.42h.71c.35.36.35.71.71.71a1.3 1.3 0 00-.36 1.07c-.35 0-.35 0-.7-.36l-.36-.35a.35.35 0 00-.35-.36 3.78 3.78 0 01-2.84.36c-.36-.36-.36-.71-.71-.71v-.36c0-.35 0-.71-.35-.71-.36-.35-.36 0-.71.36-.36-.36-1.07-.36-1.07.35-.35.71-.35 1.42-.71 1.78 0 .35-.35.35-.35.7-.36-.35-.36-.35-.71 0-.35-.35-.36-1.06-.71-1.41h-.34l-1.07.35h-1.77c0 .36.35.36.35.71h-.35a5 5 0 01-1.42 1.06c-1.42 0-2.48 0-3.55 1.07a.75.75 0 00-.7-.71v-.71c.35-.36.35-.71 0-1.42-.36-.35-.36-.35-.71-.71v.36c-.36 0-.36 0-.36.35v.36l-.35.35c-.71.35-1.78.71-2.49 1.06h-.7l-.36.36v-.71c-.71-.71-1.06-1.42-1.77-2.13s-1.42-.35-1.78.36c-.35.35-.35.71-.7 1.06l-.36.35a.35.35 0 00-.35.36c0-.36-.36-.36-.36-.71v-.35c.36 0 .36 0 .71.35h.36c.35 0 .35-.35.35-.71v-.71c1.77 0 1.42-.35.71 0-.36 0-1.06 0-1.06-.35l-.36-.36a2.81 2.81 0 00-1.42 1.42c0-.35-.35-.35-.35-.71-.36-.71-1.07-1.42-1.42-2.13-.71-.71-1.42-.71-1.77 0a4.12 4.12 0 00-.71 3.55c0 .35.35.71.71 1.06-.71.36-1.07 1.07-1.78 1.42a1.07 1.07 0 01-1.42 0l-1.06-1.06v.35c-.35.71-.71 1.42-1.42 1.42h-1.42a2 2 0 01-3.54 0c-1.07 0-1.78-.35-2.48-.35a1.25 1.25 0 01-.36-.71h-1.06c-1.07 0-1.07.35-1.07 1.42-1.06 0-1.42.71-1.77 1.41h-.35l-.71-.7h-1.07l-.71-.71V41l-.35-.35-.36-.36-.35-.35h-.67c-.35 0-.35 0-.35.35a.35.35 0 01-.36.36 1.26 1.26 0 00-.71.35c-.35 0-.35 0-.35.36l-.36.35c-.35.36-.35.36-.35.71V42a.76.76 0 00-.71-.71c-.36-.71-.71-1.07-1.42-1.07h-.71a.35.35 0 00-.35.36.35.35 0 00-.36.35 6.13 6.13 0 00-1.42-1.77.66.66 0 00-1.06 0 1.1 1.1 0 00-.35.71c-.36-.36-.71 0-.71.71V41c-.36 0-.36.36-.71 0-.36 0-.36-.35 0-.71 0-.35.35-.71.35-1.06-1.42-.36-2.84-.71-4.61-1.07-.35 0-1.06-.35-1.42-.35-.71.71-.71.71-1.06.35-.36 0-.71-.35-1.06 0s-.36 1.07-.71 1.42l-.36.36a2.24 2.24 0 000-2.13c-.71-1.77-1.06-2.13-1.77-1.77a2.18 2.18 0 00-.71 2.48v.35c-.36 0-.36-.35-.71-.35s-.35 0-.71.35v1.42a.76.76 0 01-.71.71h-1.77a20.45 20.45 0 01-1.77 2.84h-1.07a3.91 3.91 0 00-3.54 1.77 4.32 4.32 0 00-3.55-1.77h-5.32a.77.77 0 00.71-.71 1.27 1.27 0 00-.36-1.06c-.35-.71-.7-.36-1.41 0a1.06 1.06 0 000 1.41c.35.36.35.36.71.36h-3.91v-.74c.71 0 1.07-.36 1.78-.36.35 0 .71-.7.35-1.41 0-.36-.35-1.07-.71-1.07h-.71c-.71 0-1.41 0-1.77.71a.77.77 0 00-.71.71.35.35 0 00.36.36 2.63 2.63 0 01-.36 1.41h-1.42c0-.35.36-.35.36-.71v-2.12c0-.71-.36-.71-.71-.36a1.41 1.41 0 00-1.42.74 5 5 0 000 3.19c-.35 0-.71.36-1.06.71-1.07 1.07-2.13 1.42-3.19.36-.71-.71-1.42-.71-1.78-1.07-.71-.35-1.06-.71-1.77-.71v-.38c.35-.36.35-.71.71-1.06v-.71c0-.36-.36-.71-.71-.36-.71.36-1.06.71-1.77 1.07a1.33 1.33 0 00-1.07.35h-.36c-.36 0-.36.35-.71.71l.35.35v.36a1.59 1.59 0 00-1.77 0v-1.42c0-.35-.35-.71-.35-1.06-.36-.71-1.78 0-2.49.71-.35.35 0 1.06.36 1.41h.71c.35.36.71.36.71.71-.36.36-.71.71-1.07.71-1.06.36-1.77-.35-2.48-1.77a4.82 4.82 0 00-4.61-2.48h-6.38c.35-.36.71-.71.35-1.07a1.31 1.31 0 00-.35-1.06c-.36-.71-1.07-.71-1.78 0a1.62 1.62 0 000 1.77c.36.36.36.36.71.36h-7.44c.35-.36.35-.71.7-1.07v-.35l.36.35c.36.36.71 0 .71-.35a1.33 1.33 0 00-.35-1.07h-.72a3.06 3.06 0 00-1.1-2.13c-.71-.71-1.42-.71-1.77 0s-1.06 1.42-1.42 2.12a5.85 5.85 0 00-.71 3.55c-.35 0-.71.36-1.06.71H983l-.36.35c-.35 0-.35-.35-.71-.35-.35-1.06-.7-1.42-1.41-1.06h-.36c-.35 0-.71-.36-1.06-.71l-2.1-1.06v-.35a2.76 2.76 0 00.71-1.42v-.71c-.36-.35-.36-.71-.71-.71l-2.13 1.07a2 2 0 00-1.77.7c-.35.36 0 1.07 0 1.42-.35.36-.71.36-1.42.71v-1.42c0-.35-.71-.35-.71-.35v-1.42c0-.35-.35-.71-.35-1.06-.71-.71-2.13 0-2.84 1.06-.35.36 0 1.42.36 1.77a1.29 1.29 0 011.06.36 4.83 4.83 0 001.42 1.06v.36h-4.26a.35.35 0 00-.35-.36c-.71-.35-1.07-.35-1.42 0h-2.13a.34.34 0 00-.35-.35v-1.78c.35-1.77.35-2.12-1.42-2.12h-1.42a5.16 5.16 0 01-1.06 1.42l.35-.36c0-.35-.35-1.06-.71-.71l-.35.71a.35.35 0 00.35.36c-.35 0-.71.35-1.06 0 0 0-.71.35-.71.7s0 1.07.35 1.07c.71 1.06 1.42.71 2.13.71v.35A12.86 12.86 0 00955 41c-.35 0-.7.36-1.06.36a12.51 12.51 0 00-1.42-3.9c.36-.36.36-.71.71-.71h.71c.36-.36.36-.71.36-1.42a2 2 0 00-1.78-1.07h-.71c0-.35-.35-.71-.35-1.06a2.62 2.62 0 00-.71 1.42 2.69 2.69 0 00.71 1.42 2.17 2.17 0 00.35 1.42c-.71 1.06-1.42 2.12-2.12 3.19V42l.35.35c-.71-.35-1.77 0-2.48 0 0-.35.35-1.06.35-1.42a.35.35 0 00.36.36c.35 0 .71-1.07.35-1.78 0-.35-.35-.35-.71-.35a1.23 1.23 0 00-.35-.71c-1.07-.36-1.78.35-1.42 2.13a2.61 2.61 0 01-.36 1.77l-.35.35H945a8 8 0 01-1-1.7c-.71-1.77-1.06-3.54-2.13-4.61v-.71a12.61 12.61 0 001.78-2.83 3.78 3.78 0 00-.71-4.26c-.71-.71-1.42-1.06-2.13 0A6.33 6.33 0 00939 31c-1.07 1.07-1.07 2.48-1.07 4.26-.35.35-.71.35-1.06.71a3.22 3.22 0 00-1.77.35l-.36.36v1.06c.71 1.06 1.42 1.06 2.48 1.06-.35 0-.7.36-1.41.36a.67.67 0 00-1.07 0c0-.71-.35-1.42-.35-2.48 0-1.42-1.07-2.13-1.78-1.78a67 67 0 01-6.73 1.78c-.36-.36-.36-.71-.71 0v.35h-1.42c-.36-.35-.36-.71-.71-1.06a9.9 9.9 0 00-.35-3.19c0-.71-.71-.71-1.07-.36a5.18 5.18 0 00-.71 2.48c-.71 0-1.06.36-1.06.71a5 5 0 01-1.42 1.07h-.35c0-.71 0-1.42-.71-1.78h-.71a1.76 1.76 0 00-.36 1.07v.35h-3.9c-.35 0-.35-.35-.71-.35a7.93 7.93 0 01-1.06-1.78c-.71-1.77-1.07-1.77-2.13 0-.71 0-1.06.36-1.77.36-1.07.71-1.07.71-1.07 2.48.36 0 .71 0 .71.36v.35c-1.41.71-2.48 1.42-3.9 2.13a6.65 6.65 0 01-2.48.71c0-1.78-.35-2.13-1.42-2.13a4.45 4.45 0 012.13-.36 3.51 3.51 0 00.35-1.06c-1.06-1.77-1.06-3.9-2.12-5.32.35 0 .35-.35.71-.35a.35.35 0 00-.36-.36h-.71v.36c-.35-.36-.71-.36-1.06.35-.71 1.42-1.78 2.48-2.49 3.9-.35.36 0 1.42 0 1.78s.36.35.36.7h-1.06c-.36-.35-.71-1.06-1.07-1.41a2.1 2.1 0 01.36-1.42 2.76 2.76 0 00.71-1.42 2.73 2.73 0 00-.71-1.42c0 .36-.36.71-.36 1.06h-.71a1.83 1.83 0 00-1.41.71c-.71 0-1.07 1.07-1.07 2.49 0 1.06 0 1.77-.71 2.12l-.35.36h-1.42c-.36 0-.36-.36-.71 0a10.93 10.93 0 01-2.87-1.38 1.09 1.09 0 00-1.42 0c-.35-.71-.35-1.42-.71-2.13a2.47 2.47 0 00-1.41-1.77c-.36-.36-.71 0-.71.35a19 19 0 01-1.07 4.26 8.3 8.3 0 01-1.42-3.55 1.12 1.12 0 00-2.12.36 5.19 5.19 0 01-.36 2.48c0-.35-.35-.35-.35-.71 1.06-.71.35-.71-.36-.71-.35 0-.71.71-.71 1.07.36.35.36 1.06.71 1.41a15.93 15.93 0 01-.35 1.78h-1.02v-.36c0-.35-.36-.35-.71 0a6.51 6.51 0 01-2.49-.71h1.78c0-1.06-.36-1.42-1.07-1.42-.35 0-.71.71-.71 1.07-.71-.36-1.77-.36-2.83-.71-.71-.36-1.42.35-1.42 1.42 0 .71-.36 1.42-.36 2.13h-1.42v-.36c.36 0 .71-.35 1.07-.71v-1.06a.35.35 0 00-.36-.36h-1.41c-.36 0-.36-.35-.71-.35a15.61 15.61 0 001.41-2.48 2.83 2.83 0 00-.7-3.55c-.36-.35-.71-.71-1.42-.35v-.36c0-.71-.36-.71-.36 0v.36a.34.34 0 00-.35.35c-.36.35-.71.71-.71 1.06-.36-.35-.71-.71-.71-1.06-.71-.71-1.42-.71-1.77 0a4.11 4.11 0 00-.71 3.55 14.85 14.85 0 001.42 2.48v.35a1.87 1.87 0 00-1.42-.71c-.71-.35-1.42 0-1.42.36a.34.34 0 01-.35.35c-.36-.71-.71-1.06-1.42-1.06a28.39 28.39 0 00-3.9 1.06h-.36a14.85 14.85 0 00-1.77.36h-1.78a1.23 1.23 0 00-.35-.71c-.71.35-1.42-.36-1.77-1.07h-1.07c-1.06 0-1.06.36-1.06 1.07h-1.06a1.3 1.3 0 01-1.43-1.42v-.35l-1.07 1.06c-.71 1.42-1.06 1.42-1.41 1.42a2.69 2.69 0 00-1.42-.71c-.36-.36-1.07-.71-1.42-1.07a1.33 1.33 0 00-1.07-.35c-.71.35-1.06.71-1.77.71v.71a1.26 1.26 0 00-.71.35 1.26 1.26 0 01-.71-.35 1.23 1.23 0 01-.71.35v.36c-.35 0-.35 0-.71-.36a2.68 2.68 0 01-1.77-.71v-.35h-.35c-.36-.36-.36-.71-.71-1.06a1.25 1.25 0 00-1.78-.36L822 38.49c0-.36-.36-.36-.71-.36-.36.36-1.07.36-1.07 1.42 0 .36-.35 1.07-.35 1.42a1.23 1.23 0 01-.71-.35c0-.36-.71-.71-.71-.71a1.12 1.12 0 01-.35.71c-.36 0-1.07.71-1.78.35l-1.06-1.06a3.08 3.08 0 00-2.13-1.07c-.35-.35-.71-.35-1.42-.35a.34.34 0 00-.35.35l-1.07-1.06a1.09 1.09 0 00-1.42 0l-.35.35c-.35-.35-.71-1.06-1.06-1.41a2.14 2.14 0 01.35-1.42 2.69 2.69 0 00.71-1.42 2.66 2.66 0 00-.71-1.42c0 .36-.35.71-.35 1.06h-.71c-.71 0-1.07.36-1.77 1.07a.88.88 0 00.35 1.42h.67c.35.35.35.71.71.71-.36.35-.36.71-.71 1.41a15.57 15.57 0 01-1-2.48c0-.35-1.07-.71-1.42-.35-.36.71-1.07 1.06-1.42 1.42-1.07.35-1.78-.36-2.84-.36a.35.35 0 01-.35.36l-.36.35a1.28 1.28 0 01-1.06.36.76.76 0 01-.71-.71c-.36-1.07-.36-2.13-1.42-2.84l-.36.35a4.89 4.89 0 01-2.12.71 5 5 0 01-2.13-.71l-1.06-1.06a9.25 9.25 0 00-2.13-1.77 4.53 4.53 0 00-4.26 0 1.41 1.41 0 00-.71 1.42c.36.35.36.7.71 1.06v.35a1.28 1.28 0 01-1.06.36 13.24 13.24 0 00-3.55-1.07 1.31 1.31 0 01-1.06-.35c0-1.42-.36-2.48-1.42-2.48 0 1.06.36 2.13.36 3.54-.36.36-.36.71-1.07 1.07a1.31 1.31 0 00-1.06.35 7.86 7.86 0 00-1.42-1.77v-.36c0-.7-.35-.7-.35 0 .7-.35.35-.7-.36-.7l-.71-.71a1.56 1.56 0 00-1.77 0c-.36 0-.36.35-.71.71a15.61 15.61 0 01-2.48 1.41c-.36.36-1.07.71-1.42 1.07-.36 0-.71.35-1.07.35a1.31 1.31 0 01-1.06-.35.68.68 0 010-1.07 4.83 4.83 0 011.42-1.06 1.09 1.09 0 000-1.42 3.62 3.62 0 00-1.77-1.42c-.71-.35-1.78 0-1.78.71 0 1.07-.35 1.78-.35 2.84l-1.07 1.06c-.35-1.06-.35-2.48-.71-3.54 0-.36-.7-.71-1.41-.71h-1.07a17.84 17.84 0 01-7.44.71c0-1.07-.71-1.78-1.42-1.42-1.07.35-1.42 1.06-1.07 1.77a1.85 1.85 0 00.71 1.42 5 5 0 01-1.06 1.42V31.4c-.36 0-1.07.35-1.42.35a1.33 1.33 0 01-.35 1.07c0 .7-.71 1.06-1.42 1.41-.71 0-1.07.36-.71 1.07 0 .35.35.71.35 1.06a1.33 1.33 0 01-.35 1.07 1.27 1.27 0 01-1.06-.36 12.24 12.24 0 00-2.84-3.19 7.63 7.63 0 00-3.9.71 2.71 2.71 0 01-1.78.35c-.71-.35-.71-.71-1.06-1.42-.35-.35-1.06-.7-1.42-.35L728 34.23c-.35.36-.71 0-.71-.35v-.71a5 5 0 00.36-3.19 2.64 2.64 0 01-.36-1.77c.36-.36.71-1.07 1.07-1.42.35-.71 0-1.42-.71-1.42a3.15 3.15 0 01-1.77-.36 1.3 1.3 0 01-.36 1.07l-1.06 1.06a1.3 1.3 0 00-1.07.36 5.26 5.26 0 001.08 2.5c.35.35 0 .71-.36.71-.71 0-1.06 0-1.41-.71-.71-1.07-1.07-2.48-1.78-3.55a.34.34 0 01-.35-.35l-1.42.71h-1.06c-1.42-.36-1.42-.36-1.42.35s.35 1.07 1.06 1.42c.36.35.71.35.71 1.06a9.25 9.25 0 01-1.77 2.13.67.67 0 01-1.07 0c-.71-.35-1.06-.71-1.77-1.06a1.07 1.07 0 00-1.42 0c-.71.35-1.06.71-1.77 1.06a1.3 1.3 0 01-1.07.36 2.7 2.7 0 01-1.41-.71v-1.09a2.2 2.2 0 00.35-2.48l-1.06-1.06a3.61 3.61 0 01-1.78 2.83c-1.06.36-2.48 1.07-3.9 1.42h-.35l-.36-.35c0-.71-.35-.71-.71-.36 0 .36 0 .71-.35.71a.35.35 0 01.35.36 10.39 10.39 0 01-2.48 1.77c-1.06-.35-2.13-.35-2.84-1.42l-2.12-1.06a5 5 0 01-1.07-1.42v-.36c0-.35 0-.35-.35-.7.35 0 .71.35 1.06.35h.36v.35a.35.35 0 00.35.36l.36-.36v-1.77a.35.35 0 00-.36-.35 1.86 1.86 0 00-2.48-1.42c0-.71 0-1.06-.36-1.06a1.22 1.22 0 00-.7.35c0 .35 0 .71.35.71-.35 0-.71-.36-1.06-.71a1.08 1.08 0 01-.36-.71 4.78 4.78 0 00-2.48 2.13c-.35.35 0 1.06.36 1.42 1.77.71 1.77.71 1.41 2.48v.35c0 .71 0 .71.71 1.07a1.9 1.9 0 011.07 1.42h-3.19a5.12 5.12 0 01-2.13-.71c0-.36-.36-.71-.36-1.42-1.42 0-2.48 0-3.19 1.06a3.46 3.46 0 01-3.19.36 1.84 1.84 0 00-1.42.71h-1.06c0-.36-.36-.71-.36-1.07a.35.35 0 01.36.36l.35-.36c0-.35-.35-.71-.71-.35v.35a2.14 2.14 0 00-1.42-.35 1.84 1.84 0 00-.7 1.42c0 .7.35 1.06.35 1.77v1.06a1.53 1.53 0 01-1.42 1.42c-.71-.35-1.42-.35-2.13-.71a9.65 9.65 0 00-2.83-2.48l-3.2-2.13c-1.41 0-2.83-.35-3.9-.35-1.41.35-3.19 1.06-4.6 1.42-1.07.35-1.42 1.06-1.78 2.12a30.59 30.59 0 01-2.13-3.54.35.35 0 01.36-.36v-.35c-.36-.36-.36-.36-.71-.36a.35.35 0 00-.36.36V31h-2.48c-.35 0-1.06-.71-.71-1.06 0-.36.36-.71.36-1.07a1.32 1.32 0 01.35-1.06c0-.35-.35-.71-.71-.35-1.77.35-2.48 1.41-3.19 2.83 0 .36-.71.36-1.06 0s-.71-.35-.71-.71a10.79 10.79 0 00-1.42-2.12c-.71-.71-1.06 0-1.42 0-.71.35-1.06.35-1.77-.36a5 5 0 01-2.13.71 20.67 20.67 0 00-6.38 1.42c-1.07-.36-2.48-.71-3.55-1.06a5.94 5.94 0 00-2.48-.36 5 5 0 01-2.13-.71c-1.06 1.07-1.06 1.07-1.77.36l-.36-.36a1.22 1.22 0 00.36-.71c-.36-.35-.36-.35-.71-.71h-.35c-.36 0-.36.36-.71.71 0 .36.35.36.35.71a.35.35 0 00-.35.36 7.49 7.49 0 01-1.38 2.16c-.36.36-.36.71-.71.71a.67.67 0 01-1.07 0c-.71-1.42-1.41-2.48-3.19-2.83-.35 0-.71 0-.71.35a1.27 1.27 0 00.36 1.06c0 .36.35.71.35 1.07s-.35 1.06-.71 1.06h-2.52c-.71 1.42-1.77 2.84-2.48 4.26a2 2 0 00-1.06-1.78c0-.7.35-1.77.35-2.48-1.06 0-1.42.71-1.42 1.78a19.84 19.84 0 00-4.25-1.42c-1.42 0-2.49.35-3.91.35a24.49 24.49 0 01-3.19 2.13 9.65 9.65 0 00-2.84 2.48c-.71.36-1.42.36-2.13.71s-1.42-.35-1.42-1.42v-1.06c0-.71.36-1.07.36-1.77s0-1.07-.71-1.42c-.36-.36-1.42 0-1.42.35-1.78 0-2.13.71-2.13 1.07h-1.05c-.36-.36-.71-1.07-1.42-.71a3.45 3.45 0 01-3.19-.36 3.92 3.92 0 00-3.19-1.06c0 .35-.36 1.06-.36 1.42a3.81 3.81 0 01-2.48.71h-3.19c0-.71 0-1.42 1.06-1.78.71-.35 1.06-.71.71-1.06v-.36c-.35-1.41-.35-1.41 1.42-2.48a.87.87 0 00.35-1.42 15.59 15.59 0 00-2.48-2.12 1.26 1.26 0 01-.35.71c-.36.7-1.07.7-1.78.7a1.88 1.88 0 00-2.48 1.42.35.35 0 01-.35.36v.35c0 .36 0 .71.35.71h.35c.36 0 .71-.35 1.07-.35v.35a1.94 1.94 0 01-1.07 1.77c-.7.36-1.06.71-1.77 1.07-.35-.71-.71-1.07-1.06-1.07a3.26 3.26 0 00.36 1.78c-.71.71-1.42.71-2.48 0a4.9 4.9 0 01-2.84-1.78h-1.06c-1.42-.35-2.84-1.06-3.9-1.41a3.63 3.63 0 01-1.77-2.84l-1.07 1.06a3.26 3.26 0 00-.35 1.78v.35c0 .71 0 1.42.71 1.42v.35a2.69 2.69 0 01-1.42.71 1.33 1.33 0 01-1.07-.35c-.71-.36-1.06-1.07-1.77-1.07a1.09 1.09 0 00-1.42 0l-.35.36c-.36-.36-.71-.71-.36-1.07 0-.35.36-.7.36-1.06a1.31 1.31 0 01.35-1.06c0-.36-.35-.71-.71-.36a1.89 1.89 0 00-1.42.71h-.35c0 .36 0 .36-.35.71a7.82 7.82 0 00-1.07 1.77l-.35-.35c0-.36.35-.71.71-1.06s1.06-.71 1.06-1.42c0-.36 0-.36-1.42-.36h-1.06l-1.42-.71a.35.35 0 00-.35.36c-.71-.36-1.07 0-1.42.35-.71.36-1.07.36-1.78-.35-.35 0-.71.35-1.06.35a1.23 1.23 0 01-.35-.71 1.28 1.28 0 00-.36-1.06 3.22 3.22 0 00-1.77.35c-1.07 0-1.42.71-.71 1.42a.35.35 0 00.35.36 25.7 25.7 0 00-5 1.42c.35.35.35 1.06.71 1.41a1.3 1.3 0 01-.36 1.07c-.35.35-1.06 0-1.41-.36a14.85 14.85 0 01-1.42-2.48 1.09 1.09 0 00-1.42 0c-.71.71-1.42 1.77-2.13 2.48a2.69 2.69 0 00-1.42-.71h-1.06c-.36 0-.36.36-.71.36a2.34 2.34 0 00-1.42 1.77c0 .36-.35.71 0 1.42l-.35-.35a1.3 1.3 0 00-.36-1.07c-.35 0-1.06-.35-1.42-.35v3.19l-.71-.71v-.71c0-.35.36-.35.71-.71.36-.71.36-1.06-.35-1.06s-1.42 0-1.78-1.07a1.29 1.29 0 00-1.77-.71 3.54 3.54 0 00-1.74 1.38v.36a18.07 18.07 0 01-4.26-.71H500c-.71 0-1.42.35-1.42.71a1.31 1.31 0 01-.35 1.06c-.71-.35-1.07-.35-1.78-.71V31c0-.71-1.06-1.06-1.77-.71v-.71c-.35 0-.35 0-.35.36a.34.34 0 00.35.35c-.35.36-.71.71-1.06.71a6.8 6.8 0 00-2.48.36V31c-.36 0-.36 0-.36.36h-.71a7.61 7.61 0 01-1.77 1.06l-.36-.35a1.56 1.56 0 00-1.77 0c-.35 0-.35.35-.71.71a3.54 3.54 0 00-3.54 2.12 1.33 1.33 0 01-1.07-.35c-.35 0-.35-.36-.71-.36v-.35c0-.71.36-1.06.36-1.77s0-1.07-.71-1.42c-.36-.36-1.42 0-1.42.35-.36.36-.36 1.07-.71 1.42h-1.06c-.36-.35-.71-1.06-1.42-.71h-1.42c0-.35-.36-.71-.71-1.06a4 4 0 00-2.84-.36c-.71 0-1.06-.35-1.77 0 0 .36-.36.71-.36 1.07l-.7.71a5.09 5.09 0 01-2.49.71h-3.19c0-.71 0-1.42 1.07-1.78.71-.35 1.06-.71.71-1.06v-.36c-.36-1.41-.36-1.41 1.41-2.48a.88.88 0 00.36-1.42 5 5 0 00-1.42-1.06c.35 0 .35-.35.71-.71v-1.02l-.36-.36c-.7 0-1.06.36-1.06.71V24l-.35-.35a1.25 1.25 0 01-.36.71c-.35.7-1.06.7-1.77.7a1.88 1.88 0 00-2.48 1.42.35.35 0 01-.36.36v.35c0 .36 0 .71.36.71h.35c.35 0 .71-.35 1.06-.35v.35a1.94 1.94 0 01-1.06 1.77l-2.13 1.07a2.23 2.23 0 01-2.83.71 4.87 4.87 0 01-2.84-1.78h-1.07c-.35 0-.7-.35-1.06-.35v-.71c0-.35-.35-.35-.35-.71a.76.76 0 00-.71.71c-.71-.35-1.07-.35-1.78-.71A3.62 3.62 0 01444 25l-1.06 1.07a1.52 1.52 0 00.35 2.48.66.66 0 010 1.06 2.62 2.62 0 01-1.42.71 1.32 1.32 0 01-1.06-.35c-.71-.36-1.06-1.07-1.77-1.07a1.09 1.09 0 00-1.42 0c-.71.36-1.07.71-1.77 1.07-.36.35-.71 0-1.07 0-.35-.36-.71-.36-.71-.71a.35.35 0 00-.35-.36c-.36-.35-.71-.7-.71-1.06s.35-.71.71-1.06 1.06-.71 1.06-1.42c0-.36 0-.36-1.42-.36h-1.06l-1.42-.7a.34.34 0 00-.35.35c-.71 1.06-.71 2.48-1.78 3.55a1.84 1.84 0 01-1.42.7c-.35 0-.7-.35-.35-.7a5.34 5.34 0 001.02-2.48 1.31 1.31 0 01-1.06-.35c-.35-.36-.71-.71-1.06-1.06a1.3 1.3 0 00-.36-1.07 3.15 3.15 0 00-1.77.36c-1.06 0-1.42.71-.71 1.41.35.36.71 1.07 1.06 1.42a3.26 3.26 0 01-.35 1.78 3.43 3.43 0 00.35 3.19v.35a1.08 1.08 0 00-1.41 0c-.36-.35-1.07-.35-1.42-.71s-1.42 0-1.42.36c-.36.35-.36 1.06-1.07 1.42a3.15 3.15 0 01-1.77-.36 10.48 10.48 0 00-3.19-.71V31l-.35.36v.35h-.71a12.22 12.22 0 00-2.84 3.19 1.3 1.3 0 01-1.07.36c-.35 0-.35-.36-.35-1.07 0-.35.35-.71.35-1.06 0-.71 0-.71-.7-1.06a1.53 1.53 0 01-1.42-1.42 1.3 1.3 0 00-.36-1.07c-.35 0-1.06-.35-1.42-.35v3.19c-1.06-.71-1.41-2.13-2.12-3.19a31.75 31.75 0 01-8.16-.71h-.35v-.35c-.36 0-.36 0-.71.35h-.36c-.71 0-1.42.35-1.42.71-.35 1.06-.35 2.48-.7 3.55l-1.07-1.07c0-1.06-.35-2.13-.35-2.84s-1.07-1.06-1.78-.7a6.08 6.08 0 00-1.77 1.41 1.09 1.09 0 000 1.42 4.83 4.83 0 001.42 1.07.67.67 0 010 1.06l-.36.35c0-.35-.35-.35-.71 0a1.32 1.32 0 01-1.06-.35c-.35-.35-1.06-.71-1.42-1.06a14.85 14.85 0 00-2.48-1.42l-.71-.71a1.56 1.56 0 00-1.77 0c-.36 0-.36.35-.71.71a3.57 3.57 0 00-3.55 2.13 1.28 1.28 0 01-1.06-.36c-.36 0-.71-.35-1.06-1.06a1.3 1.3 0 00-.36-1.07c-.35 0-1.06.36-1.42.36a6 6 0 00-3.54 1.06 1.33 1.33 0 01-1.07-.35V31c.36-.35.36-.71.71-1.06s0-1.07-.71-1.42a4.51 4.51 0 00-4.25 0 9.25 9.25 0 00-2.13 1.77l-1.07 1.07c-.7.35-1.06.71-1.77.71a.35.35 0 00-.35-.36c-.36-.35-.71-.35-1.07.36-.35 0-.35-.36-.71-.36l-.35-.35c-1.06.71-1.06 1.77-1.42 2.83a.76.76 0 01-.71.71 1.31 1.31 0 01-1.06-.35l-.36-.36a.34.34 0 00-.35-.35 3.77 3.77 0 01-2.84.35l-.35-.35a1.27 1.27 0 00-.36-1.06c-.35-.36-.35-.36-.71 0a.87.87 0 00-1.41.35c-.36.71-.71 1.77-1.07 2.48l-.71.71c-.35 0-.35-.35-.71-.35a1.4 1.4 0 01-1.41-.71l-.36-.36c0-.35-.35-.35-.35-.71 1.06 2.13.71 2.13.35 2.49a4.9 4.9 0 00-1.06 1.41v1.11h-1.41a.35.35 0 01-.36-.36c-.35 0-.71.36-1.42.36-.35 0-.35-.36-.7-.71s-.71-.36-1.07-.71c.36-.35.36-.71 0-1.42a15.22 15.22 0 00-.35-1.77c-1.07 0-1.42.71-1.42 1.77-.36 1.42-.71-.35-.36.71h-.35a.67.67 0 00-1.06 0c-.36 0-.36.36-.71.36-.71.35-.71.35-1.07-.36-.35-.35-.35-1.06-.71-1.77 0-.36-.71-.36-.71 0L327 36.36c-.71.36-1.06 0-1.77-.35v.35a.35.35 0 01-.36.36c0 .35-.35.35-.71.35a.34.34 0 01-.35-.35 2.76 2.76 0 00-.71-1.78l-.35.36c-.36.35-.71.35-1.42.35a2.14 2.14 0 01-1.42-.35l-.71-.71a5 5 0 00-1.42-1.07c-1.06-.35-1.77-.7-2.84 0-.35.36-.71.71-.35.71 0 .36.35.36.35.71v.36c0 .35-.35.35-.71.35s-.7-.35-1.06-.35l-.35-.36c-.71-.71-1.42-.71-1.78 0a5 5 0 00-1.06 1.42h-.36a2.38 2.38 0 00-2.12-1.42l-.36-.35a.66.66 0 00-1.06 0l-.36.35c-.35.36-1.06.71-1.41 1.07s-.71.35-1.07.71c-.35 0-.35.35-.71.35s-.35 0-.71-.35V36c.36-.36.71-.36.71-.71a.67.67 0 000-1.07l-1.06-1.06c-.36-.35-1.06 0-1.06.71a3.15 3.15 0 01-.36 1.77c0 .36-.36.36-.71.71 0-.71-.35-1.42-.35-2.48 0-.36-.36-.36-.71-.36h-.71a13.8 13.8 0 01-5.32.71 7.53 7.53 0 01-1.42 2.13v-2.12c-.35 0-.71.36-1.06.36v.71c0 .35-.36.71-1.07.71a.76.76 0 00-.71.71c0 .35 0 .35.36.71 0 .35 0 .35-.36.7-.35 0-.35 0-.71-.35-.35-.71-1.41-1.42-1.77-2.13A5.94 5.94 0 00283 36c-.36 0-.71.35-1.06 0a.35.35 0 00-.36-.36 1.23 1.23 0 01-.35-.71c0-.35-.71-.35-1.07-.35-.35.35-.71.35-1.42.71-.35 0-.35 0-.71-.36v-.35a2.24 2.24 0 000-2.13 1.31 1.31 0 00-.35-1.06c.35-.36.35-.71.71-1.07s0-1.06-.71-1.06h-1.08V30a.35.35 0 01-.36.35c0-.71-.35-1.06-.71-.71 1.42-.35 1.07 0 1.07.71a.35.35 0 00.35.36c0 .35.35.71.71 1.06 0 .36 0 .36-.36.36a1.29 1.29 0 01-1.06-.36 1.1 1.1 0 01-.35-.71v-.71h-.36c0-.35-.35-.71-.35-1.06h-.36l-1.06.35H272a.76.76 0 00.71.71c.35 0 .35.36.35.71a2.08 2.08 0 01-.71 1.78c-.35 0-.35.35-.71 0s-.71-.71-1.06-.71a.67.67 0 00-1.07 0c-.35.35-.71.71-1.06.71s-.36 0-.71.35a1.31 1.31 0 01-1.06-.35v-.71a1.09 1.09 0 000-1.42L266 30a1.94 1.94 0 01-1.07 1.77c-.71.36-1.77.71-2.48 1.07h-.71c-.35.7-1.06.7-1.77 1.06s-1.42.35-1.77-.36-.71-.7-1.42-1.06c-.36-.35-.71-.71-.71-1.06V31c.35 0 .35 0 .71.36h.35c.36 0 .36-.36.36-.71V30c-.71-.71-1.07-1.07-2.13-.71-.36 0-1.06 0-1.06-.36l-.36-.35a2.77 2.77 0 00-1.46 1.42c-.35.35 0 .71.36.71a.34.34 0 01.35.35c0 .36.36.36.36.71v1.07c0 .35 0 .7.71.7s.7.71.7 1.07h-2.12a2.1 2.1 0 01-1.42-.36 1.25 1.25 0 00-.36-.71 2.09 2.09 0 00-1.41.36.35.35 0 01-.36-.36l-.35.36v.35a4.45 4.45 0 01-2.13.36 1.23 1.23 0 00-.71.35h-.71c0-.35-.35-.71-.35-1.06-.36-1.06-.71-1.42-1.07-1.06-.35 0-.35.35-.35.7s.35.71.35 1.07v.71c-.35 0-.35.35-.71.71v.35h-.35c-.36 0-1.07-.35-1.42-.35a3.53 3.53 0 00-1.77-1.42 11.47 11.47 0 01-2.13-1.77h-2.48a10.52 10.52 0 00-3.2.7 1.65 1.65 0 00-1.06 1.78l-1.06-1.07.35-.35c.36-.71.71-1.06 1.07-1.77.35-1.07 0-2.49-.71-2.84-.71-.71-1.42-.36-2.13 2.13a2.1 2.1 0 00-.36 1.42c-.35-.36-.35-.71-.71-.71a.68.68 0 00-1.06.35 4.67 4.67 0 01-1.77.36c-.36 0-.36.35-.36.7s.36.36.36.71v.71a5 5 0 00-1.07 1.42c0 .36 0 .36-.35.71-.71-.71-1.06-1.06-.71-2.13a1.07 1.07 0 000-1.42 2.75 2.75 0 00-1.42-1.41h-.71c-.35 0-.71.35-1.06.35a6.31 6.31 0 00-1.42-1.77.66.66 0 00-1.06 0c-.36.35-.71 1.06-1.07 1.42.36.71 0 .71-.35.71s-.36-.36 0-.71c0-.36.35-.71.35-1.07-1.42-.35-2.83-.71-4.61-1.06-.35 0-1.06-.36-1.42-.36-.35.36-.35.71-1.06.36-.35 0-.71-.36-1.06 0s-.36 1.06-.71 1.42c0 .35-.36.35-.36.71h-.71c-.35-.71-1.06-1.78-2.12-1.78-.36 0-.36 0-.71.36v1.42a.77.77 0 01-.71.71c0-.36 0-.36-.36-.71a3.43 3.43 0 00.36-2.49c-1.07-.35-1.42.71-1.42 1.78-.36 1.77-1.06-.36-.36 1.06a1.22 1.22 0 00.36.71c-1.06 1.77-2.13 3.9-3.19 5.67h-.71v-2.14c.35-1.78.35-2.13-1.42-2.13H194c-.71 1.06-1.06 1.77-2.13 1.42 0 0-.71.35-.71.71s0 1.06.36 1.06c.71 1.06 1.42.71 2.13.71v.35a12.72 12.72 0 00-3.55.71c-.35 0-.71.36-1.42.36 0-1.07 0-1.42-1.42-1.42l-.35-.36a.35.35 0 00-.36.36v.35h-.35c-1.42 1.07-1.77 1.78-2.84 1.78v-.71c0-.36-.35-.36-.71-.36s-.35.71-.35 1.07a.34.34 0 00.35.35l-.35.36a1.31 1.31 0 00.35 1.06c.36.71 1.07.71 1.78.71l-.36.35c-1.06-.35-2.13 0-3.19 0v-1.77c0-.35 0-.71-.35-.71a2 2 0 00-1.78-1.06H178c-.71-1.78-1.06-2.84-2.12-3.55v-.71a12.55 12.55 0 001.77-2.83 3.78 3.78 0 00-.71-4.26c-.71-.71-1.42-1.06-2.13 0-.35.35-.35.71-.71.71-.35.35-.71 1.06-1.06 1.42-1.04 1.06-1.04 2.48-1.04 4.25-.36.36-.71.36-1.07.71a3.15 3.15 0 00-1.77.36l-.36.35v1.07c.71 1.06 1.42 1.06 2.49 1.06-.36.35-1.42.35-2.84.35 0-.71-.35-1.41-.35-2.48a2.71 2.71 0 00-.71-1.77c-.36-.36-.36-.71-1.07-1.07a1.73 1.73 0 00-2.48 0l-2.13 2.13a.35.35 0 01-.35.36 6.1 6.1 0 01-1.78.71c-.35-.36-.35-.71-.7 0v.35h-1.42c-.36-.35-.36-.71-.71-1.06a9.64 9.64 0 00-.36-3.19c0-.71-.71-.71-1.06-.36a5.07 5.07 0 00-.71 2.48c-.71 0-1.06.36-1.06.71a5 5 0 00-1.07 1.42h-.35c0-.71 0-1.42-.71-1.77h-.71a1.72 1.72 0 00-.36 1.06.35.35 0 00.36.36h-3.9c-.36 0-.36-.36-.71-.36a7.28 7.28 0 01-1.11-1.77c-.71-1.77-1.07-1.77-2.13 0 0-.36-.36-.36-.36-.71a1.26 1.26 0 01-.35.71h-.71c-1.06.71-1.06.71-1.06 2.48.35 0 .7 0 .7.36v.35a12.2 12.2 0 00-2.83 1.77l-.36-.35h-1.06a1.22 1.22 0 00-.36.71 3.39 3.39 0 00-3.48-1.07h-.36a3.78 3.78 0 012.84-.35 3.55 3.55 0 00.36-1.06c-1.07-1.78-1.07-4.26-2.13-5.68-.36-.35-.71-.35-1.07.36-.71 1.41-1.77 2.48-2.48 3.9-.35.35 0 1.42 0 1.77l-.35.35c-.36-.7-.71-.35-1.42 0H128l-.35-.35c0-.71.35-1.77.35-2.48s-.35-1.42-.7-1.42c-1.07-.36-1.78 0-1.78 1.06-1.06 0-1.42-.35-1.42 0-.35 0-.35.71-.35.71a.35.35 0 00.35.36c-.35.35-.35.71-.71.71a3.49 3.49 0 01-2.83-.36.35.35 0 01-.36.36l-.35.35a1.3 1.3 0 01-1.07.36.77.77 0 01-.71-.71 2.71 2.71 0 00-.35-1.42h.71c.71-.36.71-.71.35-1.42a3 3 0 00-2.12-1.06H116c-.36-.36-.36-.71-.71-1.07a2.69 2.69 0 00-.71 1.42v1.06c-.71 0-1.07-.35-1.77-.71l-1.07-1.06a9.25 9.25 0 00-2.13-1.77 4.51 4.51 0 00-4.25 0V31c-.36.36-.71.71-.36 1.07s.36.71.71 1.06v.35a1.28 1.28 0 01-1.06.36 13.22 13.22 0 00-3.55-1.06c-.35-.71-.7-1.07-1.41-1.07-.71.36-1.07.71-1.78.71h-1.1a.76.76 0 00-.71.71c-.71 0-1.42-.35-2.48-.35l-.71-.71a1.58 1.58 0 00-1.78 0c-.35 0-.35.35-.7.71a15.32 15.32 0 01-2.49 1.41c-.35.36-1.06.71-1.42 1.07-.35 0-.7.35-1.06.35a1.31 1.31 0 01-1.06-.35.67.67 0 010-1.07l.35-.35.36.35v-.71c.35 0 .35-.35.71-.35a1.09 1.09 0 000-1.42.35.35 0 01-.36-.35v-.71c-.35 0-.35 0-.71.35.36-.35 0-.71-.35-.71H84c-.71-.35-1.77 0-1.77.71 0 1.07-.36 1.78-.36 2.84-.35.35-.7.71-1.06 1.06-.35-1.06-.35-2.48-.71-3.54 0-.36-.71-.71-1.42-.71h-1.02a20.76 20.76 0 01-8.16.71c-.71 1.06-1.06 2.48-2.12 3.19V31.4c-.36 0-1.07.35-1.42.35a1.3 1.3 0 01-.36 1.07c0 .7-.71 1.06-1.42 1.41-.7 0-1.06.36-.7 1.07a2.71 2.71 0 01.35 1.42 1.31 1.31 0 01-.35 1.06 1.33 1.33 0 01-1.07-.35 12.26 12.26 0 00-2.84-3.2 7.64 7.64 0 00-3.9.71 2.61 2.61 0 01-1.77.36c-.71-.36-.71-.71-1.06-1.42.35-.71-.36-1.06-1.07-.71l-2.12 1.06c-.36.36-.71 0-.71-.35v-.71a3.42 3.42 0 00.35-3.17 2.7 2.7 0 01-.35-1.77c.35-.36.71-1.07 1.06-1.42.35-.71 0-1.42-.71-1.42a3.15 3.15 0 01-1.77-.39 1.3 1.3 0 01-.36 1.07l-1.06 1.07a1.27 1.27 0 00-1.1.36 5.25 5.25 0 001.1 2.5c.35.35 0 .71-.36.71-.7 0-1.06 0-1.41-.71a.35.35 0 00-.36-.36v-.35l-.35-.36a23.82 23.82 0 01-1.07-2.83.35.35 0 01-.35-.36l-1.42.71h-1.06c-1.42-.35-1.42-.35-1.42.36s.35 1.06 1.06 1.42c.36.35.71.35.71 1.06a9.25 9.25 0 01-1.77 2.11.68.68 0 01-1.07 0 5.52 5.52 0 01-2.12-1.4 1.07 1.07 0 00-1.42 0c-1.07.35-1.42 1.06-2.13 1.42a1.31 1.31 0 00-1.06.35 2.62 2.62 0 01-1.42-.77v-1a1.52 1.52 0 00.35-2.48l-1.06-1.07c0 1.07-.71 1.78-1.77 2.84a26.22 26.22 0 00-3.91 1.42h-1.06a4.86 4.86 0 01-2.84 1.77 2.2 2.2 0 01-2.79-.73l-2.13-1.06a2 2 0 01-1.06-1.78v-.35c.35 0 .71.35 1.06.35h.35c.36 0 .36-.35.36-.7v-.36a.35.35 0 00-.36-.35c-.7-1.78-1.06-2.49-2.48-2.13a1.29 1.29 0 01-1.77-.71c-.36 0-.36-.35-.71-.71-1.06.36-1.77 1.42-2.48 2.13a.68.68 0 00.35 1.06c1.78.71 1.78.71 1.42 2.48V30c0 .71 0 .71.71 1.06 1.06.36 1.06 1.07 1.06 1.78H7.09c-.71 0-1.42 0-1.77-.71 0-.36-.36-.71-.36-1.42-1.41 0-2.48 0-3.19 1.06a3.81 3.81 0 01-1.77.34v2.83l.35.36H0V47zM34.4 33.88a1.87 1.87 0 01-.71 1.42c-.36 0-.71-.36-.71-1.42 0-.36 0-.71.71-.71 0 0 .71.35.71.71zM73.05 36h-.36c-.35-.36-1.06-.36-1.41-.71l-.36-.36c0-.35.36-.35 1.07-.35a1.82 1.82 0 011.41.71c.36.01 0 .36-.35.71zm5.67-.71H76.6c1.06-1.06 1.4-1.06 2.12.01zm2.49 0c-1.07 1.06-1.07 1.06-2.13 0zM234 36.72c0 .35-.35.71-.35 1.06a2.74 2.74 0 01-1.42-1.42 2.17 2.17 0 001.42-.35c.35-.36.35.35.35.71zm14.19-1.42a2.14 2.14 0 00-1.42.35c-.36 0-.71 0-.71-.71v-1.06a7.32 7.32 0 012.17 1.42zm128 1.42h-.35c-.36-.36-.36-.71-.36-1.42a2.14 2.14 0 011.42.35c.1.35-.3.71-.66 1.07zm17-1.42c-1.06 1.06-1.06 1.06-2.12 0zm2.13 0h-2.13c1.14-1.07 1.14-1.07 2.2 0zm5.67-.71a.34.34 0 01-.35.35 2.66 2.66 0 01-1.42.71h-.35a.66.66 0 010-1.06 1.8 1.8 0 011.42-.71c.42.35.77.35.77.71zm38.66-.36a2.48 2.48 0 01-.71 1.42c-.71-.35-.71-.71-.71-1.42 0-.35.35-.71 1.06-.71.07 0 .43 0 .43.71zm140.42-1.06v1.42a.93.93 0 01-1.06 1.06c-.71 0-1.42-.35-2.13-.35.78-1.42 2.2-1.78 3.26-2.13zm21.28 3.19a3.22 3.22 0 01-2.13 2.13.35.35 0 00-.35-.36c0-.35.35-1.06 0-1.77l.35-.35c.78-.01 1.49.35 2.2.35zm16-5a1.82 1.82 0 00-.71 1.42 2.22 2.22 0 000 2.12v.71l-.36.36a.35.35 0 01-.35-.36l-.36-.35c.36-1.07 0-2.48.36-3.55l.35-.35a.67.67 0 011.1.04zm23 3.19c0 .35-.36.35-.36.71h-.35a.35.35 0 01-.36-.36v-.71a2.22 2.22 0 000-2.12c-.35-.36-.35-1.07-.71-1.42a1.3 1.3 0 011.07-.36.35.35 0 01.35.36c.44 1.81.08 2.87.44 3.94zm17 2.48c-.36.36-.36 1.06-.71 1.42a3.2 3.2 0 01-2.13-2.13c.71 0 1.42-.35 2.13-.35.45.03.81.39.81 1.1zm55.67-3.19a1.84 1.84 0 01-.71 1.42c-.35 0-.71-.36-.71-1.42 0-.36 0-.71.71-.71a.76.76 0 01.81.75zm39 2.13h-.36c-.35-.36-.71-.36-1.06-.71l-.36-.36v-.35c0-.36.36-.36 1.07-.36a1.87 1.87 0 011.42.71c-.25.4-.25.75-.6 1.1zm5.67-.71h-2.13c.36-.36.71-.71 1.07-.71a.34.34 0 00.35.35.35.35 0 00.36-.35c.11.39.11.39.46.75zm2.13 0c-1.07 1.06-1.07 1.06-2.13 0zm15.6 0a2.17 2.17 0 01-.35 1.42h-.36c-.35 0-.71-.36-.35-.71.46-.67.82-.67 1.17-.67zm328.37 4.61h-.35a1.3 1.3 0 01-1.07-.36v-2.08c1.07.7 1.07.7.71 1.41v.36c0 .35 0 .71.71.71zm53.9-3.55c-.35.36-.71.36-.71 0-.35-.35-.35-.71-.35-1.42a2.12 2.12 0 011.42.36c.11.74.11 1.1-.25 1.1zm18.8-1.06h-2.13c1.17-1.03 1.17-1.03 2.24.04zm6-.71a.34.34 0 01-.35.35 2.66 2.66 0 01-1.42.71h-.35a.66.66 0 010-1.06 1.82 1.82 0 011.41-.71c.13.39.49.39.84.75zm38.3-.36a2.48 2.48 0 01-.71 1.42c-.71-.35-.71-.71-.71-1.42a.77.77 0 01.71-.71v.36h.36v-.36c.48.04.48.04.48.75zm35.46-1.06v1.42a.93.93 0 01-1.06 1.06c-.71 0-1.42-.35-2.13-.35.84-1.38 2.26-1.74 3.32-2.09zm21.28 3.19a3.2 3.2 0 01-2.13 2.13c-.35-.36-.35-1.06-.71-1.42-.35-.71.36-1.06.71-1.06 1.2.03 1.6.39 2.26.39zm22.69 0a4.56 4.56 0 01-.35 2.13.76.76 0 00-.71.71v.35c-.35.36-.35.36-.71 0l-.35-.35c0-.71 0-1.07.35-1.42l.36-.35c.48-.32 1.19-.67 1.54-1.03zm16.32-1.42a.35.35 0 01-.36.36l-.35.35a.35.35 0 01-.36-.35c-.35-.71-.35-1.42-.71-2.13 0-.35-.35-1.06-.35-1.42s.71-1.06 1.06-.71a.35.35 0 01.36.36c.84 1.1.48 2.52.84 3.58zm180.14.36h-2.13c1.19-1.03 1.19-1.03 2.26.04zm6-.71a.35.35 0 01-.36.35 2.62 2.62 0 01-1.42.71h-.35a.66.66 0 010-1.06 1.82 1.82 0 011.42-.71c.16.39.51.39.87.75zm38.29-.36a2.49 2.49 0 01-.7 1.42c-.71-.35-.71-.71-.71-1.42 0-.35.35-.71 1.06-.71.51.04.51.04.51.75zm35.47-1.06v1.42a.94.94 0 01-1.07 1.06h-.71c0-.35-.35-.71-.35-1.06a7.32 7.32 0 012.29-1.38zm21.63 3.19c-.36.36-.36.71-.71 1.07l-.36-.36c-.35-.71-1.06.36-1.42.36v-.36c-.35-.71.36-1.06.71-1.06a15.93 15.93 0 001.94.39zm-699.49 3.23c-.35-.35-.71-.35-1.06-.71a2.17 2.17 0 001.42-.35c0 .35-.36.71-.36 1.06zM464.18 31a.35.35 0 00.36.36c-.36 0-.36.35-.71.35 0-.35 0-.35-.35-.71.35.4.35 0 .7 0zM1573.05 8.7a1.31 1.31 0 01.35-1.06c0 .35.36.35.36.71a1.26 1.26 0 01-.71.35zM141.49 33.52l.35.36-.35-.36c.35.36 0 .36 0 0zm1398.23.36c.35 0 .35-.36.71-.36a.35.35 0 00.35.36c-.35 0-.35.35-.71.35a.34.34 0 01-.35-.35zM1584 25zm-8.51-5.32c0-.35 0-.7.36-.7l.35.35a1.31 1.31 0 01-.35 1.06zM1592.2 4.8v-.35c0-.36 0-.71.35-.36-.35.36-.35.36-.35.71zm-17.38 3.9a.35.35 0 01.36-.35c.35-.36.71.35.71.71a1.25 1.25 0 01-.36.71c-.71.35-1.06-.36-.71-1.07zm0 8.16l-.35-.36v-.71a.68.68 0 011.06-.35l.36.35c0 .36-.71 1.42-1.07 1.07zM1591.49 31c0-.35-.36-.35-.36-.71s.36-.71.71-.35a1.22 1.22 0 01.36.71c0 .35-.36.75-.71.35zm-1.06-3.19c0-.35.35-.71.7-.35a.35.35 0 00.36.35c-.36 0-.36.36-.71.36s-.35.04-.35-.32zM1589 8.35c0-.36.35-1.07.71-1.07a.35.35 0 00.35.36 1.31 1.31 0 01-.35 1.06c.01.36-.71 0-.71-.35zM1584 25zM1425.89 9.77v-.36c0-.35.35-.71.35 0zm20.56 5v-.35s.36-.36.36 0c0-.42 0-.04-.36.31zm23 12.77l-.35-.36a.34.34 0 01.35-.35l.36.35a.35.35 0 00-.31.32zm-17.37 2.83c.35-.35.35 0 .35 0v.36c-.3-.04-.3-.04-.3-.4zm-14.54 6c0-.35-.36-.35-.36-.71 0-.71.36-1.06.71-1.06a1.22 1.22 0 01.36.71c0 .35 0 .35-.71 1.06zm6.74-2.84v-.35c0-.35.35-.35.35 0a.34.34 0 01-.35.35zm15.24-13.83c0 .36-.35.36-.7.36 0-.36-.36-.36-.36-.71 0-.71.36-1.06.71-.71a1.77 1.77 0 01.4 1.05zm-5 3.55v-.35c.35-.36.35 0 .35.35a.35.35 0 01-.35.36zm5.32 2.84c.35 0 .35.35.35.71a.34.34 0 01-.35.35zm-.71-10.29c0-.35.35-.35.71-.35a1.23 1.23 0 01.35.71 1.26 1.26 0 01-.35.71c-.27-.01-.62-.72-.62-1.08zm-24.11-11.7c0-.35.35-.71.71-.35a.34.34 0 00.35.35c-.35 0-.35.36-.71.36a.35.35 0 01-.26-.37zm12.14-2.1c-.35 0-.35-.35-.35-.7s.35-.36.71-.36a.35.35 0 00.35.36v.35c-.35-.04-.35.35-.71.35zm-28.37 14.9v-.71a.35.35 0 01.36-.36 1.23 1.23 0 00.35.71c-.35-.04-.35-.04-.71.32zm8.21-7.13c0-.71.35-1.42.35-1.07s.36.71.36 1.07 0 1.06-.36 1.06c-.05-.35-.05-1.06-.35-1.06zm-3.9-5.32a1.23 1.23 0 01.35-.71 1.25 1.25 0 00.36.71 1.25 1.25 0 01-.36.71c-.05-.36-.4-.36-.4-.71zm-4.26 31.91a.35.35 0 01.36-.35l.35.35zm95.7-17.36c0-.36-.36-.71-.36-1.07a1.25 1.25 0 01.36-.71c.35 0 .35 1.07.35 1.42s-.35.7-.35.36zm-86.17 11.7a1.22 1.22 0 00-.37-.7c0-.71.36-.71.71-.36 0 .36.36.71 0 1.07.01-.38.01-.38-.34-.02zm-1.07-7.09c.36-.37.36-.01 0-.01zm.71 11c-.35.35-.35.35-.71.35l-.35-.35c0-.36 0-.71.35-.71a1.1 1.1 0 01.71.35zm-.71-18.44a.35.35 0 01.36-.36c.35 0 .71.36.71 1.07-.36 0-.36.35-.71.35a.68.68 0 01-.36-1.08zm4.61 17.73c.36-.36.36 0 .36 0s0 .35-.36 0zm69.51-13.12c-.36 0-.36-.36-.71-.36v-.35c.35-.36.71-.71 1.06-.36a.35.35 0 00.36.36c-.36.33-.71.69-.71.69zm-.36 9.57a1.23 1.23 0 01-.35.71l-.36-.35c0-.36 0-.71.36-.71zM1494 5.16c-.35-.36-.35-.71-.35-1.42 0-.36.35-.36.71-.36a.68.68 0 01.35 1.07c-.38.71-.71.71-.71.71zm-1.06 24.46c-.36-.71 0-1.06 0-1.41 0 .35.35.7 0 1.41zM1506 15.44c.71 0 .71 0 .35.35a.34.34 0 01-.35-.35zm5.67 10.28c-.35 0-.35.36-.71.36 0-.36 0-.36-.35-.71h.71a.34.34 0 01.38.35zm.36-11c-.36 0-.36-.35-.71-.35l.71-.71.71.71a1.23 1.23 0 00-.68.36zm1.42-5a.35.35 0 01.35-.36h.35c0 .36 0 .36-.35.71a.34.34 0 00-.32-.3zM1511 30.69v-.36h.36zm-19.86-8.16c0-.35.36-.35 0 0 .36-.35.36 0 .36 0l-.36.36c.35-.36-.01-.36-.01-.36zM1470.57 30c-.36.35-.36 0-.36 0v-.36c.36-.37.36-.02.36.36zm2.83 1.42a.35.35 0 01.36-.36c.35-.35.35 0 .71.36a.35.35 0 01-.36.35 1.12 1.12 0 01-.71-.37zm9.58.71c0-.36 0-.36-.36-.71h.71a.35.35 0 00.36.35c-.36-.02-.69-.02-.69.34zm-9.22-10.64a1.22 1.22 0 00-.36-.71c0-.71.36-.71.71-.36 0 .36.36.71 0 1.07 0-.38-.35-.38-.35-.02zm-3.9-5.68a1.21 1.21 0 00-.36-.7c0-.36.36-1.07.71-1.07a1.08 1.08 0 01.71.36v1.06c-.35.33-.35.69-1.06.33zm19.86 4.26c0-.36-.36-.71 0-1.06 0-.36.35-.36.71-.36a1.26 1.26 0 01.35.71c-.35 0-.35.35-1.06.71zm.35 5.32c0 .35-.35.71-.71.35s-.71-.71-.71-1.06a1.26 1.26 0 01.71-.35c.71-.02 1.07.33.71 1.04zm-6.74-9.58a.35.35 0 01.36-.35.34.34 0 00.35.35zm7.8 14.19h-.35c0-.36-.35-.71-.71-1.07a1.29 1.29 0 01.36-1.06h.7a1.1 1.1 0 01.36.71c0 .69 0 1.04-.36 1.42zm-7.13-9.6a1.23 1.23 0 01-.35-.71v-.35c.35-.35.35-.35.71-.35l.35.7c.04.71-.31 1.07-.71.71zm-98.18-14.53c0-.36.35-.36.35-.71l.35.35a1.3 1.3 0 01-.35 1.06c-.35-.35-.35-.35-.35-.7zm-373.76 11s-.36-.36 0-.36c0-.35 0-.71.35-.71l.36.36c-.36 0-.36.35-.71.71zm.35 19.5h-.35a.34.34 0 01.35-.35c-.35-.02-.35-.02 0 .34zm4.26-21.63c0-.35 0-.71.35-.71l.36.36v1.06c-.38-.72-.71-.72-.71-.72zm-11.71-5v-.33c0-.35.36-.35.36 0zm-1.77-.36a1.28 1.28 0 01.36-1.06c0-.36.35.35.35 1.06 0 .36-.35 1.07-.35.71-.36.39-.36-.32-.36-.68zm11.7 20.21a.35.35 0 01.36-.35 1.05 1.05 0 01.71 1.42l-.36.35c-.35-.01-.71-.68-.71-1.39zm-1.06 4.61zm0-7.8c-.35 0-.35-.35-.35-.71l.7-.71h.36c.35 0 .35.36.71.71 0 .36-.36.36-.36.71zm-6.74-22a1.22 1.22 0 01.36-.71 1.26 1.26 0 00.35.71 1.26 1.26 0 01-.35.71c0-.31 0-.31-.36-.66zm-20.92 29.12v-.35c0-.71.36-.71.36 0a.35.35 0 01-.36.35zm6.74 2.48a1.22 1.22 0 00-.36-.71 1.22 1.22 0 01.36-.71c.35 0 .71.35.71 1.06a1.25 1.25 0 01-.71.36zM983 1.61v-.35l.35-.36c.36 0 .36.36.71.36.36.35 0 .7-.35.7a1.26 1.26 0 00-.71-.35zm1.42 13.12c-.36-.35-.36-.35 0-.71h.35c-.02.36-.02.36-.37.71zM995 4.09a.35.35 0 01.36-.35c.35-.36.35 0 .71.35a.35.35 0 01-.36.36c-.32 0-.32-.36-.71-.36zm3.55 29.79c.36-.36.36 0 .36 0s0 .35-.36 0zm5-10.64c.35.36 0 .36 0 .71-.36-.35-.36-.71 0-.71zm0 11.7c-.36 0-.36-.35-.71-.35v-.36c.35 0 .35-.35.71-.35l.35.71zm-1.07-4.25c-.35 0-.35 0-.71-.36v-1.06c.36-.36.71 0 .71.35a.67.67 0 010 1.07zm1.42-14.54c0 .35 0 1.06-.35 1.06s-.36-.35-.71-.35c0-.71.35-1.07.71-1.07 0-.35 0 0 .35.36zm40.43-16.31c-.36 0-.36 0-.36-.36a.35.35 0 01.36-.35c.35 0 .35 0 0 .71.35-.36.35 0 0 0zm-.71 40.42c0 .36 0 .71-.36.71v.36c0 .71-.35 1.06-.71.71-.35 0-.35-.71-.35-1.07v-.71c0-.71.35-1.06.71-1.06.35.35.71.71.71 1.06zm-11.35-15.6h.35a.34.34 0 01-.35.35zm7.09-6.74c0-.35-.35-.35-.35-.71 0-.71.35-1.06.71-.71l.35.71c-.35.36-.71.71-.71.71zm4.26-11.35c0-.35-.36-.35-.36-.7s.36-.36.36-.71l.35.35c.03.71.03 1.06-.35 1.06zM1056 24.66c.35-.35.35-.35.35 0s0 .35-.35.71zm-7.09-7.45c0-.35 0-.71.35-.71.36-.35.71.36.71.71s-.35.36-.35.71c-.68 0-.68-.35-.68-.71zm-4.26-11.7a.35.35 0 01.36-.35c0 .35.35.35.35.71a1.22 1.22 0 00-.35.7c-.33 0-.68-.35-.33-1.06zm1.09 36.49c-.35.35-.7-.36-.7-.71V41c-.36-.35-.36-.35-.36-.71s.36-.35.71-.71c.35 0 .71.36.71 1.07v.71s0 .64-.36.64zm-21.63-6c0-.71.36-.71.71-.36 0 .36.36.71.36 1.07-.36 0-.36.35-.71.35 0-.34-.36-.7-.36-1.06zm-1.77 7.09a.5.5 0 010-.71 1.1 1.1 0 01.71.35v.36a.34.34 0 01-.35.35zm3.9-27.66a.35.35 0 01.36-.35l.35.35a.34.34 0 01-.35.35zm4.26-3.9v-.36h.35v.36c0 .36 0 .36-.35.01zm-8.51 28v-1.04c.35-.36.71 0 .71.71 0 .35-.36.35-.36.71zm6-15.24zm2.13-8.52c0-.35-.35-.35-.35-.7s.35-1.07.71-.71l.35.71c-.33.37-.69.37-.69.72zm-1.42 13.48a.49.49 0 01.71 0 .34.34 0 01-.35.35.35.35 0 01-.34-.33zm.36.71a1.25 1.25 0 01-.36.71c-.35 0-.35 0-.71-.36 0-.35 0-.71.36-.71.37-.33.73.02.73.4zm-81.56 1.77a.34.34 0 01.35-.35h.71c0 .35 0 .35-.35.71-.34-.34-.34-.34-.69-.34zm-28.37-6a.34.34 0 01.35-.35h.71c0 .35 0 .35-.35.71-.34-.01-.34-.01-.69-.37zm6.38 7.1c.36-.36.71-.36.71 0v1.06c-.33-.01-.69-.72-.69-1.07zm-5.67-2.49zm5-15.24a.48.48 0 010 .7c-.37-.36-.37-.36-.02-.71zm11.69-10.3a.68.68 0 01.35-1.06 1.12 1.12 0 01.71.35c.35.36 0 1.07-.36 1.42-.35-.35-.7-.35-.7-.71zm1.41 24.82c-.35-.71 0-1.06 0-1.41 0 .35.36.7 0 1.41zm-8.15-8.86c-.36 0-.36-.36-.71-.71a.35.35 0 01.35-.36c.36-.35.71-.35 1.07.36v.35a1.22 1.22 0 00-.71.36zm.35 10.64a1.23 1.23 0 00-.35-.71l.35-.36c.36 0 .36.36.36.71a.35.35 0 00-.36.36zm-22-8.87c0-.35.35-.35 0 0 .35-.35.35 0 .35 0l-.35.36c.37-.36.02-.36.02-.36zm11-7.8c-.36 0-.36-.35-.71-.35.35-.36.35-.36.71-.71l.71.71a1.23 1.23 0 00-.7.35zm-12.41 5.32c0-.36-.36-.71 0-1.06 0-.36.35-.36.71-.36a1.26 1.26 0 01.35.71c-.35 0-.35.35-1.06.71zm74.11 16.31l.36-.71c.35 0 .35.36.7.36 0 .35-.35.35-.35.71-.34 0-.7 0-.7-.36zm235.83-34.75v-.35l.33-.36c.36 0 .36.36.71.36.36.35 0 .7-.35.7a1.26 1.26 0 00-.69-.35zM908.16 30h-.36c0-.36-.35-.71-.71-1.07a1.29 1.29 0 01.36-1.06h.71a1.12 1.12 0 01.35.71c0 .69 0 1.04-.35 1.42zm9.93.35a1.22 1.22 0 01-.36.71l-.35-.35c0-.36 0-.71.35-.71zm1.06-10.28c-.36.35-.36.35-.71.71-.35 0-.35-.36-.71-.36v-.35c.36-.36.71-.71 1.06-.36a.35.35 0 00.36.34zm-9.22 9.57c-.36-.71 0-1.06 0-1.41 0 .35.35.7 0 1.41zM911 5.16c-.35-.36-.35-.71-.35-1.42 0-.36.35-.36.71-.36a.68.68 0 01.35 1.07c-.36.71-.71.71-.71.71zm-3.9 20.21c0 .35-.35.71-.71.35s-.71-.71-.71-1.06a1.26 1.26 0 01.71-.35c.7 0 1.06.35.7 1.06zm53.9 1.42a.35.35 0 01.36-.36l.35.36a.34.34 0 01-.35.35.35.35 0 01-.36-.35zm10.29-9.93c-.36 0-.36-.36-.36-.71a1.22 1.22 0 01.36-.71c.35 0 .35 0 .71.35 0 .36-.37 1.07-.72 1.07zm-.36 9.22c0 .35 0 .71-.35.71l-.36-.36c.36 0 .36-.35.71-.35zM961 30a.34.34 0 01-.35.35l-.36-.35c0-.36 0-.71.36-.36zm10.64-10.29c0-.35 0-.7.36-.7.35-.36.71 0 .71.7 0 .36-.36.36-.36.71-.35-.37-.72-.37-.72-.73zm6.74 10.64a.34.34 0 01.35-.35.35.35 0 00.36.35l-.36.36c-.36-.02-.36-.02-.36-.38zm2.48 1.07a.35.35 0 00-.35-.36v-.35c.35-.36.35-.36.71-.36a.35.35 0 01.35.36c.34.29-.01.69-.72.69zm-20.93-16.33V14c0-.35.35-.35.71-.35.35.35.35.71.71 1.06a1.25 1.25 0 00-.36.71c-.35.73-.71.37-1.06-.33zm16 8.15c0-.35 0-.71.35-.35v.35a.35.35 0 01-.35.36c.31 0-.04-.36-.04-.36zM947.52 36a.35.35 0 01-.36.35.34.34 0 00-.35-.35zm-6.74-10.64c0-.71 0-1.06.36-1.06a1.22 1.22 0 01.7.35c0 .71-.35 1.06-.7 1.06 0 .37-.36.01-.36-.34zm6.38-5.68a1.23 1.23 0 01-.35.71c-.36.36-.71 0-.71-.71 0-.35 0-.7.35-.7a1.26 1.26 0 00.71.35zm-6.38.36c-.36-.36-.35-.36-.35-.71a1.26 1.26 0 01.35-.71c.36 0 .36.36.71.36 0 .35-.35.7-.71 1.06zm16.31 11a.35.35 0 00.36.36c-.36 0-.36.35-.71.35l-.36-.35c.36-.4.36-.4.71-.4zm-9.93-15.6c.36-.35.36 0 .36 0 0 .35 0 .35-.36 0zm9.58 5.67v-1.06c.35-.36.71 0 .71.35a1.22 1.22 0 01-.36.71zm-16 7.8c0 .36-.35.71-.71 1.07h-.35c0-.36-.36-.71-.36-1.07a1.21 1.21 0 01.36-.7.49.49 0 01.71 0c.39 0 .39.35.39.7zm116.67-17.37v-.36h.35v.36c.04.35.04.35-.31 0zm-118.09 11c.36-.35.36 0 .36 0zm178.37 3.55c.36 0 .36.35.36.71a.35.35 0 01-.36.35zm9.57 1.42l-.35-.36a.34.34 0 01.35-.35l.36.35c-.32-.01-.32-.01-.32.35zm47.17-7.45c-.36-.36-.36-.36-.36-.71a1.25 1.25 0 01.36-.71c.35 0 .35.36.71.36 0 .35-.36.7-.71 1.06zm0 5.32c0-.71 0-1.06.35-1.06a1.23 1.23 0 01.71.35c0 .71-.35 1.06-.71 1.06.04.35-.31-.01-.31-.36zm-72.34 8.15v-.35c0-.35.35-.35.35 0a.34.34 0 01-.31.34zM1117 15.79c0-.35.36-.35.71-.35a1.22 1.22 0 01.36.71 1.25 1.25 0 01-.36.71c-.71 0-1.04-.71-.71-1.07zm11.7-1.41v1.06c-.35.71-.35.71-.71.71a1.23 1.23 0 00-.35-.71c0-.35.35-1.06.71-1.06-.35-.38.02-.38.37 0zm-.35-14.54a.35.35 0 00-.36-.36l.36-.35c.37 0 .37.35.02.71zM1128 30c-.35.35-.35 0-.35 0v-.36c.35-.37.72-.02.35.36zm3.2 1.42a.35.35 0 01.35-.36c.35-.35.35 0 .71.36a.35.35 0 01-.36.35c-.34-.02-.34-.02-.69-.37zm-23.41 5c0 .36-.35.36-.71.36 0-.36-.35-.36-.35-.71.35 0 .35-.36.71-.36a1.26 1.26 0 01.36.65zM1105 2c-.35 0-.35-.35-.35-.7s.35-.36.71-.36a.35.35 0 00.35.36v.35a1.26 1.26 0 00-.71.35zm1.78 28.37c.35 0 .35-.35 0 0a.5.5 0 01.71 0v.36a.35.35 0 01-.36.35c-.04.32-.39-.08-.39-.75zm-2.84-15.6v-.35s.36-.36.36 0c.35-.36.35 0-.36.35zm8.16 8.51v-.35c.35-.36.35 0 .35.35a.35.35 0 01-.35.36c.31-.04-.04-.4-.04-.4zm5-3.55c0 .36-.35.36-.71.36 0-.36-.35-.36-.35-.71 0-.71.35-1.06.71-.71a1.77 1.77 0 01.25 1.02zm-5.67 18.09c0-.35.35-.35.35-.71l.36.36a1.29 1.29 0 01-.36 1.06c-.08-.4-.43-.4-.43-.75zm-1.78-7.45c.36 0 .36-.35 0 0 .36-.35.36 0 .36 0v.36zm71.28-10.64a1.23 1.23 0 01-.35.71c-.36.36-.71 0-.71-.71 0-.35 0-.7.35-.7a1.26 1.26 0 00.71.35zm-49.64 1.78a1.22 1.22 0 00-.36-.71c0-.71.36-.71.71-.36 0 .36.35.71 0 1.07.27-.4-.08-.4-.43-.04zm27.3-6.38a.48.48 0 010 .7c-.43-.39-.43-.39-.08-.74zm-5.67 10.63a.34.34 0 01.35-.35h.71c0 .35 0 .35-.35.71-.44-.04-.44-.04-.79-.4zm.71 4.61zm-.71-15.6c-.36 0-.36-.35-.71-.35l.71-.71.71.71a1.23 1.23 0 00-.79.31zm-1.42-9.57c-.36-.36-.36-.71-.36-1.42 0-.36.36-.36.71-.36a.69.69 0 01.36 1.07c-.08.67-.44.67-.79.67zm20.21 24.46c-.35-.71 0-1.06 0-1.41 0 .35.36.7 0 1.41zm-1.5-24.86a.68.68 0 01.36-1.06 1.12 1.12 0 01.71.35c.35.36 0 1.07-.36 1.42-.35-.35-.71-.35-.71-.71zm-12 25.89c0-.36 0-.71.35-.71l.36.35a1.22 1.22 0 01-.36.71c-.4-.04-.4-.04-.4-.35zm5.32-9.93c-.36 0-.36-.36-.71-.71a.35.35 0 01.35-.36c.36-.35.71-.35 1.06.36v.35a1.21 1.21 0 00-.75.36zm.35 10.64a1.23 1.23 0 00-.35-.71l.35-.36c.35 0 .35.36.35.71a.35.35 0 00-.4.36zm-16-6c0 .35-.35.71-.71.35s-.71-.71-.71-1.06a1.26 1.26 0 01.71-.35c.7-.03.7.32.7 1.03zm-.35-5.32c0-.36-.36-.71 0-1.06 0-.36.35-.36.71-.36a1.26 1.26 0 01.35.71c-.36-.03-.72.32-1.07.68zm-6 .35a1.22 1.22 0 01-.36-.71v-.35c.36-.35.36-.35.71-.35l.36.7c.31.68-.04 1.04-.75.68zm-.36-4.61a.35.35 0 01.36-.35.34.34 0 00.35.35zm31.92 6.74c.35-.35.35 0 .35 0zm-22.34 7.09c-.36 0-.36-.35 0 0-.36-.71 0-1.06 0-1.41v1.41zm-1.77-7.09c.35-.35.35 0 .35 0l-.35.36zm0 7.45h-.36c0-.36-.35-.71-.71-1.07a1.29 1.29 0 01.36-1.06h.71a1.12 1.12 0 01.35.71c-.04.68-.39 1.03-.39 1.41zm25.53-1.07c0 .36-.36.71-.71 1.07h-.36c0-.36-.35-.71-.35-1.07a1.22 1.22 0 01.35-.7.49.49 0 01.71 0c.32-.03.32.32.32.67zm-34 3.2c0-.36 0-.36-.36-.71h.71a.34.34 0 00.35.35c-.43-.03-.43-.03-.78.33zM1205 16.86c-.35 0-.35-.36-.35-.71a1.23 1.23 0 01.35-.71c.36 0 .36 0 .71.35-.04.36-.39 1.07-.71 1.07zm-10.28 9.93a.35.35 0 01.36-.36l.35.36a.34.34 0 01-.35.35.35.35 0 01-.4-.35zM1071.28 14c.71-.35.71 0 .71.36l-.36.35a1.12 1.12 0 00-.35-.71zm1.77 16.67c-.35-.71 0-1.78.35-1.78l.36.36c0 1.08-.36 1.75-.71 1.44zm.71-4.26c0-.35-.36-.35-.36-.71l.71-.71h.36c.35 0 .35.36.71.71a1.22 1.22 0 01-.36.71zm7.09-22a1.22 1.22 0 01.36-.71 1.26 1.26 0 00.35.71 1.26 1.26 0 01-.35.71c-.36-.32-.36-.32-.36-.67zm-6 29.43zm1.42 2.48a.35.35 0 01.36-.35l.35.35zm7.09-26.59v-.32c0-.35.36-.71.36 0l-.36.36zm-7.09 7.09v-.71a.35.35 0 01.36-.36 1.23 1.23 0 00.35.71c-.35 0-.35 0-.71.36zm-17 12.41c.35 0 .35-.36.71-.36a.35.35 0 00.35.36c-.35 0-.35.35-.71.35s-.4.04-.4-.31zm-1.06-14.18c0-.36 0-.71.35-.71.36-.36.71 0 .71.71 0 .35-.35.35-.35.7-.41-.31-.76-.31-.76-.66zm147.16 4.6c0-.35 0-.7.35-.7.36-.36.71 0 .71.7 0 .36-.35.36-.35.71-.41-.31-.76-.31-.76-.67zm4.25 3.55c0-.35 0-.71.36-.35v.35a.35.35 0 01-.36.36c.31.04-.05-.32-.05-.32zm-148.93 1.07zm3.19 12.41c-.35 0-.35 0-.71-.36a1.28 1.28 0 01.36-1.06c.35-.36.7-.36.7.35.31.75-.05 1.11-.4 1.11zm-3.9-6a1.25 1.25 0 01-.36-.71c0-.71.36-.71.71-.36 0 .36 0 .71.36.71-.41.37-.76.68-.76.37zm1.77-15.25a.35.35 0 01.36-.35l.35.35a.34.34 0 01-.35.35zm133 14.54a.34.34 0 01-.35.35l-.4-.32c0-.36 0-.71.36-.36zm-108.51.71a1.23 1.23 0 00-.35-.71c0-.71.35-.71.7-.36 0 .36.36.71 0 1.07-.07-.35-.42-.35-.42.01zm3.19 3.19c.36 0 .36-.36 0 0 .36-.36.36 0 .36 0 .35 0 0 .35-.36 0zM1190.78 31a.35.35 0 00.35.36c-.35 0-.35.35-.7.35l-.36-.35c.36-.36.36-.36.71-.36zm2.84-15.95V14c0-.35.35-.35.71-.35.35.35.35.71.71 1.06a1.25 1.25 0 00-.36.71c-.35.73-.68.37-1.06-.33zm-108.87 8.55c0-.36.36-.36 0 0 .71-.36.71 0 0 0zm105.68-2.49v-1.06c.35-.36.7 0 .7.35a1.23 1.23 0 01-.35.71zm-95 15.25c0-.35-.35-.35-.35-.71 0-.71.35-1.06.7-1.06a1.22 1.22 0 01.36.71c0 .35-.36.35-.71 1.06zm-2.84-32.27c0-.35.36-.71.71-.35a.35.35 0 00.36.35c-.36 0-.36.36-.71.36zm-6.73 30.5c-.36.35-.36.35-.71.35l-.36-.35c0-.36 0-.71.36-.71a1.12 1.12 0 01.71.35zm-1.07-24.82c0-.71.36-1.42.36-1.07s.35.71.35 1.07 0 1.06-.35 1.06a1.72 1.72 0 01-.4-1.06zm0 6.38a.35.35 0 01.36-.36c.35 0 .71.36.71 1.07-.36 0-.36.35-.71.35a3.55 3.55 0 01-.4-1.06zm96.1-.71c.36-.35.36 0 .36 0 0 .35 0 .35-.36 0zM996.45 33.88c-.71 1.06-1.42 1.06-1.77.35a2.13 2.13 0 010-2.83c1.06-2.49 1.42-2.84 2.13-2.13a2.77 2.77 0 01.71 2.84c0 .71-.71 1.41-1.07 1.77zm-27.66-.36c-.7.36-1.41.36-2.12-1.06s0 .71.35-1.06c0-1.42.36-2.49 1.42-1.78.35 0 .35 1.42.71 1.78.35 1.06.35 1.77-.36 2.12zm-70.92-5c0-.71.36-1.06.71-1.77a2.62 2.62 0 01.71 1.42c-.35.7-.35 1.41-.71 2.12-.35-.67-.71-1.02-.71-1.73zm141.85-1.06c0-1.78.35-2.84 1.77-3.19-.36 1.41-.36 2.83-.71 4.25-.35-.31-1.06-.67-1.06-1.02zm-168.44 9.97a1.29 1.29 0 01-.36 1.06c0-.36-.35-.36-.35-.71v-.35c-.71 0-1.07-.36-1.42-1.42.35-.71.35-1.07 1.06-1.42a3.08 3.08 0 012.13 2.48 1.28 1.28 0 01-1.06.36zm35.46-6.74c0 .35-.36.35-.36.71-.35-.36-.71-.36-.71-.71a1.3 1.3 0 01.36-1.07c.35-.35 1.06.38.71 1.07zm100.71 7.44a1.27 1.27 0 01-.36-1.06c0-.71.71-1.06 1.07-.71.35 0 .35.71.35 1.07-.35.7-.71 1.06-1.06.7zm3.19-.7c-.71-.36-1.07-.71-.71-1.42a.76.76 0 01.71-.71c.35-.36.71.35.71 1.06s-.35 1.07-.71 1.07zM946.81 31c-.36-.35-.36-.71-.71-1.06a1.23 1.23 0 01.35-.71 1.13 1.13 0 011.07 1.06c0 .36-.36.71-.36 1.07zM983 36a1.22 1.22 0 01-.71-.36v-1.05c.35-.36.71 0 1.06.71a1.23 1.23 0 00-.35.7zm.71 3.54a.35.35 0 01-.36.36 1.25 1.25 0 01-.71-.36c-.35-.35 0-.71.36-1.06.35 0 .35.35.71.35zm-112.08-7.43A1.3 1.3 0 01872 31l.35.36a1.31 1.31 0 01-.35 1.06.35.35 0 01-.37-.31zM956 38.84l-.36-.35a1.59 1.59 0 010-1.77h.36c.35.35.35.71.35 1.77zm-51-1.06a.33.33 0 00-.35-.35c-.35-.36-.71-.71-.35-1.07.71-.71 1.06-.35 1.06 1.07h.64c-.33 1.06-.68 1.06-1 .35zm22.34-5l.36-.36a1.23 1.23 0 00.35.71c0 .35-.35.35-.35.71a1.29 1.29 0 01-.4-1.02zm21.64 3.9l.35-.36.36.36-.36.35zm-817.77-8.12c0-.71.35-1.06.7-1.77a2.62 2.62 0 01.71 1.42c-.35.7-.35 1.41-.71 2.12-.35-.71-.7-1.06-.7-1.77zm141.84-1.06c0-1.78.35-2.84 1.77-3.19-.35 1.41-.35 2.83-.71 4.25-.35-.35-1.06-.71-1.06-1.06zM139 30.69a1.33 1.33 0 01.35-1.07c.36-.35 1.07.36.71 1.07 0 .35-.35.35-.35.71-.35-.4-.71-.4-.71-.71zm41.13.35c-.35-.35-.35-.71-.71-1.06a1.22 1.22 0 01.36-.71 1.13 1.13 0 011.06 1.06c0 .36-.35.71-.35 1.07zm9.58 7.45l-.36.35-.35-.35a1.56 1.56 0 010-1.77h.35a1.55 1.55 0 01.37 1.77zm-51.42-.71a.35.35 0 00-.36-.35 1.33 1.33 0 01-.35-1.07c.71-.71 1.06-.35 1.06 1.07h.71c-.7 1.06-.7 1.06-1.05.35zm1.06-.35zm42.91-.71l.35-.36.36.36-.36.35zM1450 33.88c-.71 1.06-1.42 1.06-1.77.35a2.13 2.13 0 010-2.83c1.06-2.49 1.42-2.84 2.12-2.13a2.75 2.75 0 01.71 2.84c0 .71-.71 1.41-1.06 1.77zm-27.66-.36c-.71.36-1.42.36-2.13-1.06s0 .71.36-1.06c0-1.42.35-2.49 1.42-1.78.35 0 .35 1.42.71 1.78.35 1.06.35 1.77-.36 2.12zm-70.92-5c0-.71.35-1.06.71-1.77a2.69 2.69 0 01.71 1.42c-.36.7-.36 1.41-.71 2.12-.36-.67-.71-1.02-.71-1.73zm141.84-1.06c0-1.78.36-2.84 1.78-3.19-.36 1.41-.36 2.83-.71 4.25-.33-.31-1.07-.67-1.07-1.02zm-134 3.19a1.33 1.33 0 01.35-1.07c.36-.35 1.07.36.71 1.07 0 .35-.35.35-.35.71-.4-.36-.75-.36-.75-.67zm41.13.35c-.35-.35-.35-.71-.7-1.06a1.23 1.23 0 01.35-.71 1.13 1.13 0 011.06 1.06c0 .36-.35.71-.35 1.07a.35.35 0 00-.4-.36zm35.47 4.26v-1.03c.35-.35.7 0 1.06.71 0 .36-.36.71-.36 1.07-.39-.36-.74-.36-.74-.71zm9.22 2.13l-.71-.71c0-.36.71-1.07 1.06-.71a3.62 3.62 0 01.35 1.06c-.04.4-.39.4-.78.4zm-8.87 2.12c-.35-.35 0-.71.35-1.06.36 0 .36.35.71.35v.36a.34.34 0 01-.35.35c-.04.4-.4.4-.75.04zm-26.6-.71l-.35-.35a1.59 1.59 0 010-1.77h.35c.36.35.36.71.36 1.77zm-51.06-1.06a.34.34 0 00-.35-.35 1.3 1.3 0 01-.36-1.07c.71-.71 1.07-.35 1.07 1.07h.7c-.39 1.1-.74 1.1-1.1.39zm23-4.61c0 .35-.35.35-.35.71 0-.36-.36-.71-.36-1.06l.36-.36a1.26 1.26 0 01.36.75zm21.28 3.55l.35-.36.36.36-.36.35c-.34.04-.34.04-.34-.31z" fill="#00af7f"/></svg>
