<svg data-name="Layer 1" xmlns="http://www.w3.org/2000/svg" viewBox="0 0 1600 46" aria-hidden="true" focusable="false"><path d="M646.45 32.11h.36c.35-.36.35-.36 0-.71-.36.35-.36.35-.36.71zm1.78 12.41v.35a.35.35 0 00-.36.36c-.35 0-.71 0-.71-.36s0-.71.36-.71.35.36.71.36zm-20.57-15.61c.35 0 .35.36.71.36 0 .71-.36 1.06-.71 1.06a.35.35 0 01-.36-.35 3.53 3.53 0 01.36-1.07zm0-6.73c.35.35.35.35 0 .71zm8.16 19.5c.35 0 .35.36.71.36a.35.35 0 00-.36.35c-.35.35-.71 0-.71-.35a.35.35 0 01.36-.36zM660.28 19a.35.35 0 01.36.35c0 .36 0 .71-.36.71zm-7.44-3.55v.35s0 .36-.36 0c0-.36 0-.36.36-.36zm7.44 13.83a1.22 1.22 0 01.36.71 1.25 1.25 0 01-.36.71c-.35 0-.71 0-.71-.36-.35-.34 0-1.07.71-1.07zm-1.06-1.77c-.36.35-.71 0-.71-.71 0-.36.35-.36.35-.71.36 0 .71 0 .71.35.36-.01 0 .7-.35 1.06zm-4.61-5a.35.35 0 01.36.36c0 .35 0 .71-.36.35v-.35c.39.02.39-.34 0-.34zm-59.93 7.8a.35.35 0 01.35.36l-.35.35a.34.34 0 01-.35-.35.35.35 0 01.35-.34zm3.9-9.57c.36.35.36.35.36.71s0 .35-.36 0zm3.55-4.26c.35 0 .35.36.71.36a.35.35 0 00-.36.35c-.35 0-.35-.35-.71-.35 0-.34 0-.34.36-.34zm-1.78 18.09v.35H600v-.35c.35-.34.35-.34.35.02zm-7.44-13.12zm34.75 13.85c.35 0 .35.71.35 1.06s-.35.71-.35 1.07-.36-.36-.36-1.07a3.55 3.55 0 00.36-1.06zm-3.9 5.7a1.26 1.26 0 01.35.71 1.26 1.26 0 00-.35.71 1.22 1.22 0 01-.36-.71c0-.38 0-.38.36-.71zm-9.22-9.57l.35.35c0 .36 0 .71-.71.36 0-.39 0-.74.36-.74zm4.25-2.13a1.12 1.12 0 00.71.35 1.26 1.26 0 00-.35.71.35.35 0 01-.36-.35v-.71zm7.1 7.09l.35.36c0 .71-.35.35-.35 0v-.36zM702.48 31l-.35.71c-.36.36-.71-.35-.71-.71s.35-.35.35-.71zm9.22-2.13l-.35.71c-.36.36-.71 0-.71-.71 0-.35.35-.35.35-.7a.75.75 0 01.71.74zm3.9 10.64a1.3 1.3 0 01.36 1.07l-.36.35c0-.35-.35-.35-.35-.71s0-.31.35-.67zm-14.89-13.43v-.36c.35 0 .35-.35.71-.35l.71.71a.35.35 0 00-.36.35c-.35.36-.71.36-1.06-.35zm-.71-4.61zm29.79 13.12v.35h-.36v-.35c0-.36.36-.36.36 0zm-31.21-4.26a.35.35 0 01.36.36l-.36.35a.34.34 0 01-.35-.35.35.35 0 01.35-.36zM592.91 15.79c-.36 0-.36.36-.36.71-.35.36-.71.36-.71-.35a1.22 1.22 0 01.36-.71c.35-.35.35 0 .71.35zm123.4 30.5c-.35.36 0 .36 0 0zm11.35-25.53c.35.35.35.35.35.71s0 .35-.35 0c0-.36.34-.36 0-.71zm-37.59 5.32c.36.35.71.71 1.07.71a1.25 1.25 0 01-.36.71c-.35 0-.71 0-.71-.36-.35-.35 0-.71 0-1.06zm-16-1.42c.36.35 0 .71 0 1.06-.35.36-.71.36-.71-.35a1.25 1.25 0 00.36-.71c.39.34.75.34.39 0zm-1.77-13.48c-.35.36-.71-.35-.71-.7s.36-.36.36-.71c0 .35.35.35.35.71.04 0-.3.7.04.7zM670.92 47l-.35-.35a.35.35 0 00.35-.36c.36.36.36.71 0 .71zm0-15.25c-.35 0-.71-.71-.71-1.06a1.25 1.25 0 00.36-.71c.35 0 .35 0 .71.71v1.06c-.36.36-.71.36-.36 0zm-.35-15.25v-.35s0-.36.35 0c0 .35-.35.71-.35.35zm-.36 2.5l-.35.35a.35.35 0 01-.36-.35l.36-.36a.35.35 0 00.35.36zm14.19 11.33a.35.35 0 00-.36.36.35.35 0 01-.35-.36zM695 41.68a.67.67 0 01-.35 1.06c-.35 0-.71 0-.71-.35 0-.71 0-1.06.36-1.42.03.03.38.03.7.71zm-3.54-18.44l.35.36s0 .35-.35 0zm-6.38 3.19l-.36.71c-.35 0-.35 0-.71-.35v-.36a1.25 1.25 0 01.36-.71c.38-.35.74 0 .74.71zm-121.61 8.16v.35h-.35v-.35c0-.36 0-.36.35 0zm-59.21-4.26c-.36.36-.36.36-.71.36a1.25 1.25 0 01-.36-.71c0-.36 0-.71.36-.71s.71.73.71 1.06zm-.71-10.28a1.23 1.23 0 01-.71-.35l.35-.36c.36 0 .36.36.36.71zM494 19a.35.35 0 01.36.35l-.36.36a.35.35 0 01-.35-.36c-.03-.35-.03-.35.35-.35zm-.35 11.7a1.26 1.26 0 00.35.71c-.35.35-.35.71-.71 1.06-.35 0-.71 0-.71-.35V31c-.03-.67.33-1 1.04-.31zm97.52-.36c0 .36.35.36.35.71 0 .71-.35 1.07-.71.71-.35 0-.35-.35-.35-.71s.32-.36.68-.72zM511 15.44l.36.35a.35.35 0 00-.36.36.35.35 0 01-.35-.36.34.34 0 01.35-.35zm5.32 28.72c.36 0 .71.36.36.71-.36 0-.36.36-.71.36l-.36-.36v-.35a1.25 1.25 0 01.7-.36zm-7.8-21.63a.35.35 0 01.35.36v.35c-.35.36-.35 0-.35-.35zm8.16 8.87c.35.35.35.35.35.71h-.35c-.36-.36-.36-.36 0-.71zm-23.42 15.25a.34.34 0 01-.35.35c-.36 0-.71-.35-.36-.71.36 0 .36.36.71.36zm-13.83-16c.36-.36.36-.36.36 0 0 0 0 .35-.36 0zm-3.9 11a.67.67 0 01-.35 1.06c-.36 0-.71 0-.71-.35 0-.71 0-1.06.35-1.42.36.06.36.06.71.74zm4.26-14.89a1.23 1.23 0 00-.71.35c-.36 0-.36-.35-.36-.71 0-.71.36-1.06.71-.71a1.25 1.25 0 01.36.71c-.36.03-.36.39 0 .39zm-6-8.87c0-.35-.36-.71-.36-1.06a.49.49 0 01.71 0 1.31 1.31 0 01-.38 1.09zm-.71 8.16c.71.35.71.71.71 1.06-.36 0-.36.36-.71.36a1.26 1.26 0 01-.35-.71c0-.36 0-.36.35-.71zM489.36 25a1.25 1.25 0 01.36.71c0 .36-.36.71-.71.36V25zm-16-4.61c.36 0 .71.36.71 1.07a1.23 1.23 0 01-.71.35c-.35 0-.35-.35-.35-1.06.39-.35.39-.7.39-.35zM528 41.68a.35.35 0 01.36.36c-.36.35-.36.7-.71.35a.35.35 0 01-.36-.35c.37-.04.37-.36.71-.36zm-46.44-25.53c-.35 0-.35-.36-.35-.71l.35-.35a1.21 1.21 0 01.36.7zm1.44 9.93a.35.35 0 00-.36.35c-.35.36-.7 0-1.06-.35v-.36c.36 0 .36-.35.71-.35zM480.5 14c.35.36.35.36.35.71h-.71a.34.34 0 01-.35-.35c.35.02.35.02.71-.36zm24.11 11.7c0 .36.35.36.35.71 0 .71-.35 1.07-.7.71-.36 0-.36-.35-.36-.71s.36-.33.71-.69zm66.67-10.63a1.22 1.22 0 01.35.7c0 .71-.35.71-.71.36-.35 0-.35-.36-.35-.71a1.26 1.26 0 00.71-.33zm5 31.56h.36s0 .35-.36 0zM573.4 31l-.35.71c-.35.36-.71-.35-.71-.71s.36-.35.36-.71c0 .4.35.4.7.71zm-2.83-9.57zm-1.42 8.86a.35.35 0 01.35.36l-.35.35a.35.35 0 01-.36-.35zm8.15 9.22a1.22 1.22 0 00.36.71c0 .36-.36.36-.36.71a.34.34 0 01-.35-.35c.05-.67.05-1.03.35-1.03zm-12.76-18.4a.35.35 0 01.35.36h-.35s.35-.36 0-.36zm22.34 25.18c.35.71.35.71 0 .71v-.71c.35 0 .35.36 0 0zm-.71-6.74a1.3 1.3 0 01.36 1.07l-.36.35c0-.35-.35-.35-.35-.71s.35-.35.35-.71zm-3.55-10.64l-.35.71h-.71c-.35 0-.35-.35-.35-.71s.35-.35.7-.7c.36 0 .36.35.71.7zM539.72 41a1.26 1.26 0 01.35.71 1.26 1.26 0 00-.35.71 1.22 1.22 0 01-.36-.71c.36-.38.36-.38.36-.71zm-2.49-4.61l.36.36c0 .35-.36.35-.36 0v-.36zm-1.06-13.83c-.71.36-.71 0 0 0 0 .33-.35.33 0-.03zM535.82 36c0-.36.35.35.35.71 0 .71-.35 1.41-.35 1.06a1.28 1.28 0 01-.36-1.06c0-.35 0-1.06.36-.71zm8.51-6.74c.35.35.35.71.7.71l-.35.35c-.35 0-.35-.35-.35-.71-.36 0 0-.35 0-.35zm5.32 1.42v1.06l-.36.36c-.35 0-.35-.36-.35-.71 0 .01.35.01.71-.7zM731.21 16.5c.35 0 .35.36.7.36a.34.34 0 00-.35.35c-.35 0-.35-.35-.71-.35a.35.35 0 01.36-.36zm-169.86 0a.35.35 0 01.35.36.5.5 0 01-.71 0zm-25.53 13.83c-.36 0-.71-.35-.71-1.06.35 0 .35-.36.71-.36s.35.71.35 1.07-.35.71-.35.35zm11.34-10.63c0 .35.36.35.36.7-.36.36-.36.71-.71.71h-.36l-.71-.71c.36 0 .36-.35.71-.7zM840.43 41a1.26 1.26 0 01.35.71 1.26 1.26 0 00-.35.71 1.22 1.22 0 01-.36-.71c0-.38.36-.38.36-.71zM472 23.6h.35s0 .35-.35 0c-.36.35-.36.35-.36 0 0 0 0-.36.36 0zm364.54 6a1.25 1.25 0 00-.36.71.34.34 0 01-.35-.35v-.71c.34.37.34.37.7.37zm0-19.85l-.36.35a.34.34 0 01-.35-.35zm-2.13 2.12zm0 7.81a1.22 1.22 0 01.35.7c-.35.36-.35.71-.71.71h-.35l-.7-.69c0-.35.35-.35.35-.7zm9.93 15.6c.35 0 .35.71.35 1.06s-.35.71-.35 1.07-.36-.36-.36-1.07c.35.02.35-.69.35-1.04zm-1.07 1.42c0 .71-.35.35-.35 0v-.36zM845 11.89a1.07 1.07 0 01-.7.36c-.36 0-.36-.36-.36-.71l.36-.36c.35 0 .35 0 .7.36zm-.35 17c.35 0 .35.36.71.36 0 .71-.36 1.06-.71 1.06a.34.34 0 01-.35-.35.68.68 0 01.38-1.05zM822.34 16.5c.36.71 0 1.07 0 1.42 0-.35-.35-.71 0-1.42zm1.77 25.18a.67.67 0 01-.35 1.06c-.36 0-.71 0-.71-.35 0-.71 0-1.06.35-1.42 0 .03.36.03.71.71zm-1.06-30.85a1.31 1.31 0 01-.35-1.06c.35-.36.35-.36.7-.36s.36.36.36.71c0 .71-.36 1.06-.71.71zm21.28 11.7c.35 0 .35.36 0 0zm-14.19-6.38c-.35 0-.35-.36-.35-.71l.35-.35a1.21 1.21 0 01.36.7zm-1.06-7.45a.35.35 0 01.35.36c0 .35 0 .71-.35.71a.68.68 0 000-1.07zm3.9 8.16l-.36.35c-.35 0-.71-1.06-.35-1.77.73-.35 1.06.35.73 1.42zm-1.77 14.54l.35.35c0 .36 0 .71-.71.36 0-.36 0-.71.36-.71zm-.36-5c-.35.36-.71 0-1.06-.35v-.36c.35 0 .35-.35.71-.35l.71.71a.35.35 0 01-.36.38zm21.63 15.25c.36 0 .36.36.71.36a.34.34 0 00-.35.35c-.36.35-.71 0-.71-.35a.35.35 0 01.35-.33zM877 29.27a1.23 1.23 0 01.35.71 1.26 1.26 0 01-.35.71c-.35 0-.71 0-.71-.36s.31-1.06.71-1.06zm10.64 2.48c-.36 0-.71-.71-.71-1.06a1.26 1.26 0 00.35-.71c.36 0 .36 0 .71.71v1.06c-.05.36-.4.36-.4 0zm0 14.54c.71.36.35.71 0 .71l-.36-.35a.35.35 0 00.36-.36zM886.88 19l-.35.35a.35.35 0 01-.36-.35l.36-.36zM877 19a.34.34 0 01.35.35c0 .36 0 .71-.35.71zm10.28-2.49v-.35s0-.36.36 0c-.05.34-.05.7-.41.34zm2.13-6l-.35.7c-.36.36-.71-.35-.71-.7s.35-.36.35-.71c-.05.32.3.32.66.68zm11 19.85h.71a.35.35 0 00-.35.36.35.35 0 01-.36-.36zm-8.86-15.95a.34.34 0 01.35.35c-.35.36-.35.71-.7.36a.35.35 0 01-.36-.36c-.06-.38.3-.38.65-.38zm-.35 10.28c.35.35 0 .71 0 1.06-.36.36-.71.36-.71-.35a1.26 1.26 0 00.35-.71c-.06.31.3.31.3-.03zm-45.4-9.22c.36.35 0 .71 0 1.06-.35.36-.71.36-.71-.35a1.25 1.25 0 00.36-.71c.29.32.65.32.29-.03zm17.73 16c.36.35.36.71.36.35 0 .36-.36 0-.36 0v-.42zm-8.92-21.7c.71.71.71.71.71 1.06a1.26 1.26 0 01-.35.71c-.36 0-.71-.36-.71-1.06 0-.36.35-.36.35-.71.39 0 .39.35 0 0zm-33.69 7.8a1.12 1.12 0 01-.35.71h-.71a1.3 1.3 0 01-.36-1.07c.36-.35.71-.71.71-1.06h.36c.35.35.35.71.35 1.42zm55.32 9.93c-.35.35-.71 0-.71-.71 0-.36.36-.36.36-.71.35 0 .71 0 .71.35a1.76 1.76 0 01-.36 1.07zm-11.35 17v.35a.35.35 0 00-.35.36c-.36 0-.71 0-.71-.36s0-.71.35-.71a1.22 1.22 0 01.71.38zm-15.95-32.25c.35-.36.35 0 .35 0s0 .35-.35 0zm20.56 3.19v.35s0 .36-.35 0a.34.34 0 01.35-.35zm-2.83-.35a.34.34 0 01.35.35v.35a.49.49 0 01-.71 0c0-.7.36-1.06.36-.7zm5 7.44a.35.35 0 01.36.36c0 .35 0 .71-.36.35v-.71zm-5-12c-.36 0-.36-.36-.71-.36 0-.35.35-.35.35-.71.36 0 .71 0 .71.36.36.3-.02.66-.35.66zm-46.1 12.76l.35.36s0 .35-.35 0c.35.35 0 .35 0 0 0-.05.35-.05 0-.41zm-41.49-8.15a.34.34 0 01.35.35v.35a.49.49 0 01-.71 0c0-.75.36-1.11.36-.75zm-2.84 16.66c0 .36-.35 0-.35 0v-.4c.35.35.35.71.35.35zm1.06 12.77v.35a.35.35 0 00-.35.36c-.35 0-.71 0-.71-.36s0-.71.36-.71.4.31.7.31zm-12.41-2.84c.36 0 .36.36.71.36a.34.34 0 00-.35.35c-.36.35-.71 0-.71-.35a.35.35 0 01.35-.41zm-6.73-26.24c.35.35 0 .71 0 1.06-.36.36-.71.36-.71-.35a1.26 1.26 0 00.35-.71c.36.3.71.3.36-.05zM784 22.53a.35.35 0 01.36.36c0 .35 0 .71-.36.35v-.71zm2.13 7.8a.35.35 0 01.36.36l-.36.35a.34.34 0 01-.35-.35.35.35 0 01.39-.36zm1.42-8.86zm-5.68-6v.35s0 .36-.35 0a.34.34 0 01.39-.38zm-25.17 6.74c.35.35.35.35 0 .71zm62.41 3.9c.71.35.71.71 1.06.71a1.26 1.26 0 01-.35.71c-.36 0-.71 0-.71-.36-.36-.35 0-.71 0-1.06zm-62.06 2.83c.36 0 .36.36.71.36 0 .71-.35 1.06-.71 1.06a.34.34 0 01-.35-.35.68.68 0 01.39-1.1zm-11.7-12l-.36.35c-.35 0-.7-1.06-.35-1.77.75-.43 1.1.27.75 1.34zm1.42-5zm-3.15 19.46l.35.35c0 .36 0 .71-.71.36 0-.36 0-.71.36-.71zm3.19-11.7a1.22 1.22 0 01.35.7c-.35.36-.35.71-.71.71h-.35l-.71-.71c0-.35.35-.35.35-.7zm9.93 15.6c.35 0 .35.71.35 1.06s-.35.71-.35 1.07-.36-.36-.36-1.07c.36 0 .36-.71.36-1.06zm-7.8-5.68a1.25 1.25 0 00-.36.71.34.34 0 01-.35-.35v-.71c.35.35.35.35.71.35zm6.73 7.1c0 .71-.35.35-.35 0v-.36zM752.84 41a1.26 1.26 0 01.35.71 1.26 1.26 0 00-.35.71 1.22 1.22 0 01-.36-.71c0-.38.36-.38.36-.71zm35.1-24.47c-.35 0-.35-.35-.35-.71.35-.35.35-.35.71-.35a1.23 1.23 0 01.35.71c0 .32-.71.68-.71.32zm25.18-6.38c-.35-.35-.35-.35 0-.71v.71zm-.35 20.21h.7a.35.35 0 00-.35.36.35.35 0 01-.35-.36zm-8.87 16c-.35.36 0 .36 0 0zm10.28-19.86l-.35.71c-.36 0-.36 0-.71-.35v-.36a1.26 1.26 0 01.35-.71c.36-.42.71-.07.71.64zm-1.06-12a.34.34 0 00-.35.35h-.71c.35-.35.35-.35.35-.71 0 .24.36.24.71.24zm-9.93.71a.35.35 0 01-.35-.36c.35 0 .35-.35.71-.35a.34.34 0 01.35.35c0 .24-.35.24-.71.24zm14.9 6.38c0-.36.35-.71.7-1.07s.71 0 .71.36c.36.71 0 1.06-.35 1.06a1.3 1.3 0 01-1.06-.47zm-2.84-.71c.35.35.35.35.35.71s0 .35-.35 0c0-.48.35-.48 0-.83zm3.9-3.9c-.36.35-.36 0-1.06 0a.35.35 0 00.35-.36c.35 0 .35.36.71.36zm-1.77 17.73v.35H817v-.35c0-.48.38-.48.38-.12zM800 46.29c.71.36.35.71 0 .71l-.35-.35a.35.35 0 00.35-.36zm-.71-17.38l-.35.71c-.36.36-.71 0-.71-.71 0-.35.35-.35.35-.7a.75.75 0 01.71.7zm.71 2.84c-.35 0-.71-.71-.71-1.06a1.25 1.25 0 00.36-.71c.35 0 .35 0 .7.71v1.06c0 .36-.35.36-.35 0zM799.29 19l-.35.35a.35.35 0 01-.36-.35l.36-.36a.35.35 0 00.35.36zm-9.22 12l-.35.71c-.36.36-.71-.35-.71-.71l.35-.35H789c-.36-.36 0-1.42.35-1.07a1.25 1.25 0 01.36.71.35.35 0 00-.36.36c.37.04.37.04.72.35zm-.35-10.28a.35.35 0 01-.36-.36c0-.35 0-.7.36-.7zm9.93-4.26v-.35s0-.36.35 0c0 .39 0 .75-.35.39zm2.12-6l-.35.7c-.36.36-.71-.35-.71-.7s.35-.36.35-.71c0 .37.36.37.71.73zm1.42 29.07a1.3 1.3 0 01.36 1.07l-.36.35c0-.35-.35-.35-.35-.71s0-.33.35-.69zm-14.54-12c-.35.35-.71 0-.71-.71 0-.36.36-.36.36-.71.35 0 .71 0 .71.35a1.76 1.76 0 01-.36 1.04zm14.54-1.78c-.35.36-.71.36-.71-.35a1.25 1.25 0 00.36-.71c.35 0 .71 0 .71.35.35.33 0 .68-.36.68zm-421.27 4.58c0 .36.35.36.35.71 0 .71-.35 1.07-.71.71-.35 0-.35-.35-.35-.71zm-197.17-7.8c-.71.36-.71 0 0 0 0 .36-.35.36 0 0zm-5.32-8.15v.35h-.35zm-1.77-2.13c.71-.36.71 0 .35 0 0 0 0 .35-.35 0 .34 0 .34-.36 0 0zm7.09-.71s0 .71-.35.71a1.25 1.25 0 00-.71-.36v-.35a1.22 1.22 0 01.71-.36zm5 29.43a1.26 1.26 0 01.35.71 1.26 1.26 0 00-.35.71 1.22 1.22 0 01-.36-.71c.33-.35.33-.35.33-.68zm5-28c.36 0 .71.35 1.06.35-.35 0-.7.36-1.06.36h-.35c-.36 0-.36-.36 0-.71-.07.03.28-.37.28.03zm-17.38 5zm9.58 18.44v.36c-.36.35-.36.35-.71 0v-.36zm-2.2-.41c0-.36.36.35.36.71 0 .71-.36 1.41-.71 1.06a1.28 1.28 0 01-.36-1.06c-.04-.35-.04-1.06.71-.71zm-11 6c0 .35-.36.7-.71.35l-.34-.35c.35 0 .7-.36 1.06-.36 0 .04.35.36 0 .36zm-14.89-9.58a.35.35 0 01-.36.36v-.71h-.35c-.36-.36-.36-.36 0-.71h.35a1.28 1.28 0 01.37 1.1zm-.36-1.06zm37.59-2.13a1.1 1.1 0 01.35.71l-.35.35a1.22 1.22 0 01-.36-.71l.36-.35zM156.38 25c-.35 0 0-.35 0-.35h1.07c-.71.72-1.07 1.07-1.07.35zm.71 19.15c.36 0 .71.36.36.71a1.25 1.25 0 01-.71.36l-.36-.36v-.35a1.22 1.22 0 00.71-.35zm1.42-19.5h-1.06a.66.66 0 011.06.01zM161 12.6a.35.35 0 01.36.36v.35c0 .36-.36.36-.36.71l-.35-.35a1.33 1.33 0 01.35-1.07zm-1.42 6.74v1.06c0 .71 0 1.07-.35 1.07a1.28 1.28 0 01-1.06-.36.66.66 0 010-1.06.34.34 0 00.35-.35.76.76 0 01.71-.71zm5.32.71v.35l-.71.71c-.01-.35-.01-.71.7-1.06zm-6.73-5zm106.37 15.28l.35.36-.35.35-.36-.35a.35.35 0 01.36-.36zm-4.26 10.29c.36.35.71 1.06.36 1.42a1.12 1.12 0 01-.71.35.68.68 0 01-.36-1.06c.36-.33.71-.33.71-.71zm-17-25.18zm10.29 10.28v.36c-.36.71-.71.71-1.07.35a.34.34 0 01-.35-.35c.35-.36.35-.71.71-.71s.33.35.69.35zm-99.31-10.28a.35.35 0 01-.36.35 1.12 1.12 0 01-.71-.35v-.35l.36-.36c.71 0 1.06.36.71.71zm93.61 14.89a.49.49 0 010 .71c-.35-.35-.35-.35 0-.71zm15.61-12.41a.49.49 0 01-.71 0 1.22 1.22 0 01-.36-.71c0-.35.36-.71.36-1.06h.35c.36.35.71.71.71 1.06.35.36 0 .71-.35.71zm.7 9.58a1.26 1.26 0 01-.35-.71c0-.36 0-.36.35-.71h.36v1.06a.35.35 0 01-.36.36zm-2.12-6zm.35 2.13h.36s0 .35-.36 0zm-3.19 8.15c-.36 0-.36-.35-.36-.71s.36-.35 1.07-.71c0 .36.35.36.35.71 0 .68-.71 1.04-1.06.68zm-56.74-1.06a1.28 1.28 0 01.36 1.06l-.36.36c-.35 0-.35-.36-.35-.71.35-.03.35-.03.35-.74zm40.78-10.64c.36.35.36.35.36.71h-.71a.35.35 0 01-.36-.36c0-.38.36-.38.71-.38zm-44-.35l.71.7a.76.76 0 01-.71.71h-.35c0-.35-.36-.35-.71-.71a1.22 1.22 0 00.35-.7zm-.71-7.45l-.35-.36h.35zm23 22.34v.35h-.35v-.35c.43-.39.43-.39.43-.03zM219.5 16.5l.36.36c-.36 0-.36.35-1.07 0 .36-.36.36-.36.71-.36zm4.61 5.32l-.35.36-.36-.36c0-.35.36-.35.36-.71.35 0 .35 0 .35.71zm247.17-3.9a1.28 1.28 0 01-.36-1.06c.36-.36.71-.71.71-1.07h.71c.36.36.71.71.71 1.07s-.35.71-.35 1.06-.36 0-.71 0a.49.49 0 01-.71 0zM241.49 40.26l-.71.71-.35-.35c0-.71 0-1.07.35-1.07.35.36.71.36.71.71zm-1.77 6c.35.71.35.71 0 .71a.49.49 0 010-.71zm21.63-29.76v1.42c0-.35-.36-.71 0-1.42zM58.87 46.65h.35s0 .35-.35 0zm1.06-7.1a1.23 1.23 0 00.35.71c0 .36-.35.36-.35.71a.35.35 0 01-.36-.35c-.35-.71 0-1.07.36-1.07zM47.16 21.11a.35.35 0 01.36.36h-.36zm-16.66-6l.35.35a1 1 0 01-.71 1.42.35.35 0 01-.35-.36c0-.73.35-1.43.71-1.43zm1.41 16v1.07c-.35 0-.35-.36-.35-.71zm13.83 3.55v.35h-.35v-.35c.35-.43.35-.43.35-.07zm24.47-14.61c0 .35.36.35.36.71h-.71l-.36-.36c0-.35.36-.35.71-.35zm.36-4.61v.35h-.36zm-6.39 12.77c0 .35.36.35.36.7s-.36 1.07-.71.71c-.35 0-.35-.35-.35-.71.35-.35.35-.7.7-.7zm5 3.19c.35 0 .35 0 .71.35l-.71.71c0-.35-.36-.35-.71-.71a1.23 1.23 0 01.68-.35zM22.34 41a1.26 1.26 0 01.35.71 1.26 1.26 0 00-.35.71 1.23 1.23 0 01-.35-.71c.01-.38.35-.38.35-.71zm-3.9-5c0-.36.35.35.35.71 0 .71-.35 1.41-.35 1.06a1.31 1.31 0 01-.35-1.06c0-.35 0-1.06.35-.71zm0-13.48c-.35.36-.35 0 0 0zm-.35 7.8c-.36 0-.71-.35-.71-1.06.35 0 .35-.36.71-.36s.35.71.35 1.07-.35.72-.35.36zm-7.45 11.36A.35.35 0 0011 42c-.35.35-.35.7-.71.35a.34.34 0 01-.36-.35 1.22 1.22 0 01.71-.32zm7.09-25.18c0 .36-.35.71-1.06.36v-1.07c.35-.35.35-.35.71-.35 0 .35.35.71.35 1.06zm12.06 3.2c0 .35.35.35.35.7-.35.36-.35.71-.71.71h-.35l-.71-.71a1.22 1.22 0 00.35-.7zm-9.58 17c0 .35-.35.35-.35 0v-.36zM153.9 30v1.4c-.35-.36-.71-.71-.71-1.07-.35-.35-.35-.71.36-.71a.35.35 0 01.35.38zm-80.14.35c0 .36.35.36.35.71 0 .71-.35 1.07-.71.71-.35 0-.35-.35-.35-.71s.35-.37.71-.73zM27.66 30l-.35.35c-.36 0-.36-.35-.36-.71-.35 0 0-.35 0-.35.36.33.36.71.71.71zm47.87-14.21c-.35 0-.35.36-.35.71-.36.36-.71.36-.71-.35a1.23 1.23 0 01.35-.71c0-.35.36 0 .71.35zm63.83 3.91c.36 0 .71 0 .71.35l-.35.35c-.36 0-.36-.35-.36-.7s.36-.36 0 0zm-13.83-3.55h.36v.35c-.36.36-.36 0-.36-.35zm1.78 2.85l-.36.35-.35-.35.35-.36a.35.35 0 00.36.36zm10.63 10.63c.36-.35.36 0 0 0zm8.87-11.7h-.36l.36-.35zm3.54-2.48l.36.35-.36.36-.35-.36a.34.34 0 01.35-.36zm-3.54 7.09l.35.36v.35c-.35.36-.35 0-.35-.35 0-.01.35-.37 0-.37zm-2.13-5.67l-.35.35c-.36 0-.71-.35-.36-1.06a.76.76 0 01.71.7zm-24.11-2.48a1.23 1.23 0 00.71.35l-.36.36c-.35.35-.71 0-.71-.36a.35.35 0 01.36-.36zm-25.18 2.47c0 .35-.35.71-.35 1.06 0-.35-.36-.71-.36-1.06l.32-.36zm-10.64 8.86v.36a.87.87 0 01-1.42.35l-.33-.35a.76.76 0 01.71-.71c.29 0 .29.35 1.04.35zm-7.44 5L77 31c-.71 0-.35-.35 0-.71zm-2.13-9.22zm23-3.55c0 .36-.36 0-.71 0a.76.76 0 01-.71-.71c0-.35.35-.71.35-1.06h.71c0 .35.71.71.71 1.06.41.33.05.68-.3.68zm9.22 12.77c.35-.36.35-.36.71 0a.5.5 0 01-.71 0zm-8.16-4.61a1.28 1.28 0 01.36 1.06 1.3 1.3 0 01-1.07.36 1.26 1.26 0 01-.35-.71l.71-.71zm20.21-14.9c.71 1.07.71 1.07 0 1.07.05-.39-.3-.74.05-1.1zM97.16 23.24l.36.36a.5.5 0 01-.71 0zm145.75 8.51l-.71.71-.71-.71c.35 0 .35-.35.71-.35s.35.35.71.35zm157.45-2.13a1.25 1.25 0 00-.36.71.35.35 0 01-.36-.35v-.71c.36.35.36.35.72.35zm3.9 11.38a1.26 1.26 0 01.35.71 1.26 1.26 0 00-.35.71 1.22 1.22 0 01-.36-.71c0-.38.36-.38.36-.71zm-36.88-.35L367 41c0-.35-.35-.35-.35-.71s.35-.35.35-.71c.38-.03.38.33.38 1.04zm29.43-23.76l-.36.35c-.35 0-.71-1.06-.35-1.77.71-.38 1.06.32.71 1.39zm11.35 18.41c.35 0 .35.71.35 1.06s-.35.71-.35 1.07-.36-.36-.36-1.07c.36 0 .36-.71.36-1.06zm.7-23.41a1.07 1.07 0 01-.7.36c-.36 0-.36-.36-.36-.71l.36-.36c.35 0 .35 0 .7.36 0 .35.36.71 0 .35zm-1.77 24.83c0 .71-.35.35-.35 0v-.36zm1.42-7.81c.35 0 .35.36.71.36 0 .71-.36 1.06-.71 1.06a.34.34 0 01-.35-.35.68.68 0 01.35-1.07zM395 31.4l.35.35c0 .36 0 .71-.71.36.04-.36.04-.71.36-.71zm-11.31-15.61c-.36 0-.36.36-.36.71-.35.36-.71.36-.71-.35a1.22 1.22 0 01.36-.71c.35-.35.71 0 .71.35zm-11 12.42c0 .35.35.35.35.7s-.35 1.07-.71.71c-.35 0-.35-.35-.35-.71a.75.75 0 01.72-.7zm6.38-7.45c.35.35.35.35.35.71s0 .35-.35 0c.01-.36.36-.36.01-.71zm-11 18.79a1.22 1.22 0 00.36.71c0 .36-.36.36-.36.71a.34.34 0 01-.35-.35c.01-.71.01-1.07.36-1.07zm17.38-9.22a.35.35 0 01.36.36l-.36.35a.34.34 0 01-.35-.35.35.35 0 01.36-.36zm-4.25 4.26v.35h-.36v-.35c.01-.36.37-.36.37 0zm-13.48 11.7V47a.34.34 0 01-.35-.35c0-.36 0-.36.35-.36-.35 0-.35.36 0 0zm40.43-23.76c.36 0 .36.36.01 0zm-24.47-1.06zm-1.07-5c.36 0 .36.36.71.36a.34.34 0 00-.35.35c-.36 0-.36-.35-.71-.35zm519.15 9.93l-.35.71c-.36 0-.36 0-.71-.35v-.36a1.26 1.26 0 01.35-.71c.37-.32.72.03.72.74zm-503.53-6.7a1.22 1.22 0 01.35.7c-.35.36-.35.71-.71.71h-.35l-.71-.71c0-.35.35-.35.35-.7zm65.95 10.63h.71a.35.35 0 00-.35.36.35.35 0 01-.36-.36zm-1.41-4.61v.36c-.36.71-.71.71-1.07.35a.34.34 0 01-.35-.35c.35-.36.35-.71.71-.71a1.23 1.23 0 00.71.35zM264.54 20.4c.35 0 .71.36.71 1.07a1.26 1.26 0 01-.71.35c-.36 0-.36-.35-.36-1.06 0-.36 0-.71.36-.36zm201.06 6l-.35.71c-.36 0-.36 0-.71-.35v-.36a1.26 1.26 0 01.35-.71c.36-.32.71.03.71.74zm-56-11c.36.35 0 .71 0 1.06-.35.36-.71.36-.71-.35a1.25 1.25 0 00.36-.71c.32.39.68.39.32.04zm59.93 6c0-.36.36-.71.71-1.07s.71 0 .71.36c.36.71 0 1.06-.35 1.06a1.33 1.33 0 01-1.1-.28zm1.07 4.61c.71.35.71.71 1.06.71a1.26 1.26 0 01-.35.71c-.36 0-.71 0-.71-.36-.36-.35 0-.71 0-1.06zm-.36-9.58c.36.71.36 1.07 0 1.42 0-.35-.35-.71 0-1.42.33.07.33.43-.03.07zm-18.82 29.86c.71.36.35.71 0 .71l-.36-.35a.35.35 0 00.36-.36zm18.08-5.67c.36.35.71 1.06.36 1.42a1.12 1.12 0 01-.71.35.68.68 0 01-.36-1.06c0-.33.36-.33.71-.71zm-14.18-26.24a.34.34 0 01.35.35c-.35.36-.35.71-.71.36a.35.35 0 01-.35-.36c0-.35.39-.35.71-.35zm-19.86 8.15a.35.35 0 01.36.36c0 .35 0 .71-.36.35v-.71zm-6.74 22v.35a.35.35 0 00-.35.36c-.36 0-.71 0-.71-.36s0-.71.35-.71a1.22 1.22 0 01.71.35zM427.3 31.4c.71.35.36.71.36.35 0 .36-.36 0-.36 0v-.35zm12.77-3.9c-.35.35-.71 0-.71-.71 0-.36.36-.36.36-.71.35 0 .71 0 .71.35a1.76 1.76 0 01-.36 1.07zm-23.76 14.18c.36 0 .36.36.71.36a.34.34 0 00-.35.35c-.36.35-.71 0-.71-.35zm24.47-12.41a1.22 1.22 0 01.36.71 1.25 1.25 0 01-.36.71c-.35 0-.71 0-.71-.36s.36-1.06.71-1.06zM450.71 19l-.35.35A.35.35 0 01450 19l.36-.36zm.71 12.76c-.36 0-.71-.71-.71-1.06a1.26 1.26 0 00.35-.71c.36 0 .36 0 .71.71v1.06c0 .35-.35.35-.35-.01zm-.36-15.25v-.35s0-.36.36 0c0 .34 0 .7-.36.34zM440.78 19a.35.35 0 01.36.35c0 .36 0 .71-.36.71 0-.36.36-.36 0-1.06zM455 24.66c.36.35 0 .71 0 1.06-.35.36-.7.36-.7-.35a1.26 1.26 0 00.35-.71c-.04.34.35.34.35 0zm-150-9.22a.34.34 0 01-.35.35c-.35 0-.35 0-.71-.35v-.35a.35.35 0 00.36-.36.76.76 0 01.7.71zm-2.83 0l.35.35a.35.35 0 00-.35.36.35.35 0 01-.36-.36c-.04-.35-.04-.35.32-.35zm5 28.72c.36 0 .71.36.36.71-.36 0-.36.36-.71.36l-.36-.36v-.35a1.25 1.25 0 01.63-.36zm-7.8-21.63a.35.35 0 01.35.36v.35c-.35.36-.35 0-.35-.35zm-3.9 3.19c0 .36.35.36.35.71 0 .71-.35 1.07-.7.71-.36 0-.36-.35-.36-.71s.24-.35.63-.71zm14.1-13.12a.35.35 0 01.36.36c0 .71-.36.71-.36 0v-.36zm16.67 3.9a.68.68 0 01-1.06.36v-1.07c.35-.35.35-.35.71-.35 0 .35.35.71.35 1.06zm-18.79 14.9c.35.35.35.35.35.71h-.35c-.36-.36-.36-.36 0-.71zM322 12.25c.35-.36.35 0 .35 0s0 .35-.35 0zm-27.66 7.8c-.36 0-.36-.35-.71-.35l.35-.36c.36 0 .36.36.36.71zm24.46 21.63a.35.35 0 01.36.36c-.36.35-.36.7-.71.35a.35.35 0 01-.36-.35 1.22 1.22 0 00.7-.36zM295 30.33c-.36.36-.36.36-.71.36A1.25 1.25 0 01294 30c0-.36 0-.71.36-.71s.64.71.64 1.04zM271.63 14c.36.36.36.36.36.71h-.71a.35.35 0 01-.36-.35 1.08 1.08 0 00.71-.36zm-1.06 12.77a1.23 1.23 0 00-.71.35c-.36 0-.36-.35-.36-.71 0-.71.36-1.06.71-.71a1.25 1.25 0 01.36.71zm10.28-12.06a.35.35 0 00-.35.36c-.36.35-.71 0-.71-.36l.35-.35a1.1 1.1 0 01.71.37zm-10.64 16c.36-.36.36-.36.36 0 0 0 0 .35-.36 0 0-.38.36-.38 0-.02zm9.93-5.71a1.25 1.25 0 01.36.71c0 .36-.36.71-.71.36V25zm4.26 5.68a1.26 1.26 0 00.35.71c-.35.35-.35.71-.71 1.06-.35 0-.71 0-.71-.35V31c0-.67.36-1 1.07-.31zm0-14.9c-.36.36-.36 0 0 0-.4.01-.4.37 0 .01zm.35 3.2a.35.35 0 01.36.35l-.36.36a.35.35 0 01-.35-.36c0-.33 0-.33.35-.33zm-1.06-2.84h.31v.35c-.35.36-.35 0-.35-.35zm54.61 3.56c0 .35.35.35.35.7-.35.36-.35.71-.71.71h-.35l-.71-.71a1.08 1.08 0 01.35-.7zm.71-4.61l.35.35a1 1 0 01-.71 1.42.35.35 0 01-.35-.36c-.36-.71 0-1.41.7-1.41zm11 15.24a.35.35 0 01.36.36L350 31a.35.35 0 01-.36-.35.35.35 0 01.36-.32zm1.77-13.83c-.35 0-.35-.35-.35-.71.35-.35.35-.35.71-.35a1.23 1.23 0 01.35.71c-.01.35-.72.71-.72.35zm-11.35 14.19v1.06l-.36.36c-.35 0-.35-.36-.35-.71.35 0 .35 0 .71-.71zm11-9.22zm2.84 13.12v.35h-.36v-.35c-.01-.36.35-.36.35 0zm1.06-13.48a.35.35 0 01.35.36h-.35c.35.35.35 0 0 0 .34 0 .34-.36-.01-.36zm-3.19-4.61a.35.35 0 01.35.36.5.5 0 01-.71 0c.36.35.36 0 0 0 .35-.36.7-.36.35-.36zm-25.54 5.68c0 .35.35.35 0 .71zM353.9 31l-.35.71c-.36.36-.71-.35-.71-.71s.35-.35.35-.71c.36.4.71.4.71.71zM328 36.36c.36.36.71.36.36.36 0 .35-.36.35-.36 0v-.36zm2.85 4.64a1.25 1.25 0 01.36.71 1.25 1.25 0 00-.36.71 1.23 1.23 0 01-.35-.71c0-.38.35-.38.35-.71zM327 36c0-.36.35.35.35.71 0 .71-.35 1.41-.35 1.06a1.31 1.31 0 01-.35-1.06c-.05-.35-.05-1.06.35-.71zm-.35-5.68c-.36 0-.71-.35-.71-1.06.35 0 .35-.36.71-.36s.35.71.35 1.07-.4.72-.4.36zm10.28-18.08zm26.6 16.66l-.36.71c-.35.36-.71 0-.71-.71 0-.35.36-.35.36-.7zm-28-18.79a.34.34 0 01-.35-.35h.35zm-.35 19.15c.35.35.35.71.71.71l-.36.35c-.35 0-.35-.35-.35-.71-.36 0 0-.35 0-.35zm-7.88-17.72l-.35.71c-.35 0-.35-.36-.71-.36v-.35c.36 0 .36-.36.71-.36a.35.35 0 00.35.36zm1038 13.12c.35.35 0 .71 0 1.06-.36.36-.71.36-.71-.35a1.26 1.26 0 00.35-.71c.31.34.66.34.31 0zm5.32-3.19zm-5-7.09a.35.35 0 01.36.35c-.36.36-.36.71-.71.36a.35.35 0 01-.36-.36c.34-.35.34-.35.69-.35zM1362.06 47l-.36-.35a.35.35 0 00.36-.36c.35.36.35.71 0 .71zm-.71-30.5v-.35s0-.36.35 0c.36.35 0 .71-.35.35zm14.54 9.93l-.36.71c-.35 0-.35 0-.71-.35v-.36a1.25 1.25 0 01.36-.71c.71-.35 1.06 0 .71.71zm-4.61-11.34a1.22 1.22 0 01.35.7c0 .71-.35.71-.71.36-.35 0-.35-.36-.35-.71a1.23 1.23 0 01.71-.35zm-9.22 16.66c-.36 0-.71-.71-.71-1.06a1.26 1.26 0 00.35-.71c.36 0 .36 0 .71.71v1.06c-.35.36-.71.36-.35 0zm13.47-1.42a.35.35 0 00-.35.36.35.35 0 01-.36-.36zm-2.48.71l-.35.71c-.36.36-.71-.35-.71-.71s.35-.35.35-.71c0 .36.36.36.71.67zm1.77-16.66a.34.34 0 00-.35.35h-.71c.35-.35.35-.35.35-.71.36.36.36.36.71.36zm-33.69-3.9c-.35 0-.35-.36-.7-.36 0-.35.35-.35.35-.71.35 0 .71 0 .71.36a1.25 1.25 0 01-.36.71zm2.49 5v.35s0 .36-.36 0c.36.36.36 0 0 0zm-6 16c.71.35.71.71.35.35 0 .36-.35 0-.35 0v-.43zM1361.35 19l-.36.35a.34.34 0 01-.35-.35l.35-.36c.01.36.01.36.36.36zm-22 25.53v.35a.35.35 0 00-.35.36c-.36 0-.71 0-.71-.36s0-.71.35-.71a1.25 1.25 0 00.72.35zm12.06-15.25a1.23 1.23 0 01.35.71 1.26 1.26 0 01-.35.71c-.36 0-.71 0-.71-.36-.35-.34.01-1.07.72-1.07zm0-10.28a.34.34 0 01.35.35c0 .36 0 .71-.35.71zm-5.68 3.54a.35.35 0 01.36.36c0 .35 0 .71-.36.35v-.35s.37-.37.01-.37zm4.61 5c-.35.35-.7 0-.7-.71 0-.36.35-.36.35-.71.35 0 .71 0 .71.35a1.76 1.76 0 01-.35 1.03zm-9.57-12.41a.34.34 0 01.35.35v.35a.48.48 0 01-.7 0c.35.36.35 0 0 0 .01-.74.36-1.1.36-.74zm66-4.61c0 .7-.36.7-.71.35a1.28 1.28 0 01-.36-1.06c.36-.36.36-.36.71-.36s.33.32.33 1.03zm1.77-4.26c.36.35 0 .71 0 1.06s-.71 0-.71-.71a1.21 1.21 0 00.36-.7c.32.31.68.31.32.31zm-6.74 10.28c.36 0 .36.36.71.36a.34.34 0 00-.35.35c-.36 0-.36-.35-.71-.35a.35.35 0 01.32-.4zm-1.42 18.09v.35h-.38v-.35c0-.4.35-.4.35-.04zM1416 16.86l-.36.35c-.35 0-.71-1.06-.35-1.77.71-.35.71.35.71 1.42zm1.42 2.84a1.22 1.22 0 01.35.7c-.35.36-.35.71-.71.71h-.35c-.36-.35-.36-.35-.71-.71 0-.35.35-.35.35-.7zm-19.15 1.06c.35.35.35.35.35.71s0 .35-.35 0zm16 10.64l.36.35c0 .36 0 .71-.71.36-.09-.36-.09-.71.26-.71zm-29.87-14.9v1.42c0-.35-.36-.71 0-1.42-.36.36-.36 0 0 0zm-1.4 1.07a1.1 1.1 0 01-.36.71h-.71a1.33 1.33 0 01-.35-1.07c.35-.35.71-.71.71-1.06h.35c-.02.35.36.71.36 1.42zm9.22-1.42c-.36 0-.36-.36-.36-.71l.36-.35a1.22 1.22 0 01.35.7.35.35 0 00-.37.36zm-9.58 7.09l.36.36s0 .35-.36 0zm-.71 4.26c-.35 0-.7 0-.7-.36-.36-.35 0-.71 0-1.06h.35a1.12 1.12 0 00.35.71c-.02.35-.37.71-.02.71zm.36 1.41l-.36.71c-.35.36-.7 0-.7-.71 0-.35.35-.35.35-.7a.76.76 0 01.69.7zm-2.13-7.44c0-.36.36-.71.71-1.07s.71 0 .71.36c.35.71 0 1.06-.35 1.06a1.33 1.33 0 01-1.09-.35zm6.74 24.82zm6.38-20.21a.34.34 0 00-.35.35c-.36.36-.71 0-1.07-.35v-.36c.36 0 .36-.35.71-.35s.34.35.69.71zm-7.44 15.6a.68.68 0 01-.36 1.06c-.35 0-.71 0-.71-.35 0-.71 0-1.06.36-1.42.33.03.69.03.69.71zm-77.31-22a1.21 1.21 0 01.36.7c-.36.36-.36.71-.71.71h-.36l-.71-.71c0-.35.36-.35.36-.7zm-46.45-3.2c-.36 0-.36-.35-.36-.71.36-.35.36-.35.71-.35a1.22 1.22 0 01.36.71c-.02.37-.38.73-.73.37zm-.36 5zm-13.12-1.77c0 .35.36.35.36.7-.36.36-.36.71-.71.71h-.36l-.71-.71c0-.35 0-.7.36-.7zm2.48 11v1.06l-.35.36c-.36 0-.36-.36-.36-.71-.02-.02.34-.02.69-.73zm11.71-14.19a.35.35 0 01.35.36.5.5 0 01-.71 0 .35.35 0 01.34-.38zm-2.49 13.83a.35.35 0 01.36.36l-.36.35a.34.34 0 01-.35-.35.35.35 0 01.33-.38zm13.48-1.42l-.36.71c-.35.36-.71 0-.71-.71 0-.35.36-.35.36-.7zm-9.24 2.07l-.36.71c-.35.36-.7-.35-.7-.71s.35-.35.35-.71c0 .4.35.4.71.71zm1.42-9.93a.35.35 0 01.35.36h-.31zm-1.42 13.48v.35h-.36v-.35c.36-.32.36-.32.36.04zM1336.17 13c0 .35-.35.35-.35 0v-.4a.35.35 0 01.35.4zm-58.51 27.66l-.36.35c0-.35-.35-.35-.35-.71s.35-.35.35-.71c.36-.04.36.32.36 1.03zm-41.49-24.16c0 .36-.35.71-.71.36v-1.07c.36-.35.36-.35.71-.35a.67.67 0 010 1.06zm1.06 6c-.35.36-.35 0 0 0zm-7.8 19.15a.35.35 0 01.36.36c-.36.35-.36.7-.71.35a.35.35 0 01-.36-.35c.36-.01.36-.33.71-.33zm11.7-.71a1.25 1.25 0 01.36.71 1.25 1.25 0 00-.36.71 1.23 1.23 0 01-.35-.71c.35-.32.35-.32.35-.65zm4.61-11.7c.36.35.36.71.71.71l-.35.35c-.36 0-.36-.35-.36-.71-.35 0 0-.35 0-.35zm-6.74 7.48c0 .35-.36.35-.36 0v-.36zm-1.78-.71c0-.36.36.35.36.71 0 .71-.36 1.41-.36 1.06a1.31 1.31 0 01-.35-1.06c.01-.36.01-1.07.36-.72zm0-5.68c-.35 0-.71-.35-.71-1.06.36 0 .36-.36.71-.36s.36.71.36 1.07c-.35.35-.35.71-.35.35zm72.7-1.06c.35.35.35.35.71.35a1.25 1.25 0 00-.36.71.34.34 0 01-.35-.35v-.71zm7.09 7.09l.36.36c0 .71-.36.35-.36 0v-.36zm-2.12 4.64a1.25 1.25 0 01.36.71 1.25 1.25 0 00-.36.71 1.23 1.23 0 01-.35-.71c0-.38 0-.38.35-.71zm102.49-29.08zM1305.32 31.4l.35.35c0 .36 0 .71-.71.36a1.22 1.22 0 01.36-.71zm13.47-8.51c-.35-.36 0-.36 0-.71.36.35.36.35 0 .71zM1278 46.29c.36.71.36.71 0 .71a.34.34 0 01-.35-.35c0-.36 0-.36.35-.36.37 0 .37.36 0 0zm40.78-11c.36 0 .36.71.36 1.06s-.36.71-.36 1.07-.35-.36-.35-1.07a1.75 1.75 0 01.36-1.05zm0-6.39c.36 0 .36.36.71.36 0 .71-.35 1.06-.71 1.06a.34.34 0 01-.35-.35 3.6 3.6 0 01.36-1.06zm7.81 12.77c.35 0 .35.36.7.36a.34.34 0 00-.35.35c-.35.35-.71 0-.71-.35zm-35.11-7.09v.35h-.36v-.35c.37-.35.37-.35.37.01zm4.25-4.26a.35.35 0 01.36.36l-.36.35a.34.34 0 01-.35-.35zM1283 28.21c0 .35.35.35.35.7s-.35 1.07-.71.71c-.35 0-.35-.35-.35-.71.33-.35.33-.7.71-.7zm-4.26 11.34a1.22 1.22 0 00.36.71c0 .36-.36.36-.36.71a.34.34 0 01-.35-.35c-.39-.71-.02-1.07.33-1.07zm11-18.79c.35.35.35.35.35.71s0 .35-.35 0zm4.61-5c-.36 0-.36.36-.36.71-.35.36-.71.36-.71-.35a1.22 1.22 0 01.36-.71c-.02-.32.36.03.69.38zm0 5.68zm-1.78 8.86c0 .36.36.36.36.71 0 .71-.36 1.07-.71.71-.36 0-.36-.35-.36-.71s.34-.32.69-.68zm.71-13.83c.36 0 .36.36.71.36a.34.34 0 00-.35.35c-.36 0-.36-.35-.71-.35-.02-.33-.02-.33.33-.33zm226.6 3.9c-.36 0-.71 0-.71-.35-.36-.35 0-.71.35-1.06.36 0 .71 0 .71.35.34.74.34 1.09-.37 1.09zm28.37 5.68l.71.71a1.25 1.25 0 01-.36.71h-.71a.35.35 0 01-.35-.36c.33-.32.69-.68.69-1.03zm-3.9 3.9c0 .35.35.35.71.71 0 0-.36.71-.71.71zm-2.84-8.51c0 .35-.36.71-.36 1.06l-.35-.35a1.33 1.33 0 00.35-1.07c.34.39.69.39.34.39zm7.43 14.56a.34.34 0 01.35.35h-.35c.35.36 0 .36 0 0zm15.24 2.48a.35.35 0 01.36.35c0 .71 0 1.07-.36 1.07a.35.35 0 01-.35-.36.68.68 0 01.35-1.05zm-24.82-2.84zm27.31 1.42a.68.68 0 01-.36 1.06l-.35-.35a3.62 3.62 0 01.35-1.06c0-.35.36.01.36.36zm-13.83-2.13a.35.35 0 01.35.36c0 .35-.35.35-.35 0zm10.28-9.22a.49.49 0 010 .71v-.71zm-28.37 4.61h.71l-.35.36a.35.35 0 01-.36-.36zm-316.31 1.78h-.35c-.36-.36-.36-.36 0-.71.35.36.35.36.35.72zm306.38-7.45c.36.35.36.71.36 1.42a1.22 1.22 0 00-.36.71c0-.36-.35-.36-.35-.71V25zm-3.54 5a.35.35 0 01-.36.36c-.35 0-.71 0-.71-.71 0-.36.36-.36.36-.71.35-.03.71.68.71 1.03zm-2.49 3.55c0 .35-.35.35-.35.71-.35 0-.71 0-.71-.36l.36-.7a1.22 1.22 0 01.7.32zm11.35-3.9a1.26 1.26 0 01-.35.71c-.36 0-.71-.71-.71-1.07s.35-.35.35-.7c.36-.39.71.32.71 1.03zm3.55 2.13v.35s0 .36-.36 0a.35.35 0 00.36-.38zm-7.8 8.86c.35 0 .35.36.71.36a1.25 1.25 0 01-.36.71c-.35.35-.71 0-.71-.36zm43.61-2.83c.36 0 .36.35.71.35a.34.34 0 01-.35.35c-.36 0-.36-.35-.71-.35 0-.38.35-.74.35-.38zm-39.71 2.12l.35.36c-.35 0-.35.35-.71 0a.35.35 0 01.36-.39zM1516 40.62c0 .35 0 .71-.36.71l-.35-.36a1.31 1.31 0 00.35-1.06c-.04.35.36.35.36.71zm82.27-14.9c.35.36 0 .71 0 1.07a.5.5 0 01-.71 0c-.36-.36-.36-.71 0-1.78.31.36.67.71.67.71zm-66.67-4.61zm64.18.36c.36-.36.71 0 .71.35l-.35.36c-.36 0-.36-.36-.36-.71s.32-.36-.04 0zm-2.83 5.32c.35.35.35.35.35.71l-.35.35c-.36-.35-.36-.35-.36-.71s-.04-.35.32-.35zm2.48.71a.35.35 0 01-.35-.36c0-.71 0-1.06.35-1.06a1.74 1.74 0 01-.04 1.42zM173.05 17.57c.35-.71.71-.71 1.06-.36-.71.71-1.06.71-1.06.36zM0-.87v11.7h.35l-.35.35V14a3.81 3.81 0 011.77.36c.71 1.06 1.78 1.06 3.19 1.06 0-.71.36-1.06.36-1.42.35-.71 1.06-.71 1.77-.71h3.19c0 .71 0 1.42-1.06 1.78-.71.35-.71.35-.71 1.06v.35c.36 1.78.36 1.78-1.42 2.49a.68.68 0 00-.35 1.06c.71.71 1.42 1.77 2.48 2.13.35-.36.35-.71.71-.71a1.29 1.29 0 011.77-.71c1.42.35 1.78-.36 2.48-2.13a.35.35 0 00.36-.35v-.36c0-.35 0-.71-.36-.71h-.35c-.35 0-.71.36-1.06.36v-.36a1.94 1.94 0 011.06-1.77L16 14.38a2.2 2.2 0 012.83-.71 4.86 4.86 0 012.84 1.77h1.06a27.39 27.39 0 003.91 1.42c1.06 1.06 1.77 1.77 1.77 2.84l1.06-1.07a1.52 1.52 0 00-.35-2.48v-1.06a2.62 2.62 0 011.42-.71 1.31 1.31 0 001.06.35c.71.36 1.06 1.06 2.13 1.42a1.09 1.09 0 001.42 0 5.41 5.41 0 012.12-1.42.68.68 0 011.07 0 9.25 9.25 0 011.77 2.13c0 .71-.35.71-.71 1.06-.71.36-1.06.71-1.06 1.42s0 .71 1.42.36h1.06l1.42.7a.34.34 0 01.35-.35 24.74 24.74 0 011.07-2.84l.35-.35v-.36a.35.35 0 00.36-.35c.35-.71.71-.71 1.41-.71.36 0 .71.35.36.71A5.25 5.25 0 0045 18.63a1.27 1.27 0 001.1.37l1.06 1.06a1.28 1.28 0 01.36 1.06 3.22 3.22 0 011.77-.35c.71 0 1.06-.71.71-1.42-.35-.35-.71-1.06-1.06-1.42a2.67 2.67 0 01.35-1.77 3.42 3.42 0 00-.35-3.16v-.71c0-.36.35-.71.71-.36L51.77 13c.71.35 1.42 0 1.07-.71.35-.71.35-1.07 1.06-1.42a2.67 2.67 0 011.77.35 7.64 7.64 0 003.9.71 12.06 12.06 0 002.84-3.23 1.33 1.33 0 011.07-.35 1.31 1.31 0 01.35 1.06 2.71 2.71 0 01-.35 1.42c-.36.71 0 1.06.7 1.06.71.36 1.42.71 1.42 1.42a1.3 1.3 0 01.4 1.07c.35 0 1.06.35 1.42.35v-3.19c1.06.71 1.41 2.13 2.12 3.19a20.76 20.76 0 018.16.71h1.06c.71 0 1.42-.35 1.42-.71.36-1.06.36-2.48.71-3.55l1.06 1.07c0 1.06.36 1.77.36 2.84 0 .7 1.06 1.06 1.77.7h.36c.35 0 .71-.35.35-.7.36.35.36.35.71.35v-.71a.35.35 0 01.36-.35 1.09 1.09 0 000-1.42c-.36 0-.36-.36-.71-.36v-.71l-.36.36-.35-.36a.66.66 0 010-1.06 1.31 1.31 0 011.06-.35c.36 0 .71.35 1.06.35.36.35 1.07.71 1.42 1.06a16.06 16.06 0 012.49 1.42c.35.36.35.71.7.71a1.58 1.58 0 001.78 0l.71-.71c1.06 0 1.77-.35 2.48-.35a.76.76 0 00.71.71h1.06c.71 0 1.07.35 1.78.71.71 0 1.06-.36 1.41-1.07a13.59 13.59 0 003.55-1.06 1.31 1.31 0 011.06.35v.4c-.35.35-.35.71-.71 1.06s0 .71.36 1.07v.35a4.51 4.51 0 004.25 0 9.25 9.25 0 002.13-1.77l1.07-1.07c.7-.35 1.06-.71 1.77-.71V13a2.69 2.69 0 00.71 1.42c.35-.36.35-.71.71-1.07h.71a3 3 0 002.12-1.06c.36-.71.36-1.07-.35-1.42h-.71a2.71 2.71 0 00.35-1.42.77.77 0 01.71-.71 1.3 1.3 0 011.07.36l.35.35a.35.35 0 01.36.36 3.49 3.49 0 012.83-.36c.36 0 .36.36.71.71a.35.35 0 00-.35.36s0 .7.35.7c0 .36.36 0 1.42 0 0 1.07.71 1.42 1.78 1.07.35 0 .7-.71.7-1.42s-.35-1.77-.35-2.48L128 8h.36c.71.36 1.06.71 1.42 0l.35.36c0 .35-.35 1.42 0 1.77.71 1.42 1.77 2.48 2.48 3.9.36.71.71.71 1.07.36 1.06-1.42 1.06-3.9 2.13-5.68a3.55 3.55 0 00-.36-1.06 3.78 3.78 0 01-2.84-.36h.39a3.38 3.38 0 003.54-1.06 1.25 1.25 0 00.36.71h1.06l.36-.36a12.61 12.61 0 002.83 1.78v.34c0 .36-.35.36-.7.36 0 1.77 0 1.77 1.06 2.48h.71a1.23 1.23 0 01.35.71c0-.36.36-.36.36-.71 1.06 1.77 1.42 1.77 2.13 0a7.28 7.28 0 011.06-1.77c.35 0 .35-.36.71-.36h3.9a.35.35 0 00-.36.36 1.72 1.72 0 00.36 1.06h.71c.71-.35.71-1.06.71-1.77h.35a5 5 0 001.07 1.42c0 .35.35.7 1.06.7a5.08 5.08 0 00.71 2.49c.35.35 1.06.35 1.06-.36a9.67 9.67 0 00.36-3.19c.35-.35.35-.71.71-1.06h1.42v.35c.35.71.35.36.7 0a6.1 6.1 0 011.78.71.35.35 0 01.35.36l2.13 2.12a1.71 1.71 0 002.48 0c.71-.35.71-.71 1.07-1.06a2.73 2.73 0 00.71-1.77c0-1.07.35-1.78.35-2.49 1.42 0 2.48 0 2.84.36-1.07 0-1.78 0-2.49 1.06v1.07l.36.35a3.15 3.15 0 001.77.36c.36.35.71.35 1.07.7 0 1.78 0 3.2 1.06 4.26.35.35.71 1.06 1.06 1.42.36 0 .36.35.71.71.71 1.06 1.42.71 2.13 0a3.79 3.79 0 00.71-4.26 12.55 12.55 0 00-1.77-2.83v-.71C177 9.06 177.3 8 178 6.22h.71a2 2 0 001.78-1.06c.35 0 .35-.36.35-.71V2.67c1.06 0 2.13.36 3.19 0l.36.36c-.71 0-1.42 0-1.78.71a1.31 1.31 0 00-.35 1.06l.35.36a.34.34 0 00-.35.35c0 .36 0 1.06.35 1.06s.71 0 .71-.35v-.71c1.07 0 1.42.71 2.84 1.77h.35v.36a.35.35 0 00.36.35l.35-.35c1.42 0 1.42-.36 1.42-1.42.71 0 1.07.35 1.42.35a12.37 12.37 0 003.55.71v.36c-.71 0-1.42-.36-2.13.71-.36 0-.36.71-.36 1.06s.71.71.71.71c1.07-.35 1.42.36 2.13 1.42h1.42c1.77 0 1.77-.36 1.42-2.13V7.28h.71c1.06 1.78 2.13 3.9 3.19 5.68a1.22 1.22 0 00-.36.71c-.7 1.42 0-.71.36 1.06 0 1.06.35 2.13 1.42 1.77a3.41 3.41 0 00-.36-2.48c.36-.35.36-.35.36-.71a.77.77 0 01.71.71v1.42c.35.35.35.35.71.35 1.06 0 1.77-1.06 2.12-1.77h.71c0 .36.36.36.36.71.35.36.35 1.06.71 1.42s.71 0 1.06 0c.71-.36.71 0 1.06.35.36 0 1.07-.35 1.42-.35 1.78-.36 3.19-.71 4.61-1.06 0-.36-.35-.71-.35-1.07-.36-.35-.36-.71 0-.71s.71 0 .35.71c.36.36.71 1.07 1.07 1.42a.67.67 0 001.06 0 6.31 6.31 0 001.42-1.77c.35 0 .71.35 1.06.35h.71a2.74 2.74 0 001.42-1.42 1.07 1.07 0 000-1.42c-.35-1.06 0-1.41.71-2.12.35.35.35.35.35.71a4.77 4.77 0 001.07 1.41v.71c0 .36-.36.36-.36.71s0 .71.36.71a4.67 4.67 0 011.77.36.68.68 0 001.06.35c.36 0 .36-.35.71-.71a2.1 2.1 0 00.36 1.42c.71 2.48 1.42 2.84 2.13 2.13.71-.36 1.06-1.77.71-2.84-.36-.71-.71-1.06-1.07-1.77l-.35-.36 1.06-1.06a1.64 1.64 0 001.06 1.77 10.25 10.25 0 003.2.71h2.48a11.09 11.09 0 012.13-1.77 3.58 3.58 0 001.77-1.42c.35 0 1.06-.35 1.42-.35h.35v.35c.36.36.36.71.71.71v.71c0 .35-.35.71-.35 1.06s0 .71.35.71c.36.36.71 0 1.07-1.06 0-.36.35-.71.35-1.07h.71a1.22 1.22 0 00.71.36 4.56 4.56 0 012.13.35v.36l.35.35a.35.35 0 01.36-.35 2.13 2.13 0 001.41.35 1.22 1.22 0 00.36-.71 2.14 2.14 0 011.42-.35H255c0 .35 0 1.06-.7 1.06s-.71.36-.71.71v1.07c0 .35-.36.35-.36.71a.34.34 0 01-.35.35c-.36 0-.71.35-.36.71a2.81 2.81 0 001.42 1.42l.36-.36c0-.35.7-.35 1.06-.35 1.06.35 1.42 0 2.13-.71v-.71c0-.35 0-.71-.36-.71h-.35c-.36.36-.36.36-.71.36v-.36c0-.35.35-.71.71-1.06.71-.36 1.06-.36 1.42-1.07s1.06-.71 1.77-.35 1.42.35 1.77 1.06h.71c.71.36 1.77.71 2.48 1.07a1.94 1.94 0 011.07 1.77l.71-.71a1.09 1.09 0 000-1.42v-.71a1.31 1.31 0 011.06-.35c.35.35.35.35.71.35s.71.36 1.06.71a.67.67 0 001.07 0c.35 0 .71-.35 1.06-.71s.36 0 .71 0a2.08 2.08 0 01.71 1.78c0 .35 0 .7-.35.7a.76.76 0 00-.71.71h1.77l1.06.36h.36c0-.36.35-.71.35-1.07h.36v-.7a1.1 1.1 0 01.35-.71 1.29 1.29 0 011.02-.38c.36 0 .36 0 .36.36-.36.35-.71.71-.71 1.06a.34.34 0 00-.35.35c0 .71.35 1.07-1.07.71.36.36.71 0 .71-.71a.35.35 0 01.36.36v.71h1.06c.71 0 1.06-.71.71-1.07s-.36-.7-.71-1.06a1.31 1.31 0 00.35-1.06 2.24 2.24 0 000-2.13v-.36c.36-.35.36-.35.71-.35.71.35 1.07.35 1.42.71.36 0 1.07 0 1.07-.36a1.22 1.22 0 01.35-.7.35.35 0 00.36-.36c.35-.35.7 0 1.06 0a5.94 5.94 0 002.48.36c.36-.71 1.42-1.42 1.77-2.13.36-.36.36-.36.71-.36.36.36.36.36.36.71-.36.36-.36.36-.36.71a.76.76 0 00.71.71c.71 0 1.07.36 1.07.71v.71c.35 0 .71.35 1.06.35v-2.1a7.49 7.49 0 011.42 2.12 13.8 13.8 0 015.32.71h.71c.35 0 .71 0 .71-.35 0-1.07.35-1.77.35-2.48.35.35.71.35.71.71a3.13 3.13 0 01.36 1.77c0 .71.7 1.06 1.06.71l1.06-1.07a.66.66 0 000-1.06c0-.35-.35-.35-.71-.71v-.71c.36-.35.36-.35.71-.35s.36.35.71.35c.36.36.71.36 1.07.71s1.06.71 1.41 1.06l.36.36a.67.67 0 001.06 0l.36-.36a2.37 2.37 0 002.12-1.41h.36a4.76 4.76 0 001.07 1.41c.36.71 1.07.71 1.78 0l.35-.35c.36 0 .71-.35 1.06-.35s.71 0 .71.35v.35c0 .36-.35.36-.35.71-.36 0 0 .36.35.71 1.07.71 1.78.36 2.84 0a5 5 0 001.42-1.06l.71-.71a2.14 2.14 0 011.42-.35c.71 0 1.06 0 1.42.35l.35.35a2.71 2.71 0 00.71-1.77.34.34 0 01.35-.35c.36 0 .71 0 .71.35a.35.35 0 01.36.36v.35c.71-.35 1.06-.71 1.77-.35l1.04 1.06c0 .35.71.35.71 0 .36-.71.36-1.42.71-1.77.36-.71.36-.71 1.07-.36.35 0 .35.36.71.36a.67.67 0 001.06 0h.35c-.35 1.06 0-.71.36.71 0 1.06.35 1.77 1.42 1.77a15.67 15.67 0 00.35-1.77c.36-.71.36-1.07 0-1.42.36-.36.71-.36 1.07-.71s.35-.71.7-.71c.71 0 1.07.35 1.42.35a.35.35 0 01.36-.35h1.42V8a4.83 4.83 0 001.06 1.42c.36.36.71.36-.35 2.48 0-.35.35-.35.35-.71l.36-.35a1.4 1.4 0 011.41-.71c.36 0 .36-.35.71-.35l.71.71c.36.7.71 1.77 1.07 2.48a.87.87 0 001.41.35c.36.36.36.36.71 0a1.28 1.28 0 00.36-1.06l.35-.36a3.77 3.77 0 012.84.36.35.35 0 00.35-.36l.36-.35a1.28 1.28 0 011.06-.36.76.76 0 01.71.71c.36 1.07.36 2.13 1.42 2.84l.35-.35c.36 0 .36-.36.71-.36.36.71.71.71 1.07.36a.35.35 0 00.35-.36c.71 0 1.07.36 1.77.71l1.07 1.06a9.58 9.58 0 002.13 1.78 4.51 4.51 0 004.25 0c.71-.36 1.07-1.07.71-1.42s-.35-.71-.71-1.06v-.36a1.33 1.33 0 011.07-.35 6 6 0 003.54 1.06c.36 0 1.07.35 1.42.35a1.27 1.27 0 00.36-1.06c.35-.71.7-1.06 1.06-1.06a1.28 1.28 0 011.06-.36 3.57 3.57 0 003.55 2.13c.35.35.35.71.71.71a1.59 1.59 0 001.77 0l.71-.71A14.85 14.85 0 00384 14c.36-.35 1.07-.71 1.42-1.06a1.29 1.29 0 011.06-.36c.36.36.71.36.71 0l.36.36a.67.67 0 010 1.06 4.83 4.83 0 00-1.42 1.07 1.08 1.08 0 000 1.41 6.13 6.13 0 001.77 1.42c.71.36 1.78 0 1.78-.71s.35-1.77.35-2.83l1.07-1.07c.35 1.07.35 2.48.7 3.55 0 .35.71.71 1.42.71h.36c.35.35.35.35.71.35v-.35h.35a31.75 31.75 0 018.16-.71c.71-1.07 1.06-2.48 2.12-3.19v3.19c.36 0 1.07-.36 1.42-.36a1.28 1.28 0 00.36-1.06 1.53 1.53 0 011.46-1.42c.7-.35.7-.35.7-1.06 0-.36-.35-.71-.35-1.07 0-.71 0-1.06.35-1.06a1.33 1.33 0 011.07.35 12.26 12.26 0 002.84 3.2h.71v.35l.35.36v-.71a10.48 10.48 0 003.19-.71 3.15 3.15 0 011.77-.36c.71.36.71 1.07 1.07 1.42 0 .36 1.06.71 1.42.36s1.06-.36 1.42-.71a1.08 1.08 0 001.41 0v.35a3.42 3.42 0 00-.35 3.19 3.26 3.26 0 01.35 1.78c-.35.35-.71 1.06-1.06 1.41-.71.71-.35 1.42.71 1.42a3.15 3.15 0 001.77.36 1.3 1.3 0 00.36-1.07l1.11-1.04a1.28 1.28 0 011-.36 5.35 5.35 0 00-1-2.48c-.35-.35 0-.71.35-.71a1.85 1.85 0 011.42.71c1.07 1.07 1.07 2.48 1.78 3.55a.34.34 0 00.35.35l1.42-.71h1.06c1.42 0 1.42 0 1.42-.35 0-.71-.71-1.06-1.06-1.42s-.71-.71-.71-1.06.35-.71.71-1.07a.34.34 0 00.35-.35c0-.36.36-.36.71-.71.36 0 .71-.36 1.07 0 .7.35 1.06.71 1.77 1.06a1.07 1.07 0 001.42 0c.71 0 1.06-.71 1.77-1.06a1.29 1.29 0 011.06-.36 2.69 2.69 0 011.42.71.67.67 0 010 1.07 1.52 1.52 0 00-.35 2.48l1.04 1.06a3.62 3.62 0 011.77-2.83c.71-.36 1.07-.36 1.78-.71a.76.76 0 00.71.71c0-.36.35-.36.35-.71v-.71c.36 0 .71-.36 1.06-.36h1.07a4.9 4.9 0 012.84-1.77 2.23 2.23 0 012.83.71l2.13 1.06a2 2 0 011.06 1.78v.35c-.35 0-.71-.35-1.06-.35h-.35c-.36 0-.36.35-.36.71v.35a.35.35 0 01.36.36 1.87 1.87 0 002.48 1.41c.71 0 1.42 0 1.77.71a1.25 1.25 0 01.36.71l.35-.35v.71c0 .35.36.71 1.06.71l.36-.36v-1.06c-.36-.36-.36-.71-.71-.71a5 5 0 001.42-1.07.87.87 0 00-.36-1.41c-1.77-1.07-1.77-1.07-1.41-2.49v-.35c.35-.36 0-.71-.71-1.06-1.07-.36-1.07-1.07-1.07-1.78h3.19a5.09 5.09 0 012.49.71l.7.71c0 .36.36.71.36 1.06.71.36 1.06 0 1.77 0 1.07.36 1.78 0 2.84-.35.35-.35.71-.71.71-1.06h1.42c.71.35 1.06-.36 1.42-.71h1.06c.35.35.35 1.06.71 1.42 0 .35 1.06.7 1.42.35.71-.35.71-.71.71-1.42s-.36-1.06-.36-1.77v-.36c.36 0 .36-.35.71-.35a1.3 1.3 0 011.07-.36 3.55 3.55 0 003.54 2.13c.36.36.36.71.71.71a1.56 1.56 0 001.77 0l.36-.35a7.61 7.61 0 011.77 1.06h.71c0 .36 0 .36.36.36v-.36a6.8 6.8 0 002.48.36c.35 0 .71.35 1.06.7a.35.35 0 00-.35.36c0 .35 0 .35.35.35v-.71c.71.36 1.77 0 1.77-.7v-.71c.71-.36 1.07-.36 1.78-.71a1.31 1.31 0 01.35 1.06c0 .36.71.71 1.42.71h1.06a18.07 18.07 0 014.26-.71v.36a3.52 3.52 0 001.77 1.41 1.29 1.29 0 001.77-.71c.36-1.06 1.07-1.06 1.78-1.06s.71-.35.35-1.06c-.35-.36-.71-.36-.71-.71v-.71l.71-.71v3.19c.36 0 1.07-.35 1.42-.35a1.3 1.3 0 00.36-1.07l.35-.35c-.35.71 0 1.06 0 1.42a2.36 2.36 0 001.42 1.77c.35 0 .35.35.71.35h1.06a2.62 2.62 0 001.42-.71c.71.71 1.42 1.78 2.13 2.49a1.09 1.09 0 001.42 0 14.58 14.58 0 011.42-2.49c.35-.35 1.06-.7 1.41-.35a1.28 1.28 0 01.36 1.06c-.36.36-.36 1.07-.71 1.42a25.7 25.7 0 005 1.42.35.35 0 00-.35.36c-.71.7-.36 1.41.71 1.41a3.15 3.15 0 001.77.36 1.3 1.3 0 00.36-1.07 1.22 1.22 0 01.35-.7c.35 0 .71.35 1.06.35.71-.71 1.07-.71 1.78-.35a1.07 1.07 0 001.42.35.34.34 0 00.35.35l1.42-.7h1.06c1.42 0 1.42 0 1.42-.36 0-.71-.71-1.06-1.06-1.42s-.71-.71-.71-1.06l.35-.36a7.91 7.91 0 001.07 1.78c.35.35.35.35.35.71h.35a1.89 1.89 0 001.42.71c.36.35.71 0 .71-.36a1.31 1.31 0 01-.35-1.06c0-.36-.36-.71-.36-1.07-.35-.35 0-.71.36-1.06l.35.35a1.07 1.07 0 001.42 0c.71 0 1.06-.71 1.77-1.06a1.33 1.33 0 011.07-.35 2.74 2.74 0 011.42.7v.36c-.71 0-.71.71-.71 1.42v.35a3.26 3.26 0 00.35 1.78l1.07 1.06a3.63 3.63 0 011.77-2.84c1.06-.35 2.48-1.06 3.9-1.42h1.06a4.94 4.94 0 012.84-1.77c1.06-.71 1.77-.71 2.48 0a3.22 3.22 0 00-.35 1.77c.35 0 .71-.35 1.06-1.06.71.35 1.07.71 1.77 1.06a2 2 0 011.07 1.78v.35c-.36 0-.71-.35-1.07-.35h-.35c-.35 0-.35.35-.35.71v.35a.35.35 0 01.35.36 1.87 1.87 0 002.48 1.41c.71 0 1.42 0 1.78.71a1.26 1.26 0 01.35.71 15.61 15.61 0 002.48-2.13.87.87 0 00-.35-1.41c-1.77-1.07-1.77-1.07-1.42-2.49v-.35c.35-.36 0-.71-.71-1.06-1.06-.36-1.06-1.07-1.06-1.78h3.19a3.81 3.81 0 012.48.71c0 .36.36 1.07.36 1.42a3.92 3.92 0 003.19-1.06 3.45 3.45 0 013.19-.36c.71.36 1.06-.35 1.42-.71h1.06c0 .36.35 1.07 2.13 1.07 0 .35 1.06.71 1.42.35.71-.35.71-.71.71-1.42s-.36-1.06-.36-1.77v-1.06c0-1.07.71-1.78 1.42-1.42s1.42.35 2.13.71a9.65 9.65 0 002.83 2.48 24.49 24.49 0 013.09 2.13c1.42 0 2.49.35 3.91.35a19.84 19.84 0 004.25-1.42c0 1.07.36 1.78 1.42 1.78 0-.71-.35-1.78-.35-2.49a2 2 0 001.06-1.77c.71 1.42 1.77 2.84 2.48 4.26h2.48c.36 0 .71.7.71 1.06s-.35.71-.35 1.06a1.3 1.3 0 00-.36 1.07c0 .35.36.35.71.35 1.78-.35 2.48-1.42 3.19-2.84a.68.68 0 011.07 0c.35 0 .35.36.71.71a7.53 7.53 0 011.42 2.13.35.35 0 00.35.36c0 .35-.35.35-.35.71.35.35.35.7.71.7h.35l.71-.7a1.22 1.22 0 00-.36-.71l.36-.36c.71-.71.71-.71 1.77.36a5 5 0 012.13-.71 5.94 5.94 0 002.48-.36c1.07-.35 2.48-.71 3.55-1.06a20.67 20.67 0 006.38 1.42 5 5 0 012.13.71c.71-.71 1.06-.71 1.77-.36.36 0 .71.71 1.42 0a10.89 10.89 0 001.42-2.13c0-.35.35-.35.71-.71s1.06-.35 1.06 0c.71 1.42 1.42 2.49 3.19 2.84.36.36.71 0 .71-.35a1.33 1.33 0 01-.35-1.07c0-.35-.36-.71-.36-1.06-.35-.36.36-1.06.71-1.06h2.48v.35a.35.35 0 00.36.35c.35 0 .35 0 .71-.35v-.35a.35.35 0 01-.36-.36 31.67 31.67 0 012.13-3.55c.36 1.07.71 1.78 1.78 2.13 1.41.36 3.19 1.07 4.6 1.42 1.07 0 2.49-.35 3.9-.35l3.2-2.13a9.65 9.65 0 002.83-2.48c.71-.36 1.42-.36 2.13-.71a1.53 1.53 0 011.42 1.42v1.06c0 .71-.35 1.06-.35 1.77a1.84 1.84 0 00.7 1.42 2.14 2.14 0 001.42-.35v.35c.36.36.71 0 .71-.35l-.35-.36a.35.35 0 01-.36.36c0-.36.36-.71.36-1.07h1.06a1.84 1.84 0 001.42.71 3.46 3.46 0 013.19.36c.71 1.06 1.77 1.06 3.19 1.06 0-.71.36-1.06.36-1.42a5.12 5.12 0 012.13-.71h3.19a1.9 1.9 0 01-1.07 1.42c-.71.36-.71.36-.71 1.06v.36c.36 1.77.36 1.77-1.41 2.48-.36.36-.71 1.07-.36 1.42a4.83 4.83 0 002.48 2.13 1.08 1.08 0 01.36-.71c.35-.36.71-.71 1.06-.71-.35 0-.35.35-.35.71a1.22 1.22 0 00.7.35c.36 0 .36-.35.36-1.06a1.88 1.88 0 002.48-1.42.35.35 0 00.36-.35v-1.78l-.36-.35a.34.34 0 00-.35.35v.36h-.36c-.35 0-.71.35-1.06.35.35-.35.35-.35.35-.71v-.35a4.83 4.83 0 011.07-1.42l2.12-1.06c.71-1.07 1.78-1.07 2.84-1.42a10.39 10.39 0 012.48 1.77.35.35 0 01-.35.36c.35 0 .35.35.35.7.36.36.71.36.71-.35l.36-.35h.35c1.42.35 2.84 1.06 3.9 1.41a3.62 3.62 0 011.78 2.84l1.06-1.06a2.22 2.22 0 00-.35-2.49v-1.06a2.7 2.7 0 011.41-.71 1.3 1.3 0 011.07.36c.71.35 1.06.71 1.77 1.06a1.09 1.09 0 001.42 0c.71-.35 1.06-.71 1.77-1.06a.67.67 0 011.07 0 9.22 9.22 0 011.77 2.12c0 .71-.35.71-.71 1.07-.71.35-1.06.71-1.06 1.42s0 .71 1.42.35h1.06l1.42.71a.34.34 0 01.35-.35c.71-1.07 1.07-2.49 1.78-3.55.35-.71.7-.71 1.41-.71.36 0 .71.35.36.71a5.26 5.26 0 00-1.07 2.48 1.3 1.3 0 001.07.36l1.06 1.06a1.28 1.28 0 01.36 1.06 3.22 3.22 0 011.77-.35c.71 0 1.06-.71.71-1.42-.36-.35-.71-1.06-1.07-1.42a2.61 2.61 0 01.36-1.77 5 5 0 00-.33-3.15v-.71c0-.36.36-.71.71-.36l2.13 1.07c.36.35 1.07 0 1.42-.36.35-.71.35-1.06 1.06-1.42a2.65 2.65 0 011.78.36 7.63 7.63 0 003.9.71c1.06-1.07 2.13-1.77 2.84-3.19a1.27 1.27 0 011.06-.36 1.33 1.33 0 01.35 1.07c0 .35-.35.71-.35 1.06-.36.71 0 1.06.71 1.06.71.36 1.42.71 1.42 1.42a1.33 1.33 0 01.35 1.07c.35 0 1.06.35 1.42.35v-3.23a4.83 4.83 0 011.06 1.46 1.85 1.85 0 00-.71 1.42c-.35.71 0 1.41 1.07 1.77.71.35 1.42-.36 1.42-1.42a17.84 17.84 0 017.44.71h1.07c.71 0 1.41-.35 1.41-.71.36-1.06.36-2.48.71-3.55l1.07 1.07c0 1.06.35 1.77.35 2.84 0 .7 1.07 1.06 1.78.7a3.55 3.55 0 001.77-1.41 1.09 1.09 0 000-1.42 4.83 4.83 0 01-1.42-1.07.67.67 0 010-1.06 1.31 1.31 0 011.06-.35c.36 0 .71.35 1.07.35.35.35 1.06.71 1.42 1.06a16.4 16.4 0 012.48 1.42c.35.36.35.71.71.71a1.56 1.56 0 001.77 0l.71-.71c.71 0 1.06-.35.36-.71 0 .71.35.71.35 0v-.35a8.35 8.35 0 001.42-1.77 1.31 1.31 0 001.06.35c.71.35.71.71 1.07 1.06 0 1.42-.36 2.49-.36 3.55 1.06 0 1.42-1.06 1.42-2.48a1.28 1.28 0 011.06-.36 13.59 13.59 0 003.55-1.06 1.31 1.31 0 011.06.35v.36c-.35.35-.35.71-.71 1.06a1.41 1.41 0 00.71 1.42 4.53 4.53 0 004.26 0 9.25 9.25 0 002.13-1.77l1.06-1.07a5.12 5.12 0 012.13-.71 5 5 0 012.12.71l.36.36c1.06-.71 1.06-1.77 1.42-2.84a.76.76 0 01.71-.71 1.28 1.28 0 011.06.36l.36.35a.35.35 0 01.35.36c1.06 0 1.77-.71 2.84-.36.35.36 1.06.71 1.42 1.42.35.35 1.42 0 1.42-.35A16.15 16.15 0 01806 8c.35.71.35 1.07.71 1.42-.36 0-.36.36-.71.71h-.71a.87.87 0 00-.35 1.42c.7.71 1.06 1.06 1.77 1.06h.71c0 .36.35.71.35 1.07a2.69 2.69 0 00.71-1.42 2.62 2.62 0 00-.71-1.42 2.14 2.14 0 01-.35-1.42c.35-.35.71-1.06 1.06-1.42l.35.36a1.09 1.09 0 001.42 0l1.07-1.07a.35.35 0 00.35.36c.71 0 1.07 0 1.42-.36a3.06 3.06 0 002.13-1.06l1.06-1.06c.71-.36 1.42.35 1.78.35a1.12 1.12 0 01.35.71s.71-.35.71-.71a1.23 1.23 0 01.71-.35c0 .35.35 1.06.35 1.41 0 1.07.71 1.07 1.07 1.42.35 0 .71 0 .71-.35l1.41 1.42a1.25 1.25 0 001.78-.36c.35-.35.35-.71.71-1.06h.35v-.37a2.73 2.73 0 011.79-.71c.36-.35.36-.35.71-.35v.35a1.22 1.22 0 01.71.36 1.25 1.25 0 01.71-.36 1.25 1.25 0 00.71.36v.71c.71 0 1.06.35 1.77.71a1.3 1.3 0 001.08-.35c.35-.35 1.06-.71 1.42-1.06a2.76 2.76 0 001.42-.71c.35 0 .7 0 1.41 1.42L839 8.7v-.35a1.3 1.3 0 011.42-1.42h1.06c0 .71 0 1.06 1.06 1.06h1.07c.35-.71 1.06-1.42 1.77-1.06a1.26 1.26 0 00.35-.71h1.78a15.22 15.22 0 001.77.35h.36a28.18 28.18 0 003.9 1.07c.71 0 1.06-.36 1.42-1.07a.35.35 0 01.35.36c0 .35.71.71 1.42.35a1.84 1.84 0 001.42-.71v.36a14.85 14.85 0 00-1.42 2.48 4.11 4.11 0 00.71 3.55c.35.71 1.06.71 1.77 0 0-.36.35-.71.71-1.07 0 .36.35.71.71 1.07a.34.34 0 00.35.35v.36c0 .71.36.71.36 0v-.36c.71.36 1.06 0 1.42-.35a2.83 2.83 0 00.7-3.55 15.61 15.61 0 00-1.41-2.48c.35 0 .35-.36.71-.36h1.41a.35.35 0 00.36-.35V5.16c-.36-.36-.71-.71-1.07-.71v-.36h1.42c0 .71.36 1.42.36 2.13 0 1.06.71 1.77 1.42 1.42 1.06-.36 2.12-.36 2.83-.71 0 .35.36 1.06.71 1.06.71 0 1.07-.35 1.07-1.42h-1.77a6.68 6.68 0 012.49-.7c.35.35.71.35.71 0v-.36h1.06a15.67 15.67 0 01.35 1.77c-.35.36-.35 1.07-.71 1.42 0 .36.36 1.07.71 1.07.71 0 1.42 0 .36-.71 0-.36.35-.36.35-.71a5.19 5.19 0 01.36 2.48 1.12 1.12 0 002.12.35 8.31 8.31 0 011.42-3.54 19.06 19.06 0 011.07 4.25c0 .36.35.71.71.36a2.49 2.49 0 001.41-1.77c.36-.71.36-1.42.71-2.13a1.09 1.09 0 001.42 0 10.63 10.63 0 012.84-1.42c.35.35.35 0 .71 0H889l.35.35c.71.36.71 1.07.71 2.13 0 1.42.36 2.48 1.07 2.48a1.8 1.8 0 001.41.71h.71c0 .36.36.71.36 1.07a2.76 2.76 0 00.71-1.42 2.69 2.69 0 00-.71-1.42 2.1 2.1 0 01-.36-1.42c.36-.35.71-1.06 1.07-1.42h1.06c0 .36-.36.36-.36.71s-.35 1.42 0 1.78c.71 1.41 1.78 2.48 2.49 3.9.35.71.71.71 1.06.35v.36h.71a.35.35 0 00.36-.36c-.36 0-.36-.35-.71-.35C900 13 900 10.83 901.06 9.06a3.6 3.6 0 00-.35-1.06 4.56 4.56 0 01-2.13-.35c1.07 0 1.42-.36 1.42-2.13a6.65 6.65 0 012.48.71c1.42.71 2.49 1.42 3.9 2.13v.34c0 .36-.35.36-.71.36 0 1.77 0 1.77 1.07 2.48.71 0 1.06.35 1.77.35 1.06 1.78 1.42 1.78 2.13 0a7.83 7.83 0 011.06-1.77c.36 0 .36-.35.71-.35h3.9v.35a1.72 1.72 0 00.36 1.06h.71c.71-.35.71-1.06.71-1.77h.35a5 5 0 011.42 1.07c0 .35.35.7 1.06.7a5.19 5.19 0 00.71 2.49c.36.35 1.07.35 1.07-.36a9.93 9.93 0 00.35-3.19c.35-.35.35-.71.71-1.06h1.42v.35c.35.71.35.36.71 0a69 69 0 016.73 1.77c.71.36 1.78-.35 1.78-1.77 0-1.06.35-1.77.35-2.48a.68.68 0 001.07 0c.71 0 1.06.35 1.41.35-1.06 0-1.77 0-2.48 1.07v1.06l.36.36a3.22 3.22 0 001.77.35c.35.36.71.36 1.06.71 0 1.77 0 3.19 1.07 4.26a6.33 6.33 0 001.77 2.48c.71 1.06 1.42.71 2.13 0a3.79 3.79 0 00.71-4.26 12.61 12.61 0 00-1.78-2.83v-.71c1.07-1.07 1.42-2.84 2.13-4.61A8.32 8.32 0 01945 3.38h.36l.35.36a2.61 2.61 0 01.36 1.77c-.36 1.77.35 2.48 1.42 2.13a1.26 1.26 0 00.35-.71c.36 0 .71 0 .71-.36.36-.7 0-1.77-.35-1.77a.35.35 0 00-.36.36c0-.36-.35-1.07-.35-1.42.71 0 1.77.35 2.48 0l-.35.35v1.42l2.12 3.19a2.17 2.17 0 00-.35 1.42 2.66 2.66 0 00-.71 1.42 2.69 2.69 0 00.71 1.42c0-.36.35-.71.35-1.07h.71a2 2 0 001.78-1.06c0-.71 0-1.06-.36-1.42h-.71c-.35 0-.35-.35-.71-.71a12.51 12.51 0 001.42-3.9c.36 0 .71.36 1.06.36a12.86 12.86 0 003.55.71v.35c-.71 0-1.42-.35-2.13.71-.35 0-.35.71-.35 1.06s.71.71.71.71c.35-.35.71 0 1.06 0a.35.35 0 00-.35.36l.35.71c.36.35.71-.36.71-.71l-.35-.36a5.16 5.16 0 011.06 1.42h1.42c1.77 0 1.77-.35 1.42-2.13V6.22a.34.34 0 00.35-.35h2.13c.35.35.71.35 1.42 0a.35.35 0 00.35-.36h4.26v.36a4.66 4.66 0 00-1.42 1.06 1.32 1.32 0 01-1.06.35c-.36.36-.71 1.42-.36 1.78.71 1.06 2.13 1.77 2.84 1.06 0-.35.35-.71.35-1.06V7.64s.71 0 .71-.36V5.87c.71.35 1.07.35 1.42.7 0 .36-.35 1.07 0 1.42a2 2 0 001.77.71L977 9.77c.35 0 .35-.36.71-.71v-.71a2.69 2.69 0 00-.71-1.42v-.36l2.13-1.06c.35-.35.71-.71 1.06-.71h.36c.71.36 1.06 0 1.41-1.06.36 0 .36-.36.71-.36l.36.36h1.42c.35.35.71.71 1.06.71a5.8 5.8 0 00.66 3.55c.36.71 1.06 1.42 1.42 2.13s1.06.71 1.77 0A3.06 3.06 0 00990.42 8h.72a1.31 1.31 0 00.35-1.06c0-.36-.35-.71-.71-.36l-.36.36v-.37c-.35-.35-.35-.7-.7-1.06h7.44c-.35 0-.35 0-.71.36a1.62 1.62 0 000 1.77c.71.71 1.42.71 1.78 0a1.33 1.33 0 00.35-1.07c.36-.35 0-.7-.35-1.06h6.38a4.82 4.82 0 004.61-2.51c.71-1.42 1.42-2.13 2.48-1.77.36 0 .71.35 1.07.7 0 .36-.36.36-.71.71h-.71c-.36.36-.71 1.07-.36 1.42.71.71 2.13 1.42 2.49.71 0-.35.35-.71.35-1.06V2.32a1.62 1.62 0 001.77 0v.35l-.35.36c.35.35.35.71.71.71h.35a1.33 1.33 0 001.07.35c.71.36 1.06.71 1.77 1.07.35.35.71 0 .71-.36v-.71c-.36-.35-.36-.71-.71-1.06v-.36c.71 0 1.06-.35 1.77-.71.36-.35 1.07-.35 1.78-1.06 1.06-1.06 2.12-.71 3.19.36.35.35.71.7 1.06.7a5 5 0 000 3.2 1.41 1.41 0 001.42.71c.35.35.71.35.71-.36V3.38c0-.35-.36-.35-.36-.71h1.42a2.66 2.66 0 01.36 1.42.35.35 0 00-.36.36.77.77 0 00.71.71c.36.71 1.06.71 1.77.71h.71c.36 0 .71-.71.71-1.07.36-.71 0-1.42-.35-1.42-.71 0-1.07-.35-1.78-.35v-.71h3.91c-.36 0-.36 0-.71.35a1.07 1.07 0 000 1.42c.71.36 1.06.71 1.41 0a1.28 1.28 0 00.36-1.06.76.76 0 00-.71-.71h5.32A4.35 4.35 0 001045 .55a3.93 3.93 0 003.54 1.77h1.07a20.45 20.45 0 011.77 2.84h1.77a.76.76 0 01.71.71v1.41c.36.36.36.36.71.36s.35-.36.71-.36v.36a2.18 2.18 0 00.71 2.48c.71.36 1.06 0 1.77-1.77a2.24 2.24 0 000-2.13l.36.35c.35.36.35 1.07.71 1.42s.7 0 1.06 0c.35-.35.35-.35 1.06.36.36 0 1.07-.36 1.42-.36 1.77-.35 3.19-.71 4.61-1.06 0-.36-.35-.71-.35-1.06-.36-.36-.36-.71 0-.71.35-.36.35 0 .71 0v.35c0 .71.35 1.06.71.71a1.12 1.12 0 00.35.71.67.67 0 001.06 0 6.13 6.13 0 001.42-1.77.35.35 0 00.36.35.35.35 0 00.35.36h.71c.71 0 1.06-.36 1.42-1.07a.76.76 0 00.71-.71v-.35c0 .35 0 .35.35.71l.36.35c0 .36 0 .36.35.36a1.26 1.26 0 00.71.35.35.35 0 01.36.36c0 .35 0 .35.35.35h.71l.35-.35.36-.36.35-.35V4.8l.71-.71h1.07l.71-.71h.35c.35.71.71 1.42 1.77 1.42 0 1.07 0 1.42 1.07 1.42h1.06a1.25 1.25 0 01.36-.71c.7 0 1.41-.35 2.48-.35a2 2 0 013.54 0h1.42c.71 0 1.07.71 1.42 1.41v.36l1.06-1.06a1.07 1.07 0 011.42 0c.71.35 1.07 1.06 1.78 1.41-.36.36-.71.71-.71 1.07a4.09 4.09 0 00.71 3.54c.35.71 1.06.71 1.77 0 .35-.71 1.06-1.41 1.42-2.12 0-.36.35-.36.35-.71a2.81 2.81 0 001.42 1.42l.36-.36c0-.35.7-.35 1.06-.35.71.35 1.06 0-.71 0v-.71c0-.36 0-.71-.35-.71h-.36c-.35.35-.35.35-.71.35v-.35c0-.36.36-.36.36-.71a.34.34 0 00.35.35l.36.36c.35.35.35.71.7 1.06.36.71 1.07 1.07 1.78.36s1.06-1.42 1.77-2.13v-.71l.36.35h.7c.71.36 1.78.71 2.49 1.07l.35.35v.36c0 .35 0 .35.36.35v.36c.35-.36.35-.36.71-.71.35-.71.35-1.07 0-1.42v-.71a.76.76 0 00.7-.71c1.07 1.06 2.13 1.06 3.55 1.06a5 5 0 011.42 1.07h.35c0 .35-.35.35-.35.71h1.77l1.07.35h.35c.35-.35.36-1.06.71-1.42.35.36.35.36.71 0 0 .36.35.36.35.71.36.36.36 1.07.71 1.78 0 .7.71.7 1.07.35.35.35.35.71.71.35.35 0 .35-.35.35-.7v-.36c.35 0 .35-.35.71-.71a3.78 3.78 0 012.84.36.35.35 0 00.35-.36l.36-.35c.35-.36.35-.36.7-.36a1.3 1.3 0 00.36 1.07c-.36 0-.36.35-.71.71h-.71a.87.87 0 00-.35 1.41c.71.71 1.06 1.07 1.77 1.07h.71c0 .35.35.71.35 1.06a2.62 2.62 0 00.71-1.42v-.35l.36.35.35-.35a2.61 2.61 0 012.13-.71 5 5 0 012.13.71l1.06 1.06a9.58 9.58 0 002.13 1.78 4.56 4.56 0 004.25 0c.71-.36 1.07-1.07.71-1.42l-.35-.36h1.06c.36-.35.71-.35.71-.71a8.24 8.24 0 002.84.71c.35 0 1.06.36 1.42.36a1.33 1.33 0 00.35-1.07c.36-.71.71-1.06 1.07-1.06a1.27 1.27 0 011.06-.36 5.45 5.45 0 002.84 2.13v.36l.35.35c.36 0 .71 0 .71-.35.35 0 .35.35.71.35a1.56 1.56 0 001.77 0l.71-.71a14.46 14.46 0 002.48-1.42c.36-.35 1.07-.71 1.42-1.06a1.33 1.33 0 011.07-.35 1.31 1.31 0 011.06.35.67.67 0 010 1.06A5 5 0 001167 13a1.09 1.09 0 000 1.42 6.21 6.21 0 001.77 1.41c.71.36 1.78 0 1.78-.7s.35-1.78.35-2.84c.36-.36.36-.71.71-1.07a1.3 1.3 0 00.36 1.07c0 .71.35 1.42.35 2.13 0 .35.71.71 1.42.71h1.06a34.44 34.44 0 016-.71.34.34 0 01-.35.35.35.35 0 01.35.36h.71v-.36h1.77c.71-1.06 1.07-2.48 2.13-3.19v3.19c.36 0 1.06-.35 1.42-.35a1.33 1.33 0 00.35-1.07h.36a1.94 1.94 0 001.77-1.06v-.71c.36 0 .36-.36.36-.71s-.36-.71-.36-1.06c0-.71 0-1.07.36-1.07a1.28 1.28 0 011.06.36 12.22 12.22 0 002.84 3.19 7 7 0 003.9-.71 3.15 3.15 0 011.77-.36c.71.36.71 1.07 1.06 1.42 0 .36 1.07.71 1.42.36l2.13-1.07c.36-.35.71 0 .71.36V13a3.42 3.42 0 00-.35 3.19 3.22 3.22 0 01.35 1.77c-.35.36-.71 1.07-1.06 1.42-.71.71-.36 1.42.71 1.42a3.21 3.21 0 001.77.35 1.31 1.31 0 00.35-1.06l1.07-1.06a1.28 1.28 0 011.06-.36 5.35 5.35 0 00-1.06-2.48c-.36-.36 0-.71.35-.71a1.82 1.82 0 011.42.71c1.06 1.06 1.06 2.48 1.77 3.55a.35.35 0 00.36.35l1.42-.71h1.06c1.42 0 1.42 0 1.42-.35 0-.71-.71-1.07-1.07-1.42s-.7-.71-.7-1.07l1.06-1.06.35.35.36-.35v-.35a.35.35 0 01.35-.36c.36 0 .71-.35 1.07 0 .71.36 1.06.71 1.77 1.06a1.07 1.07 0 001.42 0c.71 0 1.06-.7 1.77-1.06a1.32 1.32 0 011.06-.35 2.62 2.62 0 011.42.71.66.66 0 010 1.06c-.71.71-.71 1.77 0 3.55l1.07 1.06a3.63 3.63 0 011.77-2.84c1.06-.35 2.48-1.06 3.9-1.42h1.06a4.94 4.94 0 012.84-1.77 2.24 2.24 0 012.84.71l2.13 1.06c.35.36.71.71.71 1.07-.36.35-.36.35-.36.71h-.71c-.35 0-.35.35-.35.71v.35a.35.35 0 01.35.36 1.87 1.87 0 002.48 1.41c.71 0 1.42 0 1.78.71a1.26 1.26 0 01.35.71 15.17 15.17 0 002.48-2.13.87.87 0 00-.35-1.41c-1.77-1.07-1.77-1.07-1.42-2.49v-.35c.36-.36 0-.71-.71-1.06-1.06-.36-1.06-1.07-1.06-1.78h3.19c.71 0 1.42 0 2.48-1.42 0 .36.36 1.07.36 1.42h.35c-.35 0-.35.36-.35 1.07l.35.35c.36 0 .71-.71.71-1.42a.34.34 0 00-.35-.35 5.12 5.12 0 002.12-.71V13a1.3 1.3 0 001.42-1.42c.71-.36 1.77 0 2.48 0 .71.35 1.07-.36 1.42-.71h1.07c.35.35.35 1.06.71 1.42 0 .35 1.06.71 1.41.35.71-.35.71-.71.71-1.42s-.35-1.06-.35-1.77v-1.1c0-1.07.71-1.78 1.42-1.42s1.42.35 2.12.71a9.69 9.69 0 002.84 2.48 24.49 24.49 0 013.19 2.13c1.42 0 2.48.35 3.9.35a22.6 22.6 0 004.61-1.42 2.65 2.65 0 001.78-2.48c.71.71 1.41 1.07 2.12 1.78h1.78c.71.35.71 1.06 1.06 1.77a3.58 3.58 0 001.77 1.42A1.31 1.31 0 001289 13c.35-1.07 1.06-1.07 1.77-1.07s.71-.35.35-1.06c-.35-.35-.7-.35-.7-.71V8c.35-.35.35-.35.35-.71a1.62 1.62 0 000-1.77.76.76 0 01.71-.71c.35.36.71.36 1.06.71 1.07.71 1.78 1.77 1.07 3.19a2.24 2.24 0 000 2.13 3.73 3.73 0 002.12 2.48h1.07a2.69 2.69 0 001.42-.71c.71.71 1.42 1.78 2.12 2.49a1.09 1.09 0 001.42 0 16.06 16.06 0 011.42-2.49 1.33 1.33 0 011.07-.35c.35 0 .35.35.7.35v.71c-.35.36-.35 1.07-.7 1.42 2.12.36 4.25 1.42 6.73 1.42a5 5 0 012.13.71c.71-.71 1.06-.71 1.77-.36.36 0 .71.71 1.42 0a10.36 10.36 0 001.42-2.12c0-.36.36-.36.71-.71s1.06-.36 1.06 0c.71 1.42 1.42 2.48 3.19 2.83.36.36.71 0 .71-.35a1.32 1.32 0 01-.35-1.06c0-.36-.36-.71-.36-1.07-.35-.35.36-1.06.71-1.06h2.49c1.06-1.42 1.77-3.19 2.83-4.61 0 .71.36.71.71.71a1.25 1.25 0 00.36-.71 1.25 1.25 0 01-.36-.71c.36-.36.36-1.07.71-1.42a4.45 4.45 0 01.36 2.13c.35.71.71 1.06 1.41 1.06l.36.36c.35.71 1.06.71 1.77 0 0-.36.36-.71.71-1.07v.71c0 .36.36.71.71.36a2.52 2.52 0 001.43-1.78c.35-.71.35-1.42.71-2.12a1.09 1.09 0 001.42 0 10.43 10.43 0 012.83-1.42c.36.35.36 0 .71 0h1.45l.36.35a.77.77 0 01.71.71v1.41c-.36 2.13.35 2.84 1.77 2.48.35 0 .71-.71.71-1.42-.36-1.06-.36-2.12-.71-3.19a3.15 3.15 0 001.77.36v.71c0 .7.36.7.71.35v1.42c.71 1.42 1.77 2.48 2.48 3.9.36.71.71.71 1.07.35 1.06-1.41 1.06-3.9 2.12-5.67a3.62 3.62 0 00-.35-1.06c-1.42.35-2.48-.71-3.9-.71.35-.36.35-.36.71-.71s.35-.36.71-.71c0 .35 0 .71.35.71a.5.5 0 00.71 0 1.3 1.3 0 00.36-1.07v-.35h.35A5 5 0 011356 3l2.13 1.06c.71 1.07.71 1.42 1.41.71.36.36.36.36.71.36v.35c0 .36-.35.36-.71.36 0 1.77 0 1.77 1.07 2.48.71 0 1.06.35 1.77.35 1.07 1.78 1.42 1.78 2.13 0a7.61 7.61 0 011.06-1.77c.36 0 .36-.36.71-.36h1.42v.36c-.35 0-.35.35-.71.71h-.71a.87.87 0 00-.35 1.42c.71.71 1.06 1.06 1.77 1.06h.71c0 .36.35.71.35 1.06a2.63 2.63 0 00.71-1.41 2.62 2.62 0 00-.71-1.42 2.17 2.17 0 01-.35-1.42h1.42a.35.35 0 00-.36.35 1.76 1.76 0 00.36 1.07h.71c.71-.36.71-1.07.71-1.78h.35a4.83 4.83 0 011.42 1.07c0 .35.35.71 1.06.71a5.18 5.18 0 00.71 2.48c.36.35 1.07.35 1.07-.35a10 10 0 00.35-3.2c.36-.35.36-.71.71-1.06h1.42v.35c.35.71.35.36.71 0a67 67 0 016.74 1.78c.7.35 1.77-.36 1.77-1.78 0-1.06.35-1.77.35-2.48 1.42 0 2.49 0 2.84.36-1.06 0-1.77 0-2.48 1.06v1.09l.35.36a3.26 3.26 0 001.78.35c.35.36.7.36 1.06.71 0 1.78 0 3.19 1.06 4.26a6.45 6.45 0 001.78 2.48c.71 1.06 1.41.71 2.12 0a3.75 3.75 0 00.71-4.25 12 12 0 00-1.77-2.84v-.71c1.06-1.06 1.42-2.84 2.13-4.61 0-.36.35-.36.35-.71h1.78c0 .35.35.35.35.71-.35 0-.35 0-.35.35.35 0 .35.71.35.71 0 .36.71 0 .71-.35 0 .35.35.35.71.35 0 .36 0 1.07.35 1.07s.71 0 .71-.36V3c.71-.36 1.42-.36 2.13-.71a1.31 1.31 0 001.06.35l1.07 1.07h.35c.36 0 .36 0 .71-.36.71 0 1.07.36 1.42.36.71 0 1.06.35 1.42.35a1.25 1.25 0 01.71.36l.35-.36a2.66 2.66 0 001.42.36v.38c-.71 0-1.42-.35-2.13.71-.35 0-.35.71-.35 1.06s.71.71.71.71c1.06-.35 1.42.36 2.13 1.42h1.41c1.78 0 1.78-.35 1.42-2.13V4.45h.71a4.83 4.83 0 011.42 1.06c0 .36.35.36.71.36a.66.66 0 000 1.06c0 .71 0 1.77.35 1.77.71.36 1.07-.35 1.07-1.42.35-1.06.71.36.35-.71-.35-.35-.35-.7-.71-.7.36 0 .36-.36.71-.36V4.8h2.84c0 .36 0 .36.35.36v.35a4.94 4.94 0 00-1.41 1.06 1.3 1.3 0 01-1.07.36c-.35.35-.71 1.42-.35 1.77.71 1.07 2.12 1.78 2.83 1.07 0-.36.36-.71.36-1.07V5.87a.36.36 0 11.71 0l.35.35c.36.35.36.71.71 1.06s.36.71.71.71a2 2 0 001.77.71l2.13 1.07c.36 0 .36-.36.71-.71v-.71a2.62 2.62 0 00-.71-1.42v-.36l2.18-1.06c1.06-.71 1.77-.71 2.48-1.42.36 0 .36-.35.71-.35 0 .35.35.35.71.71a4.33 4.33 0 003.19 1.06 5 5 0 00-1.09 1.42 4.12 4.12 0 00.71 3.55c.35.7 1.06.7 1.77 0 .35-.71 1.06-1.42 1.42-2.13a5.18 5.18 0 00.71-2.48h1.06l.71.7c.35.71.71 1.78 1.06 2.49a.88.88 0 001.42.35l.36-.35h.35l.36-.71.35-.36v.36c.71.71 1.42.71 1.77 0 .36 0 .71.35 1.07.35a.34.34 0 00.35-.35l.36-.36v.36a.35.35 0 00.35-.36h.36a.77.77 0 01.71.71c.35 1.07.35 2.13 1.41 2.84l.36-.36a2.63 2.63 0 012.13-.7 5.05 5.05 0 012.12.7l1.07 1.07a9.25 9.25 0 002.13 1.77 4.51 4.51 0 004.25 0c.71-.35 1.06-1.06.71-1.42s-.35-.71-.71-1.06v-.36a1.32 1.32 0 011.06-.35 6 6 0 003.55 1.06c.36 0 1.06.36 1.42.36a1.33 1.33 0 00.35-1.07c0-.35 0-.7.36-.7v.35c.71.71 1.06 1.06 1.77 1.06h.71c0 .36.35.71.35 1.07a1.25 1.25 0 00.36-.71 15.22 15.22 0 001.77.35c.36.36.36.71.71.71a1.56 1.56 0 001.77 0l.71-.71a14.58 14.58 0 002.49-1.42c.35-.35 1.06-.7 1.41-1.06a1.33 1.33 0 011.07-.35 1.31 1.31 0 011.06.35c.36 0 .36.36 0 .71a.34.34 0 00-.35.35c-.36.36-.71.36-1.07.71a1.09 1.09 0 000 1.42 6.16 6.16 0 001.78 1.42c.71.36 1.77 0 1.77-.71a7 7 0 00.35-2.48c.71 0 1.07-.71 1.07-1.42.35 1.42.35 2.48.71 3.55 0 .35.71.71 1.42.71h1.06a31.75 31.75 0 018.16-.71c.35-.36.35-1.07.71-1.42v.35c.35.36.35.36.7.36l.36-.36c.35-.71 0-1.06-.36-1.06a5 5 0 011.07-1.42v3.19c.35 0 1.06-.35 1.42-.35a1.33 1.33 0 00.35-1.07 1.52 1.52 0 011.42-1.41c.71-.36.71-.36.71-1.07 0-.35-.36-.71-.36-1.06 0-.71 0-1.07.36-1.07a1.28 1.28 0 011.06.36 12.24 12.24 0 002.84 3.19h1.77c0 .71.36 1.06.71 1.06.71-.35 1.07-.71 1.78-1.06.35 0 .35 0 .35-.35h1.06c.71.35.71 1.06 1.07 1.41 0 .36 1.06.71 1.42.36l2.12-1.07c.36-.35.71 0 .71.36v.71c0 .35-.35.71-.35 1.06a.35.35 0 00-.36.36 1.59 1.59 0 000 1.77v3.19a.68.68 0 000 1.07 1.85 1.85 0 00.71 1.41l2.13-1.06L1528 19c0-.36.36-.36.36-.71v-.36h.35a5.35 5.35 0 00-1.06-2.48c-.36-.35 0-.71.35-.71a1.85 1.85 0 011.42.71c1.07 1.06 1.07 2.48 1.78 3.55a.34.34 0 00.35.35h.35v1.42c.71 0 1.07-.36 1.78-.71.35 0 .35-.35.35-.71h2.13c.35 0 .35-.35.35-.71s-.35-1.06-.35-1.42c0-.71.35-1.42.35-2.12.36 0 .71-.36 1.07 0 .71.35 1.06.7 1.77 1.06 0 .35-.35.35-.35.71s.35.35.35.71a1.25 1.25 0 00.36-.71.35.35 0 01-.36-.36.67.67 0 001.07 0c.7 0 1.06-.71 1.77-1.06a1.31 1.31 0 011.06-.35 2.67 2.67 0 011.42.7.67.67 0 010 1.07c0 .35-.35.35-.35.71-.36-.36-1.07-.36-1.42-.71 0-.36-.36 0-.36 0-.35 0-.35.35-.35.71a5.78 5.78 0 011.42 2.48 1.13 1.13 0 001.06 1.06h2.84c.35-.35.35-.71.35-1.41-.35-.36-.71-.71-1.06-.36l-.71.71a1.3 1.3 0 01-1.06-.35 4.06 4.06 0 011.77-2.49c1.06-.35 2.48-1.06 3.9-1.42h1.06c.36-.7 1.42-1.06 2.13-1.41v.35c.36 1.06.71 1.77 1.42 1.42 1.06-.36 1.42-.71 1.06-1.77V14a4.83 4.83 0 011.42 1.07l2.13 1.06a1.94 1.94 0 011.06 1.77v.36c-.35 0-.71-.36-1.06-.36h-.36c-.35 0-.35.36-.35.71V19a.34.34 0 01.35.35 2.81 2.81 0 001.42 1.42l-.35.35v.36c0 .35 0 .71.35.71.71.35 1.07-.71 1.78-1.07.35 0 .71.36 1.06.71a1.26 1.26 0 01.35.71 15.28 15.28 0 002.49-2.13.87.87 0 00-.36-1.41c-1.77-1.07-1.77-1.07-1.42-2.49v-.35c.36-.36 0-.71-.71-1.06-1.06-.36-1.06-1.07-1.06-1.78h3.19a3.36 3.36 0 012.48.71c0 .36.36 1.07.36 1.42a3.91 3.91 0 003.19-1.06 3.46 3.46 0 013.19-.36c.71.36 1.07-.35 1.42-.71h1.06a2.69 2.69 0 00.71 1.42c0 .36 1.07.71 1.42.36.71-.36.71-.71.71-1.42s-.35-1.07-.35-1.78v-1.07c0-.71.35-1.42 1.06-1.42a1.26 1.26 0 01.35.71.35.35 0 00.36.36c0-.36.35-.36.35-.71v-.36c.36 0 .71.36 1.42.36a9.69 9.69 0 002.84 2.48 24.49 24.49 0 013.19 2.13c1.42 0 2.48.35 3.9.35a22.6 22.6 0 004.61-1.42 4.83 4.83 0 001.42-1.06V-.87zM33.69 13c-.69 0-.69-.4-.69-.75 0-1.07.35-1.42.71-1.42a1.85 1.85 0 01.71 1.42c-.02.35-.73.75-.73.75zm39.71-2.17a1.85 1.85 0 01-1.41.71c-.71 0-1.07 0-1.07-.36l.36-.35c.35-.35 1.06-.35 1.41-.71h.36c.35.36.71.71.35.71zm3.2 0h2.12c-.72 1.06-1.06 1.06-2.12 0zm2.48 0c1.06-1.06 1.06-1.06 2.13 0zm154.61-.71a2.17 2.17 0 00-1.42-.35 2.74 2.74 0 011.42-1.42c0 .35.35.71.35 1.06s-.04 1.07-.35.71zm12.41 2.13v-1.07c0-.7.35-.7.71-.7a2.14 2.14 0 001.42.35 7.53 7.53 0 01-2.13 1.42zM377 10.48a2.14 2.14 0 01-1.42.35c0-.71 0-1.06.36-1.42h.35c.31.36.71.71.71 1.07zm14.19.35c1.06-1.06 1.06-1.06 2.12 0zm2.12 0h2.13c-1.11 1.06-1.11 1.06-2.18 0zm7.1 1.42a1.83 1.83 0 01-1.42-.71.66.66 0 010-1.06h.35a2.71 2.71 0 011.42.7.35.35 0 01.35.36c-.05.35-.4.35-.75.71zm39 .35c-.71 0-1.06-.35-1.06-.71 0-.71 0-1.06.71-1.41a2.44 2.44 0 01.71 1.41c-.05.71-.41.71-.41.71zM577 10.83c.71 0 1.42-.35 2.13-.35a.93.93 0 011.06 1.06V13c-1.11-.4-2.53-.75-3.19-2.17zm22.34-.71l-.35-.35c.35-.71 0-1.42 0-1.78a.34.34 0 00.35-.35 3.2 3.2 0 012.13 2.13c-.76 0-1.47.35-2.18.35zm17 4.61l-.35-.35c-.36-1.07 0-2.49-.36-3.55l.36-.35a.35.35 0 01.35-.36l.36.36v.7a2.24 2.24 0 000 2.13 1.82 1.82 0 00.71 1.42.67.67 0 01-1.1 0zm23.76.71a.34.34 0 01-.35.35 1.33 1.33 0 01-1.07-.35c.36-.35.36-1.06.71-1.42a2.24 2.24 0 000-2.13v-.71a.35.35 0 01.36-.35h.35c0 .35.36.35.36.71-.39 1.06-.03 2.13-.39 3.9zm16.67-5.32c-.71 0-1.42-.35-2.13-.35a3.18 3.18 0 012.13-2.13c.35.35.35 1.06.71 1.42-.03.71-.39 1.06-.74 1.06zM712.41 13c-.71 0-.71-.36-.71-.71 0-1.07.36-1.42.71-1.42a1.82 1.82 0 01.71 1.42.76.76 0 01-.71.71zm40.43-1.78a1.84 1.84 0 01-1.42.71c-.71 0-1.07 0-1.07-.35v-.36l.36-.35c.35-.35.71-.35 1.06-.71h.36c.35.32.35.67.71 1.02zm4.61.36a.36.36 0 10-.71 0c-.36 0-.71-.36-1.07-.71h2.13c-.35.31-.35.31-.35.67zm.35-.71c1.06-1.06 1.06-1.06 2.13 0zm16.67-.71c-.36-.35 0-.71.35-.71h.36a2.17 2.17 0 01.35 1.42c-.35-.04-.71-.04-1.06-.75zm329.43-3.9c-.71 0-.71.35-.71.71v.35c.36.71.36.71-.71 1.42V6.57a1.33 1.33 0 011.07-.35zm54.26 4.61a2.17 2.17 0 01-1.42.35c0-.7 0-1.06.35-1.41 0-.36.36-.36.71 0 .36-.04.36.31.36 1.02zm16.31 0h2.13c-1.07 1.02-1.07 1.02-2.13-.04zm7.44 1.42a1.85 1.85 0 01-1.41-.71.66.66 0 010-1.06h.35a2.71 2.71 0 011.42.7.35.35 0 01.35.36c-.35.31-.71.31-.71.67zm38.66.35v-.35h-.36v.35a.76.76 0 01-.71-.71c0-.71 0-1.06.71-1.41a2.44 2.44 0 01.71 1.41c0 .67 0 .67-.35.67zm32.62-1.77c.71 0 1.42-.35 2.13-.35a.93.93 0 011.06 1.06V13c-1.06-.4-2.48-.75-3.19-2.17zm22.34-.71c-.35 0-1.06-.35-.71-1.06.36-.36.36-1.07.71-1.42a3.18 3.18 0 012.13 2.13c-.66-.04-1.06.31-2.13.31zm23.41-1.42l-.36-.35c-.35-.36-.35-.71-.35-1.42l.35-.36c.36-.35.36-.35.71 0v.36a.77.77 0 00.71.71 4.56 4.56 0 01.35 2.13c-.35-.4-1.06-.75-1.41-1.11zm17 6a.35.35 0 01-.36.36c-.35.35-1.06-.36-1.06-.71s.35-1.07.35-1.42c.36-.71.36-1.42.71-2.13a.35.35 0 01.36-.35l.35.35a.35.35 0 01.36.35c-.34 1.06.02 2.48-.65 3.54zm178.72-3.9h2.13c-1.05 1.05-1.05 1.05-2.11-.01zm7.45 1.42a1.85 1.85 0 01-1.42-.71.66.66 0 010-1.06h.35a2.67 2.67 0 011.42.7.35.35 0 01.36.36c-.34.34-.69.34-.69.7zm38.65.35c-.71 0-1.06-.35-1.06-.71 0-.71 0-1.06.71-1.41a2.45 2.45 0 01.7 1.41c.02.7.02.7-.33.7zm33.69-1.06c0-.36.35-.71.35-1.06h.71a.94.94 0 011.07 1.06V13a7.53 7.53 0 01-2.11-1.46zm22-1.42c-.35 0-1.06-.35-.71-1.06V8.7c.36 0 1.07 1.07 1.42.36l.36-.36c.35.36.35.71.71 1.07a15.93 15.93 0 00-1.78.35zM898.94 7.64a2.12 2.12 0 00-1.42-.36c.35-.35.71-.35 1.06-.71 0 .36.36.71.36 1.07zm-435.46 7.45c.35-.36.35-.36.35-.71.35 0 .35.35.71.35a.35.35 0 00-.36.36c-.35 0-.35-.36-.7 0zm1109.57 22.34a1.26 1.26 0 01.71.35c0 .35-.36.35-.36.71a1.32 1.32 0 01-.35-1.06zM141.49 12.6l.35-.35-.35.35c0-.35.35-.35 0 0zm1398.58-.71c.36 0 .36.36.71.36a.34.34 0 00-.35.35c-.36 0-.36-.35-.71-.35a.35.35 0 01.35-.36zm44 9.22zm-8.15 4.61a1.33 1.33 0 01.35 1.07l-.35.35c-.36 0-.36-.35-.36-.71zM1592.55 42c-.35.35-.35 0-.35-.36v-.35c0 .39 0 .39.35.71zm-17-5.68a1.25 1.25 0 01.36.71c0 .36-.36 1.06-.71.71a.35.35 0 01-.36-.35c-.37-.67-.02-1.39.69-1.03zm.36-6l-.36.36a.68.68 0 01-1.06-.36v-.71l.35-.35c.34-.35 1.05.74 1.05 1.07zm16.31-14.89a1.25 1.25 0 01-.36.71c-.35.35-.71 0-.71-.36s.36-.35.36-.7c.33-.35.69.01.69.36zm-1.42 2.48c.35 0 .35.36.71.36a.35.35 0 00-.36.35c-.35.36-.7 0-.7-.35s-.02-.35.33-.35zm-1.06 19.51a1.3 1.3 0 01.35 1.06.34.34 0 00-.35.35c-.36 0-.71-.71-.71-1.06s.69-.7.69-.34zM1584 21.11zm-157.8 15.61c0 .71-.35.35-.35 0v-.36zm20.57-5c0 .36-.36 0-.36 0v-.32c.4.35.4.71.4.35zm23-12.76l-.36.35a.34.34 0 01-.35-.35l.35-.36a.35.35 0 00.45.4zm-17.38-3.55v.35s0 .36-.35 0c.09-.32.09-.32.44-.32zm-14.89-5.67c.71.71.71.71.71 1.06a1.25 1.25 0 01-.36.71c-.35 0-.71-.36-.71-1.06 0-.36.36-.36.36-.71zm6.74 2.83a.35.35 0 01.35.36c0 .35-.35.35-.35 0v-.33zm14.89 14.9c-.35.35-.71 0-.71-.71 0-.36.36-.36.36-.71.35 0 .7 0 .7.35a1.79 1.79 0 01-.26 1.1zm-4.61-5a.35.35 0 01.35.36c0 .35 0 .71-.35.35v-.71zm5.32-3.54a.34.34 0 01.35.35c0 .36 0 .71-.35.71zm0 10.28a1.23 1.23 0 01.35.71 1.26 1.26 0 01-.35.71c-.36 0-.71 0-.71-.36s.44-1 .8-1zm-24.47 12.41c.36 0 .36.36.71.36a.34.34 0 00-.35.35c-.36.35-.71 0-.71-.35a.35.35 0 01.44-.3zm12.41 2.84v.35a.35.35 0 00-.35.36c-.36 0-.71 0-.71-.36s0-.71.35-.71.45.42.8.42zm-28.37-14.9a1.26 1.26 0 00-.35.71.35.35 0 01-.36-.35v-.71c.45.41.45.41.8.41zm7.8 5.68c.36 0 .36.71.36 1.06s-.36.71-.36 1.07-.35-.36-.35-1.07c.44.06.44-.65.44-1zM1423.4 41a1.25 1.25 0 01.36.71 1.25 1.25 0 00-.36.71 1.23 1.23 0 01-.35-.71c0-.38.35-.38.35-.71zm-3.9-31.2l-.35.35a.35.35 0 01-.36-.35zm95.39 17.73c0 .35 0 1.41-.35 1.41a1.21 1.21 0 01-.36-.7c0-.36.36-.71.36-1.07s.35-.03.35.33zm-86.17-12.06c.36.35 0 .71 0 1.06-.35.36-.71.36-.71-.35a1.25 1.25 0 00.36-.71c.35.32.35.32.35-.03zm-1.42 7.09c.36-.03.36.33 0-.03zm.71-10.64a1.08 1.08 0 01-.71.36c-.35 0-.35-.36-.35-.71l.35-.36c.36 0 .36 0 .71.36zm-.35 17c.35 0 .35.36.71.36 0 .71-.36 1.06-.71 1.06a.35.35 0 01-.36-.35.69.69 0 01.36-1.08zm4.25-16.66c.36-.36.36 0 .36 0s0 .35-.36 0zm70.22 13.83a.35.35 0 00-.36.35c-.35.36-.71 0-1.06-.35v-.36c.35 0 .35-.35.71-.35zm-1.42-9.93c-.36 0-.36-.36-.36-.71l.36-.35a1.22 1.22 0 01.35.7zm-6 25.53a.67.67 0 01-.35 1.06c-.36 0-.71 0-.71-.35 0-.71 0-1.06.35-1.42 0 .02.33.02.68.7zm-1.77-25.18c.35.71 0 1.07 0 1.42 0-.35-.36-.71 0-1.42zm13.47 13.83c.36.36.36.36-.35.36a.35.35 0 01.32-.37zm5-9.57h-.71c.35-.36.35-.36.35-.71.36 0 .36.35.71.35a.35.35 0 01-.41.35zm1.42 11l-.71.71-.71-.71c.35 0 .35-.35.71-.35a1.23 1.23 0 00.65.33zm1.06 4.26c.35.35.35.35.35.71h-.35a.35.35 0 01-.35-.36.34.34 0 00.29-.38zm-2.48-20.22h-.41v-.35zm-20.22 7.45l.36.36s0 .35-.36 0c.36.35 0 .35 0 0-.06-.02.3-.02-.06-.38zm-20.92-6.74v-.35s0-.36.36 0c-.06.33-.06.69-.42.33zm3.9-2.12a.35.35 0 01.36.35c-.36.36-.36.71-.71.36a.35.35 0 01-.36-.36 1.12 1.12 0 01.65-.37zm9.58 0a.35.35 0 00-.36.35h-.71c.36-.35.36-.35.36-.71-.04.34.29.34.65.34zm-9.58 10.28c.36.35 0 .71 0 1.06-.35.36-.71.36-.71-.35a1.25 1.25 0 00.36-.71c-.06.32.29.32.29-.02zm-3.19 6v1.06a1.08 1.08 0 01-.71.36c-.35 0-.71-.71-.71-1.07a1.22 1.22 0 00.36-.71c.65-.32.65.01 1 .37zm18.8-4.61c.71.35.71.71 1.06.71a1.26 1.26 0 01-.35.71c-.36 0-.71 0-.71-.36-.36-.35 0-.71 0-1.06zm-.36-4.26a1.26 1.26 0 01-.71-.35c0-.36.36-.71.71-1.07s.71 0 .71.36c.3.72-.06 1.07-.77 1.07zm-6 8.51h.71a.35.35 0 00-.35.36.35.35 0 01-.36-.36zm8.16-12.76a1.1 1.1 0 01-.36.71h-.7a1.3 1.3 0 01-.36-1.07c.36-.35.71-.71.71-1.06h.35c.27.36.27.72.27 1.43zm-6.74 8.86l-.35.71c-.36 0-.36 0-.71-.35v-.36a1.26 1.26 0 01.35-.71c.27-.34.62.01.62.72zm-98.58 13.12a1.33 1.33 0 01.35 1.07l-.35.35c0-.35-.35-.35-.35-.71s-.09-.34.26-.7zm-374.2-10.27c.35.35.35.71.71.71l-.36.35c-.35 0-.35-.35-.35-.71-.36 0 0-.35 0-.35zm.35-19.15a.34.34 0 01-.35-.35h.35c-.35.35-.35.35 0 .35zm5 20.57v1.06l-.36.36c-.35 0-.35-.36-.35-.71-.03 0 .3 0 .68-.71zm-12.06 6c0 .35-.36.35-.36 0v-.36zm-1.77-.71c0-.36.35.35.35.71 0 .71-.35 1.41-.35 1.06a1.28 1.28 0 01-.36-1.06c-.03-.33-.03-1.04.33-.69zm12.05-20.92l.36.35a1.05 1.05 0 01-.71 1.42.35.35 0 01-.36-.36c-.03-.68.33-1.38.68-1.38zm-1.77-2.84zm1.06 7.45c0 .35.36.35.36.7-.36.36-.36.71-.71.71h-.36l-.7-.71c0-.35 0-.7.35-.7zM1007.45 41a1.26 1.26 0 01.35.71 1.26 1.26 0 00-.35.71 1.22 1.22 0 01-.36-.71c.36-.38.36-.38.36-.71zm-21.28-28.4a.35.35 0 01.36.36c0 .71-.36.71-.36 0v-.36zm6.74-2.48a1.25 1.25 0 01.71.36c0 .7-.36 1.06-.71 1.06a1.25 1.25 0 01-.36-.71 1.22 1.22 0 00.36-.71zm-9.22 34c.35 0 .71.36.35.71-.35 0-.35.36-.71.36l-.35-.36v-.35a1.25 1.25 0 00.71-.32zm1.06-12h-.35c-.36-.36-.36-.36 0-.71.35.34.35.34.35.7zm11 9.57a.35.35 0 01.36.36c-.36.35-.36.7-.71.35a.35.35 0 01-.4-.4c.39 0 .39-.32.74-.32zm2.84-29.43c.36-.36.36 0 .36 0s0 .35-.36 0zm5 9.93c0 .35.35.35 0 .71-.4-.01-.4-.37-.04-.72zm.35-10.64l-.35.71c-.36 0-.36-.36-.71-.36v-.35c.35 0 .35-.36.71-.36zm-1.42 5c0 .36-.35.71-.71.36v-1.12c.36-.35.36-.35.71-.35a.66.66 0 01-.04 1.06zm1.07 13.83c-.36 0-.71-.35-.71-1.06.35 0 .35-.36.71-.36s.35.71.35 1.07c-.39.3-.39.66-.39.3zm40.78 16c.35.71.35.71 0 .71a.35.35 0 01-.36-.35c0-.36 0-.36.36-.36.31-.09.31.27-.04-.09zm-1.42-39.36c-.36 0-.71-.36-.71-1.06v-.8c0-.36 0-1.07.35-1.07.36-.35.71 0 .71.71v.36c.36 0 .36.35.36.71s-.4.7-.75 1.06zm-10.64 14.18a.35.35 0 01.35.36h-.35zm7.8 7.8l-.35.71c-.36.36-.71 0-.71-.71 0-.35.35-.35.35-.7zm3.9 11.71l-.35.35c0-.35-.36-.35-.36-.71s.36-.35.36-.71c.34-.09.34.27.34.98zM1056 20.76c.35.35.35.35.35.71s0 .35-.35 0zm-6.38 7.45c0 .35.35.35.35.7s-.35 1.07-.71.71c-.35 0-.35-.35-.35-.71s.03-.7.74-.7zM1045 39.55a1.23 1.23 0 00.35.71c0 .36-.35.36-.35.71a.35.35 0 01-.36-.35c-.31-.71.04-1.07.36-1.07zm1.1-34.75v.71c0 .71-.36 1.06-.71 1.06-.35-.35-.71-.35-.71-.7s0-.36.36-.71V4.8c0-.35.35-1.06.7-.71.36 0 .36.71.36.71zm-21.63 4.26c.35 0 .35.35.71.35 0 .36-.36.71-.36 1.07-.35.35-.71.35-.71-.36 0-.35.36-.71.36-1.06zm-1.77-6.39a.35.35 0 01.35.36v.35a1.08 1.08 0 01-.71.36.5.5 0 010-.71zm3.9 27.66a.35.35 0 01.35.36l-.35.35a.35.35 0 01-.36-.35zm4.25 4.26v.35h-.35v-.35c.35-.36.35-.36.35 0zm-8.51-28.37c0 .35.36.35.36.71 0 .71-.36 1.06-.71.71V6.57zm5.66 15.25zm2.84 9.57l-.35.71c-.36.36-.71-.35-.71-.71s.35-.35.35-.71c.01.36.37.36.72.67zm-1.77-14.54a.35.35 0 01.35.36.5.5 0 01-.71 0 .35.35 0 01.37-.36zm-.71 0c-.36 0-.36-.35-.36-.71.36-.35.36-.35.71-.35a1.22 1.22 0 01.36.71c.01.35-.35.71-.7.35zM948.23 14c.35.36.35.36.35.71h-.71a.34.34 0 01-.35-.35c.35.02.35.02.71-.36zm-28.37 6c.35.35.35.35.35.71h-.71a.35.35 0 01-.35-.36c.35-.3.35-.3.71-.3zm6.38-7.8v1.06c0 .36-.35.36-.71 0 0-.26.36-1.01.71-1.01zm-6.38 3.19zm5 14.89a.49.49 0 010 .71c-.39-.3-.39-.3-.04-.66zm12.41 10.29c.36.35.71 1.06.36 1.42a1.12 1.12 0 01-.71.35.68.68 0 01-.35-1.06c-.04-.28.31-.28.66-.66zm.71-24.12c.36.71 0 1.07 0 1.42 0-.35-.35-.71 0-1.42zm-7.44 9.22v.36c-.36.71-.71.71-1.07.35a.34.34 0 01-.35-.35c.35-.36.35-.71.71-.71a1.23 1.23 0 00.67.4zm0-10.63c0 .35 0 .7-.36.7l-.35-.35a1.23 1.23 0 00.35-.71.35.35 0 00.32.41zm-22.34 8.15l.35.36s0 .35-.35 0c.35.35 0 .35 0 0-.04.05.31.05-.04-.31zm11.7 8.51l-.71.71c-.36-.35-.36-.35-.71-.71.35 0 .35-.35.71-.35a1.23 1.23 0 00.67.4zm-13.12-5.67c.71.35.71.71 1.06.71a1.26 1.26 0 01-.35.71c-.36 0-.71 0-.71-.36-.36-.35 0-.71 0-1.06zm74.78-16.62c0 .36.35.36.35.71-.35 0-.35.36-.7.36l-.36-.71c0-.36.36-.36.71-.36zm235.82 34.75c.35 0 .71.36.35.71-.35 0-.35.36-.71.36l-.35-.36v-.35a1.25 1.25 0 00.71-.36zM908.51 17.57a1.12 1.12 0 01-.35.71h-.71a1.3 1.3 0 01-.36-1.07c.36-.35.71-.71.71-1.06h.36c.35.35.35.71.35 1.42zm9.22-1.42c-.35 0-.35-.36-.35-.71l.35-.35a1.21 1.21 0 01.36.7zm1.06 10.28c-.35.36-.7 0-1.06-.35v-.36c.36 0 .36-.35.71-.35l.71.71a.35.35 0 00-.36.35zm-8.86-9.93c.35.71 0 1.07 0 1.42 0-.35-.36-.71 0-1.42zm1.77 25.18a.67.67 0 01-.35 1.06c-.36 0-.71 0-.71-.35 0-.71 0-1.06.35-1.42.01.03.36.03.71.71zm-5.32-19.86a1.26 1.26 0 01-.71-.35c0-.36.36-.71.71-1.07s.71 0 .71.36c.36.71 0 1.06-.71 1.06zm55-2.83a.34.34 0 01.35.35l-.35.36a.36.36 0 110-.71zM972 30.33c-.36.36-.36.36-.71.36a1.25 1.25 0 01-.36-.71c0-.36 0-.71.36-.71s.71.73.71 1.06zm-1.07-10.28c-.35 0-.35-.35-.71-.35l.36-.36c.35 0 .35.36.35.71zm-10.29-3.55c-.36.36-.36 0-.36-.35l.36-.36a.35.35 0 01.35.36zm11.7 9.22c0 .36.36.36.36.71 0 .71-.36 1.07-.71.71-.36 0-.36-.35-.36-.71s.37-.35.71-.71zm6.38-10.28l.36.35a.35.35 0 00-.36.36.35.35 0 01-.35-.36c0-.35 0-.35.35-.35zm2.84 0a.34.34 0 01-.35.35c-.36 0-.36 0-.71-.35v-.35a.35.35 0 00.35-.36c.71 0 1.06.36.71.71zM961 30.69a1.25 1.25 0 00.36.71c-.36.35-.36.71-.71 1.06-.36 0-.71 0-.71-.35V31c.34-.67.7-1 1.06-.31zm14.9-8.16a.35.35 0 01.35.36v.35c-.35.36-.35 0-.35-.35-.01 0 .34-.36-.01-.36zm-29.09-12.41a.34.34 0 00.35-.35.35.35 0 01.36.35zm-5.67 10.28c.35 0 .7.36.7 1.07a1.22 1.22 0 01-.7.35c-.36 0-.36-.35-.36-1.06 0-.36.36-.71.36-.36zm6 6.39a1.26 1.26 0 00-.71.35c-.35 0-.35-.35-.35-.71 0-.71.35-1.06.71-.71a1.26 1.26 0 01.35.71zm-6.38-.71c.36.35.71.71.71 1.06-.35 0-.35.36-.71.36a1.26 1.26 0 01-.35-.71c0-.36 0-.36.35-.71zm15.6-11.35l.36-.35c.35 0 .35.35.71.35a.35.35 0 00-.36.36c-.33 0-.33 0-.69-.36zm-9.22 16c.36-.36.36-.36.36 0 0 0 0 .35-.36 0zm9.95-5.73a1.25 1.25 0 01.36.71c0 .36-.36.71-.71.36V25zm-16.66-7.09a.49.49 0 01-.71 0 1.22 1.22 0 01-.36-.71c0-.35.36-.71.36-1.06h.35c.36.35.71.71.71 1.06s0 .72-.35.72zm117.37 16.68v.35h-.35v-.35c.35-.36.35-.36.35 0zm-118.08-11s0 .35-.36 0h.36zm178-4.61a.35.35 0 01.36.35c0 .36 0 .71-.36.71zm9.93 0l-.36.35a.34.34 0 01-.29-.33l.35-.36c-.05.36-.05.36.31.36zm46.81 7.09c.35.35.71.71.71 1.06-.36 0-.36.36-.71.36a1.25 1.25 0 01-.36-.71c0-.36 0-.36.36-.71zm.35-5.68c.36 0 .71.36.71 1.07a1.23 1.23 0 01-.71.35c-.35 0-.35-.35-.35-1.06.01-.35.36-.7.36-.35zM1102.48 13c0 .35-.35.35-.35 0v-.4a.35.35 0 01.35.4zm15.25 16.31a1.22 1.22 0 01.36.71 1.25 1.25 0 01-.36.71c-.35 0-.71 0-.71-.36-.35-.37-.02-1.1.71-1.1zm10.64 2.48c-.36 0-.71-.71-.71-1.06a1.26 1.26 0 00.34-.73c.36 0 .36 0 .71.71v1.06c-.34.34-.71.34-.34-.02zm0 15.25l-.36-.35a.35.35 0 00.36-.36c.35.32.35.67 0 .67zm-.71-30.5v-.35s0-.36.35 0c.36.31-.01.67-.35.31zm4.25-2.12a.35.35 0 01.36.35c-.36.36-.36.71-.71.36a.35.35 0 01-.35-.36c.35-.39.35-.39.7-.39zm-24.46-3.9c-.36 0-.36-.36-.71-.36 0-.35.35-.35.35-.71.36 0 .71 0 .71.36a1.26 1.26 0 01-.35.67zm-1.78 34v.35a.35.35 0 00-.35.36c-.36 0-.71 0-.71-.36s0-.71.35-.71a1.25 1.25 0 00.71.36zm1.42-29.43a.35.35 0 01.36.35v.35a.49.49 0 01-.71 0c.35.36.35 0 0 0 0-.7.35-1.06.35-.7zm-3.19 16.31c.71.35.71.71.36.35 0 .36-.36 0-.36 0v-.35zm8.16-8.87a.35.35 0 01.35.36c0 .35 0 .71-.35.35v-.35s.35-.36 0-.36zm4.61 5c-.36.35-.71 0-.71-.71 0-.36.35-.36.35-.71.36 0 .71 0 .71.35a1.79 1.79 0 01-.35 1.04zm-5-19.86a1.28 1.28 0 01.36 1.06l-.36.36c0-.36-.35-.36-.35-.71s.38-.38.38-.74zm-1.77 7.8v.35s0 .36-.36 0c.36.36.36 0 0 0zm70.92 11.35a1.26 1.26 0 00-.71.35c-.35 0-.35-.35-.35-.71 0-.71.35-1.06.71-.71a1.26 1.26 0 01.35.71zm-49.29-2.13c.35.35 0 .71 0 1.06-.35.36-.71.36-.71-.35a1.25 1.25 0 00.36-.71c.38.31.73.31.38-.03zm27 5.67a.49.49 0 010 .71c-.37-.38-.37-.38-.02-.74zm-5-10.28c.35.35.35.35.35.71h-.71a.35.35 0 01-.35-.36c.37-.38.37-.38.73-.38zm0-4.61zm0 16.31l-.71.71-.71-.71c.35 0 .35-.35.71-.35a1.23 1.23 0 00.73.32zm-1.42 9.93a.68.68 0 01-.36 1.06c-.35 0-.71 0-.71-.35 0-.71 0-1.06.36-1.42.37 0 .73 0 .73.68zm19.5-25.18c.36.71 0 1.07 0 1.42 0-.35-.35-.71 0-1.42zm-.71 24.12c.36.35.71 1.06.36 1.42a1.12 1.12 0 01-.71.35.68.68 0 01-.36-1.06c.02-.36.38-.36.73-.74zm-12.41-25.53a1.21 1.21 0 01.36.7l-.36.36c-.35 0-.35-.36-.35-.71s.02-.38.37-.38zm5.67 10.63v.36c-.35.71-.7.71-1.06.35a.34.34 0 01-.35-.35c.35-.36.35-.71.71-.71a1.22 1.22 0 00.72.32zm0-10.63c0 .35 0 .7-.35.7l-.35-.35a1.23 1.23 0 00.35-.71.35.35 0 00.37.33zm-17 6.73a1.26 1.26 0 01-.71-.35c0-.36.36-.71.71-1.07s.71 0 .71.36c0 .68 0 1.03-.71 1.03zm1.42 5a1.26 1.26 0 01-.35.71c-.36 0-.71 0-.71-.36-.36-.35 0-.71 0-1.06.35.29.71.65 1.06.65zm-6.38-.36l-.36.71c-.35 0-.35 0-.71-.35v-.36a1.25 1.25 0 01.36-.71c.71-.41 1.06-.06.71.65zm-.36 3.9a.35.35 0 00-.35.36.35.35 0 01-.36-.36zm31.56-6.73s0 .35-.35 0h.35zm-22.69-7.1v1.42c0-.35-.36-.71 0-1.42-.36.36-.36 0 0 0zm-1.77 6.74l.35.36s0 .35-.35 0zm.35-5.67a1.12 1.12 0 01-.35.71h-.71a1.3 1.3 0 01-.36-1.07c.36-.35.71-.71.71-1.06h.36c0 .29.35.65.35 1.36zm24.82.35a.49.49 0 01-.71 0 1.23 1.23 0 01-.35-.71c0-.35.35-.71.35-1.06h.36c.35.35.71.71.71 1.06s0 .65-.36.65zm-33-3.54a.34.34 0 00-.35.35h-.71c.36-.35.36-.35.36-.71.37.3.37.3.72.3zm64.54 15.95c-.35.36-.35.36-.71.36a1.26 1.26 0 01-.35-.71c0-.36 0-.71.35-.71s.73.67.73 1zM1195 19a.34.34 0 01.35.35l-.35.36a.36.36 0 110-.71zm-123.37 12.4l.36.35c0 .36 0 .71-.71.36a1.12 1.12 0 00.35-.71zm2.13-14.54l-.36.35c-.35 0-.7-1.06-.35-1.77.35-.35.71.35.71 1.42zm1.06 2.84a1.21 1.21 0 01.36.7c-.36.36-.36.71-.71.71h-.36l-.71-.71c0-.35.36-.35.36-.7zm6.39 21.3a1.26 1.26 0 01.35.71 1.26 1.26 0 00-.35.71 1.22 1.22 0 01-.36-.71c0-.38 0-.38.36-.71zm-6.39-29.08zm1.42-2.12h.71l-.35.35a.35.35 0 01-.36-.35zm7.09 26.59l.36.36c0 .71-.36.35-.36 0v-.36zm-7.09-7.09c.36.35.36.35.71.35a1.26 1.26 0 00-.35.71.35.35 0 01-.36-.35v-.71zm-16.67-12.8c.36 0 .36.36.71.36a.34.34 0 00-.35.35c-.36 0-.36-.35-.71-.35 0-.36 0-.36.35-.36zm-.7 13.83c0 .36.35.36.35.71 0 .71-.35 1.07-.71.71-.35 0-.35-.35-.35-.71s.35-.35.71-.71zM1206 25.72c0 .36.35.36.35.71 0 .71-.35 1.07-.71.71-.35 0-.35-.35-.35-.71s.38-.35.71-.71zm3.54-3.19a.35.35 0 01.36.36v.35c-.36.36-.36 0-.36-.35.03 0 .39-.36.03-.36zm-148.93-1.06zm3.54-11c0 .7-.35.7-.7.35a1.28 1.28 0 01-.36-1.06c.36-.36.36-.36.71-.36s.74.37.38 1.08zm-3.54 5.31c-.36 0-.36.36-.36.71-.35.36-.71.36-.71-.35a1.22 1.22 0 01.36-.71c.03-.34.38.01.74.36zm1.42 14.54a.35.35 0 01.35.36l-.35.35a.35.35 0 01-.36-.35zm132.3-13.82c-.36.36-.36 0-.36-.35l.36-.36a.35.35 0 01.35.36zm-107.81-1.06c.36.35 0 .71 0 1.06-.35.36-.7.36-.7-.35a1.26 1.26 0 00.35-.71c0 .35.35.35.35 0zm2.84-3.19c.36-.36.71 0 .36 0 0 0 0 .35-.36 0 .36.35.36 0 0 0zm100.71 2.48l.36-.35c.35 0 .35.35.7.35a.35.35 0 00-.35.36c-.35 0-.35 0-.71-.36zm4.61 16a1.25 1.25 0 00.36.71c-.36.35-.36.71-.71 1.06-.36 0-.71 0-.71-.35V31c.38-.67.71-1 1.06-.31zm-109.93-8.16c.71 0 .71.36 0 0 .36.36 0 .36 0 0zm106 2.48a1.26 1.26 0 01.35.71c0 .36-.35.71-.7.36V25zm-95.36-15.28c.35.71.71.71.71 1.06a1.25 1.25 0 01-.36.71c-.35 0-.7-.36-.7-1.06 0-.36.35-.36.35-.71zm-2.48 31.91c.35 0 .35.36.71.36a.35.35 0 00-.36.35c-.35.35-.71 0-.71-.35zm-7.09-29.79a1.1 1.1 0 01-.71.36c-.36 0-.36-.36-.36-.71l.36-.36c.35 0 .35 0 .71.36zm-.71 23.41c.35 0 .35.71.35 1.06s-.35.71-.35 1.07-.36-.36-.36-1.07a1.72 1.72 0 01.36-1.06zm0-6.39c.35 0 .35.36.71.36 0 .71-.36 1.06-.71 1.06a.35.35 0 01-.36-.35 3.53 3.53 0 01.36-1.07zm95.74 1.78c.36-.36.36-.36.36 0 0 0 0 .35-.36 0zM997.52 14a2.77 2.77 0 01-.71 2.84c-.71.71-1.07.35-2.13-2.13a2.15 2.15 0 010-2.84c.35-.71 1.06-.71 1.77.36a3 3 0 011.07 1.77zm-28.37.71c-.36.36-.36 1.77-.71 1.77-1.06.71-1.42-.35-1.42-1.77-.35-1.77-1.06.36-.35-1.06s1.42-1.42 2.12-1.07.71 1.09.36 2.15zm-70.57 1.06c.36.71.36 1.42.71 2.13a2.62 2.62 0 01-.71 1.42c-.35-.71-.71-1.06-.71-1.77s.36-1.05.71-1.76zm142.2 1.78c.35 1.42.35 2.83.71 4.25-1.42-.35-1.77-1.42-1.77-3.19 0-.33.71-.69 1.06-1.04zM872.34 9.06a3.1 3.1 0 01-2.13 2.48c-.71-.36-.71-.71-1.06-1.42.35-1.06.71-1.42 1.42-1.42v-.35c0-.36.35-.36.35-.71a1.28 1.28 0 01.36 1.06 1.28 1.28 0 011.06.36zM906 16.5a1.28 1.28 0 01-.36-1.06c0-.35.36-.35.71-.71 0 .36.36.36.36.71.38.71-.33 1.42-.71 1.06zm102.48-7.8c0 .36 0 1.07-.35 1.07-.36.35-1.07 0-1.07-.71a1.3 1.3 0 01.36-1.07c.38-.35.74.01 1.09.71zm2.84 1.07c0 .71-.36 1.41-.71 1.06a.76.76 0 01-.71-.71c-.36-.71 0-1.06.71-1.42.39 0 .74.36.74 1.07zm-64.19 5c0 .36.36.71.36 1.06a1.14 1.14 0 01-1.07 1.07 1.26 1.26 0 01-.35-.71c.35-.36.35-.71.71-1.06zm36.17-3.9c-.35.71-.71 1.06-1.06.71v-1.1a1.22 1.22 0 01.71-.36 1.23 1.23 0 00.38.71zm.36-3.55c-.36 0-.36.36-.71.36-.36-.36-.71-.71-.36-1.07a1.26 1.26 0 01.71-.35.35.35 0 01.36.35zM872 13.67a1.31 1.31 0 01.35 1.06l-.35.36a1.3 1.3 0 01-.36-1.07.35.35 0 01.36-.35zm84.39-6c0 1.06 0 1.42-.35 1.77h-.36a1.59 1.59 0 010-1.77l.36-.36zM906 8.7h-.71c0 1.42-.35 1.78-1.06 1.07-.36-.36 0-.71.35-1.07a.33.33 0 00.35-.35c.39-.71.74-.71 1.07.35zm21.63 3.55c0 .35.35.35.35.71a1.23 1.23 0 00-.35.71l-.36-.36a1.28 1.28 0 01.39-1.06zm21.63-3.19l.36.35-.36.36-.35-.36zm-817.35 6.73c.36.71.36 1.42.71 2.13a2.62 2.62 0 01-.71 1.42c-.35-.71-.7-1.06-.7-1.77s.35-1.07.7-1.78zm142.2 1.78c.36 1.42.36 2.83.71 4.25-1.42-.35-1.77-1.42-1.77-3.19 0-.35.71-.71 1.06-1.06zm-134.39-2.84c0 .36.35.36.35.71.36.71-.35 1.42-.71 1.06a1.31 1.31 0 01-.35-1.06c-.01-.35.35-.35.71-.71zm40.78 0c0 .36.35.71.35 1.06a1.14 1.14 0 01-1.06 1.07 1.25 1.25 0 01-.36-.71c.36-.36.36-.71.71-1.06zm8.86-5.32H189a1.56 1.56 0 010-1.77l.35-.36.36.36a1.55 1.55 0 01-.35 1.77zm-50-.71h-.71c0 1.42-.35 1.78-1.06 1.07a1.33 1.33 0 01.35-1.07.35.35 0 00.36-.35c.35-.71.35-.71 1.06.35zm0 0zm43.26.36l.36.35-.36.36-.35-.36zm1268.44 5a2.75 2.75 0 01-.71 2.84c-.7.71-1.06.35-2.12-2.13a2.15 2.15 0 010-2.84c.35-.71 1.06-.71 1.77.36a3 3 0 011.06 1.71zm-28.36.71c-.36.36-.36 1.77-.71 1.77-1.07.71-1.42-.35-1.42-1.77-.36-1.77-1.07.36-.36-1.06s1.42-1.42 2.13-1.07.71 1.03.36 2.09zm-70.57 1.06c.35.71.35 1.42.71 2.13a2.69 2.69 0 01-.71 1.42c-.36-.71-.71-1.06-.71-1.77s.35-1.11.71-1.82zm142.2 1.78c.35 1.42.35 2.83.71 4.25-1.42-.35-1.78-1.42-1.78-3.19 0-.39.74-.75 1.07-1.1zm-134.4-2.84c0 .36.35.36.35.71.36.71-.35 1.42-.71 1.06a1.31 1.31 0 01-.35-1.06c0-.39.35-.39.71-.75zm40.78 0c0 .36.35.71.35 1.06a1.14 1.14 0 01-1.06 1.07 1.26 1.26 0 01-.35-.71c.35-.36.35-.71.7-1.06a.35.35 0 00.36-.4zm35.81-4.61c0 .36.36.71.36 1.06-.36.71-.71 1.07-1.06.71v-1.1c0-.35.35-.35.7-.71zm9.22-1.06a3.62 3.62 0 01-.35 1.06c-.35.36-1.06-.35-1.06-.71l.71-.71c.35-.04.7-.04.7.32zm-8.86-2.49a.35.35 0 01.35.36v.35c-.35 0-.35.36-.71.36-.35-.36-.7-.71-.35-1.07s.71-.39.71-.04zm-27 1.07c0 1.06 0 1.42-.36 1.77h-.35a1.59 1.59 0 010-1.77l.35-.36zm-50.31 1.02h-.7c0 1.42-.36 1.78-1.07 1.07a1.3 1.3 0 01.36-1.07.34.34 0 00.35-.35c.36-.71.71-.71 1.06.35zm21.64 5l-.36-.36c0-.35.36-.71.36-1.06 0 .35.35.35.35.71a1.26 1.26 0 01-.35.68zm22-4.61l.36.35-.36.36-.35-.36c-.02-.38-.02-.38.33-.38z" fill="#00af7f"/></svg>
