<?xml version="1.0" encoding="utf-8"?>
<!-- Generator: Adobe Illustrator 15.1.0, SVG Export Plug-In  -->
<!DOCTYPE svg PUBLIC "-//W3C//DTD SVG 1.1//EN" "http://www.w3.org/Graphics/SVG/1.1/DTD/svg11.dtd" [
	<!ENTITY ns_flows "http://ns.adobe.com/Flows/1.0/">
]>
<svg version="1.1"
	 xmlns="http://www.w3.org/2000/svg" xmlns:xlink="http://www.w3.org/1999/xlink" xmlns:a="http://ns.adobe.com/AdobeSVGViewerExtensions/3.0/"
	 x="0px" y="0px" width="44px" height="44px" viewBox="-0.023 -0.023 44 44"
	 overflow="visible" enable-background="new -0.023 -0.023 44 44" xml:space="preserve">
<defs>
</defs>
<rect x="2.124" y="4.532" fill="#FFFFFF" width="39.767" height="34.668"/>
<path fill="#5FA8DB" d="M36.628,0H7.326C3.296,0,0,3.298,0,7.327v29.298c0,4.033,3.296,7.328,7.326,7.328h29.301
	c4.03,0,7.326-3.295,7.326-7.328V7.327C43.953,3.298,40.657,0,36.628,0z M35.971,14.672c0.015,0.314,0.021,0.633,0.021,0.951
	c0,9.708-7.263,20.906-20.546,20.906c-4.077,0-7.873-1.217-11.069-3.301c0.565,0.067,1.14,0.102,1.723,0.102
	c3.383,0,6.497-1.176,8.968-3.146c-3.159-0.06-5.825-2.183-6.747-5.102c0.442,0.085,0.895,0.132,1.36,0.132
	c0.658,0,1.295-0.09,1.902-0.258c-3.303-0.677-5.792-3.645-5.792-7.205c0-0.032,0-0.062,0-0.093c0.974,0.551,2.086,0.879,3.27,0.92
	c-1.938-1.318-3.212-3.566-3.212-6.116c0-1.348,0.355-2.609,0.978-3.695c3.562,4.445,8.883,7.372,14.884,7.677
	c-0.123-0.537-0.188-1.098-0.188-1.673c0-4.057,3.234-7.347,7.221-7.347c2.078,0,3.955,0.892,5.271,2.32
	c1.646-0.331,3.191-0.942,4.587-1.784c-0.54,1.716-1.685,3.156-3.175,4.065c1.46-0.177,2.851-0.573,4.146-1.158
	C38.607,12.341,37.383,13.637,35.971,14.672z"/>
</svg>
