<?xml version="1.0" standalone="no"?>
<!DOCTYPE svg PUBLIC "-//W3C//DTD SVG 20010904//EN"
 "http://www.w3.org/TR/2001/REC-SVG-20010904/DTD/svg10.dtd">
<svg version="1.0" xmlns="http://www.w3.org/2000/svg"
 width="44.000000pt" height="1280.000000pt" viewBox="0 0 44.000000 1280.000000"
 preserveAspectRatio="xMidYMid meet">
<metadata>
Created by potrace 1.16, written by Peter Selinger 2001-2019
</metadata>
<g transform="translate(0.000000,1280.000000) scale(0.100000,-0.100000)"
fill="#000000" stroke="none">
<path d="M10 12785 c0 -9 7 -27 16 -41 13 -19 15 -38 11 -82 -4 -40 -2 -61 8
-72 15 -18 21 -67 10 -93 -4 -10 -2 -24 5 -32 17 -20 18 -127 2 -133 -18 -6
-15 -44 5 -72 10 -14 19 -45 19 -69 1 -24 5 -46 10 -50 19 -13 35 -53 29 -72
-4 -10 -2 -19 4 -19 7 0 7 -8 2 -23 -8 -20 -3 -30 31 -65 l39 -41 -16 -36
c-16 -33 -16 -37 -1 -60 9 -14 14 -30 11 -35 -3 -5 4 -29 17 -52 26 -52 30
-69 17 -84 -5 -6 -6 -19 -3 -28 4 -11 -1 -22 -12 -31 -12 -9 -15 -18 -9 -22 6
-5 10 -34 10 -65 0 -39 6 -62 17 -75 18 -19 15 -55 -5 -80 -5 -7 -6 -13 -3
-13 9 0 -25 -62 -39 -72 -6 -5 -4 -25 8 -56 9 -28 17 -57 17 -65 0 -8 5 -17
12 -19 6 -2 12 -13 13 -24 1 -10 6 -27 10 -38 6 -13 3 -21 -8 -28 -17 -9 -33
-69 -28 -102 2 -11 17 -37 34 -58 l31 -39 -23 -44 -23 -44 20 -36 c12 -19 18
-34 14 -34 -20 3 -32 -2 -27 -11 3 -5 1 -10 -4 -10 -18 0 -12 -46 9 -73 20
-25 28 -83 11 -72 -5 3 -13 -4 -16 -16 -4 -13 -2 -25 5 -29 9 -5 9 -9 1 -14
-8 -5 -8 -13 -1 -26 15 -28 12 -70 -5 -76 -8 -4 -15 -12 -15 -19 0 -6 -9 -20
-20 -30 -18 -16 -18 -19 -4 -48 9 -17 12 -32 7 -36 -23 -15 -22 -56 2 -98 16
-26 21 -44 15 -48 -11 -7 -7 -105 4 -124 4 -5 2 -12 -4 -16 -16 -10 -12 -55 6
-62 12 -4 13 -7 3 -14 -11 -6 -10 -9 4 -15 28 -10 21 -152 -13 -284 -7 -25
-13 -79 -14 -120 -1 -41 -5 -80 -9 -87 -4 -6 -3 -22 2 -35 5 -13 12 -32 16
-43 5 -16 8 -17 15 -5 8 12 10 12 16 -3 8 -22 -3 -50 -16 -42 -15 9 -12 -27 4
-50 8 -12 11 -35 9 -55 -14 -107 -13 -167 3 -210 10 -25 22 -48 27 -51 6 -4 6
-12 1 -20 -14 -22 -11 -158 4 -164 6 -2 12 -16 12 -29 0 -14 9 -42 20 -61 11
-20 18 -40 15 -45 -3 -5 1 -22 9 -38 8 -15 17 -44 21 -65 6 -31 3 -43 -20 -72
-26 -36 -28 -49 -26 -172 1 -21 -7 -40 -23 -56 -17 -17 -23 -32 -19 -46 3 -13
1 -21 -7 -21 -8 0 -9 -10 -5 -29 3 -17 2 -32 -4 -36 -16 -9 -13 -31 5 -50 10
-10 13 -22 8 -33 -4 -9 -6 -27 -5 -39 2 -17 -3 -23 -18 -23 -15 0 -21 -8 -25
-32 -3 -18 -8 -51 -11 -73 -11 -63 -11 -87 -3 -130 5 -31 3 -43 -9 -52 -14
-11 -14 -18 -3 -56 6 -25 13 -80 15 -123 1 -44 3 -79 4 -79 1 0 4 -26 7 -59 3
-32 11 -65 20 -73 8 -9 13 -18 12 -22 -2 -3 -12 -24 -23 -46 -11 -22 -30 -48
-42 -58 -16 -13 -23 -29 -23 -52 0 -19 -5 -37 -11 -40 -7 -5 -5 -15 6 -32 16
-23 15 -25 -9 -48 -14 -13 -27 -34 -27 -47 -1 -13 -3 -34 -4 -48 -4 -28 15
-90 27 -90 13 0 9 -27 -6 -42 -7 -8 -19 -30 -27 -51 -8 -23 -16 -32 -20 -25
-13 21 -21 0 -12 -29 10 -28 -2 -102 -17 -113 -17 -12 -14 -46 7 -68 16 -18
21 -34 20 -69 -1 -30 3 -48 11 -50 6 -3 12 -13 12 -24 0 -10 4 -19 9 -19 5 0
8 -23 6 -52 -3 -48 0 -55 36 -92 28 -30 37 -46 32 -61 -3 -11 -10 -22 -14 -23
-15 -6 -10 -39 7 -53 9 -7 13 -21 10 -34 -3 -11 3 -34 13 -50 22 -36 32 -83
19 -91 -5 -3 -6 -14 -3 -24 3 -11 0 -20 -10 -24 -9 -3 -13 -11 -10 -16 4 -6 8
-39 8 -72 1 -39 7 -63 15 -66 13 -4 17 -74 5 -86 -4 -3 -8 -16 -10 -28 -2 -12
-7 -25 -11 -28 -4 -3 -13 -17 -20 -31 -12 -22 -11 -30 8 -62 12 -21 19 -44 16
-54 -4 -9 1 -24 9 -33 9 -10 15 -21 14 -26 -1 -5 1 -17 6 -27 5 -12 2 -22 -7
-30 -21 -17 -38 -71 -31 -99 4 -13 19 -39 35 -58 34 -42 34 -52 6 -90 -19 -27
-20 -32 -8 -57 8 -16 15 -31 17 -34 1 -3 -6 -15 -17 -26 -16 -17 -19 -39 -10
-63 1 -3 2 -8 2 -12 -1 -3 5 -12 13 -18 16 -13 21 -75 6 -65 -16 9 -25 -36
-10 -46 12 -8 12 -10 0 -18 -10 -7 -11 -13 -1 -30 9 -18 7 -31 -16 -76 -14
-30 -30 -55 -35 -55 -4 0 -1 -16 7 -35 8 -21 10 -35 4 -35 -20 0 -5 -94 23
-137 5 -8 4 -13 -3 -13 -11 0 -8 -99 4 -119 4 -5 2 -12 -4 -16 -16 -10 -12
-55 6 -62 12 -4 13 -8 3 -13 -9 -6 -8 -13 6 -26 15 -16 17 -30 12 -111 -4 -51
-12 -103 -18 -115 -15 -29 -22 -79 -23 -168 -1 -41 -5 -81 -9 -87 -4 -7 -2
-23 5 -35 6 -13 11 -31 9 -40 -1 -10 3 -18 8 -18 6 0 11 5 11 10 0 6 5 10 11
10 6 0 9 -10 7 -23 -2 -12 -9 -21 -16 -19 -16 3 -15 -22 1 -56 8 -15 12 -40
11 -57 -10 -104 -10 -143 3 -186 8 -27 18 -49 22 -49 4 0 5 -15 3 -32 -11 -85
-8 -180 5 -185 7 -3 13 -15 13 -28 0 -12 8 -37 17 -56 10 -19 18 -43 19 -54 1
-11 11 -43 21 -71 19 -48 19 -52 3 -82 -10 -17 -22 -38 -28 -45 -11 -13 -14
-47 -11 -131 2 -39 -1 -50 -17 -59 -27 -15 -34 -28 -27 -54 3 -13 1 -23 -4
-23 -5 0 -8 -13 -5 -29 2 -16 -1 -32 -7 -35 -16 -10 -13 -32 6 -51 13 -13 14
-21 6 -34 -6 -10 -9 -29 -6 -44 4 -22 2 -27 -16 -27 -14 0 -21 -6 -21 -20 0
-11 -5 -20 -11 -20 -7 0 -9 -12 -6 -32 2 -18 1 -43 -4 -56 -6 -14 -5 -41 3
-69 9 -39 9 -50 -7 -78 -15 -29 -15 -38 -5 -71 7 -21 14 -65 16 -98 6 -136 16
-209 29 -223 16 -15 19 -9 -46 -104 -11 -16 -23 -47 -26 -67 -3 -20 -10 -42
-14 -48 -5 -6 -2 -20 7 -33 15 -21 15 -24 -9 -49 -32 -33 -45 -133 -22 -152 8
-7 13 -16 10 -20 -3 -5 -1 -11 5 -15 14 -8 13 -21 -3 -37 -7 -7 -19 -27 -26
-45 -8 -20 -18 -30 -26 -26 -13 5 -13 -22 0 -89 1 -9 -3 -19 -10 -22 -12 -4
-25 -51 -26 -90 0 -18 0 -18 -14 0 -14 18 -14 18 -16 -1 -1 -22 -4 -41 -14
-97 -6 -30 -4 -39 9 -44 13 -5 14 -10 5 -20 -7 -9 -8 -27 -1 -59 5 -25 6 -48
1 -51 -5 -2 -7 -17 -5 -32 1 -15 0 -56 -5 -90 -12 -110 -29 -102 217 -102
l214 0 0 6400 0 6400 -215 0 c-187 0 -215 -2 -215 -15z"/>
</g>
</svg>
