<?xml version="1.0" encoding="utf-8"?>
<!-- Generator: Adobe Illustrator 26.2.1, SVG Export Plug-In . SVG Version: 6.00 Build 0)  -->
<svg version="1.1" id="BEA_Logo" xmlns="http://www.w3.org/2000/svg" xmlns:xlink="http://www.w3.org/1999/xlink" x="0px" y="0px"
	 viewBox="0 0 267.84 132.26" style="enable-background:new 0 0 267.84 132.26;" xml:space="preserve">
<style type="text/css">
	.st0{fill:#FFFFFF;}
</style>
<g id="XMLID_1_">
	<g id="XMLID_1243_">
		<g id="XMLID_1248_">
			<path id="XMLID_1249_" class="st0" d="M203.15,64.95V63.9c0-21.31-11.95-34.03-31.97-34.03c-19.32,0-32.29,12.8-32.29,31.86
				c0,19.36,12.68,31.86,32.29,31.86c13.84,0,24.21-5.32,31.7-16.26c0.26-0.38,0.34-0.86,0.22-1.31c-0.12-0.45-0.44-0.81-0.86-1.01
				l-12.92-5.83c-0.99-0.45-2.25-0.05-2.75,0.92c-2.22,4.24-6.88,7.16-11.48,7.16c-6.31,0-10.78-3.74-11.68-9.52
				c-0.05-0.34,0.22-0.66,0.57-0.66h37.05C202.19,67.09,203.15,66.13,203.15,64.95z M163.62,56.51c-0.4,0-0.72-0.36-0.67-0.76
				c1.4-11.28,9.01-10.8,10.86-10.8c2.67,0,5.29,0.88,6.96,2.6c1.82,1.88,2.97,4.79,3.3,8.22c0.04,0.39-0.28,0.74-0.68,0.74H163.62z
				"/>
		</g>
		<g id="XMLID_1244_">
			<path id="XMLID_1245_" class="st0" d="M212.94,47.05c-0.71-0.15-1.12-0.87-0.93-1.56c3.28-11.87,15.19-15.46,26.79-15.46
				c22.3,0,27.11,8.15,27.11,17.66v32.27c0,1.71,0.16,6.79,1.51,10.18c0.32,0.82-0.25,1.71-1.13,1.71h-19.11
				c-0.57,0-1.06-0.38-1.2-0.94c-0.17-0.7-0.32-1.47-0.43-2.27c-0.13-0.93-1.2-1.37-1.95-0.81c-4.73,3.55-10.81,5.6-16.8,5.6
				c-5.83,0-17.96-3.06-17.96-17.78c0-16.15,17.91-21.17,35.16-21.5c0.67-0.01,1.21-0.55,1.21-1.22v-3.77c0-4.53-3.32-6-7.21-6
				c-4.85,0-6.88,2.4-8.15,6.32c-0.19,0.59-0.81,0.93-1.41,0.8L212.94,47.05z M245.09,65.75c0-0.75-0.66-1.33-1.4-1.22
				c-6.08,0.87-14.04,2.71-14.04,9.32c0,4.42,4.35,6.45,6.63,6.45c3.01,0,5.42-1.1,8.26-3.02c0.34-0.23,0.54-0.62,0.54-1.02V65.75z"
				/>
		</g>
	</g>
	<g id="XMLID_1747_">
		<path id="XMLID_1748_" class="st0" d="M74.1,132.26c-1.86,0-2.99-1.03-2.99-2.65v-5.56h1.34v5.49c0,0.98,0.54,1.58,1.67,1.58
			c1.15,0,1.65-0.6,1.65-1.58v-5.49h1.33v5.56C77.11,131.2,75.99,132.26,74.1,132.26z"/>
		<path id="XMLID_1750_" class="st0" d="M79.28,132.03v-1.4h1.19v1.4H79.28z"/>
		<path id="XMLID_1752_" class="st0" d="M85.5,132.26c-1.89,0-3.01-0.97-3.01-2.34v-0.43h1.31v0.18c0,1.03,0.79,1.45,1.79,1.45
			c0.95,0,1.4-0.53,1.4-1.21c0-1.77-4.39-1.03-4.39-3.72c0-1.28,1.04-2.38,2.82-2.38c1.81,0,2.94,1.06,2.94,2.34v0.35h-1.31v-0.18
			c0-0.77-0.59-1.37-1.64-1.37c-0.92,0-1.48,0.48-1.48,1.13c0,1.69,4.4,1.01,4.4,3.68C88.33,131.16,87.31,132.26,85.5,132.26z"/>
		<path id="XMLID_1754_" class="st0" d="M90.37,132.03v-1.4h1.19v1.4H90.37z"/>
		<path id="XMLID_1756_" class="st0" d="M100.61,132.03h-2.97v-7.99h2.97c1.99,0,3.01,1.22,3.01,2.73v2.52
			C103.63,130.8,102.61,132.03,100.61,132.03z M102.31,126.88c0-1.02-0.61-1.67-1.78-1.67h-1.57v5.64h1.57
			c1.16,0,1.78-0.65,1.78-1.65V126.88z"/>
		<path id="XMLID_1759_" class="st0" d="M106.1,132.03v-7.99h5.05v1.17h-3.73v2.09h2.76v1.1h-2.76v2.45h3.73v1.18H106.1z"/>
		<path id="XMLID_1761_" class="st0" d="M116.56,128.95h-1.77v3.08h-1.32v-7.99h3.09c1.77,0,2.48,0.91,2.48,2.17v0.59
			C119.05,128.05,118.34,128.95,116.56,128.95z M117.7,126.19c0-0.61-0.28-1.01-1.08-1.01h-1.83v2.66h1.86
			c0.79,0,1.06-0.42,1.06-1.03V126.19z"/>
		<path id="XMLID_1764_" class="st0" d="M125.44,132.03l-0.65-2.04h-2.71l-0.62,2.04h-1.33l2.66-7.99h1.32l2.7,7.99H125.44z
			 M123.41,125.72l-0.99,3.2h2.03L123.41,125.72z"/>
		<path id="XMLID_1767_" class="st0" d="M134.24,132.1c-0.9,0-1.21-0.36-1.22-1.22L133,129.7c-0.01-0.67-0.3-1.07-1.19-1.07h-1.74
			v3.39h-1.32v-7.99h3.09c1.79,0,2.48,0.83,2.48,2.03v0.4c0,0.89-0.35,1.47-1.41,1.67c1.05,0.11,1.41,0.82,1.41,1.57l0.01,1.08
			c0,0.31,0.11,0.48,0.42,0.58v0.74H134.24z M132.99,126.1c0-0.52-0.26-0.95-1.08-0.95h-1.83v2.51h1.76c0.77,0,1.15-0.4,1.15-1.07
			V126.1z"/>
		<path id="XMLID_1770_" class="st0" d="M139.96,125.22v6.81h-1.33v-6.81h-2.33v-1.17h5.98v1.17H139.96z"/>
		<path id="XMLID_1772_" class="st0" d="M151.1,132.03v-6.25l-0.4,1.3l-1.79,4.95h-1.13l-1.76-4.95l-0.4-1.3v6.25h-1.21v-7.99h1.84
			l1.75,5.13l0.38,1.28l0.37-1.28l1.73-5.13h1.84v7.99H151.1z"/>
		<path id="XMLID_1774_" class="st0" d="M155.01,132.03v-7.99h5.05v1.17h-3.73v2.09h2.76v1.1h-2.76v2.45h3.73v1.18H155.01z"/>
		<path id="XMLID_1776_" class="st0" d="M167.41,132.03l-3.02-4.34l-0.73-1.14v5.48h-1.27v-7.99h1.09l2.94,4.4l0.71,1.13v-5.53h1.27
			v7.99H167.41z"/>
		<path id="XMLID_1778_" class="st0" d="M174.18,125.22v6.81h-1.33v-6.81h-2.33v-1.17h5.98v1.17H174.18z"/>
		<path id="XMLID_1780_" class="st0" d="M185.19,132.26c-2.05,0-3.11-1.35-3.11-2.99v-2.47c0-1.64,1.06-2.99,3.11-2.99
			s3.09,1.34,3.09,2.99v2.47C188.28,130.9,187.24,132.26,185.19,132.26z M186.95,126.75c0-1.01-0.59-1.77-1.76-1.77
			c-1.18,0-1.76,0.77-1.76,1.77v2.57c0,1,0.59,1.78,1.76,1.78c1.17,0,1.76-0.78,1.76-1.78V126.75z"/>
		<path id="XMLID_1783_" class="st0" d="M192.08,125.2v2.3h2.78v1.13h-2.78v3.39h-1.32v-7.99h4.99v1.16H192.08z"/>
		<path id="XMLID_1785_" class="st0" d="M206.03,126.81v-0.44c0-0.88-0.56-1.39-1.54-1.39c-1.21,0-1.82,0.74-1.82,1.77v2.59
			c0,1.01,0.62,1.75,1.85,1.75c0.97,0,1.49-0.53,1.49-1.4v-0.44h1.31v0.55c0,1.34-1.04,2.46-2.84,2.46c-2.1,0-3.13-1.39-3.13-3
			v-2.42c0-1.62,1.07-3.02,3.15-3.02c1.76,0,2.84,1.1,2.84,2.45v0.55H206.03z"/>
		<path id="XMLID_1787_" class="st0" d="M212.53,132.26c-2.05,0-3.11-1.35-3.11-2.99v-2.47c0-1.64,1.06-2.99,3.11-2.99
			s3.09,1.34,3.09,2.99v2.47C215.62,130.9,214.58,132.26,212.53,132.26z M214.29,126.75c0-1.01-0.59-1.77-1.76-1.77
			c-1.18,0-1.76,0.77-1.76,1.77v2.57c0,1,0.59,1.78,1.76,1.78c1.17,0,1.76-0.78,1.76-1.78V126.75z"/>
		<path id="XMLID_1790_" class="st0" d="M224.54,132.03v-6.25l-0.4,1.3l-1.79,4.95h-1.13l-1.76-4.95l-0.4-1.3v6.25h-1.21v-7.99h1.84
			l1.75,5.13l0.38,1.28l0.37-1.28l1.73-5.13h1.84v7.99H224.54z"/>
		<path id="XMLID_1792_" class="st0" d="M235.13,132.03v-6.25l-0.4,1.3l-1.79,4.95h-1.13l-1.76-4.95l-0.4-1.3v6.25h-1.21v-7.99h1.84
			l1.75,5.13l0.38,1.28l0.37-1.28l1.73-5.13h1.84v7.99H235.13z"/>
		<path id="XMLID_1794_" class="st0" d="M238.81,132.03v-7.99h5.05v1.17h-3.73v2.09h2.76v1.1h-2.76v2.45h3.73v1.18H238.81z"/>
		<path id="XMLID_1796_" class="st0" d="M251.66,132.1c-0.9,0-1.21-0.36-1.22-1.22l-0.01-1.18c-0.01-0.67-0.3-1.07-1.19-1.07h-1.74
			v3.39h-1.32v-7.99h3.1c1.79,0,2.48,0.83,2.48,2.03v0.4c0,0.89-0.35,1.47-1.42,1.67c1.05,0.11,1.42,0.82,1.42,1.57l0.01,1.08
			c0,0.31,0.11,0.48,0.42,0.58v0.74H251.66z M250.41,126.1c0-0.52-0.26-0.95-1.08-0.95h-1.83v2.51h1.76c0.77,0,1.15-0.4,1.15-1.07
			V126.1z"/>
		<path id="XMLID_1799_" class="st0" d="M258.81,126.81v-0.44c0-0.88-0.56-1.39-1.54-1.39c-1.21,0-1.82,0.74-1.82,1.77v2.59
			c0,1.01,0.62,1.75,1.85,1.75c0.97,0,1.49-0.53,1.49-1.4v-0.44h1.31v0.55c0,1.34-1.04,2.46-2.84,2.46c-2.1,0-3.13-1.39-3.13-3
			v-2.42c0-1.62,1.07-3.02,3.15-3.02c1.76,0,2.84,1.1,2.84,2.45v0.55H258.81z"/>
		<path id="XMLID_1801_" class="st0" d="M262.41,132.03v-7.99h5.05v1.17h-3.73v2.09h2.76v1.1h-2.76v2.45h3.73v1.18H262.41z"/>
	</g>
	<g id="XMLID_1236_">
		<g id="XMLID_1692_">
			<path id="XMLID_1693_" class="st0" d="M0.01,102.96h5.97c1.52,0,2.72,0.42,3.48,1.18c0.59,0.59,0.89,1.31,0.89,2.21v0.04
				c0,1.6-0.91,2.45-1.9,2.97c1.56,0.53,2.64,1.43,2.64,3.23v0.04c0,2.38-1.96,3.65-4.92,3.65H0.01V102.96z M5.5,108.56
				c1.5,0,2.51-0.59,2.51-1.81v-0.04c0-1.05-0.84-1.69-2.34-1.69H2.31v3.54H5.5z M6.19,114.19c1.6,0,2.57-0.63,2.57-1.83v-0.04
				c0-1.12-0.89-1.79-2.74-1.79H2.31v3.65H6.19z"/>
			<path id="XMLID_1697_" class="st0" d="M12.85,112.61v-6.39h2.3v5.7c0,1.56,0.78,2.45,2.15,2.45c1.33,0,2.26-0.93,2.26-2.49v-5.67
				h2.3v10.04h-2.3v-1.56c-0.65,0.95-1.58,1.77-3.14,1.77C14.17,116.47,12.85,114.95,12.85,112.61z"/>
			<path id="XMLID_1699_" class="st0" d="M24.58,106.23h2.3v2.26c0.63-1.5,1.79-2.53,3.55-2.45v2.43H30.3
				c-2.02,0-3.42,1.31-3.42,3.97v3.82h-2.3V106.23z"/>
			<path id="XMLID_1701_" class="st0" d="M31.73,111.28v-0.04c0-2.87,2.04-5.23,4.91-5.23c3.19,0,4.81,2.51,4.81,5.4
				c0,0.21-0.02,0.42-0.04,0.65h-7.38c0.25,1.64,1.41,2.55,2.89,2.55c1.12,0,1.92-0.42,2.72-1.2l1.35,1.2
				c-0.95,1.14-2.26,1.88-4.11,1.88C33.97,116.49,31.73,114.38,31.73,111.28z M39.16,110.54c-0.15-1.48-1.03-2.64-2.55-2.64
				c-1.41,0-2.4,1.08-2.61,2.64H39.16z"/>
			<path id="XMLID_1704_" class="st0" d="M50.16,116.26v-1.24c-0.68,0.82-1.73,1.44-3.25,1.44c-1.9,0-3.57-1.08-3.57-3.1v-0.04
				c0-2.22,1.73-3.29,4.07-3.29c1.22,0,2,0.17,2.78,0.42v-0.19c0-1.39-0.88-2.15-2.47-2.15c-1.12,0-1.96,0.25-2.87,0.63l-0.63-1.84
				c1.1-0.49,2.19-0.84,3.82-0.84c2.97,0,4.41,1.56,4.41,4.24v5.95H50.16z M50.22,112.06c-0.59-0.23-1.41-0.4-2.3-0.4
				c-1.45,0-2.3,0.59-2.3,1.56v0.04c0,0.95,0.86,1.48,1.94,1.48c1.52,0,2.66-0.86,2.66-2.11V112.06z"/>
			<path id="XMLID_1707_" class="st0" d="M54.95,112.61v-6.39h2.3v5.7c0,1.56,0.78,2.45,2.15,2.45c1.33,0,2.26-0.93,2.26-2.49v-5.67
				h2.3v10.04h-2.3v-1.56c-0.65,0.95-1.58,1.77-3.14,1.77C56.26,116.47,54.95,114.95,54.95,112.61z"/>
			<path id="XMLID_1709_" class="st0" d="M94.01,102.96h9.87v2.09h-7.53v3.46h6.67v2.09h-6.67v3.57h7.62v2.09h-9.96V102.96z"/>
			<path id="XMLID_1711_" class="st0" d="M106,111.3v-0.04c0-2.85,2.21-5.25,5.21-5.25c1.9,0,3.08,0.7,4.01,1.73l-1.43,1.54
				c-0.7-0.74-1.44-1.25-2.6-1.25c-1.67,0-2.89,1.45-2.89,3.19v0.04c0,1.79,1.24,3.23,3,3.23c1.08,0,1.88-0.51,2.61-1.25l1.39,1.37
				c-0.99,1.1-2.15,1.88-4.11,1.88C108.2,116.49,106,114.15,106,111.3z"/>
			<path id="XMLID_1713_" class="st0" d="M116.83,111.3v-0.04c0-2.87,2.28-5.25,5.36-5.25s5.34,2.34,5.34,5.21v0.04
				c0,2.85-2.28,5.23-5.38,5.23C119.1,116.49,116.83,114.15,116.83,111.3z M125.24,111.3v-0.04c0-1.77-1.27-3.23-3.08-3.23
				c-1.84,0-3.02,1.45-3.02,3.19v0.04c0,1.75,1.27,3.23,3.06,3.23C124.06,114.5,125.24,113.03,125.24,111.3z"/>
			<path id="XMLID_1716_" class="st0" d="M129.76,106.23h2.3v1.56c0.65-0.95,1.58-1.77,3.14-1.77c2.26,0,3.57,1.52,3.57,3.86v6.39
				h-2.3v-5.7c0-1.56-0.78-2.45-2.15-2.45c-1.33,0-2.26,0.93-2.26,2.49v5.67h-2.3V106.23z"/>
			<path id="XMLID_1718_" class="st0" d="M140.88,111.3v-0.04c0-2.87,2.28-5.25,5.36-5.25s5.34,2.34,5.34,5.21v0.04
				c0,2.85-2.28,5.23-5.38,5.23C143.14,116.49,140.88,114.15,140.88,111.3z M149.28,111.3v-0.04c0-1.77-1.27-3.23-3.08-3.23
				c-1.84,0-3.02,1.45-3.02,3.19v0.04c0,1.75,1.27,3.23,3.06,3.23C148.1,114.5,149.28,113.03,149.28,111.3z"/>
			<path id="XMLID_1721_" class="st0" d="M153.42,106.23h2.3v1.52c0.65-0.89,1.52-1.73,3.06-1.73c1.45,0,2.45,0.7,2.98,1.77
				c0.82-1.06,1.88-1.77,3.4-1.77c2.19,0,3.52,1.39,3.52,3.84v6.41h-2.3v-5.7c0-1.6-0.74-2.45-2.04-2.45
				c-1.25,0-2.15,0.87-2.15,2.49v5.67h-2.3v-5.72c0-1.56-0.76-2.43-2.03-2.43s-2.15,0.95-2.15,2.51v5.65h-2.3V106.23z"/>
			<path id="XMLID_1723_" class="st0" d="M171.4,102.5h2.47v2.19h-2.47V102.5z M171.5,106.23h2.3v10.04h-2.3V106.23z"/>
			<path id="XMLID_1726_" class="st0" d="M176.13,111.3v-0.04c0-2.85,2.21-5.25,5.21-5.25c1.9,0,3.08,0.7,4.01,1.73l-1.43,1.54
				c-0.7-0.74-1.45-1.25-2.61-1.25c-1.67,0-2.89,1.45-2.89,3.19v0.04c0,1.79,1.23,3.23,3,3.23c1.08,0,1.88-0.51,2.6-1.25l1.39,1.37
				c-0.99,1.1-2.15,1.88-4.11,1.88C178.34,116.49,176.13,114.15,176.13,111.3z"/>
			<path id="XMLID_1728_" class="st0" d="M197.99,102.86h2.17l5.86,13.4h-2.47l-1.35-3.21h-6.29l-1.37,3.21h-2.39L197.99,102.86z
				 M201.34,110.98l-2.3-5.32l-2.28,5.32H201.34z"/>
			<path id="XMLID_1731_" class="st0" d="M207.53,106.23h2.3v1.56c0.65-0.95,1.58-1.77,3.14-1.77c2.26,0,3.57,1.52,3.57,3.86v6.39
				h-2.3v-5.7c0-1.56-0.78-2.45-2.15-2.45c-1.33,0-2.26,0.93-2.26,2.49v5.67h-2.3V106.23z"/>
			<path id="XMLID_1733_" class="st0" d="M225.34,116.26v-1.24c-0.68,0.82-1.73,1.44-3.25,1.44c-1.9,0-3.57-1.08-3.57-3.1v-0.04
				c0-2.22,1.73-3.29,4.07-3.29c1.22,0,2,0.17,2.78,0.42v-0.19c0-1.39-0.88-2.15-2.47-2.15c-1.12,0-1.96,0.25-2.87,0.63l-0.63-1.84
				c1.1-0.49,2.19-0.84,3.82-0.84c2.97,0,4.41,1.56,4.41,4.24v5.95H225.34z M225.4,112.06c-0.59-0.23-1.41-0.4-2.3-0.4
				c-1.45,0-2.3,0.59-2.3,1.56v0.04c0,0.95,0.86,1.48,1.94,1.48c1.52,0,2.66-0.86,2.66-2.11V112.06z"/>
			<path id="XMLID_1736_" class="st0" d="M230.38,102.39h2.3v13.88h-2.3V102.39z"/>
			<path id="XMLID_1738_" class="st0" d="M234.86,118.75l0.78-1.71c0.42,0.23,0.87,0.38,1.35,0.38c0.65,0,1.04-0.29,1.43-1.16
				l-4.18-10.04h2.45l2.85,7.45l2.61-7.45h2.39l-3.99,10.32c-0.8,2.05-1.69,2.81-3.31,2.81
				C236.27,119.36,235.57,119.14,234.86,118.75z"/>
			<path id="XMLID_1740_" class="st0" d="M244.82,114.95l1.03-1.56c1.08,0.82,2.26,1.24,3.29,1.24c0.99,0,1.56-0.42,1.56-1.08v-0.04
				c0-0.78-1.06-1.05-2.24-1.41c-1.48-0.42-3.14-1.03-3.14-2.95v-0.04c0-1.9,1.58-3.06,3.57-3.06c1.25,0,2.62,0.44,3.69,1.14
				l-0.91,1.64c-0.97-0.59-2-0.95-2.83-0.95c-0.89,0-1.41,0.42-1.41,1.01v0.04c0,0.72,1.08,1.03,2.26,1.41
				c1.46,0.46,3.12,1.12,3.12,2.93v0.04c0,2.11-1.63,3.16-3.73,3.16C247.66,116.45,246.08,115.94,244.82,114.95z"/>
			<path id="XMLID_1742_" class="st0" d="M255.07,102.5h2.47v2.19h-2.47V102.5z M255.16,106.23h2.3v10.04h-2.3V106.23z"/>
			<path id="XMLID_1745_" class="st0" d="M259.53,114.95l1.03-1.56c1.08,0.82,2.26,1.24,3.29,1.24c0.99,0,1.56-0.42,1.56-1.08v-0.04
				c0-0.78-1.06-1.05-2.24-1.41c-1.48-0.42-3.14-1.03-3.14-2.95v-0.04c0-1.9,1.58-3.06,3.57-3.06c1.25,0,2.62,0.44,3.69,1.14
				l-0.91,1.64c-0.97-0.59-2-0.95-2.83-0.95c-0.89,0-1.41,0.42-1.41,1.01v0.04c0,0.72,1.08,1.03,2.26,1.41
				c1.46,0.46,3.12,1.12,3.12,2.93v0.04c0,2.11-1.63,3.16-3.73,3.16C262.37,116.45,260.79,115.94,259.53,114.95z"/>
		</g>
		<g id="XMLID_1686_">
			<path id="XMLID_1687_" class="st0" d="M71.12,112.35v-0.03c0-2.26,1.8-4.14,4.23-4.14s4.21,1.84,4.21,4.11v0.03
				c0,2.25-1.8,4.12-4.24,4.12C72.9,116.44,71.12,114.6,71.12,112.35z M77.75,112.35v-0.03c0-1.39-1-2.55-2.43-2.55
				c-1.46,0-2.39,1.14-2.39,2.52v0.03c0,1.38,1,2.55,2.42,2.55C76.82,114.87,77.75,113.71,77.75,112.35z"/>
			<path id="XMLID_1690_" class="st0" d="M81.71,109.9h-1v-1.52h1v-0.57c0-0.89,0.22-1.54,0.64-1.96c0.42-0.42,1.01-0.63,1.79-0.63
				c0.63,0,1.07,0.09,1.47,0.21v1.53c-0.36-0.12-0.67-0.19-1.06-0.19c-0.69,0-1.05,0.38-1.05,1.2v0.44h2.1v1.5h-2.07v6.36h-1.81
				V109.9z"/>
		</g>
	</g>
	<g id="XMLID_229_">
		<rect id="XMLID_481_" x="0" y="126.68" class="st0" width="64" height="3.49"/>
	</g>
	<path id="XMLID_245_" class="st0" d="M128.13,40.14c-4.22-6.67-10.63-10.19-18.53-10.19c-6.18,0-11.14,1.83-14.79,5.45
		c0,0,0-32.92,0-33.29c0-1.24-0.9-1.77-1.59-1.49S71.14,9.41,71.14,9.41V92c0,0.42,0.16,0.83,0.46,1.13c0.3,0.3,0.7,0.47,1.12,0.47
		h0.89c0.17,0,0.35-0.03,0.51-0.09l19.27-6.64c0.37-0.13,0.66-0.38,0.85-0.69c4.33,4.81,10.43,7.42,17.57,7.42
		c8.08,0,21.63-4.23,21.63-32.59C133.45,52.98,131.56,45.57,128.13,40.14z M104.44,78.55c-2.26,0.95-4.26,0.86-5.93-0.26
		c-2.22-1.48-3.71-4.78-3.71-8.22V49.21c2.46-2.43,4.47-3.43,6.82-3.43c3.77,0,7.26,2,7.26,16.58
		C108.89,74.65,108.76,76.74,104.44,78.55z"/>
	<g id="XMLID_1014_">
		<polygon id="XMLID_1053_" class="st0" points="9.2,69.69 5.46,74.36 13.83,73.1 		"/>
		<polygon id="XMLID_1052_" class="st0" points="23.33,73.78 21.07,77.07 21.07,93.52 41.42,93.52 41.42,71.13 		"/>
		<polygon id="XMLID_1051_" class="st0" points="43.43,93.52 64,93.52 64,67.93 43.43,70.84 		"/>
		<polygon id="XMLID_1050_" class="st0" points="16.1,74.77 3.68,76.57 0,81.15 0,93.52 19.06,93.52 19.06,76.94 		"/>
		<polygon id="XMLID_1049_" class="st0" points="64,38.35 64,24.28 58.63,39.81 		"/>
		<polygon id="XMLID_1048_" class="st0" points="41.42,47.4 24.96,71.39 41.42,69.1 		"/>
		<polygon id="XMLID_1047_" class="st0" points="51.39,60.74 43.43,48.75 43.43,68.81 64,65.89 64,40.44 57.83,42.12 		"/>
		<polygon id="XMLID_1027_" class="st0" points="21.07,50.08 36.23,45.92 41.02,38.53 41.42,37.86 41.42,21.25 21.07,29.37 		"/>
		<polygon id="XMLID_1019_" class="st0" points="19.06,70.75 19.06,52.72 0,57.82 0,73.67 8.33,62.82 		"/>
		<polygon id="XMLID_1018_" class="st0" points="43.43,39.78 45.77,43.31 53.02,41.34 62.75,12.83 62.78,12.73 43.43,20.45 		"/>
		<polygon id="XMLID_1017_" class="st0" points="50.12,49.85 52.24,43.64 46.95,45.08 		"/>
		<polygon id="XMLID_1016_" class="st0" points="21.07,69.28 34.58,48.46 21.07,52.17 		"/>
		<polygon id="XMLID_1015_" class="st0" points="19.06,30.17 0,37.77 0,55.9 19.06,50.63 		"/>
	</g>
</g>
</svg>
